<?xml version="1.0" encoding="UTF-8"?>
<!DOCTYPE svg PUBLIC "-//W3C//DTD SVG 1.1//EN" "http://www.w3.org/Graphics/SVG/1.1/DTD/svg11.dtd">
<!-- Creator: CorelDRAW 2017 -->
<svg xmlns="http://www.w3.org/2000/svg" xml:space="preserve" width="2.0318mm" height="2.0318mm" version="1.1" style="shape-rendering:geometricPrecision; text-rendering:geometricPrecision; image-rendering:optimizeQuality; fill-rule:evenodd; clip-rule:evenodd"
viewBox="0 0 203.18 203.18"
 xmlns:xlink="http://www.w3.org/1999/xlink">
 <defs>
  <style type="text/css">
   <![CDATA[
    .fil0 {fill:none}
    .fil1 {fill:#373435}
   ]]>
  </style>
 </defs>
 <g id="Capa_x0020_1">
  <metadata id="CorelCorpID_0Corel-Layer"/>
  <rect class="fil0" x="-0" y="-0" width="203.19" height="203.19"/>
  <path class="fil1" d="M79.4 100.98l66.27 -83.66c7.2,-9.51 -8.49,-15.83 -10.82,-15.6 -5.13,0.51 -68,82.98 -74.85,91.75 -8.64,11 -5.3,8.86 12.59,32.01l52.54 66.73c1.75,2.19 4.11,5.67 6.08,7.44 3.24,2.91 6.4,1.97 9.46,-0.37 8.03,-6.13 9.31,-7.86 3.31,-15.62l-41.2 -52.27c-4.05,-4.78 -7.84,-9.65 -11.69,-14.74 -2.02,-2.67 -3.84,-5.08 -5.87,-7.67 -2.3,-2.94 -4.56,-4.66 -5.82,-8z"/>
 </g>
</svg>
