<?xml version="1.0" encoding="UTF-8"?>
<!DOCTYPE svg PUBLIC "-//W3C//DTD SVG 1.1//EN" "http://www.w3.org/Graphics/SVG/1.1/DTD/svg11.dtd">
<!-- Creator: CorelDRAW 2017 -->
<svg xmlns="http://www.w3.org/2000/svg" xml:space="preserve" width="2.0318mm" height="2.0318mm" version="1.1" style="shape-rendering:geometricPrecision; text-rendering:geometricPrecision; image-rendering:optimizeQuality; fill-rule:evenodd; clip-rule:evenodd"
viewBox="0 0 203.18 203.18"
 xmlns:xlink="http://www.w3.org/1999/xlink">
 <defs>
  <style type="text/css">
   <![CDATA[
    .fil0 {fill:none}
    .fil1 {fill:#373435}
   ]]>
  </style>
 </defs>
 <g id="Capa_x0020_1">
  <metadata id="CorelCorpID_0Corel-Layer"/>
  <rect class="fil0" x="-0" y="-0" width="203.19" height="203.19"/>
  <path class="fil1" d="M38.74 109.25l0 54.14c-0.05,17.12 16.39,14.55 29.89,14.56l10.39 0 -0.01 -46.72c0.02,-9.22 -0.4,-7.69 18.04,-7.69l23.62 0.02c4.46,0.42 3.57,3.05 3.58,9.28l0.03 45.06c8.22,0.09 29.32,1.38 34.65,-2.48 6.93,-5.03 5.59,-13.44 5.6,-22.75l0 -42.88c0,-3.59 -2.25,-4.2 -6.47,-7.41l-56 -44.03c-3.05,1.22 -28.65,22.11 -32.21,24.78 -5.59,4.19 -10.48,8.15 -15.97,12.43 -2.6,2.04 -5.39,4.1 -8.14,6.34 -4.75,3.88 -7,4.08 -7,7.35z"/>
  <path class="fil1" d="M102.11 44.92l69.56 55.11c7.91,5.98 13.16,-7.06 12.97,-9 -0.49,-5.04 -25.19,-20.09 -26.58,-23.41 -0.84,-2.03 -0.26,-13.15 -0.3,-16.26 -0.05,-4.59 1.43,-12.43 -2.7,-14.05 -1.63,-0.64 -13.61,-0.42 -16.23,-0.38 -7.94,0.15 -5.41,4.48 -6.21,10.87l-24.27 -19.01c-9.14,-7.18 -7.37,-4.41 -26.62,10.47l-55.49 43.69c-1.82,1.46 -4.71,3.42 -6.19,5.06 -2.42,2.69 -1.63,5.32 0.31,7.86 5.1,6.68 6.54,7.75 12.99,2.75l43.47 -34.25c3.97,-3.38 8.02,-6.52 12.25,-9.72 2.23,-1.68 4.23,-3.2 6.38,-4.89 2.44,-1.91 3.87,-3.78 6.66,-4.84z"/>
 </g>
</svg>
