<?xml version="1.0" encoding="UTF-8"?>
<!DOCTYPE svg PUBLIC "-//W3C//DTD SVG 1.1//EN" "http://www.w3.org/Graphics/SVG/1.1/DTD/svg11.dtd">
<!-- Creator: CorelDRAW 2017 -->
<svg xmlns="http://www.w3.org/2000/svg" xml:space="preserve" width="4.4872mm" height="2.2012mm" version="1.1" style="shape-rendering:geometricPrecision; text-rendering:geometricPrecision; image-rendering:optimizeQuality; fill-rule:evenodd; clip-rule:evenodd"
viewBox="0 0 448.72 220.12"
 xmlns:xlink="http://www.w3.org/1999/xlink">
 <defs>
  <style type="text/css">
   <![CDATA[
    .fil1 {fill:#FEFEFE}
    .fil0 {fill:#373435}
   ]]>
  </style>
 </defs>
 <g id="Capa_x0020_1">
  <metadata id="CorelCorpID_0Corel-Layer"/>
  <rect class="fil0" x="1.62" y="-0.02" width="445.49" height="220.13" rx="34.58" ry="32.2"/>
  <g id="_2202494766768">
   <path class="fil1" d="M240.66 14.36l6.1 -0.52 -0.06 70.4c-2.32,-0.9 -4.4,-0.99 -6.13,0.08l0.09 -69.96z"/>
   <path class="fil1" d="M221.78 158.64c19.45,18.23 43.85,3.82 45.69,-0.96l-11.39 0.05c-2.05,0.1 -3.41,0.02 -5.58,0.12 -6.75,0.29 -16.66,-0.03 -23.1,0.29 -2.09,0.11 -4.83,-0.16 -5.62,0.5z"/>
   <path class="fil1" d="M248.25 187.78c-3.92,-0.57 -2.93,3.39 -2.98,9.86 -0.07,7.73 -1.14,10.65 2.95,9.98 1.38,-2.08 0.81,-6.85 0.84,-9.95 0.02,-3.33 0.58,-8.12 -0.81,-9.89z"/>
   <path class="fil1" d="M274.71 192.35c0.55,0.98 4.58,10.4 6.69,6.03 0.76,-1.56 -3.62,-8.18 -4.58,-9.88 -3.55,-6.33 -3.74,-8.18 -6.84,-6.48 -0.39,2.23 0.98,3.87 1.99,5.56 0.94,1.59 1.88,3.2 2.74,4.77z"/>
   <path class="fil1" d="M305.57 173.49c-0.29,-1.41 -7.6,-5.14 -9.12,-6.07 -1.34,-0.82 -5.94,-4.1 -7.45,-3.59 -0.76,0.25 -1.45,1.07 -1.24,2.27 0.2,1.09 7.2,4.77 9.1,5.9 1.38,0.82 9.79,6.71 8.71,1.49z"/>
   <path class="fil1" d="M224.36 184.2c1.35,-2.5 -1.03,-4.46 -2.85,-2.6l-8.3 14c-1.48,2.83 1.32,4.17 2.84,2.52l5.67 -9.45c0.93,-1.46 1.87,-3.07 2.64,-4.47z"/>
   <path class="fil1" d="M205.95 163.07c-1.74,-0.08 -16.17,8.04 -16.58,9.11 -0.45,1.18 0.09,2.24 1.11,2.49 1.39,0.35 8.24,-3.95 9.86,-4.84 6.57,-3.63 8.39,-4.02 5.61,-6.76z"/>
   <path class="fil1" d="M226.37 109.63c8.61,-1.07 7.3,-1.67 17.47,-1.8 6.54,-0.08 11.18,0.75 17.35,1.3 -0.06,-7.52 -0.15,-11.32 -4.05,-16.27 -2.44,-3.11 -7.52,-6.31 -13.6,-6.24 -6.14,0.08 -10.74,3.13 -13.48,6.56 -3.59,4.48 -3.85,9.22 -3.69,16.45z"/>
   <path class="fil1" d="M227.72 111.63c-0.55,1.59 -2.57,1.51 -6.88,5.06 -4.39,3.62 -8.19,7.91 -11.45,12.73 -4.36,6.46 -10.66,20.32 -11.18,26.54 3.11,0.55 8.26,-0.15 11.75,-0.04 1.97,0.07 3.86,-0.14 5.84,-0.07l69.8 -1.21c1.82,0.07 3.67,-0.04 5.42,-0.19 -4.58,-15.85 -12.5,-32.36 -31.02,-42.86 -0.1,-0.12 -0.18,-0.31 -0.24,-0.53 -11.89,-1.32 -20.18,-1.29 -32.04,0.57z"/>
   <path class="fil1" d="M327.66 195.97c-5.25,3.39 -9.97,10.51 -10.22,16.51l100.41 0c0.02,-4.16 -3.38,-10.39 -6.21,-13.14 -7.72,-7.51 -12.29,-5.85 -25.79,-5.85 -10.4,0 -51.3,-1.98 -58.19,2.48z"/>
   <path class="fil1" d="M416.31 150.13c1.55,5.47 4.04,7.25 9.14,4.99 5,-2.22 5.84,-5.53 2.33,-10.2l-11.47 5.21z"/>
   <path class="fil1" d="M387.5 56.72c-19.45,-18.23 -43.85,-3.82 -45.7,0.96l11.4 -0.05c2.05,-0.1 3.41,-0.02 5.57,-0.12 6.76,-0.29 16.67,0.03 23.11,-0.3 2.08,-0.1 4.83,0.17 5.62,-0.49z"/>
   <path class="fil1" d="M361.02 27.57c3.93,0.58 2.94,-3.38 2.99,-9.85 0.07,-7.73 1.13,-10.65 -2.95,-9.99 -1.38,2.09 -0.81,6.86 -0.84,9.96 -0.02,3.33 -0.58,8.11 0.8,9.88z"/>
   <path class="fil1" d="M334.56 23.01c-0.54,-0.98 -4.58,-10.4 -6.68,-6.03 -0.76,1.56 3.62,8.18 4.58,9.88 3.55,6.33 3.74,8.18 6.84,6.48 0.39,-2.24 -0.99,-3.87 -1.99,-5.56 -0.94,-1.59 -1.88,-3.21 -2.75,-4.77z"/>
   <path class="fil1" d="M303.71 41.87c0.29,1.41 7.6,5.14 9.11,6.07 1.35,0.82 5.95,4.09 7.46,3.59 0.76,-0.25 1.45,-1.07 1.24,-2.27 -0.2,-1.09 -7.2,-4.77 -9.1,-5.9 -1.38,-0.82 -9.8,-6.71 -8.71,-1.49z"/>
   <path class="fil1" d="M384.92 31.16c-1.35,2.49 1.03,4.46 2.85,2.59l8.3 -13.99c1.47,-2.83 -1.32,-4.17 -2.84,-2.52l-5.67 9.44c-0.93,1.47 -1.87,3.07 -2.64,4.48z"/>
   <path class="fil1" d="M403.32 52.29c1.75,0.08 16.18,-8.05 16.59,-9.11 0.45,-1.18 -0.09,-2.24 -1.11,-2.5 -1.39,-0.34 -8.24,3.95 -9.86,4.85 -6.57,3.62 -8.4,4.01 -5.62,6.76z"/>
   <path class="fil1" d="M382.9 105.72c-8.6,1.08 -7.3,1.68 -17.46,1.81 -6.54,0.08 -11.18,-0.75 -17.35,-1.3 0.06,7.52 0.15,11.32 4.04,16.27 2.45,3.11 7.53,6.31 13.6,6.24 6.14,-0.08 10.75,-3.13 13.49,-6.56 3.59,-4.48 3.85,-9.22 3.68,-16.46z"/>
   <path class="fil1" d="M381.56 103.73c0.55,-1.59 2.57,-1.51 6.87,-5.06 4.4,-3.62 8.2,-7.91 11.45,-12.74 4.36,-6.46 10.67,-20.31 11.18,-26.53 -3.1,-0.56 -8.25,0.15 -11.74,0.04 -1.97,-0.07 -3.86,0.14 -5.84,0.07l-69.8 1.21c-1.82,-0.07 -3.67,0.04 -5.42,0.19 4.57,15.85 12.5,32.36 31.01,42.85 0.11,0.13 0.19,0.32 0.25,0.54 11.89,1.31 20.18,1.29 32.04,-0.57z"/>
   <path class="fil1" d="M368.6 201.32l-6.1 0.52 0.05 -70.4c2.32,0.9 4.4,0.99 6.13,-0.08l-0.08 69.96z"/>
   <polygon class="fil1" points="396.68,86.95 393.45,88.4 393.96,89.72 418.38,143.6 422.22,152.12 425.54,150.72 "/>
   <path class="fil1" d="M29.1 114.71c6.4,-2.14 10.04,8.45 2.8,10.51 -6.41,1.81 -10.38,-7.96 -2.8,-10.51zm-8.97 0.45c-0.53,0.52 -0.13,-0.13 -0.62,0.88 -0.12,0.25 -0.31,0.95 -0.34,1.04 -0.26,1.07 -0.31,1.8 -0.37,2.89 -0.03,7.44 6.14,12.97 15.15,11.34l15.26 15.13c5.01,5.13 10.08,9.86 15.08,15.03l15.05 15.06c1.93,1.86 14.35,13.96 14.85,15.19 -7.68,0.01 -18.9,-1.14 -24.49,2.48 -5.25,3.39 -9.98,10.51 -10.22,16.51l100.41 0c0.01,-4.16 -3.39,-10.39 -6.22,-13.14 -7.72,-7.51 -12.29,-5.85 -25.78,-5.85 -3.51,0 -23.65,0.47 -25.07,-0.32 -0.32,-0.18 -2.79,-2.7 -3.25,-3.18l-53.98 -53.94c-1.96,-2.01 -4.54,-4.08 -6.12,-6.29 1.09,-2.39 2.7,-3.49 2.85,-7.52 0.14,-3.93 -1.18,-5.42 -2.47,-7.89 5.07,-5.56 10.44,-10.44 15.46,-15.58l31.16 -31.21c3.23,-3.19 8.78,-8.98 12.75,-12.87 -1.37,-1.69 -2.53,-3.31 -3.45,-4.96 -0.49,0.47 -0.99,0.93 -1.47,1.41l-12.13 12.13c-2.81,2.7 -4.86,5.12 -7.86,7.9 -2.86,2.64 -4.77,4.84 -7.91,7.86l-31.73 31.64c-5.26,-0.96 -4.92,-0.97 -9.67,0.7 -0.55,0.29 -0.52,0.16 -1.2,0.72 -0.94,0.79 -0.42,0.31 -0.86,1.06 -0.55,0.26 -0.4,0.12 -0.99,0.65 -0.45,0.4 -0.56,0.57 -0.86,0.95 -0.71,0.9 -0.84,1.03 -0.96,2.18zm85.56 -61.06c0.62,1.57 -0.95,2.83 -1.88,8.33 -0.95,5.62 -1,11.35 -0.29,17.12 0.94,7.74 5.26,22.33 8.95,27.37 2.71,-1.61 6.13,-5.52 8.84,-7.73 1.54,-1.24 2.83,-2.64 4.37,-3.88l51.91 -46.68c1.42,-1.14 2.74,-2.43 3.97,-3.69 -13.85,-8.97 -30.66,-16.25 -51.52,-12.03 -0.16,-0.03 -0.34,-0.11 -0.53,-0.25 -9.85,6.81 -16.09,12.26 -23.82,21.44z"/>
   <path class="fil1" d="M132.03 93.49c26.63,1.02 35.6,-25.86 33.86,-30.68l-8.57 7.51c-1.48,1.42 -2.56,2.25 -4.13,3.74 -4.9,4.66 -12.6,10.91 -17.25,15.38 -1.5,1.44 -3.76,3.04 -3.91,4.05z"/>
   <path class="fil1" d="M135.23 190.54c0.85,-5.62 -0.68,-8.27 -6.26,-8.31 -5.46,-0.05 -7.6,2.62 -6.32,8.33l12.58 -0.02z"/>
   <path class="fil1" d="M171.12 98.14c-3.34,2.14 0.01,4.48 4.21,9.4 5.02,5.88 6.12,8.79 8.77,5.61 -0.32,-2.48 -3.88,-5.71 -5.89,-8.06 -2.17,-2.54 -4.88,-6.52 -7.09,-6.95z"/>
   <path class="fil1" d="M194.1 84.24c1.04,0.39 10.27,4.85 9,0.17 -0.46,-1.67 -8.1,-3.8 -9.94,-4.46 -6.83,-2.45 -8.18,-3.72 -9.42,-0.4 1.18,1.94 3.29,2.28 5.15,2.89 1.76,0.58 3.52,1.19 5.21,1.8z"/>
   <path class="fil1" d="M205.02 49.77c-1.14,-0.87 -9.1,1.1 -10.85,1.39 -1.56,0.27 -7.18,0.81 -7.99,2.18 -0.41,0.69 -0.39,1.76 0.55,2.52 0.87,0.7 8.57,-1.11 10.75,-1.5 1.58,-0.29 11.79,-1.36 7.54,-4.59z"/>
   <path class="fil1" d="M150.73 111.11c-0.62,-2.78 -3.7,-2.7 -3.85,-0.1l2.9 16.01c0.74,3.1 3.74,2.28 3.8,0.04l-1.91 -10.85c-0.26,-1.71 -0.6,-3.54 -0.94,-5.1z"/>
   <path class="fil1" d="M122.98 107.21c-1.37,1.09 -6.94,16.69 -6.55,17.76 0.43,1.18 1.54,1.63 2.47,1.15 1.28,-0.64 3.63,-8.38 4.27,-10.12 2.59,-7.05 3.71,-8.54 -0.19,-8.79z"/>
   <path class="fil1" d="M103.36 53.48c5.8,-6.45 4.41,-6.06 12,-12.82 4.89,-4.35 8.94,-6.75 13.96,-10.38 -4.97,-5.65 -7.54,-8.46 -13.72,-9.64 -3.89,-0.74 -9.82,0.17 -14.36,4.21 -4.59,4.08 -6.06,9.4 -5.88,13.79 0.22,5.73 3.13,9.49 8,14.84z"/>
   <path class="fil1" d="M105.69 54.1c0.62,1.57 -0.95,2.83 -1.88,8.33 -0.95,5.62 -1,11.35 -0.29,17.12 0.94,7.74 5.26,22.33 8.95,27.37 2.71,-1.61 6.13,-5.52 8.84,-7.73 1.54,-1.24 2.83,-2.64 4.37,-3.88l51.91 -46.68c1.42,-1.14 2.74,-2.43 3.97,-3.69 -13.85,-8.97 -30.66,-16.25 -51.52,-12.03 -0.16,-0.03 -0.34,-0.11 -0.53,-0.25 -9.85,6.81 -16.09,12.26 -23.82,21.44z"/>
  </g>
 </g>
</svg>
