<?xml version="1.0" encoding="UTF-8"?>
<!DOCTYPE svg PUBLIC "-//W3C//DTD SVG 1.1//EN" "http://www.w3.org/Graphics/SVG/1.1/DTD/svg11.dtd">
<!-- Creator: CorelDRAW 2017 -->
<svg xmlns="http://www.w3.org/2000/svg" xml:space="preserve" width="2.7092mm" height="2.7092mm" version="1.1" style="shape-rendering:geometricPrecision; text-rendering:geometricPrecision; image-rendering:optimizeQuality; fill-rule:evenodd; clip-rule:evenodd"
viewBox="0 0 270.92 270.92"
 xmlns:xlink="http://www.w3.org/1999/xlink">
 <defs>
  <style type="text/css">
   <![CDATA[
    .fil0 {fill:#373435}
   ]]>
  </style>
 </defs>
 <g id="Capa_x0020_1">
  <metadata id="CorelCorpID_0Corel-Layer"/>
  <g id="_2202494768336">
   <path class="fil0" d="M129.92 1.76l11.42 -0.27 -0.1 36.87c-4.35,-0.47 -8.24,-0.52 -11.48,0.04l0.16 -36.64z"/>
   <path class="fil0" d="M94.58 177.55c36.41,34.13 82.09,7.14 85.55,-1.81l-21.34 0.09c-3.84,0.19 -6.38,0.05 -10.43,0.23 -12.65,0.55 -31.21,-0.06 -43.27,0.56 -3.9,0.19 -9.04,-0.31 -10.51,0.93z"/>
   <g>
    <path class="fil0" d="M136.99 232.11c-7.34,-1.08 -5.48,6.34 -5.59,18.46 -0.12,14.47 -2.12,19.93 5.52,18.69 2.59,-3.9 1.53,-12.84 1.57,-18.63 0.06,-6.25 1.1,-15.21 -1.5,-18.52z"/>
    <path class="fil0" d="M186.54 240.67c1.01,1.82 8.57,19.46 12.51,11.29 1.42,-2.93 -6.78,-15.32 -8.57,-18.52 -6.64,-11.84 -7,-15.3 -12.81,-12.13 -0.72,4.19 1.84,7.26 3.72,10.42 1.77,2.98 3.52,6 5.15,8.94z"/>
    <path class="fil0" d="M244.3 205.34c-0.54,-2.64 -14.22,-9.62 -17.06,-11.36 -2.52,-1.53 -11.13,-7.67 -13.95,-6.72 -1.43,0.47 -2.71,2.01 -2.32,4.24 0.36,2.05 13.47,8.94 17.03,11.06 2.59,1.53 18.34,12.56 16.3,2.78z"/>
    <path class="fil0" d="M92.25 225.4c2.54,-4.67 -1.92,-8.35 -5.33,-4.86l-15.55 26.21c-2.75,5.29 2.49,7.8 5.32,4.7l10.62 -17.67c1.74,-2.75 3.51,-5.75 4.94,-8.38z"/>
    <path class="fil0" d="M57.8 185.83c-3.27,-0.14 -30.29,15.07 -31.06,17.07 -0.84,2.2 0.18,4.19 2.08,4.66 2.6,0.66 15.43,-7.39 18.46,-9.06 12.31,-6.79 15.72,-7.52 10.52,-12.67z"/>
   </g>
   <path class="fil0" d="M103.18 85.79c16.11,-2.01 13.67,-3.14 32.7,-3.38 12.24,-0.16 20.92,1.41 32.48,2.44 -0.11,-14.09 -0.28,-21.21 -7.57,-30.47 -4.58,-5.81 -14.09,-11.82 -25.46,-11.68 -11.5,0.14 -20.12,5.86 -25.26,12.28 -6.71,8.39 -7.21,17.26 -6.89,30.81z"/>
   <path class="fil0" d="M105.7 89.53c-1.04,2.97 -4.81,2.83 -12.88,9.47 -8.23,6.77 -15.34,14.81 -21.43,23.84 -8.17,12.1 -19.97,38.03 -20.94,49.68 5.81,1.04 15.45,-0.28 21.99,-0.06 3.7,0.12 7.23,-0.27 10.94,-0.13l130.69 -2.27c3.41,0.13 6.86,-0.08 10.14,-0.36 -8.56,-29.68 -23.39,-60.59 -58.07,-80.24 -0.2,-0.24 -0.34,-0.58 -0.45,-1.01 -22.27,-2.45 -37.79,-2.41 -59.99,1.08z"/>
  </g>
 </g>
</svg>
