<?xml version="1.0" encoding="UTF-8"?>
<!DOCTYPE svg PUBLIC "-//W3C//DTD SVG 1.1//EN" "http://www.w3.org/Graphics/SVG/1.1/DTD/svg11.dtd">
<!-- Creator: CorelDRAW 2017 -->
<svg xmlns="http://www.w3.org/2000/svg" xml:space="preserve" width="4.4872mm" height="2.2012mm" version="1.1" style="shape-rendering:geometricPrecision; text-rendering:geometricPrecision; image-rendering:optimizeQuality; fill-rule:evenodd; clip-rule:evenodd"
viewBox="0 0 448.72 220.12"
 xmlns:xlink="http://www.w3.org/1999/xlink">
 <defs>
  <style type="text/css">
   <![CDATA[
    .fil0 {fill:#373435}
   ]]>
  </style>
 </defs>
 <g id="Capa_x0020_1">
  <metadata id="CorelCorpID_0Corel-Layer"/>
  <g id="_2202497448816">
   <path class="fil0" d="M242.03 6.32l6.61 -0.56 -0.05 76.31c-2.52,-0.97 -4.77,-1.08 -6.65,0.09l0.09 -75.84z"/>
   <path class="fil0" d="M221.57 162.72c21.08,19.76 47.53,4.13 49.53,-1.05l-12.36 0.06c-2.22,0.1 -3.69,0.02 -6.04,0.13 -7.32,0.32 -18.06,-0.04 -25.04,0.32 -2.26,0.11 -5.24,-0.18 -6.09,0.54z"/>
   <path class="fil0" d="M250.27 194.31c-4.25,-0.62 -3.18,3.67 -3.24,10.68 -0.07,8.38 -1.23,11.55 3.19,10.83 1.5,-2.26 0.89,-7.43 0.91,-10.79 0.03,-3.62 0.64,-8.8 -0.86,-10.72z"/>
   <path class="fil0" d="M278.95 199.26c0.58,1.06 4.96,11.27 7.25,6.54 0.82,-1.7 -3.93,-8.87 -4.97,-10.72 -3.84,-6.86 -4.05,-8.86 -7.42,-7.02 -0.41,2.42 1.07,4.2 2.16,6.03 1.03,1.72 2.04,3.47 2.98,5.17z"/>
   <path class="fil0" d="M312.39 178.81c-0.31,-1.53 -8.23,-5.57 -9.88,-6.58 -1.45,-0.88 -6.44,-4.43 -8.07,-3.89 -0.83,0.28 -1.57,1.17 -1.35,2.46 0.21,1.19 7.8,5.18 9.87,6.4 1.49,0.89 10.61,7.28 9.43,1.61z"/>
   <path class="fil0" d="M224.36 190.42c1.47,-2.7 -1.11,-4.83 -3.08,-2.81l-9.01 15.17c-1.59,3.07 1.44,4.52 3.08,2.73l6.15 -10.23c1.01,-1.59 2.03,-3.33 2.86,-4.86z"/>
   <path class="fil0" d="M204.41 167.52c-1.89,-0.08 -17.53,8.72 -17.98,9.88 -0.48,1.27 0.11,2.42 1.21,2.7 1.5,0.38 8.93,-4.28 10.68,-5.25 7.13,-3.93 9.11,-4.36 6.09,-7.33z"/>
   <path class="fil0" d="M226.55 109.6c9.33,-1.17 7.91,-1.82 18.93,-1.96 7.09,-0.09 12.12,0.81 18.81,1.41 -0.07,-8.15 -0.16,-12.28 -4.39,-17.64 -2.65,-3.37 -8.15,-6.84 -14.74,-6.76 -6.66,0.08 -11.64,3.39 -14.62,7.11 -3.89,4.85 -4.17,9.99 -3.99,17.84z"/>
   <path class="fil0" d="M228.01 111.76c-0.6,1.72 -2.79,1.64 -7.46,5.48 -4.76,3.92 -8.88,8.58 -12.41,13.81 -4.72,7 -11.56,22.02 -12.12,28.76 3.37,0.6 8.95,-0.16 12.73,-0.04 2.14,0.07 4.19,-0.15 6.34,-0.07l75.66 -1.32c1.97,0.08 3.97,-0.04 5.87,-0.2 -4.96,-17.19 -13.54,-35.08 -33.62,-46.46 -0.11,-0.14 -0.2,-0.34 -0.26,-0.58 -12.89,-1.42 -21.88,-1.4 -34.73,0.62z"/>
   <path class="fil0" d="M336.34 203.18c-5.68,3.68 -10.81,11.39 -11.08,17.9l108.85 0c0.01,-4.51 -3.67,-11.26 -6.74,-14.24 -8.37,-8.14 -13.32,-6.34 -27.95,-6.34 -11.27,0 -55.61,-2.16 -63.08,2.68z"/>
   <path class="fil0" d="M432.44 153.49c1.68,5.93 4.38,7.86 9.91,5.41 5.41,-2.4 6.33,-5.99 2.52,-11.05l-12.43 5.64z"/>
   <path class="fil0" d="M401.2 52.23c-21.08,-19.76 -47.52,-4.13 -49.53,1.05l12.36 -0.05c2.22,-0.11 3.69,-0.03 6.04,-0.13 7.32,-0.33 18.07,0.03 25.05,-0.33 2.25,-0.11 5.23,0.18 6.08,-0.54z"/>
   <path class="fil0" d="M372.51 20.64c4.25,0.63 3.18,-3.66 3.24,-10.68 0.07,-8.38 1.22,-11.54 -3.2,-10.82 -1.5,2.25 -0.88,7.43 -0.91,10.78 -0.03,3.62 -0.63,8.81 0.87,10.72z"/>
   <path class="fil0" d="M343.82 15.69c-0.58,-1.05 -4.96,-11.27 -7.24,-6.54 -0.82,1.7 3.93,8.87 4.96,10.72 3.85,6.86 4.05,8.87 7.42,7.03 0.42,-2.43 -1.07,-4.21 -2.16,-6.03 -1.02,-1.73 -2.03,-3.48 -2.98,-5.18z"/>
   <path class="fil0" d="M310.38 36.14c0.32,1.53 8.24,5.58 9.88,6.58 1.46,0.89 6.44,4.44 8.08,3.89 0.82,-0.27 1.57,-1.16 1.34,-2.46 -0.21,-1.18 -7.8,-5.17 -9.86,-6.4 -1.5,-0.88 -10.62,-7.27 -9.44,-1.61z"/>
   <path class="fil0" d="M398.41 24.53c-1.47,2.7 1.11,4.84 3.09,2.81l9 -15.17c1.6,-3.06 -1.44,-4.52 -3.08,-2.72l-6.15 10.23c-1.01,1.59 -2.03,3.33 -2.86,4.85z"/>
   <path class="fil0" d="M418.36 47.44c1.89,0.08 17.53,-8.73 17.98,-9.88 0.49,-1.28 -0.1,-2.43 -1.21,-2.7 -1.5,-0.38 -8.93,4.28 -10.68,5.24 -7.13,3.94 -9.1,4.36 -6.09,7.34z"/>
   <path class="fil0" d="M396.22 105.36c-9.32,1.16 -7.91,1.82 -18.93,1.96 -7.08,0.09 -12.11,-0.82 -18.8,-1.42 0.06,8.16 0.16,12.28 4.38,17.64 2.65,3.37 8.16,6.84 14.74,6.76 6.66,-0.08 11.65,-3.39 14.62,-7.11 3.89,-4.85 4.18,-9.99 3.99,-17.83z"/>
   <path class="fil0" d="M394.76 103.2c0.61,-1.73 2.79,-1.65 7.46,-5.49 4.77,-3.92 8.88,-8.57 12.41,-13.8 4.73,-7.01 11.56,-22.02 12.12,-28.77 -3.36,-0.6 -8.94,0.17 -12.73,0.04 -2.14,-0.07 -4.19,0.16 -6.33,0.08l-75.66 1.31c-1.98,-0.07 -3.98,0.04 -5.88,0.21 4.96,17.18 13.55,35.08 33.62,46.45 0.12,0.14 0.2,0.34 0.26,0.59 12.9,1.42 21.89,1.39 34.73,-0.62z"/>
   <path class="fil0" d="M380.72 208.98l-6.62 0.56 0.06 -76.31c2.52,0.98 4.77,1.08 6.65,-0.08l-0.09 75.83z"/>
   <polygon class="fil0" points="411.16,85.01 407.66,86.58 408.21,88.01 434.68,146.41 438.85,155.65 442.45,154.13 "/>
   <path class="fil0" d="M12.71 115.1c6.93,-2.32 10.88,9.16 3.03,11.39 -6.95,1.97 -11.25,-8.63 -3.03,-11.39zm-9.73 0.48c-0.57,0.57 -0.14,-0.13 -0.67,0.96 -0.13,0.27 -0.34,1.03 -0.37,1.13 -0.28,1.16 -0.34,1.95 -0.4,3.13 -0.03,8.06 6.66,14.06 16.43,12.3l16.53 16.39c5.43,5.57 10.93,10.7 16.35,16.29l16.32 16.33c2.08,2.02 15.55,15.14 16.1,16.47 -8.34,0.01 -20.5,-1.24 -26.56,2.68 -5.68,3.68 -10.81,11.4 -11.07,17.9l108.84 0c0.01,-4.51 -3.67,-11.26 -6.74,-14.24 -8.37,-8.14 -13.32,-6.34 -27.95,-6.34 -3.8,0 -25.63,0.51 -27.17,-0.35 -0.35,-0.2 -3.03,-2.92 -3.53,-3.45l-58.51 -58.47c-2.12,-2.18 -4.92,-4.42 -6.63,-6.81 1.18,-2.6 2.93,-3.79 3.08,-8.16 0.15,-4.25 -1.27,-5.87 -2.67,-8.55 5.49,-6.03 11.31,-11.32 16.76,-16.89l33.77 -33.83c3.51,-3.46 9.53,-9.73 13.83,-13.95 -1.5,-1.84 -2.75,-3.59 -3.75,-5.37 -0.53,0.5 -1.06,1 -1.59,1.53l-13.14 13.13c-3.06,2.93 -5.28,5.56 -8.53,8.57 -3.09,2.86 -5.17,5.25 -8.57,8.52l-34.39 34.3c-5.71,-1.05 -5.34,-1.05 -10.49,0.76 -0.6,0.31 -0.56,0.17 -1.3,0.78 -1.02,0.85 -0.45,0.34 -0.93,1.14 -0.6,0.29 -0.43,0.14 -1.08,0.72 -0.48,0.43 -0.61,0.61 -0.93,1.02 -0.77,0.98 -0.91,1.12 -1.04,2.36zm92.75 -66.18c0.67,1.7 -1.03,3.06 -2.04,9.03 -1.03,6.08 -1.08,12.3 -0.32,18.56 1.02,8.39 5.71,24.2 9.71,29.66 2.93,-1.75 6.65,-5.98 9.58,-8.37 1.67,-1.35 3.07,-2.86 4.74,-4.21l56.27 -50.6c1.54,-1.24 2.97,-2.64 4.3,-4.01 -15.01,-9.72 -33.23,-17.6 -55.85,-13.03 -0.17,-0.03 -0.37,-0.13 -0.57,-0.27 -10.67,7.38 -17.45,13.29 -25.82,23.24z"/>
   <path class="fil0" d="M124.28 92.1c28.87,1.1 38.59,-28.04 36.71,-33.26l-9.29 8.14c-1.61,1.54 -2.78,2.44 -4.48,4.06 -5.32,5.04 -13.66,11.82 -18.7,16.66 -1.63,1.57 -4.07,3.3 -4.24,4.4z"/>
   <path class="fil0" d="M127.75 197.3c0.92,-6.09 -0.74,-8.97 -6.79,-9.01 -5.92,-0.05 -8.24,2.84 -6.85,9.03l13.64 -0.02z"/>
   <path class="fil0" d="M166.66 97.14c-3.62,2.32 0,4.85 4.56,10.19 5.43,6.37 6.64,9.52 9.5,6.08 -0.34,-2.69 -4.2,-6.19 -6.38,-8.74 -2.35,-2.76 -5.29,-7.07 -7.68,-7.53z"/>
   <path class="fil0" d="M191.56 82.07c1.13,0.42 11.14,5.26 9.76,0.19 -0.5,-1.82 -8.78,-4.12 -10.78,-4.84 -7.4,-2.66 -8.87,-4.03 -10.21,-0.44 1.28,2.11 3.57,2.47 5.59,3.14 1.9,0.63 3.81,1.29 5.64,1.95z"/>
   <path class="fil0" d="M203.41 44.7c-1.25,-0.94 -9.88,1.2 -11.78,1.52 -1.68,0.28 -7.77,0.87 -8.65,2.35 -0.44,0.75 -0.42,1.91 0.6,2.74 0.94,0.76 9.28,-1.21 11.64,-1.64 1.72,-0.31 12.79,-1.46 8.19,-4.97z"/>
   <path class="fil0" d="M144.55 111.19c-0.67,-3 -4.01,-2.92 -4.18,-0.1l3.15 17.36c0.81,3.36 4.05,2.47 4.12,0.04l-2.07 -11.76c-0.28,-1.86 -0.65,-3.85 -1.02,-5.54z"/>
   <path class="fil0" d="M114.47 106.97c-1.49,1.18 -7.52,18.08 -7.1,19.25 0.47,1.28 1.66,1.76 2.68,1.25 1.38,-0.7 3.94,-9.09 4.63,-10.97 2.8,-7.64 4.01,-9.26 -0.21,-9.53z"/>
   <path class="fil0" d="M93.21 48.72c6.28,-6.99 4.78,-6.56 13.01,-13.89 5.29,-4.71 9.68,-7.32 15.12,-11.26 -5.39,-6.12 -8.17,-9.16 -14.87,-10.44 -4.21,-0.81 -10.65,0.18 -15.57,4.56 -4.97,4.42 -6.56,10.19 -6.37,14.95 0.24,6.21 3.4,10.28 8.68,16.08z"/>
   <path class="fil0" d="M95.73 49.4c0.67,1.7 -1.03,3.06 -2.04,9.03 -1.03,6.08 -1.08,12.3 -0.32,18.56 1.02,8.39 5.71,24.2 9.71,29.66 2.93,-1.75 6.65,-5.98 9.58,-8.37 1.67,-1.35 3.07,-2.86 4.74,-4.21l56.27 -50.6c1.54,-1.24 2.97,-2.64 4.3,-4.01 -15.01,-9.72 -33.23,-17.6 -55.85,-13.03 -0.17,-0.03 -0.37,-0.13 -0.57,-0.27 -10.67,7.38 -17.45,13.29 -25.82,23.24z"/>
  </g>
 </g>
</svg>
