<?xml version="1.0" encoding="UTF-8"?>
<!DOCTYPE svg PUBLIC "-//W3C//DTD SVG 1.1//EN" "http://www.w3.org/Graphics/SVG/1.1/DTD/svg11.dtd">
<!-- Creator: CorelDRAW 2017 -->
<svg xmlns="http://www.w3.org/2000/svg" xml:space="preserve" width="2.0318mm" height="2.0318mm" version="1.1" style="shape-rendering:geometricPrecision; text-rendering:geometricPrecision; image-rendering:optimizeQuality; fill-rule:evenodd; clip-rule:evenodd"
viewBox="0 0 203.18 203.18"
 xmlns:xlink="http://www.w3.org/1999/xlink">
 <defs>
  <style type="text/css">
   <![CDATA[
    .fil0 {fill:none}
    .fil1 {fill:#373435}
   ]]>
  </style>
 </defs>
 <g id="Capa_x0020_1">
  <metadata id="CorelCorpID_0Corel-Layer"/>
  <rect class="fil0" x="-0" y="-0" width="203.19" height="203.19"/>
  <path class="fil1" d="M64.91 77.43c-4.45,2.25 -5.39,7.44 -1.35,10.49 2.93,2.23 10.79,1.29 14.57,1.29 14.01,0 96.25,0.46 98.33,-0.35 4.24,-1.64 5.27,-8.45 1.57,-11 -3.2,-2.21 -42.62,-1.16 -48.01,-1.16 -8.08,0 -62.19,-0.74 -65.11,0.73zm-3.27 -34.37c-2.1,1.6 -0.8,3.88 0.33,5.5 4.48,4.61 21.3,2.61 28.09,2.61l77.12 0c6.12,0 8.24,1.38 12.64,-2.98 1.04,-6.2 -0.42,-9.17 -6.99,-9.35 -23.91,-0.67 -57.78,0.07 -82.77,0.07 -5.38,0 -10.76,0.01 -16.13,0.01 -4.62,0 -10.65,-1.02 -12.29,4.14zm-38.22 85.46c1.27,6.13 15.41,5.49 20.29,4.31 4.02,-0.98 4.51,-4.56 4.62,-8.32 0.31,-11.66 0.85,-15.98 -8.75,-16.17 -2.64,-0.06 -9.56,-0.29 -11.83,0.21 -3.52,0.79 -4.78,5.45 -5.01,10.27l0 3.77c0.11,2.37 0.39,4.52 0.68,5.93zm21.03 17.81c-4.89,-0.46 -18.83,-2.14 -20.86,3.57 -0.4,1.14 -0.71,2.92 -0.85,4.99l0 5.3c0.33,4.76 1.6,9.4 4.4,10.44 2.06,0.75 9.78,0.45 12.44,0.45 10.34,-0.03 8.86,-6.17 8.65,-16.42 -0.09,-4.51 -0.56,-5.51 -3.78,-8.33zm-16.34 -75.49c-3.62,0.71 -5.02,4.86 -5.37,9.38l0 5.33c0.14,2.07 0.41,3.95 0.69,5.31 1.38,6.79 17.41,4.8 20.31,4.19 4.02,-0.84 4.38,-3.89 4.56,-7.68 0.12,-2.66 0.27,-10.25 -0.4,-12.54 -1.7,-5.87 -14.99,-4.96 -19.79,-3.99zm-1.31 -37.63c-2.66,1.18 -3.83,5.86 -4.06,10.64l0 3.91c0.13,2.59 0.49,4.91 1,6.36 2.1,6 20.62,3.03 21.11,2.8 5.78,-2.67 3.1,-20.03 2.67,-21.02 -2.02,-4.59 -16.58,-4.51 -20.72,-2.69zm34.77 127.76c2.01,4.79 8.75,3.7 13.06,3.74l81.34 0.01c13.33,0 27.24,2.5 23.97,-8.63 -1.4,-4.75 -9.42,-3.49 -13.45,-3.55l-81.34 -0.1c-5.64,0 -28.39,-2.94 -23.58,8.53zm118.23 -37.04c1.22,-7.32 -0.6,-9.22 -7.7,-9.35l-97.47 -0.05c-4.61,0.01 -10.42,-1.16 -12.89,3.48 -1.47,2.75 -1.33,8.55 7.27,8.78 5.35,0.15 10.78,0.12 16.14,0.12l81.34 0c6.64,0 8.34,1.4 13.31,-2.98z"/>
 </g>
</svg>
