<?xml version="1.0" encoding="UTF-8"?>
<!DOCTYPE svg PUBLIC "-//W3C//DTD SVG 1.1//EN" "http://www.w3.org/Graphics/SVG/1.1/DTD/svg11.dtd">
<!-- Creator: CorelDRAW 2017 -->
<svg xmlns="http://www.w3.org/2000/svg" xml:space="preserve" width="11.7686mm" height="12.4458mm" version="1.1" style="shape-rendering:geometricPrecision; text-rendering:geometricPrecision; image-rendering:optimizeQuality; fill-rule:evenodd; clip-rule:evenodd"
viewBox="0 0 1176.86 1244.58"
 xmlns:xlink="http://www.w3.org/1999/xlink">
 <defs>
  <style type="text/css">
   <![CDATA[
    .fil0 {fill:black}
    .fil2 {fill:#015C8B}
    .fil3 {fill:#070300}
    .fil1 {fill:#F27A23}
   ]]>
  </style>
 </defs>
 <g id="Capa_x0020_1">
  <metadata id="CorelCorpID_0Corel-Layer"/>
  <g id="_2673699792272">
   <circle class="fil0" cx="588.43" cy="655.56" r="587.54"/>
   <circle class="fil1" cx="588.43" cy="655.56" r="563.95"/>
   <circle class="fil0" cx="588.43" cy="655.56" r="524.51"/>
   <circle class="fil2" cx="588.43" cy="655.56" r="503.95"/>
   <path class="fil3" d="M447 954.5c1.36,10.83 -7.13,43.17 -16.75,51.58 -3.41,-35.66 -4.34,-96.23 2.2,-130.78l13.41 0.97 33.11 11.48c-3.46,9.97 -10.76,20.7 -16.16,31.63l-14.65 33.36c-0.17,-0.39 -0.73,1.2 -1.16,1.76zm-55.15 -927.87c5.92,17.49 0.12,95.84 1.19,122.36 0.03,6.53 0.26,13 0.54,19.47l1.29 -0.52c0.6,12.57 1.16,25.23 0.61,38.39 -0.53,12.6 -0.77,20.53 -8.93,25.85 -6.41,4.17 -18.27,8.34 -24.78,8.35l-9.72 6.81c-10,5.13 -18.66,7.82 -27.99,16.61l7.06 11.88c4.99,2.6 10.76,6.11 15.76,9.31 3.17,2.02 4.41,2.62 7.17,5.26 5.2,4.97 2.31,2.14 5.02,6.1 8.18,2.89 20.79,16.82 24.6,27.48 8.6,7.77 12.91,24.59 11.02,40.24 -2.2,18.32 -1.96,29.19 -2.98,48.3l-12.34 4.11c-0.47,0.48 -1.14,1.07 -1.49,1.38l-21.3 15.65c-2.13,5.47 -5.06,10.71 -6.79,18.27 -5.23,20.41 -10.01,59.44 -7.77,80.15l4.39 16.55 10.5 -1.71 10.04 -8.53c1.05,-1.36 0.48,-2.68 4.94,-6.61 3.51,-3.09 3.42,-0.88 6.66,-2.43l8.1 -6.74 4.65 3.2 0.54 32.72c-0.85,27.86 2.04,216.09 -3.44,224.43 -15.07,2.03 -15.49,1.33 -26.21,8.59 -0.87,12.83 4.97,49.84 10.1,60.96 7.56,6.97 22.45,43.22 17.14,65.35 -5.26,21.96 -2.19,55.35 -0.68,80.51l-1.71 90.7c-0.58,13.27 -1.03,26.9 -1.36,40.73 13.94,5.88 28.2,11.14 42.72,15.82l0.24 -8.75c0.61,-30.31 -4.52,-85.77 -1.26,-111.03 6.52,2.39 10.51,5.24 16.68,9.53 18.02,1.87 20.07,-18.85 22.16,9.74 1.16,15.78 -1.97,31.59 -2.06,47.23 16.48,13.08 28.32,16.98 52.39,19.56 2.24,38.6 6.28,10.94 25.89,56.79 15.44,1.37 31.07,2.11 46.87,2.11 45.66,0 89.94,-5.84 132.17,-16.81 -4.18,-8.15 -26.99,-42.47 -26.99,-49.11 0.01,-12.76 10.13,-19.9 0.17,-34.41 -8.76,-12.76 -11.88,-10.52 -9.25,-29.89 8.66,9.53 13.95,29.72 52.06,36.33l3.61 0.57c27.63,3.06 44.83,-2.12 65.31,-9.27 4.32,-3.93 14.56,-7.6 22.77,-10.18 11.57,-3.63 17.08,-6.13 24.97,-11.89 12.06,-8.8 23.51,-28.89 25.43,-48.33 4.11,-28.85 0.29,-53.28 -10.11,-79.61 -15.03,-38.06 -40.47,-39.13 -50.76,-46.02 -18.72,-1.99 -24.07,-0.69 -41.99,3.88 -21.86,2.77 -10.29,11.15 -14.98,30.42 5.15,2.93 5.16,5.09 12.42,7.51 5.86,1.96 11.78,2.03 17.56,2.15 22.68,1.8 32.79,10.61 40.6,24.44 3.98,7.04 6.56,13.72 8.34,24.06l-1.15 28.28 -5.12 9.92c-5.17,10.95 -15.76,21.38 -30.43,24.84 -6.34,5.79 -26.34,12.32 -37.73,13.5 -4.5,0.31 -9.9,1.11 -14.29,0.53 -5.29,-0.69 -3.1,-0.62 -6.73,-1.8l-4 -2.06c-9.58,-2.08 -15.84,-10.4 -18.96,-20.3l14.14 -7.06c4.2,-6.28 6.77,-10.42 6.24,-22.05 -7.87,-17.03 -17.66,-32.73 -24.69,-50.17 -3.77,-9.36 -5.26,-19.12 -8.63,-28.37 -4.09,-11.22 -9.69,-12.25 -16.01,-21.15 -16.71,-23.52 -1.56,-32.95 2.89,-57.52 4.96,-27.4 1.19,-18.06 10.02,-27.21 14.27,-14.78 5.49,-13.28 5.62,-21.1 4.61,-14.48 26.93,-2.76 9.16,-57.75 -7.73,-23.89 0.97,-44.88 -0.09,-71.21l-15.88 0.36 -18.44 0.66c-7.05,-6.82 -5.47,-29.35 -5.91,-40.09l0.62 -9.76 88.55 0.33 5.13 0.45c16.68,0.33 29.34,3.58 39.23,-5.88 -5.09,-13.25 -12.12,-9.2 -17.38,-19.26l10.84 0.81c5.4,-4.39 84.68,-12.81 97.02,-13.24l3.06 -3.58c0.23,-1.09 0.88,-1.45 1.53,-1.96l-4.78 -0.84c-26.29,-16.62 -25.46,-10.17 -44.47,-18.24 -7.91,-3.35 -2.87,-1.1 -5.96,-3.19l-37.82 -9.77c6.35,-7.8 6.36,-4.95 17.83,-7.12 7.09,-1.34 11.11,-2.64 18.39,-3.6l3.53 -1.72c0.52,-0.21 1.24,-0.54 1.83,-0.75l32.53 -5.42c3.59,-3.23 -2.85,-0.61 7.22,-4.22 8.12,-2.9 8.07,1.13 20.35,-6.53l-0.5 -10.22c-12.13,-9.33 -36.86,-5.67 -48.91,-17.88 -12.14,-0.8 -24.55,-6.04 -37.08,-9.07 -19.56,-4.73 -30.1,-0.88 -39.8,-9.73 18.7,0.26 38.49,3 47,-7.85 -2.49,-3.84 7.33,-3.33 -7.46,-2.93l-13.07 0.66 -20.61 1.1c-6.65,0.04 -11.51,0.78 -18.37,1.19 -15.91,0.95 -15.75,0.12 -17.91,-7.21l-1.57 -12.73c-2.62,-32.19 -7.7,-30.26 -14.71,-51.69l-18.22 -21.79c-26.79,-35.43 -42.82,-24.51 -71.34,-37.72 -5.49,-24.25 11.16,-31.56 4.08,-84.13l-6.35 -28.89c-3.64,-10.19 -5.58,-16.08 -12.42,-22.01 -3.16,27.73 7.72,42.65 9.25,69.46 1.15,16.08 4.69,35.81 -9.23,43.56l-14.11 -60.93c-11.16,-14.78 2.99,-23.2 -33.08,-52.81 -21.28,-17.46 -42.53,-18.83 -66.43,-19.33l0.18 13.36 13.55 33.88c6.01,6.5 8.71,19.11 10.52,28.67 4.47,13.12 7.69,38.48 7.17,53.92l-29.98 -22.04c-0.1,-0.61 -0.51,-0.79 -0.68,-1.23 -6.59,-3.09 -2.95,-0.55 -8.72,-5.64 -1.53,-1.35 -4.14,-4.49 -5.91,-6.39 -4.57,-4.92 -8.15,-8.02 -10.69,-12.55 -4.32,-2.63 -1.76,-0.87 -5.19,-3.46l-5.42 -4.75c-0.25,-0.24 -1.01,-0.5 -1.18,-1.25 -0.18,-0.75 -0.8,-0.83 -1.18,-1.25 -23.28,-7.45 -26.3,-9.77 -55.75,-9.09l-0.31 -77.31 -0.92 0.29 -0.02 -6.36c-0.13,-20.36 -1.81,-85.65 2.63,-100.64 -4.23,-7.07 -3.11,-16.03 -5.45,-23.4 -2.1,-6.58 -6.55,-11.51 -11.29,-12.91 -7.7,-2.28 -16.34,0.54 -19.72,4.48 -3.55,4.14 -3.62,9.4 -5.3,15.63l-1.55 4.22zm145.56 628.33c12.2,2.74 7.09,8.84 29.04,7.26l17.51 -3.33c-2.36,18.07 -6.39,21.55 -23.92,25.36l-23.27 19.7c-12.66,25.95 -40.24,53.25 -48.1,88.4 -14.25,-2.24 -27.4,-5.02 -33.16,-15.49 -8.54,-0.97 -17.44,-6.34 -24.06,-11.68 -3.34,-45.01 -1.29,-97.37 -0.18,-142.88 0.56,-23.02 0.44,-48.87 -0.96,-71.75 -2.18,-35.61 -6.31,-52.69 14.93,-54.68 1.51,10.57 0.19,25.91 3.14,34.55 3.1,9.08 9.97,11.22 16.61,16.46 18.81,7.17 29.17,7.19 32.42,28.41 -9.64,8.24 -13.43,5.47 -9.59,24.2 2.33,11.35 5.91,16.5 12.12,22.46l28.62 23.28c5.67,4.62 4.68,3.39 8.85,9.73z"/>
  </g>
 </g>
</svg>
