<?xml version="1.0" encoding="UTF-8"?>
<!DOCTYPE svg PUBLIC "-//W3C//DTD SVG 1.1//EN" "http://www.w3.org/Graphics/SVG/1.1/DTD/svg11.dtd">
<!-- Creator: CorelDRAW 2017 -->
<svg xmlns="http://www.w3.org/2000/svg" xml:space="preserve" width="22.9446mm" height="6.6886mm" version="1.1" style="shape-rendering:geometricPrecision; text-rendering:geometricPrecision; image-rendering:optimizeQuality; fill-rule:evenodd; clip-rule:evenodd"
viewBox="0 0 2294.46 668.86"
 xmlns:xlink="http://www.w3.org/1999/xlink">
 <defs>
  <style type="text/css">
   <![CDATA[
    .fil0 {fill:#D2D3D5}
   ]]>
  </style>
 </defs>
 <g id="Capa_x0020_1">
  <metadata id="CorelCorpID_0Corel-Layer"/>
  <g id="_2069819035120">
   <path class="fil0" d="M177.43 553.89c-63.86,27.91 -25.02,124.81 40.88,99.41 6.87,-2.68 13.35,-7.23 16.64,-10.43 45.01,-44.87 -5.33,-111.75 -57.52,-88.86l0 -0.12z"/>
   <path class="fil0" d="M99.62 391.28c-35.87,-55.01 -61.5,-79.72 -83.99,-169.12 -53.54,-212.75 50.8,-322.97 138.82,-93.39 31.66,82.55 28.75,125.1 28,216.5l31.97 -1.67c8.54,-72.78 38.38,-156.99 74.62,-196.35 29.75,-32.35 140.58,-86.35 208.56,-51.72 43.19,22.06 28.46,59.97 -6.77,80.18 -89.64,51.26 -78.42,59.88 -130.61,136.08 -22.8,33.33 -40.97,42.13 -64.98,70.41 12.19,25.72 52.64,61.5 31.8,130.29 -66.6,-25.31 -120.6,-43.19 -201.3,-15.25 -13.44,4.64 -19.38,8.85 -30.36,12.89 -58.5,22.05 -15.8,-97.2 4.21,-118.93l0.03 0.08z"/>
   <path class="fil0" d="M568.07 615.91l-57.2 -79.95 -59.14 79.95 -82.4 0 100.31 -131.27 -96.88 -129.37 84.86 0 55.24 76.06 56.68 -76.06 80.38 0 -96.87 127.47 100.76 133.26 -85.74 0 0 -0.09zm98.4 -260.64l75.6 0 0 260.67 -75.6 -0.03 0 -260.67 0 0.03zm37.83 -36.33c-13.9,0 -25.17,-4.03 -33.88,-12.13 -8.71,-8.11 -13.12,-18.08 -13.12,-30.05 0,-11.96 4.36,-21.97 13.12,-30.04 8.71,-8.01 19.98,-12.14 33.88,-12.14 13.89,0 25.17,3.9 33.93,11.59 8.71,7.79 13.03,17.48 13.03,29.07 0,12.6 -4.35,23.03 -13.03,31.19 -8.68,8.16 -20.06,12.37 -33.93,12.37l0 0.14zm83.93 36.33l75.59 0 0 260.67 -75.59 -0.03 0 -260.67 0 0.03zm37.74 -36.33c-13.9,0 -25.17,-4.03 -33.94,-12.13 -8.76,-8.11 -13.03,-18.08 -13.03,-30.05 0,-11.96 4.35,-21.97 13.03,-30.04 8.77,-8.01 20.07,-12.14 33.94,-12.14 13.86,0 25.17,3.9 33.87,11.59 8.77,7.79 13.12,17.48 13.12,29.07 0,12.6 -4.35,23.03 -13.12,31.19 -8.76,8.16 -19.98,12.37 -33.87,12.37l0 0.14zm237.94 32.44c24.25,0 46.31,5.56 66.14,16.69 19.84,11.13 35.47,26.85 46.77,47 11.3,20.21 16.92,43.71 16.92,70.49 0,26.79 -5.65,50.34 -16.92,70.49 -11.3,20.22 -26.93,35.87 -46.77,47 -19.83,11.13 -41.89,16.69 -66.14,16.69 -35.86,0 -63.17,-11.3 -81.85,-33.93l0 30.04 -72.25 0 0 -359.53 75.59 0 0 126.49c19.06,-20.99 45.24,-31.52 78.51,-31.52l0 0.09zm-13.06 206.4c19.38,0 35.32,-6.57 47.69,-19.6 12.37,-13.03 18.68,-30.59 18.68,-52.56 0,-21.88 -6.17,-39.53 -18.68,-52.56 -12.51,-13.03 -28.37,-19.61 -47.69,-19.61 -19.37,0 -35.32,6.58 -47.74,19.61 -12.43,13.03 -18.69,30.59 -18.69,52.56 0,21.97 6.26,39.53 18.69,52.56 12.42,13.03 28.37,19.6 47.74,19.6zm300.48 1.47c13.58,0 25.64,-1.98 36.16,-6.02 10.52,-4.04 20.3,-10.44 29.29,-19.15l40.19 43.63c-24.56,28.08 -60.34,42.18 -107.57,42.18 -29.38,0 -55.38,-5.71 -78.04,-17.24 -22.67,-11.54 -40.05,-27.39 -52.33,-47.75 -12.29,-20.3 -18.4,-43.39 -18.4,-69.25 0,-25.49 6.03,-48.53 18.17,-69.02 12.13,-20.5 28.74,-36.53 49.87,-47.98 21.22,-11.53 45.01,-17.24 71.48,-17.24 24.88,0 47.45,5.27 67.81,15.8 20.35,10.52 36.53,25.63 48.75,45.55 12.14,19.92 18.17,43.39 18.17,70.49l-192.86 37.31c5.51,12.89 14.19,22.66 25.95,29.06 11.76,6.41 26.24,9.69 43.34,9.69l0.02 -0.06zm-11.12 -150.67c-19.06,0 -34.57,6.11 -46.45,18.4 -11.88,12.28 -18.22,29.29 -18.92,50.88l126.95 -24.71c-3.58,-13.57 -10.84,-24.42 -21.83,-32.4 -10.98,-7.99 -24.24,-12.14 -39.73,-12.14l-0.02 -0.03zm233.65 -18.91c9.08,-12.6 21.22,-22.12 36.52,-28.6 15.31,-6.49 33.05,-9.69 53.11,-9.69l0 69.8c-8.39,-0.69 -14.04,-0.98 -16.92,-0.98 -21.65,0 -38.61,6.11 -50.89,18.16 -12.28,12.06 -18.39,30.28 -18.39,54.55l0 123.06 -75.6 -0.06 0 -260.67 72.25 0.03 0 34.4 -0.08 0z"/>
   <path class="fil0" d="M1675.4 636.75c8.3,0 14.96,6.72 14.96,14.97 0,8.24 -6.71,15.02 -14.96,15.02 -8.3,0 -15.02,-6.72 -15.02,-15.02 0,-8.31 6.72,-14.97 15.02,-14.97z"/>
   <path class="fil0" d="M1831.09 637.73c8.25,0 14.96,6.72 14.96,15.03 0,8.3 -6.71,14.96 -14.96,14.96 -8.3,0 -15.02,-6.72 -15.02,-14.96 0,-8.25 6.72,-15.03 15.02,-15.03z"/>
   <path class="fil0" d="M1755.12 636.75c8.24,0 14.96,6.72 14.96,14.97 0,8.24 -6.72,15.02 -14.96,15.02 -8.3,0 -15.02,-6.72 -15.02,-15.02 0,-8.31 6.72,-14.97 15.02,-14.97z"/>
   <path class="fil0" d="M1712.94 636.61c8.24,0 14.96,6.72 14.96,15.02 0,8.3 -6.72,14.96 -14.96,14.96 -8.3,0 -15.02,-6.71 -15.02,-14.96 0,-8.25 6.72,-15.02 15.02,-15.02z"/>
   <path class="fil0" d="M1868.63 637.68c8.3,0 15.02,6.71 15.02,15.02 0,8.3 -6.72,14.96 -15.02,14.96 -8.25,0 -14.96,-6.72 -14.96,-14.96 0,-8.25 6.71,-15.02 14.96,-15.02z"/>
   <path class="fil0" d="M1792.63 636.61c8.24,0 14.96,6.72 14.96,15.02 0,8.3 -6.72,14.96 -14.96,14.96 -8.3,0 -15.02,-6.71 -15.02,-14.96 0,-8.25 6.72,-15.02 15.02,-15.02z"/>
   <path class="fil0" d="M688.76 228.56c-60.26,21.22 -31.34,112.35 30.59,93.67 6.49,-1.99 12.65,-5.65 15.86,-8.48 44.25,-37.91 2.73,-102.52 -46.54,-85.19l0.09 0z"/>
   <path class="fil0" d="M808.44 228.56c-60.26,21.22 -31.34,112.3 30.59,93.58 6.48,-1.98 12.65,-5.65 15.85,-8.47 44.26,-37.92 2.74,-102.53 -46.53,-85.2l0.09 0.09z"/>
   <path class="fil0" d="M1716.97 611.81c-3.34,3.06 -7.4,5.28 -12.28,6.87 -4.87,1.58 -9.92,2.36 -15.25,2.36 -12.37,0 -21.82,-3.34 -28.46,-10 -6.63,-6.66 -10,-16.09 -10,-28.32l0 -123.11 17.79 0 0 28.75 39.73 0.03 0 14.96 -39.73 -0.03 0 78.51c0,7.78 1.9,13.72 5.71,17.85 3.8,4.12 9.45,6.11 16.69,6.11 8.02,0 14.5,-2.28 19.52,-6.78l6.26 12.75 0.02 0.05zm37.69 -97.65c4.21,-8.85 10.38,-15.48 18.62,-19.98 8.25,-4.5 18.46,-6.72 30.59,-6.72l0 17.25 -4.26 -0.24c-13.9,0 -24.71,4.27 -32.5,12.75 -7.78,8.47 -11.73,20.44 -11.73,35.69l0 66.98 -17.82 0 0 -131.45 17.01 0 0 25.72 0.09 0zm188.33 -25.72l0 131.45 -17.02 0 0 -26.01c-5.33,8.85 -12.36,15.57 -21.13,20.21 -8.76,4.64 -18.62,7.01 -29.61,7.01 -12.37,0 -23.5,-2.83 -33.5,-8.48 -10.01,-5.65 -17.76,-13.58 -23.5,-23.73 -5.65,-10.15 -8.53,-21.74 -8.53,-34.71 0,-12.97 2.82,-24.56 8.53,-34.71 5.65,-10.15 13.49,-17.99 23.5,-23.59 10,-5.59 21.22,-8.39 33.5,-8.39 10.67,0 20.3,2.22 28.83,6.63 8.54,4.42 15.63,10.85 21.14,19.38l0 -25.03 17.79 0.06 0 -0.09zm-66.2 116.89c9.17,0 17.47,-2.05 24.88,-6.4 7.41,-4.36 13.26,-10.3 17.47,-18.08 4.27,-7.79 6.4,-16.69 6.4,-26.7 0,-10 -2.05,-18.91 -6.4,-26.7 -4.27,-7.78 -10.06,-13.89 -17.47,-18.16 -7.41,-4.27 -15.71,-6.34 -24.88,-6.34 -9.37,0 -17.7,2.04 -25.09,6.34 -7.38,4.3 -13.26,10.29 -17.47,18.16 -4.21,7.87 -6.4,16.7 -6.4,26.7 0,10.01 2.14,18.91 6.4,26.7 4.27,7.78 10.06,13.9 17.47,18.08 7.41,4.26 15.8,6.4 25.09,6.4zm214.56 -116.89l-58.5 131.45 -18.22 0 -58.21 -131.45 18.45 0 49.22 111.9 49.73 -111.9 17.47 0 0.06 0zm65.91 116.89c8.16,0 15.71,-1.44 22.58,-4.36 6.86,-2.91 12.83,-7.23 17.61,-12.83l10.01 11.54c-5.8,7 -13.04,12.37 -21.74,16.03 -8.71,3.66 -18.22,5.5 -28.75,5.5 -13.49,0 -25.48,-2.82 -35.92,-8.62 -10.44,-5.79 -18.68,-13.66 -24.48,-23.87 -5.79,-10.21 -8.76,-21.65 -8.76,-34.48 0,-12.83 2.82,-24.34 8.3,-34.48 5.48,-10.15 13.35,-18.08 23.18,-23.82 9.77,-5.65 20.99,-8.48 33.5,-8.48 11.68,0 22.2,2.69 31.57,8.02 9.37,5.33 16.93,12.74 22.52,22.2 5.59,9.46 8.53,20.3 8.85,32.41l-107.94 20.99c3.34,10.66 9.37,19 18.16,25.08 8.79,6.08 19.23,9.08 31.34,9.08l-0.03 0.09zm-4.5 -102.7c-9.17,0 -17.38,2.05 -24.56,6.4 -7.18,4.35 -12.89,10.15 -17.01,17.76 -4.13,7.55 -6.11,16.26 -6.11,26.09 0,2.51 0.08,4.36 0.23,5.51l92.69 -17.99c-1.99,-10.99 -7.09,-19.98 -15.25,-27.07 -8.16,-7.1 -18.17,-10.61 -29.99,-10.61l0 -0.09zm124.67 118.41c-11.82,0 -20.99,-3.34 -27.39,-10 -6.4,-6.66 -9.6,-15.86 -9.6,-27.77l0 -148.91 17.76 0 0 147.38c0,7.79 1.84,13.73 5.51,17.85 3.66,4.12 9.16,6.11 16.49,6.11 4.64,0 8.62,-0.75 11.96,-2.28l1.3 14.8c-5.19,1.84 -10.44,2.68 -16.03,2.68l0 0.14z"/>
  </g>
 </g>
</svg>
