<?xml version="1.0" encoding="UTF-8"?>
<!DOCTYPE svg PUBLIC "-//W3C//DTD SVG 1.1//EN" "http://www.w3.org/Graphics/SVG/1.1/DTD/svg11.dtd">
<!-- Creator: CorelDRAW 2017 -->
<svg xmlns="http://www.w3.org/2000/svg" xml:space="preserve" width="215.9mm" height="215.9mm" version="1.1" style="shape-rendering:geometricPrecision; text-rendering:geometricPrecision; image-rendering:optimizeQuality; fill-rule:evenodd; clip-rule:evenodd"
viewBox="0 0 21590 21590"
 xmlns:xlink="http://www.w3.org/1999/xlink">
 <defs>
  <style type="text/css">
   <![CDATA[
    .fil0 {fill:none}
    .fil1 {fill:#91959E}
    .fil2 {fill:#91959E;fill-rule:nonzero}
   ]]>
  </style>
 </defs>
 <g id="Capa_x0020_1">
  <metadata id="CorelCorpID_0Corel-Layer"/>
  <rect class="fil0" width="21590" height="21590"/>
  <g id="_2246828963808">
   <path class="fil1" d="M5070.21 7818.03c17.06,-210.55 146.97,-388.2 324.71,-434.22 -139.77,161.91 -78.93,160.22 -131.39,251.24 -17.64,30.6 -155.4,161.89 -193.32,182.98zm1976.42 -534.35c38.33,-45.4 85.11,-66.63 138.51,-107.96 42.15,-32.63 89.19,-77.22 139.09,-98.58l17.71 186.44 -295.31 20.1zm-2885.87 797.25c20.1,-217.32 13.39,-252.98 103.65,-506.63 61.29,-172.27 172.33,-337.07 286.81,-395.74 -161.14,207.85 -335.13,609.17 -199.04,834.31 17.13,-292.03 48.33,-552.9 303.64,-627.07 -83.89,144.93 -179.74,278.34 -146.69,504.45 36.05,-51.61 13.36,-17.09 27.16,-80.49 35.3,-162.22 137.5,-343.73 308.96,-389.05 -128.66,169.99 -167.66,186.83 -106.37,467.16 66.59,-119.04 12.2,-181.86 249.81,-341.93 -5.28,124.77 24.62,218.22 24.37,308.2 -73.29,48.39 -63.94,38.46 -137.59,70.44 -55.31,24.01 -68.39,42.94 -125.06,66.79 -87.33,36.75 -198.55,57.45 -277.53,121.04 -253.1,203.79 -307.07,935.92 -396.52,-83.93 -20.63,-235.27 -17.79,-393.21 98.96,-549.76 -18.34,99.95 -62.95,189.2 -66.41,322.7 -1.78,68.46 7.91,290.98 34.48,344.01l17.37 -64.5zm3773.01 410.37l0 -27.53c-22.7,-40.4 -26.08,-67.59 -34.69,-123.78 -16.58,-108.19 -13.82,-57.84 -40.19,-132.8 -48.64,-138.36 60.76,-129.19 19.97,-259.63 -79.05,-252.76 -59.7,-341.26 -79.9,-597.65 -108.07,-105.05 -71.17,-118.94 -260.3,-106 38.25,-229.59 46.96,-286.94 -126.5,-404.25 -113.62,-8.78 -225.12,60 -348.61,72.81 -52.45,-214.23 -253.8,-174.09 -301.51,-406.47 -27.42,-133.57 -114.92,-538.37 -45.36,-647.41 114.52,-9.87 35.99,61.31 189.21,15.1 64.04,-19.31 138.08,-25.23 210.69,-31.23l65.95 82.91c59.59,-24.84 27.28,-27.71 80.89,-42.57 42.26,-11.71 86.58,-4.95 134.79,-8.26 14.14,-120.85 63.52,-206.53 68.87,-291.2 -113.26,-48.34 -155.58,-127.12 -265.64,-197.41 -95.88,-61.24 -218.24,-139.71 -263.43,-226.78 82.29,-43.85 88.2,-52.66 94.28,-167.11 -67.21,40.46 -95.3,71.08 -176.71,98.75 97,-237.71 379.46,-667.65 430.12,-881.95l-92.18 107.32c-79.32,122.7 -369.31,545.47 -452.57,624.2 -40.39,38.19 -69.27,27.74 -125.82,65.84 -40.43,-63.27 -65.46,-58 -145.45,-88.51 -89.54,-34.17 -87.11,-48.59 -135.52,-102.25 -87.19,108.51 -17.69,207.12 72.57,269.47 -165,50.59 -332.99,-103.22 -463.81,164.81 80.61,-30.28 111.3,-57.92 233.98,-48.31 -167.63,73.22 -176.65,26.44 -350.65,179.44 -60.88,53.53 -197.27,159.78 -280.31,79.23 -71.41,-69.27 48.18,-34.97 -48.92,-59.14 -82.87,201.7 124.04,172.08 267.05,138.78 -40.59,35.55 -84.92,57.35 -125.68,88.16 -54.39,41.13 -81.33,51.84 -112.43,115.78 105.33,-47.73 182,-107.85 322.02,-109.9 -125.17,75.56 -282.25,144.84 -404.73,233.94 -97.19,70.7 -262.79,218.97 -298.05,369.92 75.13,-49.73 121.51,-151.65 240.04,-235.45 91.4,-64.62 226.68,-106.51 357.1,-107.54 -156.66,86.36 -284.73,180.41 -333.78,357 133.99,-106.15 94.1,-153.13 322.24,-201.3 -112.97,129.92 -300.01,210.57 -357.04,450.43l-125.41 -24.5c3.35,2.97 8.41,3.59 10.26,10.69 1.8,6.97 7.51,8.89 10.02,11.43l86.52 73.02c45.61,21.85 113.25,6.15 160.06,-1.28 -57.97,71.86 -105.35,117.27 -61.29,253.52 76.11,-171.13 28.8,-188.01 251.12,-233.42 -5.35,131.42 -148.27,247.18 -131.84,511.54 -155.03,-107.53 -827.39,-862.02 -434.83,-1178.24 -67.62,169.67 -103.77,364.81 8.83,518.43 -61.98,-210.96 -8.54,-276.39 49.41,-457.3 219.91,-686.5 -837.77,-314.75 -1086.66,-196.81 114.07,-134.71 329.85,-196.98 550.23,-238.01 -254.01,-33.24 -713.17,131.19 -996.99,153.33 -279.57,21.81 -553.02,-43.76 -752.17,-231.49l-100.64 -79.8c39.84,150.38 202.74,316.28 300.69,383.03 149.95,102.2 343.2,138.02 556.01,135.06 -434.24,134.67 -1427.57,-145.05 -1818.77,-507.2 -63.24,-58.55 -113.64,-135.67 -186.61,-186.35 103.18,363.24 653.02,587.05 1001.45,694.73 139.19,43.02 331.22,71.22 458.8,114.87 -318.44,-15.99 -659.47,-131.7 -934.68,-268.13 -111.7,-55.37 -179.86,-110.05 -279.23,-158.13 24.08,72.48 -12.86,7.9 38.83,70.67 45.07,54.72 94.82,78.45 152.51,124.93 207.11,166.87 552.83,256.82 821.21,291.97 -155.22,19.14 -294.39,-37.35 -436.9,-49.83l281.03 102.33c462.94,124.37 684.65,30.99 1103.89,-3.31 -564.46,245.34 -1590.09,120.17 -2163.01,-71.27 -321.71,-107.49 -606.72,-226.5 -865.1,-386.33 -140.97,-87.2 -239.11,-156.76 -363.53,-261.42 -99.12,-83.38 -242.24,-253.14 -335.86,-314.62 87.2,248.12 305.77,369.8 489.27,509.95 604.86,461.96 1459.91,751.25 2266.19,768.88 -378.24,88.12 -1097.67,-110.76 -1416.06,-248.01 -201.53,-86.88 -371.57,-173.17 -555.92,-278.07 -91.17,-51.88 -170.76,-107.13 -255.91,-161.01 -79.84,-50.52 -185.92,-143.78 -262.24,-180.55 96.87,252.87 722.68,574.84 972.74,705.07 -117.34,-17.24 -227.81,-77.63 -326.93,-126.08 -119.82,-58.55 -200.95,-133.49 -313.63,-177.99 56.89,140.25 309.07,271.48 433.31,339.18 193.79,105.59 344.01,138.41 551.13,184.66 -211.06,48.73 -332.13,-63.95 -493.62,-99.74l64.47 55.36c32,20.44 36.01,18.58 68.1,35.62 424.72,225.5 817.5,252.39 1305.52,213.98 370.99,-29.19 742.71,-97.52 1080.77,-243.83 105.76,-45.77 211.14,-106.87 311.1,-145.87 -307.5,230.04 -1128.65,568.06 -1561.79,664.65 -303.39,67.65 -404.94,42.92 -681.15,-34.34l17.55 32.39c28.52,44.91 53.67,79.15 103.32,102.43 50.76,23.8 145.1,34.13 205.85,36.59 271.72,11.04 545.91,-58.16 797.13,-141.64 124.57,-41.4 245.17,-101.57 350.99,-135.77 -356.57,208.67 -705.87,380.8 -1235.54,348.15l111.93 112.82c153.1,107.59 294.7,165.57 489.52,86.66 202.64,-82.06 372.38,-208.34 563.95,-311.25 -99.2,138.36 -324.61,250.28 -484.21,334.48 -54.78,28.9 -39.13,13.83 -78.02,54.55 448.65,-44.68 1180.23,-775.7 1279.93,-835.36 -147.63,227.9 -277.37,302.8 -394.15,619.23 -68.44,185.47 -147.43,345.8 -322.55,420.51 -61.82,26.37 -147.94,28.84 -196.62,78.98 107.01,37.12 218.3,94.38 362.08,82.34l197.61 -284.51c34.44,-58.66 142.76,-273.16 149.09,-317.54 -1.06,136.57 -137.84,430.9 -189.59,558.83 270.03,-156.8 258.64,-641.18 496,-830.34 -127.23,240.67 -158.98,290.37 -191.18,617.05 -10.43,105.75 -40.4,226.64 -96.52,299.68 -107.24,139.58 -164.32,92.11 -241.32,165.84 130.11,8.08 204.24,52.3 296.24,-24.84 206.33,-172.98 116.13,-533.06 315.17,-753.72 -103.11,263.82 -167.04,393.03 -142.82,706.86 11.6,150.37 15.08,265.92 43.21,413.37 23.19,121.59 63.72,248.76 83,360.94 -673.41,6.39 -396.89,328.11 -528.72,834.32 -55.26,212.2 -147.58,292.3 -248.21,429.22 -243.32,331.03 -136.65,158.71 -300.06,306.4 -54.35,49.11 -18.09,-1.76 -47.39,66.06 94.33,-40.73 151.76,-94 257.92,-127.57 -49,110.61 -114.57,204.31 -185.83,296.03 -48.9,62.93 -46.88,65.51 -116.06,126.86 -38.51,34.17 -99.3,93.12 -136.17,129.04 158.15,-37.16 244.49,-172.31 332.93,-267.02 -49.08,128.85 -131.84,232.31 -237.24,305.99 -46.67,32.63 -84.55,47.51 -117.54,90.16 305.74,-80.44 384.67,-329.4 561.02,-538.08 -18.03,149.61 -98.37,271.68 -197.9,363.51l-105.82 99.94c258.92,-78.5 434.78,-404.55 526.77,-644.47 -11.65,178.33 -104.4,323.39 -215.35,437.75 -54.91,56.6 -81.92,50.56 -102.87,145.49l48.22 -43.13c21.23,-19.01 13.36,-12.98 38.41,-33.14 26.59,-21.39 46.13,-36.06 75.21,-61.87 171.16,-151.87 235.56,-343.96 312.25,-567.17 10.39,198.26 -60.41,248.45 -84.06,387.71 18.43,-16 12.71,-9.34 30.86,-30.97 150.11,-178.84 206.16,-511.41 221.72,-732.78 28.24,218.61 -16.52,340.22 -63.92,532.18 60.62,-38.99 58.44,-59.47 82.59,-135.83 20.42,-64.57 31.13,-98.03 40.09,-167.67 34.49,-268.09 -76.7,-483.14 -84.1,-741.73 -4.97,-174.01 41.55,-194.37 174.11,-240.62 -39.03,186.31 -78.53,407.14 13.32,592.13 98.4,198.16 164.26,276.42 26.51,505.4 -36.37,60.46 -53.25,74.98 -102.49,122.3l-131.3 116.27c-2.54,128.16 86.56,301.05 106.8,453.13 20.56,154.54 26,417.42 45.78,529.62 -22.29,22.69 -38.41,9.14 -47.15,28.7 -21.89,48.99 53.34,-13.66 -24.84,42.68 121.71,31.07 -12.43,16.17 113.46,33.83 -40.18,277.5 159.04,255.01 367.7,234.69 -121.12,-248.1 -186.25,-172.39 -248.49,-447.67 -34.13,-150.95 -77.27,-470.88 -59.02,-629.7 12.6,-109.7 84.38,-134.81 153.55,-188.69 81.82,-63.73 114.02,-89.31 176.72,-173.14 94.74,-126.65 206.82,-244.61 231.33,-454.68 354.08,222.09 -222.96,525.47 -192.61,692.93 39.44,77.57 122.3,118.54 181.75,173.42 124,114.44 237.65,257.04 335.44,393.69 82.84,115.77 74.74,109.45 62.64,274.94l59.47 -17.76c22.38,2.56 36.78,13.61 58.66,27.68 -16.87,68.09 -35.33,94.88 -34.21,173.87 115.63,86.32 228.02,118.41 395.44,78.45 5.9,-140.64 -651.83,-757.21 -654.15,-1017.34 -1.47,-166.22 183.75,-265.83 283.93,-343.24 61.25,-47.34 62.55,-54.11 117.1,-109.5 135.3,-137.4 140.27,-239.55 240.63,-387.08 38.89,-57.15 77.5,-63.46 93.76,-135.78 25.51,-113.49 -48.21,-241.25 -75.06,-341.45 -83.62,-312.13 306.95,-257.39 652.31,-606.38 122.85,-124.14 272.21,-327.56 375.43,-476.83 243.54,-352.18 144.29,-158.94 320.56,-232.36 58.13,-24.22 94.99,-53.38 150.56,-85.3 -7.06,117.74 -5.97,184.09 22.31,286.8l398.66 -346.5c31.14,-52.43 22.09,-132.24 64.61,-192.91 169.06,1.05 197.35,260 210.09,432.01 -64.95,48.8 -27.62,30.08 -36.96,49.29 -7.01,14.41 -25.45,11.91 -46.15,49.15 62.31,55.38 157.51,78.92 60.65,156.94 -21.09,16.99 -41.11,24.92 -57.66,49.84 -115.41,173.8 124.7,271.92 287.32,279.78z"/>
   <path class="fil1" d="M8581.09 4565.76l-844.04 925.44c-109.52,116.42 -225.11,179.92 -280.65,330.45 453.37,383 743.06,1255.32 558.8,2073.06 -166.24,737.8 -593.18,1388.74 -455.36,2228.97 122.26,745.33 607.54,1338.33 1156.09,1576.1 479.17,207.72 1640.12,103.32 2041.15,710.81 189.16,-63.03 182.02,-269.17 799.11,-450.76 322.06,-94.79 710.04,-117.76 1049.87,-181.02 621.68,-115.72 1078.99,-677.15 1295.16,-1200.55 491.28,-1189.5 -342.3,-2084.77 -385.73,-3054.41 -21.13,-471.57 62.63,-683.44 173.12,-1081.1 62.34,-138.21 127.8,-256.5 202.37,-362.84 77.57,-110.62 160.05,-187.02 225.49,-289.57l-858 -943.31c-84.49,-99.7 -195.55,-199.79 -286.75,-293.92 -54.95,27.04 3.47,-12.58 -64.27,43.97 -16.7,13.96 -35.14,34.01 -53.17,52.53 -261.1,268.12 -620.79,362.73 -1011.83,340.53 -632.4,-35.94 -888.45,-406.91 -1082.3,-464.22 -198.37,249.24 -606.79,457.35 -1069.49,466 -234.4,4.4 -457.34,-38.2 -648.04,-128.48 -391.67,-185.46 -283.34,-293.38 -461.53,-297.68zm-787.76 1263.75c93.89,-180.57 451.38,-502.12 611.21,-680.59 73.64,-82.24 127.52,-161.65 204.85,-232.63 148.94,66.5 243.62,181.44 468.93,264.44 215.54,79.42 395.82,103.69 638.48,98.63 517.75,-10.79 744.79,-207.02 1075.2,-401.09 350.68,214.66 576.61,387.77 1075.39,401.74 234.51,6.59 439.05,-23.66 636.54,-100.8 272.65,-106.5 352.51,-214.03 465.09,-263.34l818.5 876.2c-68.76,199.86 -217.93,285.31 -403.7,897.12 -104.33,343.62 -127.62,788.31 -68,1157.62 139.49,863.97 964.26,1914.23 157.86,3027.21 -527.33,727.83 -784.97,608.34 -1784.9,787.81 -640.45,114.94 -651.36,262.79 -896.78,396.4 -303.94,-205.5 -430.55,-314.97 -895.51,-395.51 -300.62,-52.07 -829.64,-106.56 -1086.87,-201.79 -522.54,-193.47 -983.29,-821.12 -1051.72,-1515.48 -121.13,-1229.18 1252.25,-2121.18 35.43,-4115.94z"/>
   <path class="fil1" d="M16519.79 7818.03c-17.05,-210.55 -146.96,-388.2 -324.7,-434.22 139.77,161.91 78.92,160.22 131.39,251.24 17.63,30.59 155.4,161.89 193.31,182.98zm-1976.41 -534.35c-38.33,-45.4 -85.11,-66.63 -138.51,-107.96 -42.15,-32.63 -89.19,-77.22 -139.09,-98.59l-17.71 186.45 295.31 20.1zm2885.86 797.25c-20.09,-217.32 -13.39,-252.98 -103.64,-506.63 -61.3,-172.27 -172.33,-337.07 -286.81,-395.74 161.14,207.84 335.13,609.17 199.04,834.31 -17.14,-292.03 -48.33,-552.9 -303.64,-627.07 83.89,144.93 179.74,278.34 146.69,504.45 -36.06,-51.61 -13.37,-17.09 -27.17,-80.49 -35.3,-162.22 -137.49,-343.73 -308.96,-389.05 128.67,169.99 167.67,186.83 106.38,467.16 -66.59,-119.04 -12.21,-181.86 -249.81,-341.93 5.28,124.77 -24.63,218.22 -24.38,308.2 73.3,48.39 63.95,38.46 137.6,70.44 55.31,24.01 68.39,42.94 125.06,66.79 87.33,36.75 198.54,57.45 277.53,121.04 253.09,203.79 307.06,935.92 396.52,-83.93 20.63,-235.27 17.78,-393.22 -98.97,-549.76 18.35,99.95 62.95,189.2 66.42,322.7 1.77,68.46 -7.91,290.98 -34.49,344.01l-17.37 -64.5zm-3773 410.36l0 -27.52c22.69,-40.4 26.07,-67.59 34.68,-123.78 16.58,-108.19 13.83,-57.84 40.19,-132.8 48.65,-138.36 -60.76,-129.19 -19.97,-259.63 79.05,-252.76 59.7,-341.26 79.91,-597.65 108.06,-105.05 71.16,-118.94 260.3,-106 -38.25,-229.6 -46.97,-286.94 126.5,-404.25 113.62,-8.78 225.12,60 348.61,72.8 52.45,-214.22 253.8,-174.08 301.5,-406.46 27.43,-133.57 114.92,-538.37 45.37,-647.41 -114.52,-9.87 -36,61.31 -189.21,15.1 -64.04,-19.31 -138.08,-25.23 -210.69,-31.23l-65.95 82.91c-59.6,-24.84 -27.28,-27.72 -80.9,-42.57 -42.26,-11.71 -86.57,-4.95 -134.78,-8.26 -14.15,-120.85 -63.52,-206.53 -68.87,-291.2 113.26,-48.34 155.58,-127.12 265.63,-197.41 95.89,-61.24 218.24,-139.71 263.44,-226.78 -82.29,-43.85 -88.2,-52.66 -94.28,-167.11 67.21,40.46 95.29,71.08 176.7,98.75 -96.99,-237.71 -379.45,-667.65 -430.11,-881.95l92.18 107.32c79.32,122.7 369.31,545.47 452.57,624.2 40.39,38.19 69.27,27.74 125.82,65.84 40.43,-63.27 65.46,-58 145.44,-88.51 89.54,-34.17 87.12,-48.59 135.53,-102.25 87.19,108.51 17.69,207.12 -72.58,269.47 165,50.59 332.99,-103.22 463.82,164.81 -80.61,-30.28 -111.3,-57.92 -233.99,-48.31 167.64,73.22 176.65,26.44 350.65,179.44 60.88,53.53 197.28,159.78 280.31,79.23 71.42,-69.27 -48.17,-34.97 48.93,-59.14 82.86,201.7 -124.04,172.08 -267.05,138.78 40.59,35.55 84.92,57.35 125.67,88.16 54.4,41.13 81.33,51.84 112.44,115.78 -105.33,-47.73 -182,-107.85 -322.03,-109.9 125.18,75.56 282.26,144.84 404.74,233.94 97.19,70.69 262.79,218.97 298.05,369.92 -75.13,-49.73 -121.51,-151.65 -240.04,-235.45 -91.4,-64.62 -226.68,-106.51 -357.1,-107.54 156.65,86.36 284.72,180.41 333.78,357 -134,-106.15 -94.1,-153.13 -322.24,-201.3 112.97,129.92 300.01,210.57 357.03,450.43l125.41 -24.5c-3.34,2.97 -8.4,3.59 -10.25,10.69 -1.81,6.97 -7.51,8.89 -10.02,11.43l-86.52 73.02c-45.61,21.85 -113.25,6.15 -160.07,-1.28 57.98,71.86 105.36,117.27 61.3,253.52 -76.12,-171.13 -28.81,-188.01 -251.12,-233.42 5.35,131.42 148.27,247.18 131.83,511.54 155.03,-107.53 827.4,-862.02 434.84,-1178.24 67.62,169.67 103.77,364.81 -8.84,518.43 61.99,-210.96 8.55,-276.39 -49.4,-457.3 -219.91,-686.5 837.77,-314.75 1086.66,-196.81 -114.07,-134.71 -329.85,-196.98 -550.24,-238.01 254.02,-33.24 713.18,131.19 997,153.33 279.57,21.81 553.02,-43.76 752.17,-231.49l100.63 -79.8c-39.83,150.38 -202.74,316.28 -300.69,383.03 -149.94,102.2 -343.19,138.02 -556.01,135.06 434.25,134.67 1427.58,-145.05 1818.77,-507.2 63.25,-58.55 113.65,-135.67 186.61,-186.35 -103.17,363.24 -653.02,587.05 -1001.44,694.73 -139.2,43.02 -331.22,71.22 -458.8,114.87 318.43,-15.99 659.46,-131.7 934.68,-268.13 111.7,-55.37 179.86,-110.05 279.22,-158.13 -24.07,72.48 12.87,7.9 -38.83,70.67 -45.06,54.72 -94.82,78.45 -152.51,124.93 -207.1,166.87 -552.83,256.82 -821.2,291.97 155.22,19.14 294.39,-37.35 436.9,-49.83l-281.03 102.33c-462.94,124.37 -684.65,30.99 -1103.89,-3.31 564.46,245.34 1590.08,120.17 2163.01,-71.27 321.7,-107.49 606.72,-226.5 865.1,-386.33 140.96,-87.2 239.11,-156.76 363.52,-261.42 99.12,-83.38 242.24,-253.14 335.87,-314.62 -87.2,248.12 -305.77,369.8 -489.28,509.95 -604.85,461.96 -1459.9,751.25 -2266.18,768.88 378.23,88.12 1097.67,-110.76 1416.06,-248.01 201.53,-86.88 371.56,-173.17 555.91,-278.07 91.18,-51.88 170.76,-107.13 255.92,-161.01 79.84,-50.52 185.92,-143.78 262.24,-180.55 -96.87,252.87 -722.68,574.84 -972.74,705.07 117.34,-17.24 227.81,-77.63 326.93,-126.08 119.82,-58.55 200.95,-133.49 313.63,-177.99 -56.9,140.25 -309.08,271.48 -433.31,339.17 -193.79,105.6 -344.01,138.41 -551.14,184.67 211.07,48.73 332.13,-63.95 493.62,-99.74l-64.46 55.36c-32.01,20.44 -36.02,18.58 -68.1,35.62 -424.72,225.5 -817.5,252.39 -1305.52,213.98 -370.99,-29.2 -742.71,-97.52 -1080.77,-243.83 -105.76,-45.77 -211.14,-106.87 -311.1,-145.87 307.5,230.03 1128.65,568.06 1561.79,664.65 303.39,67.65 404.93,42.92 681.15,-34.34l-17.55 32.39c-28.53,44.91 -53.67,79.15 -103.32,102.43 -50.76,23.8 -145.1,34.13 -205.85,36.59 -271.73,11.04 -545.91,-58.16 -797.13,-141.64 -124.58,-41.4 -245.17,-101.57 -350.99,-135.77 356.57,208.67 705.87,380.8 1235.53,348.15l-111.93 112.82c-153.09,107.59 -294.69,165.57 -489.52,86.66 -202.63,-82.06 -372.38,-208.34 -563.95,-311.25 99.21,138.36 324.62,250.28 484.21,334.48 54.79,28.9 39.14,13.83 78.02,54.55 -448.64,-44.68 -1180.22,-775.7 -1279.93,-835.36 147.64,227.9 277.38,302.8 394.16,619.23 68.44,185.47 147.42,345.8 322.55,420.51 61.81,26.37 147.93,28.84 196.61,78.98 -107,37.12 -218.29,94.38 -362.07,82.34l-197.61 -284.51c-34.44,-58.66 -142.76,-273.16 -149.1,-317.54 1.07,136.57 137.85,430.9 189.6,558.83 -270.04,-156.8 -258.64,-641.18 -496,-830.34 127.23,240.67 158.98,290.37 191.18,617.05 10.42,105.75 40.4,226.64 96.52,299.68 107.24,139.58 164.32,92.11 241.31,165.84 -130.1,8.08 -204.23,52.3 -296.23,-24.84 -206.33,-172.98 -116.13,-533.06 -315.17,-753.72 103.11,263.82 167.03,393.03 142.82,706.86 -11.6,150.37 -15.09,265.92 -43.21,413.37 -23.2,121.59 -63.72,248.76 -83,360.94 673.4,6.39 396.89,328.11 528.71,834.32 55.26,212.2 147.59,292.3 248.22,429.22 243.31,331.03 136.65,158.71 300.06,306.4 54.35,49.11 18.09,-1.76 47.39,66.06 -94.33,-40.73 -151.76,-94 -257.92,-127.57 48.99,110.61 114.56,204.31 185.83,296.03 48.89,62.93 46.88,65.51 116.05,126.86 38.52,34.17 99.31,93.12 136.18,129.04 -158.16,-37.16 -244.5,-172.31 -332.94,-267.02 49.08,128.85 131.84,232.31 237.24,305.99 46.68,32.63 84.56,47.51 117.55,90.15 -305.74,-80.43 -384.67,-329.39 -561.02,-538.07 18.03,149.61 98.37,271.68 197.9,363.51l105.82 99.94c-258.92,-78.5 -434.78,-404.55 -526.78,-644.47 11.65,178.33 104.41,323.39 215.36,437.75 54.91,56.6 81.92,50.56 102.87,145.49l-48.22 -43.13c-21.24,-19.01 -13.36,-12.98 -38.42,-33.14 -26.58,-21.39 -46.12,-36.07 -75.2,-61.87 -171.16,-151.87 -235.56,-343.96 -312.25,-567.18 -10.39,198.27 60.41,248.46 84.06,387.72 -18.43,-16 -12.71,-9.34 -30.87,-30.97 -150.1,-178.84 -206.15,-511.41 -221.71,-732.78 -28.24,218.61 16.51,340.22 63.92,532.18 -60.62,-38.99 -58.45,-59.47 -82.6,-135.83 -20.42,-64.57 -31.12,-98.03 -40.08,-167.67 -34.5,-268.09 76.7,-483.14 84.09,-741.73 4.98,-174.01 -41.54,-194.37 -174.1,-240.62 39.03,186.31 78.53,407.14 -13.33,592.13 -98.4,198.16 -164.26,276.42 -26.5,505.4 36.37,60.45 53.25,74.98 102.49,122.3l131.29 116.26c2.55,128.17 -86.55,301.06 -106.79,453.14 -20.57,154.54 -26,417.42 -45.78,529.62 22.29,22.69 38.41,9.14 47.15,28.7 21.89,48.99 -53.35,-13.66 24.83,42.68 -121.71,31.07 12.43,16.17 -113.46,33.83 40.19,277.5 -159.03,255.01 -367.7,234.69 121.12,-248.11 186.26,-172.39 248.49,-447.67 34.14,-150.95 77.28,-470.88 59.02,-629.7 -12.6,-109.7 -84.38,-134.81 -153.54,-188.69 -81.83,-63.73 -114.02,-89.31 -176.73,-173.14 -94.73,-126.65 -206.81,-244.61 -231.33,-454.68 -354.08,222.09 222.97,525.47 192.61,692.93 -39.43,77.57 -122.29,118.54 -181.75,173.41 -123.99,114.45 -237.64,257.05 -335.43,393.7 -82.84,115.77 -74.75,109.45 -62.64,274.94l-59.47 -17.76c-22.39,2.56 -36.78,13.61 -58.67,27.68 16.88,68.08 35.34,94.88 34.22,173.87 -115.63,86.32 -228.02,118.41 -395.44,78.45 -5.91,-140.64 651.83,-757.22 654.14,-1017.34 1.48,-166.22 -183.75,-265.83 -283.93,-343.25 -61.25,-47.33 -62.54,-54.1 -117.09,-109.49 -135.3,-137.4 -140.27,-239.55 -240.63,-387.08 -38.89,-57.15 -77.5,-63.46 -93.76,-135.78 -25.52,-113.49 48.21,-241.25 75.05,-341.45 83.63,-312.13 -306.95,-257.39 -652.3,-606.38 -122.85,-124.14 -272.21,-327.56 -375.44,-476.83 -243.53,-352.18 -144.29,-158.94 -320.56,-232.36 -58.12,-24.22 -94.99,-53.38 -150.55,-85.3 7.06,117.74 5.96,184.09 -22.32,286.8l-398.65 -346.5c-31.14,-52.43 -22.09,-132.24 -64.61,-192.91 -169.06,1.05 -197.35,260 -210.09,432.01 64.95,48.8 27.62,30.08 36.96,49.29 7,14.41 25.45,11.91 46.15,49.15 -62.32,55.38 -157.51,78.91 -60.65,156.93 21.09,17 41.11,24.93 57.66,49.85 115.41,173.8 -124.7,271.92 -287.32,279.77z"/>
   <path class="fil1" d="M12483.06 2639.47c62.89,0 103.82,4.96 155.15,48.15l31.84 35c38.1,48.2 52.84,113.97 61.71,172.28 13.81,90.82 -5.68,200.53 -31.15,288.16 -30.34,104.35 -82.87,203.87 -145.13,292.18 -12.49,17.71 -23.7,31.44 -37.42,48.92 -39.17,49.9 -106.05,114.58 -155.97,147.62 -99.74,66.02 -227.94,123.4 -343.94,54.05 -120.98,-72.32 -135.92,-262.66 -112.7,-402.24 12.42,-74.68 37.47,-161.55 68.93,-229.12 3.58,-7.68 6.88,-13.48 10.28,-20.37 3.59,-7.3 5.41,-13.27 9.19,-21.45 6.4,-13.82 14.78,-24.2 21.4,-37.07l22.29 -39c8.32,-10.63 9.94,-2.99 25.95,-15.83 16.92,-13.57 22.89,-29.56 32.99,-45 26.58,-40.62 91.49,-103.55 138.74,-103.55 30.91,0 49.84,-0.71 78.75,27.08 24.61,23.65 27.07,36.48 27.07,70.41 0,70.89 -50.14,111.27 -108.97,133.36 -13.19,4.95 -22.87,8.65 -36.88,13.24 -88.14,28.87 -140.74,71.85 -197.53,142.26 -8.12,10.06 -14.96,18.24 -21.29,28.85 -10.78,18.04 -27.96,44.55 -27.96,72.31 0,35.76 35.74,60.6 70.37,53.88 49.55,-9.62 51.3,-41.72 66.19,-64.91 18.78,-29.23 69.4,-79.88 101.69,-93.27l94.99 -35.9c61.81,-29.14 68.98,-29.86 118.56,-79.18 52.4,-52.11 77.28,-132.8 77.28,-209.63 0,-44.57 -22.05,-85.94 -46.1,-118.24 -20.53,-27.54 -64.34,-57.62 -98.7,-65.63 3.6,-3.13 0.92,-1.3 6.52,-4.62l24.07 -12.14c29.68,-14.64 84.96,-30.6 119.78,-30.6zm420.48 251.57l0 62.82c-2.42,58.19 -10.91,116 -20.67,160.81 -5.68,26.05 -16.94,74.01 -26.02,98.08 -0.57,1.51 -3.92,7.5 -5.17,9.82 -34.86,64.45 -56.98,138.12 -84.25,205.64 -6.46,16 -18.86,30.21 -28.16,44.26 -68.44,103.41 -144.53,203.85 -178.25,325.9 -5.22,18.88 -9.94,36.67 -15.75,56.68 -4.51,15.59 -5.96,28.43 -13.45,42.48 -5.85,11.01 -1.89,25.61 -7.22,39.91 -1.72,4.64 -9.91,18.52 -13.23,22.98 -25.06,33.66 -65.44,40.33 -105.57,32.25 -60.63,-12.19 -442.07,-68.92 -507.53,-71.69 -65.16,-2.77 -128.02,-14.16 -194.66,-19.77l-200.73 -16.49c-42.96,-0.59 -125.11,-11.26 -169.93,-11.07 -16.21,0.07 -18.91,-2.5 -33.26,-2.94 -119.24,-3.56 -598.01,-23.47 -705.01,-11.45 -33.95,3.81 -73.63,-0.13 -108.31,0.29 -15.46,0.2 -17.72,2.82 -33.19,3.01 -48.68,0.61 -93.96,0.06 -142.14,2.67l-275.26 14.34c-20.91,2.34 -43.79,4.08 -67.21,5.19l-133.71 11.1c-65.63,3.12 -132.71,10.84 -195.67,18.75 -11.41,1.43 -24.27,2.05 -33.15,3.06 -160.49,18.18 -320.95,35.45 -480.83,62.2 -32.27,5.39 -98.1,20.6 -127.87,15.67 -32.99,-5.47 -68.52,-35.51 -74.82,-70.04 -4.83,-26.5 4.89,-20.54 -4.48,-45.55l-18.79 -70.43c-21.93,-80.08 -59.23,-150.4 -104.72,-218.4l-130.4 -195.47c-29.09,-48.3 -25.66,-42.94 -44.38,-100.47l-32.74 -112.1c-17.39,-56.25 -32.38,-120.18 -35.75,-181.53 -1.23,-22.37 -2.37,-45.31 -2.87,-68.47l0 -47.26c1.26,-49.86 7.05,-99.61 22.62,-145.71 21.99,-65.11 21.2,-62.14 57.24,-123.82 5.9,-10.08 8.61,-12.81 15.17,-21.03 86.81,-108.95 217.63,-157.41 366.07,-127.36 55.57,11.25 114.65,28.16 161.05,56.17 7.5,4.53 40.02,22.04 46.16,23.47 -8.22,-15.54 -18.9,-23.8 -29.46,-37.4 -34.19,-44.04 -81.63,-79.04 -134.54,-96.62 -62.52,-20.76 -81.63,-112.59 -23.52,-137.15 21.96,-9.29 30.69,-7.49 53.3,-1.29 32.27,8.85 64.12,23.35 90.45,43.23 12.88,9.73 25.19,16.24 37.38,26.69 29.9,25.62 55.45,53.9 82.27,82.05 6.02,6.32 9.57,11.41 15.13,18.28 9.52,11.77 16.71,27.3 28.73,35.35 0,-83.51 -2.63,-153.31 24.65,-228.85 19.95,-55.26 67.65,-136.47 135.33,-90 22.4,15.39 44.74,48.52 33.34,91.6 -12.13,45.86 -54.09,35.6 -54.09,196.6 0,46.76 8.35,97.89 8.35,117.01l2.79 0c0,-33.19 14.98,-75.18 22.29,-103.06 12.47,-47.59 29.88,-94.42 50.07,-139.34 30.44,-67.69 66.59,-137.22 115,-194.19 6.15,-7.22 9.34,-10.2 15.52,-17.9 22.87,-28.5 49.81,-55.15 77.95,-78.01 43.77,-35.6 101.27,-73.9 155.97,-91.9 69.28,-22.81 141.93,-36.62 216.83,-26.73 48.12,6.34 101.24,18.4 145.53,38.28 13.97,6.28 28.65,13.13 42.99,21.05 50.96,28.15 136.62,88.38 176.2,135.74 6.13,7.35 6.82,9.51 14.03,16.61 14,13.78 27.51,38.46 42.48,49.43 -5.65,-24.25 -19.42,-48.36 -29.72,-70.55l-50.91 -96.72c-18.19,-30.21 -40,-58.47 -61.38,-86.24 -62.8,-81.58 -122.33,-86.18 -147.13,-100.74 -57.07,-33.51 -50.81,-132.63 21.54,-147.67 56.01,-11.64 176.98,74.29 215.87,124.66 8.36,10.83 15.06,15.18 23.51,26.63l114.55 180.7c0,-19.74 2.82,-15.96 -0.7,-35.4 -9.67,-53.49 -21.99,-107.78 -37.11,-160.79 -16,-56.03 -37.79,-117.18 -74.41,-162.35 -23.63,-29.12 -33.94,-35.32 -60.45,-56.53 -39.77,-31.8 -36.8,-106.75 7.11,-134.99 58.07,-37.37 115.7,28.41 151.01,68.73 7.78,8.88 10.07,12.8 16.9,22.1 6.05,8.25 10.72,13.42 16.3,22.69 9.33,15.49 22.07,34.12 28.32,49.68 5.98,14.92 21.36,40.01 22.64,55.35l5.57 0c6.51,-27.98 23.86,-57.84 37.11,-82.67 26.53,-49.79 64.86,-93.53 109.23,-127.52 8.58,-6.57 13.71,-10.12 24.54,-14.45 67.61,-27.06 121.6,50.48 89.12,117.03 -12.11,24.83 -21.44,25.21 -40.49,40.27 -13.83,10.95 -27.01,25.74 -37.75,40.23 -57.93,78.19 -109.37,262.05 -109.37,358.62l18.57 -31.58c36.92,-74.01 83.73,-141.7 142.25,-200.34 34.04,-34.11 134.13,-111.17 190.32,-100.09 59.06,11.66 74.03,79.73 47.03,123.03 -16.1,25.81 -33.96,26.77 -59.47,38.01 -25.97,11.45 -40.12,21.6 -60.25,37.23 -54.42,42.21 -117.42,134.09 -146.41,198.98 -10.11,22.64 -41.17,80.79 -42.93,101.91 11.37,-7.62 20.93,-23.76 29.78,-34.29 6.07,-7.24 7.01,-9.6 14.04,-16.59l23.3 -24.06c39.71,-38.03 79.92,-75.2 127.65,-103.52 12.55,-7.44 24.69,-15.43 38.23,-23.04 27.98,-15.71 58.12,-26.05 88.97,-36.35 133.55,-44.57 285.08,-24.55 399.8,47.87 13.41,8.47 23.58,15.41 36.78,24.5 36.51,25.17 67.4,56.7 98.48,88.12 53.83,54.42 114.28,154.58 144.67,225.78 23.85,55.87 71.87,177.88 73.17,236.02l5.57 0c0,-22.12 4.58,-38.91 5.58,-58.49 3.05,-60.06 3.71,-113.87 -14.56,-172.1 -4.25,-13.54 -12.22,-31.58 -20.47,-43.6 -22.37,-32.56 -32.68,-54.17 -12.45,-93.67 6.08,-11.88 17.79,-24.54 29.75,-31.52 105.62,-61.65 147.76,138.8 156.21,205.12 5.02,39.49 0.74,81.29 0.74,119.04l63.79 -78.26c40.32,-47.84 92.31,-85.88 147.83,-113.97 118.65,-60.03 149.51,31.61 120.36,81.42 -22.9,39.15 -43.24,35.76 -80.51,53.17 -13.73,6.42 -28.77,17.32 -40.66,26.18l-36.1 30.75c-14.33,12.56 -50.84,58.65 -60.54,73.15 9.79,-2.62 4.55,-1.81 12.46,-7.04 26.28,-17.36 53.79,-29.81 82.99,-42.34 17.21,-7.38 33.78,-15.28 52.1,-20.3 82.17,-22.54 164.11,-38.41 251.67,-12.13 92.41,27.73 152.51,76.06 206.14,155.93 19.9,29.63 34.45,62.82 45.91,98.93 12.09,38.08 19.55,80.38 24.63,120.22 1.73,13.56 2.89,27.58 3.55,41.87zm-3931.89 -9.2c0,123.71 80.03,228.61 190.51,274.64 64.34,26.81 109.19,28.79 155.49,75.67 73.98,74.86 56.22,79.56 76.07,99.4 22.71,22.69 55.42,30.66 81.96,15.55 12.57,-7.16 22.23,-15.28 26.75,-31.77 16.87,-61.64 -64.61,-138.01 -104.03,-177.9l-31.29 -27.2c-22.36,-16.15 -46.66,-27.74 -74.45,-39.74l-84.72 -32.25c-23.41,-9.59 -54.78,-27.3 -68.74,-48.23 -79.26,-118.91 15.72,-177.81 52.44,-177.81 42.47,0 63.38,7.33 101.89,37.34 19.58,15.25 43.51,41.68 57.43,62.35 12.83,19.07 20,37.82 38.28,50.84 21.72,15.46 13.81,-4.61 43.5,45.64 4.52,7.66 6.15,12.29 10.68,19.95 4.12,6.97 7.51,12.09 11.63,19.02 4.73,7.97 5.06,10.64 8.68,19.16 23.3,54.95 39.34,74.97 59.87,149.05 13.15,47.46 13.55,44.23 23.29,96.48 21.39,114.54 20.54,256.56 -45.02,350.98 -20.24,29.15 -36.43,46.93 -66.35,64.56 -89.7,52.86 -194.51,26.36 -279.17,-19.26l-28.68 -15.88c-42.05,-24.08 -111.74,-83.73 -145.63,-118.96 -8.38,-8.71 -11.6,-14.68 -20.85,-23.72 -8.95,-8.76 -12.35,-14.77 -20.87,-23.69l-56.62 -74.28c-30.13,-49.73 -34.71,-51.82 -65.17,-110.31 -6.1,-11.72 -9.2,-14.91 -15.14,-29.44 -4.88,-11.92 -8.67,-18.02 -13.92,-30.64 -45.98,-110.77 -74,-205.25 -74,-332.69 0,-80.85 20.65,-160.77 52.87,-208.97 35.18,-52.64 89.27,-100.26 161.54,-100.26 82.78,0 99.65,7.11 168.06,38.02 8.51,3.85 10.81,2.63 15.73,9.34 -36.2,8.44 -75.2,41.46 -97.88,69.23 -23.1,28.29 -44.14,75.49 -44.14,125.78zm247.83 -331.51l0 0zm0 0l-2.78 -2.79 2.78 2.79zm985.76 55.71c0,49.02 7.92,112.06 38.07,148.56 9.94,12.05 15.72,18.31 26.61,29.09 66.65,65.99 194.98,95.7 273.14,32.17 80.79,-65.66 58.68,-156.89 -17.59,-156.89 -21.31,0 -40.92,9.86 -50.66,21.74 -13.67,16.65 -23.39,62.54 -102.42,11.61 -41.99,-27.06 -44.17,-100.61 9.14,-143.92 61.7,-50.11 156.47,-37.94 195.03,34.39 24.33,45.62 35.24,122.01 35.24,179.26 0,36.43 -7.64,73.18 -19.86,105.5 -3.99,10.59 -9.7,18.94 -14.47,30.1 -20.65,48.41 10.24,97.32 59.38,98.41l-2.78 61.28c-47.1,-54.19 -115.41,-93.04 -187.1,-110.9 -90.22,-22.47 -201.73,-10.32 -278.51,37.89 -8.61,5.42 -14.54,9.78 -23.39,15.6 -20.73,13.65 -46.43,38.18 -60.75,59.02 -11.24,16.37 -22.2,31.63 -30.26,50.52 -48.79,114.37 -39.37,192.7 30.28,294.48 6.32,9.24 9,10.07 15.75,17.67 28.63,32.22 59.13,57.14 98.64,76.83 72.44,36.1 157.74,42.3 229.18,-1.05 13.9,-8.44 26.69,-16.66 38.42,-28.42 21.07,-21.11 29.81,-46.31 15.52,-75.48 -12.44,-25.39 -44.5,-38.86 -73.16,-32.46 -40.38,9.01 -45.19,45.64 -101.42,42.47 -75.73,-4.25 -152.16,-94.34 -152.16,-145.58 0,-210.29 266.88,-237.41 371.42,-123.64 2.4,2.63 2.7,3.22 5.22,5.92 28.84,30.85 47.17,56.84 60.27,98.5 9.15,29.08 1.98,35.05 -7.03,62.05 -12.95,38.9 -25.89,80.19 -46.77,114.78 -27.76,46.04 -26.55,50.79 -60.11,98.67 -21.7,30.95 -46.93,61.57 -76.77,84.76 -71.96,55.93 -128.79,93.54 -232.3,93.54 -86.18,0 -190.31,-49.87 -249.97,-109.28 -4.65,-4.63 -7.54,-8.24 -12.61,-12.47 -6.77,-5.64 -9.02,-5.51 -15.11,-12.73l-48.16 -54.9c-45.49,-59.99 -85.32,-122.74 -114.48,-194.7 -27.5,-67.88 -33.06,-79.92 -53.75,-152.37 -19.61,-68.68 -31.8,-145.16 -38.02,-218.42 -2.65,-31.1 4.8,-19.16 5.93,-41.75 2.48,-49.38 -0.94,-90.35 19.33,-133.88 15.94,-34.23 44.84,-69.61 89.14,-69.61 26.26,0 57.44,9.94 73.64,21.06 39.22,26.94 59.23,83.16 51.34,131.76 -4.12,25.44 -19.59,43.8 -33.72,61.05 -15.45,18.88 -30.68,31.03 -45.1,49.61 -7.66,9.88 -13.81,15.29 -21.53,25.81 -6.35,8.65 -13.87,19.6 -18.96,28.39 -31.22,53.76 -87.09,275.71 36.11,275.71 22.81,0 42.4,-14.14 51.15,-29.62 12.54,-22.19 4.54,-44.61 4.54,-73.46 0,-47.91 18.45,-97.69 46.28,-129.21 0.38,-0.42 0.96,-1.02 1.34,-1.44 0.39,-0.42 0.97,-1.01 1.36,-1.42 24.76,-26.63 51.11,-51.49 71.32,-81.89 9.84,-14.82 16.99,-25.69 24.47,-42.37 13.22,-29.5 24.63,-69.72 20.03,-109.11 -8.6,-73.57 -30.19,-136.67 -80.57,-186.85 -58.48,-58.27 -149.86,-91.29 -235.77,-72.91 -13.8,2.96 -20.91,8.58 -32.25,9.53 3.54,-15.2 7.51,-26 11.73,-41.19 13.12,-47.31 32.33,-92.42 53.28,-136.13l28.81 -54.76c6.78,-12.2 13.41,-23.04 21.53,-34.18l46.98 -61.65c8.2,-9.76 18.49,-18.74 27.72,-27.98 20.51,-20.53 36.87,-33.2 61.68,-49.72 138.55,-92.28 290.89,-66.98 419.81,37.45 28.77,23.31 57.53,51.99 80.73,80.8 34.23,42.51 39.85,55.46 66.41,95.14 -86.57,0 -130.05,11.34 -192.61,60.81 -40.24,31.83 -85.85,99.08 -85.85,170.41zm1127.77 -501.45c76.66,0 133.19,15.47 194.37,56.27l45.97 34.8c6.64,5.59 8.73,6.25 15.2,12.65l40.31 43.25c42.12,47.27 79.08,110.54 103.53,169.44l24.24 59.33c5.39,15.01 24.34,70.36 24.71,86.71 -10.67,-2.48 -15.89,-6.62 -29.47,-9.53 -51.41,-10.99 -116.8,0.93 -159.56,18.22 -43.38,17.54 -84.17,52.9 -108.1,92.43 -51.83,85.67 -68.12,191.18 -15.66,281.44l95.61 113.29c22.3,28.72 32.24,62.97 37.82,101.46 6.57,45.33 -1.65,32.83 -1.65,60.15 0,91.89 195.07,109.33 119.44,-150.14 -10.98,-37.67 -20.78,-60.82 -41.43,-89.49l-45.23 -52.25c-6.14,-6.2 -10.73,-10.27 -16.82,-16.6 -10.36,-10.75 -19.2,-23.76 -27.7,-36.37 -39.3,-58.25 -4.36,-151.67 55.41,-176.99 97.81,-41.43 158.03,49.33 162.42,137.37 0.96,19.35 -3.91,43.89 1.62,62.46 4.3,14.44 6.71,9.66 6.71,23.92 0,48.05 -10.51,100.13 -18.32,143.26 -22.84,126.1 -65.59,246.53 -131.53,355.93 -25.02,41.52 -54.47,80.74 -87.18,116.14l-61.57 58.21c-22.52,18.37 -45.58,35.06 -71.73,48.02 -50.04,24.78 -100.85,44.54 -167.1,44.54 -58.34,0 -126.65,-25.17 -162.67,-48.98 -43.72,-28.91 -55.26,-38.16 -87.2,-71.56l-71.28 -87.48 -38.96 -66.88c-15.1,-26.98 -60.37,-133.19 -60.37,-154.11 0,-52.12 42.15,-101.96 74.45,-134.46 56.23,-56.59 169.04,-77.57 247.81,-45.86 75.56,30.42 117.71,89.94 117.71,180.32 0,36.58 -42.74,85.32 -70.45,107.81 -37.22,30.21 -98.15,45.26 -140.13,13.71 -18.88,-14.19 -13.96,-18.94 -44.86,-24.97 -58.86,-11.48 -128.83,71.21 -14.58,137.37 140.72,81.47 303.33,-13.33 371.71,-140.55 44.02,-81.92 35,-166.95 -1.48,-249.34 -7.62,-17.23 -18.59,-33.21 -29.77,-48.22 -34.56,-46.44 -82.08,-79.35 -138.43,-101.09 -82.9,-31.99 -194.34,-29.05 -276.95,4.77 -6.87,2.81 -11.39,5.51 -19.04,8.79 -37.75,16.17 -73.43,41.42 -101.75,71.04 -17.84,18.66 -18.8,11.71 -18.8,-46.76 35.56,-0.79 66.84,-25.9 66.84,-61.29 0,-20.6 -4.15,-33.61 -13,-51.07 -41.61,-82.03 -37.11,-219.14 4.6,-299.98 9.8,-19 24,-32.98 41.35,-45 74.78,-51.76 195.39,1.56 195.39,84.03 0,20.82 -5.02,47.81 -20.23,60.56 -12.55,10.52 -35.96,24.37 -52.9,27.95 -67.35,14.2 -38.55,-52.29 -116.23,-52.29 -62.92,0 -91.68,83.26 -23.76,146.36 3.43,3.18 6.75,5.59 10.53,8.96 52.82,47.07 140.62,42.22 202.25,17.07 18.26,-7.45 36.89,-18.55 52.41,-31.15l44.61 -41.72c9.95,-11.71 13.97,-23.77 20.36,-38.14 28.5,-64.24 24.23,-146.81 -6.55,-208.14 -14.92,-29.73 -35.2,-51.21 -58.24,-72.66 -54.02,-50.28 -119.43,-67.52 -197.05,-67.52 11.17,-41.85 113.49,-149.03 143.92,-173.6 51.62,-41.67 135.31,-93.84 226.43,-93.84zm-448.33 69.65l0 0z"/>
   <path class="fil1" d="M9127.59 4441.9l0 13.93c0,30.46 36.27,64.07 66.83,64.07l61.36 -2.68c14.82,-1.01 28.15,-1.64 44.03,-3.31l514.4 -42.54c27.97,-4.23 62.36,-2.87 88.26,-6.42 14.29,-1.96 29.17,0.29 43.65,-0.91l175.69 -8.09c16.64,-0.2 24.87,-3.04 44.43,-2.92 32.16,0.21 57.68,-2.63 92,-2.68 17.61,-0.02 23.15,-3.02 41.61,-2.94 105.5,0.43 214.04,-5.51 323.08,-5.51l264.54 0c62.37,0 118.58,2.79 178.22,2.79l303.93 10.73c14.85,1.67 31.67,-0.85 46.53,0.82l129.26 7.19c15.1,2.07 30.91,-0.55 46.17,1.17 25.97,2.91 55.57,2.51 83.53,5.57l126.48 9.96c11.61,1.54 31.47,3.1 41.01,3.56l167.87 13.14c28.49,3.64 57.96,5.16 83.53,8.36 28.71,3.59 57.6,5.06 83.53,8.36l99.47 6.35c40.25,0 72.4,-32.8 72.4,-72.42 0,-63.81 -95.17,-56.94 -137.67,-62.86l-277.32 -26.21c-62.24,-3.46 -127.83,-14.43 -189.33,-13.96 -18.52,0.15 -27.66,-2.31 -47.34,-2.78l-49.66 -3.25c-60.72,-6.73 -125.32,-7.25 -189.78,-10.72 -88.57,-4.76 -204.13,-11.16 -292.37,-11.16 -36.54,0 -63.18,-2.79 -100.24,-2.79 -67.83,0 -130.47,-2.78 -200.5,-2.78l-222.77 0c-70.03,0 -132.66,2.78 -200.49,2.78 -61.11,0 -140.79,5.65 -200.49,5.58 -37.1,-0.05 -63.72,2.91 -100.26,2.78l-487.37 27.79c-36.33,0.89 -146.4,14.32 -189.36,16.7 -64.28,3.57 -126.83,11.06 -189.02,17.06l-93.03 10c-30.19,4.85 -54.81,24.57 -54.81,48.24z"/>
   <path class="fil1" d="M11862.09 4090.89c0,47.54 -4.23,77.36 -30.59,117.05 -8.68,13.06 -15.78,22.8 -27.18,34.09 -5.06,5.01 -10.13,11.07 -15.42,15.23 -10.36,8.11 -12.73,2.76 -15.92,14.71 59.5,0 219.29,20.65 286.72,25.17 18.56,1.24 37.59,3.79 58.11,5.94l167.54 19.04c16.9,1.85 42.52,6.97 56.48,7.68 23.18,1.18 30.63,-43.2 44.96,-78.93l35.04 -90.3c6.05,-15.24 11.2,-31.02 17.1,-46.98 2.51,-6.83 15.01,-32.99 14.94,-39.65 -0.07,-6.42 -1.78,-8.46 -6.23,-11.68 -7.58,-5.47 -137.8,-25.14 -146.4,-26.27 -55.79,-7.31 -106.52,-17.16 -160.68,-23.11l-245.83 -29.87c-28.48,-3.63 -57.77,-3.31 -82.77,-9.13 2.48,10.62 9.46,17.79 16.08,25.71 18.62,22.27 34.05,59.15 34.05,91.3z"/>
   <path class="fil1" d="M9937.92 3951.6c9.26,13.83 26.2,19.71 38.38,31.24 20.21,19.12 48.11,60.09 56.68,88.16 34.99,114.69 -30.42,163.2 -33.81,175.89 28.19,0 45.84,-2.76 72.5,-2.7 16.75,0.05 20.14,-2.78 36,-2.98 12.9,-0.16 26.35,0.59 39.19,0.2l147.49 -5.66c27.81,0.04 44.58,-2.82 72.4,-2.79l228.34 -2.78c-3.29,-12.31 -14.77,-10.94 -31.32,-29.96l-26.3 -34.98c-41.33,-69.88 -36.85,-156.99 11.06,-212.86 8.19,-9.53 17.55,-18.59 24.28,-28.64 -26.92,0 -53.84,0.01 -80.76,0l-278.61 10.99c-13.26,1.11 -28.25,-0.59 -41.63,0.14l-233.89 16.73z"/>
   <path class="fil1" d="M9021.77 4068.61c0,13.29 9.49,34.35 14,44.49 13.49,30.25 35.33,98.21 49.97,131.08 44.39,99.58 -6.58,80.58 150.89,64.44 37.95,-3.88 73.5,-7.17 108.66,-11.08l110.97 -11.56c57.01,-3.16 183.77,-16.8 225.47,-16.8 -4.9,-18.34 -116.85,-81.09 -76.45,-221.35 14.07,-48.87 36.06,-52.65 40.25,-68.38 -72.5,0 -494.7,60.76 -591.94,76.41 -10.3,1.65 -31.82,3.51 -31.82,12.75z"/>
   <path class="fil1" d="M10867.98 4230.18c101.17,0 200.83,2.49 300.83,5.48 14.25,0.43 17.12,2.95 33.23,2.97 54.53,0.07 104.82,5.38 150.56,5.38 21.6,0.01 75.7,5.67 111.29,5.67 -3.2,-11.97 -14.94,-13.5 -32.53,-51.04 -36.6,-78.11 -4.18,-160.9 54.05,-217.16 12.38,-11.96 31.43,-20.26 39.74,-32.67 -24.18,0 -53.89,-2.81 -75.6,-5.16l-158.4 -8.67c-17.22,-0.02 -21.58,-2.96 -38.8,-2.98 -13.01,-0.02 -29.08,1 -41.71,-0.05l-239.63 -8.21c-30.65,0.01 -50.45,-2.79 -80.75,-2.79 2.54,9.54 5.09,9.23 11.85,16.01 72.83,73.07 69.26,194.08 -2.72,266.14 -9.72,9.73 -25.36,18.05 -31.41,27.08z"/>
   <path class="fil1" d="M10728.75 1491.71c36.39,0 71.97,-26.59 89.79,-46.68 30.9,-34.83 41.09,-64.03 41.09,-114.89 0,-60.01 -25.8,-147.1 -51.06,-199.66l-82.61 -173.65 0 0c-0.65,2.71 -78.8,165.69 -92.25,203.01 -4.38,12.16 -7.24,24.46 -11.8,38.34 -19.92,60.67 -37.63,153.31 -8.28,208.13 18.52,34.59 64.6,85.4 115.12,85.4z"/>
   <path class="fil1" d="M9113.67 2112.95c0,71.59 9.64,131.12 62.38,171.6 26.55,20.37 71.04,30.18 104.67,9.45 16.95,-10.45 39.01,-49.55 39.01,-77.97 0,-57.37 -41.03,-119.18 -80,-159.55 -26.66,-27.61 -55,-61.11 -83.66,-86.24 -20.23,-17.74 -13.48,-17.8 -31.26,-27.23 0,59.4 -11.14,110.54 -11.14,169.94z"/>
   <path class="fil1" d="M12126.62 2196.52c0,36.63 8.24,76.78 37.31,96.41 48.91,33 115.65,-6.26 136.99,-39.05 53.5,-82.21 17.85,-229.1 17.85,-310.87 -9.74,6.53 -21.24,16.98 -29.94,25.77l-82.12 84.99c-28.4,32.14 -80.09,104.23 -80.09,142.75z"/>
   <path class="fil1" d="M10728.75 4180.04c88.42,0 149.14,-74.9 115.86,-152.13 -14.52,-33.68 -63.04,-65.17 -99.16,-65.17 -28.25,0 -44.32,-1.68 -71.52,12.02 -37.15,18.73 -67.43,59.56 -63.44,100.67 6.29,64.59 60.91,104.61 118.26,104.61z"/>
   <path class="fil1" d="M11519.58 4113.18c0,28.62 -2.48,33.94 12.01,60.42 6.81,12.45 12.61,18.24 23.27,26.86 81.03,65.63 206.98,2.82 206.98,-87.28 0,-116.61 -171.45,-136.35 -227.24,-43.48 -5.96,9.94 -15.02,29.33 -15.02,43.48z"/>
   <path class="fil1" d="M9698.44 4102.03c0,44.54 8.36,60.89 40.99,92.71 22.86,22.29 58.67,32.66 92.67,32.66 61.89,0 120.25,-52.57 108.73,-117.11 -13.21,-74.07 -120.22,-137.54 -205.08,-74 -15.01,11.24 -37.31,41.48 -37.31,65.74z"/>
   <path class="fil1" d="M10656.62 13308.51l-15.57 116.43c3.44,19.6 -40.9,1047.26 -27.21,1108.23 -33.31,10.71 -161.76,7.88 -198.75,0.56 -6.13,-4.64 -13.13,-8.49 -22.64,-16.97 -20.36,-18.16 -8.51,0.55 -17.34,-22.82 -8.89,-48.81 25.32,-1144.96 -29.54,-1214.58 -24.6,-31.23 -48.37,-49.37 -79.28,-33.39 -68.26,35.3 -101.81,75.59 -141.31,130.92 -74.39,104.21 -137.54,224.56 -206.02,343.39 -80.27,139.29 -23.8,51.9 -115.04,162.56 -138.33,167.78 -265.08,305.89 -490.32,330.41 -260.7,28.37 -761.71,-5.47 -1001.91,-78.36 -27.52,-358.15 341.29,-249.64 527.76,-368 17.91,17.34 24.18,45.66 42.59,62.28 90.9,82.08 335.08,72.19 432.26,27.91 31.93,-14.55 96.96,-75.83 115.67,-94.95 145.91,-149.2 237.9,-314.01 336.77,-502.76 160.31,-306.02 96.49,-236.14 317.15,-522.35 45.93,-59.57 354.23,-440.57 380.38,-453.5 146.67,67.91 242.32,225.94 275.46,428.39 55.58,339.51 -80.13,449.08 -83.11,596.6z"/>
   <path class="fil1" d="M9404.96 14540.47c-354.55,31.77 -659.59,-22.01 -982.83,-134.16 -35.13,-12.2 -32.44,-5.14 -46.55,-39.86 -25.04,-61.62 -50.07,-126.38 -55.32,-195.17 417.19,54.5 437,101.34 921.88,74.63 222.67,-12.27 310.31,-62.22 433.85,-188.36 22.99,-23.48 40.69,-35.4 61.53,-61.95l112.31 -129.31c-23.92,39.22 -68.11,140.39 -89.17,189.5 -53.4,124.48 -98.04,328.81 -151.62,410.05 -41.74,63.29 -99.65,75.3 -204.08,74.63z"/>
   <path class="fil1" d="M6380.43 12981.14c363.73,-208.19 551.07,-280.17 1057.96,-295.01 -336.49,-183.73 -909.41,105.1 -1057.96,295.01zm65.11 -372.84l-78.58 63.14c160.54,-38.5 32.87,6.46 78.58,-63.14zm771.04 -35.2c-531.84,-101.48 -734.46,142.43 -738.22,145.82l-35.33 36.32c281.61,-100.35 424.58,-186.36 773.55,-182.14zm-771.04 35.2l312.32 -135.4c-103.38,6.64 -92.55,-6.35 -192.86,37.23l-119.46 98.17zm-749.14 -329.14c-122.66,46.09 -129.63,74.56 -190.47,170.16 70.61,-63.23 -4.42,-6.24 82.49,-57.03 138.41,-80.87 76.7,6.18 107.98,-113.13zm0 0c305.51,-40.85 161.87,-258.71 1249.11,-259.43 -192.48,-86.65 -506.37,-96.21 -734.73,-29.91 -131.19,38.09 -457.88,154.92 -514.38,289.34zm64.99 -320.82c286.65,-112.91 349.6,-118.02 696.21,-131.69 -267.34,-126.98 -523.03,-13.47 -696.21,131.69zm2258.11 -28.94c-159.54,87.59 34.72,180.2 -246.27,112.27 -70.18,-403.23 416.65,-371.81 374.4,-21.96 -35.91,297.36 -309.1,309.43 -614.87,340.17 105.55,53.86 232.6,88.95 341.67,139.01 352.61,161.86 699.92,473.78 1120.91,337.32 213.94,-69.35 484.95,-289.19 363.28,-573.89 -103.79,-242.86 -638.82,-268.38 -617.15,91.92 59.26,29.18 328.71,14.42 186.77,216.3 -112.38,159.85 -268.15,50.2 -347.65,-52.12 -204.95,-437.18 918.88,-895.42 868.36,20.93 96.79,-71.49 237.27,-204.25 363.18,-233.19 211.15,-48.52 263,94.26 217.71,252.17 -134.99,40.11 -152.54,64.79 -235.71,-39.91 66.6,-147.48 14.53,-19.32 157.42,-98.51 -17.44,-18.05 64.62,-74.89 -119.7,-36.34 -56.83,11.89 -82.86,53.4 -117.55,89.33 -66.77,69.11 -110.44,122.45 -169.25,192.19 -107.67,127.67 -245.09,234.91 -408.29,314.72 -397.67,194.47 -837.97,91.76 -1226.88,-37.11 163.77,820.39 -725.2,667.7 -473.69,175.77 365.96,-117.93 135.92,164.15 142.92,228.71l191.86 0.65c244.93,-718.13 -1296.3,-1021.15 -1898.33,891.71 -30.58,-182.15 -30.95,-470.38 -144.98,-579.54 -159.33,-152.52 -325.75,53.95 -532,73.8 -67.03,-104.19 -28.63,-54.16 -29.37,-197.49 -37.36,-14.2 -146.01,21.82 -179.2,-150.1 -19.88,-103.01 -59.87,12.59 21.86,-112.58l-123.35 -53.51c-5.51,-2.59 -16.21,-7.38 -23.68,-12.16 199.33,-487.66 52.42,-259.47 87.64,-427.69 32.13,-153.43 18.22,90.17 14.68,-50.41 -2.31,-92.14 -13.14,-3.53 -21.11,-113.84 -7.79,-107.61 34.15,-165.75 10.48,-283.72 -73.62,-366.97 -776.4,-151.57 -567.08,167.77l75.6 -177.97c194.89,9.49 226.13,105.64 190.63,280.66 -624.28,302.39 -497.56,-837.95 304.69,-459.21 122.18,-317.8 255.9,-485.3 583.68,-594.97 296.76,-99.28 736.33,-105.15 1053.23,-32.6 323.66,74.12 543.55,261.06 763.66,415.42 610.01,427.78 721.73,105.9 661.48,-2z"/>
   <path class="fil1" d="M15035.87 12988.65c-363.73,-208.19 -551.07,-280.17 -1057.96,-295.01 336.49,-183.73 909.41,105.1 1057.96,295.01zm-65.11 -372.84l78.58 63.14c-160.54,-38.5 -32.87,6.46 -78.58,-63.14zm-771.04 -35.2c531.84,-101.48 734.46,142.43 738.22,145.82l35.33 36.32c-281.61,-100.35 -424.58,-186.36 -773.55,-182.14zm771.04 35.2l-312.32 -135.4c103.38,6.65 92.55,-6.35 192.86,37.23l119.46 98.17zm749.14 -329.14c122.66,46.09 129.62,74.56 190.47,170.16 -70.61,-63.23 4.42,-6.24 -82.5,-57.02 -138.4,-80.88 -76.69,6.17 -107.97,-113.14zm0 0c-305.51,-40.85 -161.87,-258.7 -1249.11,-259.43 192.48,-86.65 506.37,-96.2 734.73,-29.91 131.19,38.09 457.88,154.92 514.38,289.34zm-64.99 -320.82c-286.65,-112.91 -349.6,-118.02 -696.21,-131.69 267.34,-126.98 523.03,-13.47 696.21,131.69zm-2258.11 -28.94c159.54,87.59 -34.72,180.2 246.26,112.27 70.18,-403.23 -416.64,-371.81 -374.39,-21.96 35.91,297.36 309.1,309.43 614.87,340.17 -105.55,53.86 -232.6,88.95 -341.67,139.02 -352.61,161.85 -699.92,473.77 -1120.91,337.31 -213.94,-69.35 -484.95,-289.18 -363.28,-573.89 103.79,-242.86 638.82,-268.38 617.15,91.93 -59.26,29.18 -328.71,14.41 -186.77,216.3 112.38,159.85 268.15,50.19 347.65,-52.13 204.95,-437.18 -918.88,-895.42 -868.36,20.93 -96.79,-71.49 -237.27,-204.25 -363.18,-233.19 -211.15,-48.52 -263.01,94.26 -217.71,252.17 134.99,40.11 152.54,64.79 235.71,-39.91 -66.6,-147.48 -14.53,-19.32 -157.42,-98.51 17.43,-18.05 -64.62,-74.89 119.7,-36.34 56.83,11.89 82.85,53.4 117.55,89.33 66.77,69.11 110.44,122.45 169.25,192.19 107.67,127.67 245.09,234.91 408.29,314.72 397.67,194.47 837.97,91.76 1226.88,-37.11 -163.77,820.39 725.19,667.7 473.69,175.77 -365.96,-117.93 -135.92,164.15 -142.92,228.71l-191.86 0.65c-244.93,-718.13 1296.3,-1021.14 1898.33,891.71 30.58,-182.15 30.95,-470.37 144.98,-579.53 159.33,-152.53 325.75,53.94 532,73.8 67.03,-104.2 28.63,-54.17 29.37,-197.49 37.36,-14.21 146.01,21.81 179.19,-150.11 19.89,-103.01 59.88,12.59 -21.85,-112.58l123.34 -53.51c5.51,-2.59 16.22,-7.37 23.69,-12.16 -199.33,-487.66 -52.42,-259.47 -87.64,-427.68 -32.13,-153.44 -18.22,90.16 -14.69,-50.42 2.32,-92.14 13.15,-3.53 21.12,-113.84 7.78,-107.61 -34.15,-165.75 -10.48,-283.72 73.62,-366.96 776.4,-151.57 567.08,167.77l-75.61 -177.97c-194.88,9.49 -226.12,105.64 -190.62,280.66 624.28,302.39 497.56,-837.95 -304.69,-459.21 -122.18,-317.8 -255.91,-485.3 -583.68,-594.96 -296.76,-99.29 -736.33,-105.16 -1053.23,-32.61 -323.66,74.12 -543.55,261.06 -763.66,415.42 -610.01,427.78 -721.73,105.9 -661.48,-2z"/>
   <path class="fil1" d="M10913.86 13308.51l15.57 116.43c-3.44,19.6 40.9,1047.26 27.21,1108.23 33.32,10.71 161.76,7.88 198.75,0.56 6.13,-4.64 13.14,-8.49 22.64,-16.97 20.36,-18.16 8.52,0.55 17.34,-22.82 8.89,-48.81 -25.31,-1144.96 29.54,-1214.58 24.61,-31.23 48.38,-49.37 79.28,-33.39 68.26,35.3 101.81,75.59 141.31,130.92 74.39,104.21 137.55,224.56 206.02,343.39 80.27,139.29 23.8,51.9 115.05,162.56 138.33,167.78 265.07,305.89 490.31,330.41 260.7,28.37 761.71,-5.47 1001.91,-78.36 27.53,-358.15 -341.29,-249.64 -527.75,-368 -17.92,17.34 -24.18,45.66 -42.6,62.28 -90.9,82.08 -335.08,72.19 -432.25,27.91 -31.94,-14.55 -96.97,-75.83 -115.67,-94.95 -145.92,-149.2 -237.91,-314.01 -336.78,-502.76 -160.31,-306.02 -96.49,-236.14 -317.15,-522.35 -45.93,-59.57 -354.23,-440.57 -380.38,-453.5 -146.67,67.91 -242.32,225.94 -275.46,428.39 -55.57,339.51 80.13,449.08 83.11,596.6z"/>
   <path class="fil1" d="M12165.53 14540.47c354.54,31.77 659.58,-22.01 982.82,-134.16 35.14,-12.2 32.44,-5.14 46.55,-39.86 25.05,-61.62 50.07,-126.38 55.32,-195.17 -417.19,54.5 -436.99,101.34 -921.88,74.63 -222.67,-12.27 -310.31,-62.22 -433.85,-188.36 -22.99,-23.48 -40.69,-35.4 -61.53,-61.95l-112.31 -129.31c23.92,39.22 68.11,140.39 89.17,189.5 53.4,124.48 98.04,328.81 151.62,410.05 41.74,63.29 99.65,75.3 204.09,74.63z"/>
   <path class="fil2" d="M4865.25 16568.91c6.87,563.77 -185.37,1041.73 -576.61,1434.65 -391.1,392.15 -870.88,590.23 -1438.93,593.6l-1265.49 10.24 0 -4051.58 1255.25 0c561.31,0 1037.58,195.62 1428.82,585.95 391.23,391.23 590.22,866.6 596.96,1427.14zm-688.87 5.05c-3.37,-373.34 -133.52,-688.09 -390.33,-944.9 -256.8,-255.9 -572.33,-384.36 -946.58,-384.36l-566.37 0 0 2663.58 571.55 0c374.12,-3.37 690.56,-133.52 949.05,-389.42 258.62,-256.93 386.18,-571.55 382.68,-944.9zm2110.05 56.91c-187.06,0 -346.9,65.6 -479.65,196.53 -132.61,130.93 -198.98,289.21 -198.98,476.27l0 1288.43 -688.88 0 0 -1288.43c0,-380.22 132.62,-701.71 397.98,-965.25 265.36,-262.9 588.54,-394.61 969.53,-394.61l0 687.06zm3125.6 1961.23l-732.3 0 -144.54 -397.97c-272.1,319.67 -619.13,479.64 -1041.87,479.64 -380.99,0 -703.26,-132.74 -966.94,-398.11 -263.67,-265.23 -395.51,-586.72 -395.51,-964.34 0,-289.21 81.67,-550.3 245.01,-783.25 163.21,-233.08 380.99,-398.88 653.09,-497.53 159.97,-57.82 316.44,-86.73 469.53,-86.73 289.09,0 550.17,82.45 783.25,247.47 232.95,164.9 398.89,383.46 497.54,655.69l632.74 1745.13zm-1239.95 -1283.37c0,-238.92 -96.96,-425.2 -290.9,-557.82 -112.26,-79.2 -241.5,-118.22 -387.86,-118.22 -238.14,0 -421.83,95.15 -551.07,286.49 -81.67,120.04 -122.51,249.28 -122.51,389.55 0,235.54 96.97,420.14 290.9,552.88 119.13,82.45 246.69,123.29 382.68,123.29 187.19,0 347.03,-65.47 479.64,-197.31 132.75,-131.06 199.12,-290.89 199.12,-478.86zm3829.64 1962c0,489.89 -200.8,867.51 -602.15,1132.87 -231.39,153.1 -484.83,229.59 -760.3,229.59 -483.14,0 -860.77,-202.36 -1132.87,-607.21 -156.47,-234.77 -234.76,-486.52 -234.76,-755.25 0,-176.82 34.09,-346.9 102.15,-510.23l637.8 255.11c-33.97,81.67 -51.08,166.71 -51.08,255.12 0,187.2 66.37,346.13 199.12,477.19 132.61,130.93 292.45,196.39 479.64,196.39 183.69,0 341.85,-66.37 474.46,-199.89 132.75,-133.53 199.12,-291.68 199.12,-476.15 0,-300.23 -141.17,-510.37 -422.74,-630.28 -85.04,20.48 -169.17,30.59 -254.34,30.59 -383.45,0 -706.63,-131.7 -969.53,-395.38 -262.77,-263.67 -394.6,-587.63 -394.6,-972.12 0,-381 131.83,-703.27 396.42,-966.94 264.45,-263.68 586.72,-395.51 966.03,-395.51l398.1 -944 545.11 231.4 -362.32 845.34c239.82,115.63 431.16,284.03 573.24,505.18 142.08,221.03 213.5,462.67 213.5,724.53 0,387.86 -141.17,714.41 -423.64,979.77 282.47,268.73 423.64,598.65 423.64,989.88zm-688.87 -1969.65c0,-183.69 -66.37,-341.85 -199.12,-474.59 -132.61,-132.62 -290.77,-198.99 -474.46,-198.99 -187.19,0 -347.03,65.47 -479.64,196.53 -132.75,130.93 -199.12,289.99 -199.12,477.05 0,187.06 66.37,347.03 199.12,479.64 132.61,132.75 292.45,198.99 479.64,198.99 187.06,0 346.12,-66.24 477.06,-198.99 130.93,-132.61 196.52,-292.58 196.52,-479.64zm2885.65 -1357.27l-1260.43 2648.29 -1275.6 -2648.29 816.44 0 464.34 1086.85 464.35 -1086.85 790.9 0zm2395.76 1358.18c0,67.15 -5.05,135.2 -15.3,203.26l-1995.19 0c44.21,142.86 125.87,257.71 245.01,344.44 119,86.72 253.43,130.02 403.03,130.02 207.54,0 379.31,-79.85 515.42,-239.82l418.46 556.26c-261.99,248.38 -573.24,372.43 -933.88,372.43 -384.36,0 -708.45,-131.7 -971.99,-394.6 -263.68,-263.55 -395.52,-586.72 -395.52,-970.31 0,-380.22 132.62,-701.71 397.98,-965.25 265.36,-262.9 588.54,-394.61 969.53,-394.61 380.99,0 703.39,130.93 967.07,393.7 263.54,262.77 395.38,584.26 395.38,964.48zm-770.54 -312.16c-125.88,-238.14 -323.18,-357.14 -591.91,-357.14 -272.1,0 -471.09,119 -596.96,357.14l1188.87 0zm2696.9 819.8c0,163.34 -54.32,311.25 -163.21,444.77 -217.78,266.27 -527.35,393.83 -928.7,383.59 -159.96,-3.37 -334.32,-39.15 -523.07,-107.08 -188.75,-68.05 -342.75,-153.09 -461.75,-255.25l382.67 -494.94c183.7,173.58 379.31,260.31 586.86,260.31l15.29 0c85.04,0 161.53,-15.3 229.59,-45.89 88.41,-40.84 132.74,-98.65 132.74,-173.58l0 -20.35c-10.24,-78.3 -63,-134.44 -158.28,-168.4 -37.34,-6.87 -117.32,-22.17 -239.83,-46.02 -153.09,-30.59 -282.34,-67.93 -387.73,-112.13 -309.57,-132.75 -464.35,-365.83 -464.35,-699.12 0,-319.8 158.15,-559.63 474.46,-719.47 139.49,-71.42 290.9,-108.89 454.24,-112.26 170.08,-3.5 346.9,25.41 530.59,86.73 210.91,71.43 360.64,165.02 449.05,280.65l-459.16 413.28c-119.14,-122.51 -248.38,-183.69 -387.87,-183.69 -217.65,0 -326.54,71.42 -326.54,215.19l0 10.24c0,67.93 88.41,125.87 265.36,173.45 13.61,3.37 125.87,25.54 336.79,66.37 428.56,82.45 642.85,344.44 642.85,788.3l0 15.3zm1222.19 782.47c-381,0 -704.17,-131.84 -969.53,-394.6 -265.37,-263.68 -397.98,-585.95 -397.98,-966.17l0 -2675.51 688.87 0 0 1387.99 678.64 0 0 586.72 -678.64 0 0 699.12c0,187.06 66.38,346.12 198.99,477.18 132.75,130.93 292.59,196.4 479.65,196.4l0 688.87zm594.5 -3235.14c0,115.63 -39.02,213.51 -117.32,293.36 -78.3,79.98 -175.14,119.91 -290.9,119.91 -115.63,0 -213.38,-39.93 -293.36,-119.91 -79.98,-79.85 -119.91,-177.73 -119.91,-293.36 0,-115.63 39.93,-212.6 119.91,-290.9 79.98,-78.17 177.73,-117.32 293.36,-117.32 112.26,0 208.45,39.93 288.31,119.91 79.98,79.99 119.91,176.05 119.91,288.31zm-61.19 3235.14l-688.87 0 0 -2648.29 688.87 0 0 2648.29z"/>
   <path class="fil1" d="M7981.61 5959.19c87.99,-171.7 422.99,-477.45 572.76,-647.15 69.02,-78.19 119.5,-153.7 191.97,-221.19 139.57,63.23 228.29,172.52 439.43,251.44 201.98,75.51 370.93,98.6 598.32,93.79 485.18,-10.28 697.94,-196.85 1007.55,-381.38 328.63,204.1 540.34,368.71 1007.75,381.99 219.76,6.26 411.43,-22.5 596.5,-95.85 255.5,-101.25 330.33,-203.51 435.84,-250.39l767 833.13c-64.43,190.06 -204.22,271.29 -378.3,853.04 -97.78,326.74 -119.6,749.57 -63.73,1100.74 130.71,821.52 903.6,1820.15 147.93,2878.44 -494.16,692.06 -735.59,578.46 -1672.61,749.1 -600.17,109.3 -610.39,249.88 -840.38,376.92 -284.81,-195.39 -403.46,-299.48 -839.16,-376.07 -281.72,-49.51 -777.46,-101.32 -1018.5,-191.88 -489.68,-183.95 -921.43,-780.77 -985.56,-1441 -113.51,-1168.78 1173.47,-2016.95 33.19,-3913.68zm578.55 6.99l133.68 0c30.03,93.97 80.4,160.8 150.15,200.53 91.07,53.27 239.27,79.42 443.67,79.42 130.77,0 545.38,-12.6 1243.81,-39.71 422.36,-16.47 684.87,-25.19 789.5,-25.19 313.86,0 581.22,54.25 802.09,161.78 220.86,107.52 400.07,273.17 538.58,496.94 137.56,222.8 229.59,530.84 275.12,922.2 31.97,274.14 59.1,878.61 81.37,1813.41 -369.07,232.49 -652.9,433.99 -851.49,604.47 -600.6,-166.61 -1131.44,-249.92 -1590.61,-249.92 -311.91,0 -601.56,37.78 -867.96,112.37 -267.36,74.58 -550.21,193.74 -848.58,358.41l-84.28 -107.51c389.42,-200.53 731.38,-405.89 1025.86,-616.1 294.49,-210.22 488.23,-398.15 582.19,-564.76 93.97,-165.64 141.43,-375.86 141.43,-631.58 0,-93.01 -1.93,-230.56 -5.8,-411.71 -3.89,-126.9 -5.82,-258.64 -5.82,-395.22 0,-240.25 13.56,-417.52 39.72,-530.86 27.13,-114.3 83.3,-245.07 169.51,-392.31l-72.64 0c-229.59,132.69 -382.65,252.82 -458.2,361.31 -76.53,109.47 -114.3,248 -114.3,416.54l23.24 1006.49c0,269.3 -80.4,509.54 -242.17,722.66 -160.82,213.11 -548.29,519.21 -1161.49,920.25l-84.27 -113.33c309.99,-214.08 514.39,-390.38 613.19,-528.91 98.81,-137.56 148.21,-281.9 148.21,-432.04 0,-130.77 -41.66,-241.2 -125.93,-332.28 -83.31,-92.01 -176.3,-137.54 -277.05,-137.54 -51.33,0 -99.78,14.53 -143.36,42.62 -43.6,29.05 -102.69,88.15 -177.27,178.24l-90.1 -90.09c64.91,-163.71 152.08,-283.82 259.61,-359.38 108.5,-76.53 238.3,-114.32 389.43,-114.32 43.59,0 92.01,4.85 145.3,14.53 52.32,8.73 109.46,23.26 170.49,42.63 -3.88,-110.43 -5.82,-206.33 -5.82,-287.7 0,-297.4 60.07,-539.57 179.22,-726.53 119.15,-186.97 348.72,-381.67 686.81,-585.1 -312.88,31.97 -584.13,48.43 -811.77,48.43 -241.22,0 -447.54,-33.9 -619.97,-101.71 -129.82,-53.28 -224.75,-137.55 -284.8,-252.83 -61.03,-116.25 -96.87,-275.12 -108.5,-476.6zm2301.64 784.66c-81.37,138.51 -135.61,258.64 -163.71,360.35 -37.77,140.46 -57.16,271.23 -57.16,392.32l23.26 1119.83c0,143.35 -35.85,290.59 -106.56,439.78 -54.24,112.37 -156.93,247.99 -306.12,408.79 274.15,-45.53 484.36,-66.83 629.66,-64.9l160.8 2.91 0 -2659.08 -180.17 0zm325.49 1092.68c115.27,82.34 216.01,138.53 302.22,169.53 86.22,30.03 179.22,45.53 278.99,45.53 100.76,0 193.74,-15.5 280.93,-47.47 87.19,-31 188.9,-87.19 306.11,-167.59 -35.84,-427.2 -145.31,-715.87 -329.35,-866.01 -183.09,-151.12 -463.05,-226.67 -838.9,-226.67l0 1092.68zm0 935.77c127.87,-73.63 237.32,-124 328.38,-151.11 90.09,-27.13 188.9,-40.69 296.43,-40.69 103.64,0 199.54,12.59 288.67,37.77 88.16,25.19 194.72,72.66 318.7,142.4l-45.53 -767.21c-120.11,73.63 -224.74,124 -312.88,151.13 -87.19,27.11 -183.09,40.68 -287.72,40.68 -99.77,0 -198.57,-16.47 -297.38,-48.44 -97.85,-31.97 -193.75,-79.43 -288.67,-143.37l0 778.84zm0 639.34c229.58,18.4 416.54,41.66 560.87,68.78 144.34,27.12 370.04,83.31 677.13,169.52 3.87,-285.77 5.81,-433.01 5.81,-442.7 0,-22.27 -1.94,-113.32 -5.81,-272.2 -120.12,-83.31 -226.67,-140.45 -317.73,-172.42 -92.03,-31.98 -190.85,-48.45 -298.37,-48.45 -109.46,0 -210.2,16.47 -304.18,48.45 -92.98,31.97 -198.58,89.11 -317.72,172.42l0 476.6z"/>
  </g>
 </g>
</svg>
