<svg xmlns="http://www.w3.org/2000/svg" viewBox="0 0 200 200">
  <title>dw</title>
  <rect width="200" height="200" style="fill: none"/>
  <g>
    <path d="M135.9,55.1a47.9,47.9,0,0,0-35.8,16,48.1,48.1,0,1,0,0,64.1A48.1,48.1,0,1,0,135.9,55.1ZM64.6,141a37.7,37.7,0,1,1,37.7-37.7A37.7,37.7,0,0,1,64.6,141Zm88.8-20.6h-9.4l-6.7-15.9-6.6,15.9h-9.4L110.7,87.6h11.1l5,17,6.2-17h8.5l6.2,17,5-17h11.1Z" transform="translate(0 -0.5)" style="fill: #91959e"/>
    <path d="M65.8,111.3H55.4V95.8H65.8c7.5,0,10.2,3.1,10.2,7.8s-2.7,7.8-10.2,7.8M67.2,85H43.7v37.2H67.2c10.5,0,21.2-5.2,21.2-18.6S77.7,85,67.2,85" transform="translate(0 -0.5)" style="fill: #91959e"/>
  </g>
</svg>
