<svg xmlns="http://www.w3.org/2000/svg" viewBox="0 0 200 200">
  <title>sos</title>
  <rect width="200" height="200" style="fill: none"/>
  <g>
    <g>
      <g>
        <path d="M65.5,90.5c0,2,1.5,2.8,3.3,2.8s2.8-1,2.8-2a1.6,1.6,0,0,0-1.1-1.6l-3.9-1.1c-2.2-.6-2.9-2-2.9-3.3s2.4-3.9,4.8-3.8,5,1.5,5,4.2H71.2c-0.1-1.7-1.2-2.3-2.8-2.3s-2.4.4-2.4,1.7a1.8,1.8,0,0,0,1.6,1.7l3.8,1a3.5,3.5,0,0,1,2.5,3.3c0,2.9-2.6,4.1-5.2,4.1s-5.4-1.4-5.5-4.7h2.3Z" transform="translate(0 -0.5)" style="fill: #91959e"/>
        <path d="M87.9,88.4c0,3.7-2.4,6.9-6.3,6.9s-6.3-3.1-6.3-6.9,2.4-6.9,6.3-6.9S87.9,84.6,87.9,88.4Zm-10.3,0c0,2.5,1.2,5,4,5s4-2.5,4-5-1.2-5-4-5S77.6,85.8,77.6,88.4Z" transform="translate(0 -0.5)" style="fill: #91959e"/>
        <path d="M91.6,90.6c0,2,1.5,2.8,3.3,2.8s2.8-1,2.8-2a1.6,1.6,0,0,0-1.1-1.6l-3.9-1.1c-2.2-.6-2.9-2-2.9-3.3s2.4-3.9,4.8-3.8,5,1.5,5,4.2H97.3c-0.1-1.7-1.2-2.3-2.8-2.3s-2.4.4-2.4,1.7a1.8,1.8,0,0,0,1.6,1.7l3.8,1a3.5,3.5,0,0,1,2.5,3.3c0,2.9-2.6,4.1-5.2,4.1s-5.4-1.4-5.5-4.7h2.3Z" transform="translate(0 -0.5)" style="fill: #91959e"/>
      </g>
      <g>
        <path d="M64,98.3h2.3v6l5.8-6h2.8l-5.2,5.2,5.6,7.9H72.4l-4.3-6.3L66.2,107v4.4H63.9V98.3Z" transform="translate(0 -0.5)" style="fill: #91959e"/>
        <path d="M77,98.3h2.3v13.1H77V98.3Z" transform="translate(0 -0.5)" style="fill: #91959e"/>
        <path d="M82.4,98.3h2.4l6,9.7h0V98.3H93v13.1H90.6l-5.9-9.6H84.6v9.6H82.4V98.3Z" transform="translate(0 -0.5)" style="fill: #91959e"/>
        <path d="M96,98.3h5.4c4,0,5.8,2.9,5.8,6.6s-1.8,6.5-5.8,6.5H96V98.3Zm2.3,11.2h2.3c3.6,0,4.4-2,4.4-4.7s-0.8-4.7-4.4-4.7H98.3v9.4Z" transform="translate(0 -0.5)" style="fill: #91959e"/>
        <path d="M109.5,98.4H119v2h-7.1v3.4h6.6v1.9h-6.6v3.8h7.3v2h-9.6V98.4h0Z" transform="translate(0 -0.5)" style="fill: #91959e"/>
        <path d="M121.6,98.4h6.3c2.9,0,4.3,1.3,4.3,3.5a3.2,3.2,0,0,1-2.2,3.3h0c0.8,0.1,1.9.7,1.9,2.8s0.2,2.9.7,3.4h-2.5a3.7,3.7,0,0,1-.3-1.9c0-2.4-.5-3.5-2.6-3.5h-3.4v5.4h-2.3V98.4Zm2.3,6h3.8a1.9,1.9,0,0,0,2.2-2.1c0-1.7-1.1-2-2.3-2h-3.7v4.1h0Z" transform="translate(0 -0.5)" style="fill: #91959e"/>
        <path d="M134.8,98.4h5.4c4,0,5.8,2.9,5.8,6.6s-1.8,6.5-5.8,6.5h-5.4V98.4Zm2.3,11.2h2.3c3.6,0,4.4-2,4.4-4.7s-0.8-4.7-4.4-4.7h-2.3v9.4Z" transform="translate(0 -0.5)" style="fill: #91959e"/>
        <path d="M160.3,105c0,3.7-2.4,6.9-6.3,6.9s-6.3-3.1-6.3-6.9,2.4-6.9,6.3-6.9S160.3,101.3,160.3,105Zm-10.3,0c0,2.5,1.2,5,4,5s4-2.5,4-5-1.2-5-4-5S150.1,102.5,150.1,105Z" transform="translate(0 -0.5)" style="fill: #91959e"/>
        <path d="M162.6,98.5h6.3c2.9,0,4.3,1.3,4.3,3.5a3.2,3.2,0,0,1-2.2,3.3h0c0.8,0.1,1.9.7,1.9,2.8s0.2,2.9.7,3.4h-2.5a3.6,3.6,0,0,1-.3-1.9c0-2.4-.5-3.5-2.6-3.5h-3.4v5.4h-2.3V98.5h0Zm2.3,6h3.8a1.9,1.9,0,0,0,2.2-2.1c0-1.7-1.1-2-2.3-2h-3.7v4.1h0Z" transform="translate(0 -0.5)" style="fill: #91959e"/>
        <path d="M176.1,98.5h9v2h-6.8v3.4h5.9v1.9h-5.9v5.8h-2.3V98.5h0Z" transform="translate(0 -0.5)" style="fill: #91959e"/>
      </g>
    </g>
    <path d="M39.1,97.2h0.2l0.2,0.2a5.1,5.1,0,0,1-.2,3.4,6.9,6.9,0,0,1-2.5,2.8H36.6l-0.2-.2a6.9,6.9,0,0,1,.3-3.7,5.1,5.1,0,0,1,2.4-2.5m-4.9,2.2a6.9,6.9,0,0,1,.4,3.7l-0.2.2H34.1a6.9,6.9,0,0,1-2.5-2.8,5.1,5.1,0,0,1-.2-3.4l0.2-.2h0.2A5.1,5.1,0,0,1,34.2,99.4Zm19,7.4h-11V107s-0.6,1.9-1.9,1.6-0.7-1.9-.7-1.9H35.8v2.1H35.2v-2.1H31.7v0.5a1.2,1.2,0,0,1-.6,1.3c-0.9.4-1.4-.9-1.4-0.9l-0.4-1H17.5v-0.6H29l-0.3-.7c-0.4-1.1-.8-2.9-0.9-2.9l-1.6-.2-1.5-.3c-0.2.1-2,2.3-3.1,2.6s-2.3-1.2-2.3-1.2l-1.4-1.9a1,1,0,0,1-.1-1.1,0.7,0.7,0,0,1,1-.1l2.1,1.4H21l0.5-.5a0.1,0.1,0,0,0,0-.2l-1.3-1.3a0.7,0.7,0,0,1,0-.8l2.8-5.6-3.7.8a0.7,0.7,0,0,1-.9-0.3,0.9,0.9,0,0,1,.5-0.9L23.8,90l0.3-.2h0.3a2.7,2.7,0,0,0,1.6.5,2.2,2.2,0,0,0,1.5-.6l0.3-.2a1.4,1.4,0,0,1,.6.4l4.3,4.8a0.8,0.8,0,0,1,.1,1,0.8,0.8,0,0,1-1,0L29,94.1c-0.1,0-.1.1-0.1,0.1l2.6,11.9h3.6V93.6a4.4,4.4,0,0,1-1.7-3.8,4.5,4.5,0,0,1,1.8-3.9h0.3a4.5,4.5,0,0,1,1.8,3.9,4.6,4.6,0,0,1-1.6,3.7v12.6h4l1.6-7.7s0.9-4.4.9-4.4L39,96.1a0.7,0.7,0,0,1-.9,0c-0.5-.5.2-1.1,0.2-1.1l4.1-4.8a0.4,0.4,0,0,1,.3-0.2,0.3,0.3,0,0,1,.3.2,8.9,8.9,0,0,0,.5,1.2l0.7-.6,0.5-.3a0.3,0.3,0,0,1,.3.1l0.7,1,0.2,0.2h0.1l0.8-1.5a1.6,1.6,0,0,1,.3-0.5,0.6,0.6,0,0,1,.5.1l4.7,2.8a0.8,0.8,0,0,1,.5.9c-0.2.7-1.3,0.3-1.3,0.3L48,93.3a0.2,0.2,0,0,0,0,.2s2.5,5.7,2.5,6.1a0.8,0.8,0,0,1-.3.5l-0.9.6a0.2,0.2,0,0,0,.1.2l0.6,0.5h0.3l1.5-.8a1,1,0,0,1,1.2,0c0.5,0.5-.2,1.2-0.2,1.2l-1.4,1.6a3.3,3.3,0,0,1-1.7,1.3,2.5,2.5,0,0,1-1.7-.7l-2.6-2.5H45.3a4.5,4.5,0,0,1-.4.8l-0.3.2-1.1.2a0.6,0.6,0,0,0-.1.2l-1,3.5H53.3v0.6h0ZM24.3,84.3A2.7,2.7,0,0,1,28,85.6c0.4,0.9.2,1.2-.3,1.5a1.8,1.8,0,0,1,.1.7,1.8,1.8,0,0,1-3.5.7,0.9,0.9,0,0,1-1.3-.6A2.7,2.7,0,0,1,24.3,84.3ZM42,84.9a1.9,1.9,0,0,1,1.2-.7,2.3,2.3,0,0,1,2.4.2c1.4,1.1.5,3,.5,3s-0.3,1.7-.4,1.9a1.4,1.4,0,0,1-.6.4H44.5l-0.8-.2a0.5,0.5,0,0,1-.2-0.4,1,1,0,0,0-.1-0.3,2.2,2.2,0,0,1-1.3-1,3,3,0,0,1-.1-1.9A5.7,5.7,0,0,0,42,84.9Zm11.1-2.3c-2.7-2.3-7.9-2.6-17.7-2.6s-14.9.3-17.6,2.6-3,6.4-3,13.9,0.2,11.7,3,14,7.9,2.6,17.6,2.6,14.9-.3,17.7-2.6,3-6.4,3-14S55.8,84.8,53.1,82.5Zm-14.3,18a4.5,4.5,0,0,0,.3-2.6,4.5,4.5,0,0,0-1.7,2,6,6,0,0,0-.4,2.9A5.9,5.9,0,0,0,38.8,100.5Zm-3.6-7.8v-6a4.2,4.2,0,0,0-1,3A4.1,4.1,0,0,0,35.2,92.8ZM34,102.5a6,6,0,0,0-.4-2.9,4.5,4.5,0,0,0-1.7-2,4.5,4.5,0,0,0,.3,2.6A6,6,0,0,0,34,102.5ZM35.8,87v5.7a4.3,4.3,0,0,0,.9-2.8A4.3,4.3,0,0,0,35.8,87Z" transform="translate(0 -0.5)" style="fill: #91959e"/>
  </g>
</svg>
