<?xml version="1.0" encoding="UTF-8"?>
<!DOCTYPE svg PUBLIC "-//W3C//DTD SVG 1.1//EN" "http://www.w3.org/Graphics/SVG/1.1/DTD/svg11.dtd">
<!-- Creator: CorelDRAW 2017 -->
<svg xmlns="http://www.w3.org/2000/svg" xml:space="preserve" width="215.9mm" height="215.9mm" version="1.1" style="shape-rendering:geometricPrecision; text-rendering:geometricPrecision; image-rendering:optimizeQuality; fill-rule:evenodd; clip-rule:evenodd"
viewBox="0 0 21590 21590"
 xmlns:xlink="http://www.w3.org/1999/xlink">
 <defs>
  <style type="text/css">
   <![CDATA[
    .str0 {stroke:#91959E;stroke-width:7.62;stroke-miterlimit:22.9256}
    .fil5 {fill:none}
    .fil4 {fill:#4EF298}
    .fil3 {fill:#81848C}
    .fil2 {fill:#91959E}
    .fil6 {fill:#EE4552}
    .fil1 {fill:#81848C;fill-rule:nonzero}
    .fil0 {fill:#91959E;fill-rule:nonzero}
   ]]>
  </style>
   <clipPath id="id0">
    <path d="M9652.56 3369.96c443.98,115.07 947.78,776.34 1363.19,2158.36 175.56,583.92 258.2,1042.75 285.87,1491.49 -159.38,418.62 -286.78,858.38 -367.57,1277.59l-516.88 -11.66c121.02,-1470.99 219.07,-2152.52 -191.92,-3519.49 -178.49,-593.81 -373.31,-1054.64 -572.69,-1396.29zm6524.07 1862.26c143.64,39.75 279.73,95.9 404.5,171.59 669.02,406.01 386.45,999.75 -205.19,1282.52 -1504.13,718.69 -1334.1,869.89 -2266.15,2035.74 -407.23,509.38 -710.1,628.36 -1129.86,1055.34 165.59,429.16 773.96,1053.76 356.91,2137.08 -1042.37,-487.65 -1890.6,-840.3 -3223.71,-486.81 -221.08,58.76 -323.02,118.89 -504.23,172.14 -550.94,162.27 -519.91,-371.84 -326.75,-923.07 13.05,-3.72 26.53,-7.43 40.48,-11.14 1333.11,-353.49 2181.34,-0.84 3223.71,486.81 417.04,-1083.32 -191.32,-1707.92 -356.91,-2137.08 419.76,-426.98 722.63,-545.96 1129.85,-1055.34 932.06,-1165.85 762.03,-1317.05 2266.16,-2035.74 336.3,-160.73 572.62,-421.95 591.19,-692.04z"/>
   </clipPath>
   <clipPath id="id1">
    <path d="M10474.88 13322.05c191.38,266.08 525.33,426.17 945.58,299.2 113.58,-34.31 223.25,-100.02 280.14,-148.83 727.35,-624.03 137.5,-1657.18 -650.16,-1542.64 255.96,333.37 284.03,842.11 -143.88,1209.25 -56.9,48.81 -166.56,114.52 -280.15,148.84 -51.86,15.67 -102.4,26.92 -151.53,34.18z"/>
   </clipPath>
 </defs>
 <g id="Capa_x0020_1">
  <metadata id="CorelCorpID_0Corel-Layer"/>
  <path class="fil0" d="M2839.9 18499.65l-452.54 -632.79 -467.88 632.79 -651.96 0 793.86 -1039.31 -767.01 -1023.96 671.13 0 437.2 602.1 448.71 -602.1 636.62 0 -767.01 1008.62 797.69 1054.65 -678.81 0zm779.12 -2063.27l598.27 0 0 2063.27 -598.27 0 0 -2063.27zm299.13 -287.63c-109.94,0 -199.42,-31.96 -268.45,-95.88 -69.04,-63.92 -103.55,-143.18 -103.55,-237.78 0,-94.59 34.51,-173.85 103.55,-237.77 69.03,-63.92 158.51,-95.88 268.45,-95.88 109.94,0 199.43,30.68 268.46,92.04 69.03,61.37 103.54,138.07 103.54,230.11 0,99.71 -34.51,182.17 -103.54,247.36 -69.03,65.2 -158.52,97.8 -268.46,97.8zm664.07 287.63l598.27 0 0 2063.27 -598.27 0 0 -2063.27zm299.13 -287.63c-109.94,0 -199.42,-31.96 -268.45,-95.88 -69.04,-63.92 -103.55,-143.18 -103.55,-237.78 0,-94.59 34.51,-173.85 103.55,-237.77 69.03,-63.92 158.51,-95.88 268.45,-95.88 109.94,0 199.43,30.68 268.46,92.04 69.03,61.37 103.54,138.07 103.54,230.11 0,99.71 -34.51,182.17 -103.54,247.36 -69.03,65.2 -158.52,97.8 -268.46,97.8zm1883.62 256.95c191.76,0 366.25,44.1 523.49,132.31 157.24,88.2 280.6,212.2 370.08,372 89.49,159.79 134.23,345.8 134.23,558 0,212.21 -44.74,398.21 -134.23,558.01 -89.48,159.79 -212.84,283.79 -370.08,372 -157.24,88.21 -331.73,132.31 -523.49,132.31 -283.79,0 -499.84,-89.48 -648.13,-268.45l0 237.77 -571.42 0 0 -2845.63 598.27 0 0 1000.96c150.84,-166.19 357.94,-249.28 621.28,-249.28zm-103.55 1633.74c153.41,0 279.33,-51.77 377.76,-155.32 98.43,-103.55 147.65,-242.25 147.65,-416.11 0,-173.85 -49.22,-312.56 -147.65,-416.1 -98.43,-103.55 -224.35,-155.32 -377.76,-155.32 -153.4,0 -279.32,51.77 -377.75,155.32 -98.44,103.54 -147.65,242.25 -147.65,416.1 0,173.86 49.21,312.56 147.65,416.11 98.43,103.55 224.35,155.32 377.75,155.32zm2378.35 11.51c107.38,0 202.62,-15.98 285.72,-47.94 83.09,-31.96 160.43,-82.46 232.02,-151.49l318.31 345.16c-194.31,222.43 -478.11,333.65 -851.39,333.65 -232.66,0 -438.48,-45.38 -617.45,-136.14 -178.97,-90.77 -317.03,-216.69 -414.18,-377.76 -97.16,-161.07 -145.74,-343.88 -145.74,-548.42 0,-201.98 47.94,-384.14 143.82,-546.5 95.88,-162.35 227.55,-288.9 395.01,-379.67 167.47,-90.76 356.02,-136.14 565.68,-136.14 196.86,0 375.83,41.54 536.91,124.64 161.07,83.09 289.55,203.26 385.42,360.49 95.88,157.24 143.82,343.24 143.82,558.01l-1526.36 295.3c43.46,102.27 111.85,178.97 205.17,230.1 93.32,51.14 207.74,76.71 343.24,76.71zm-88.2 -1192.71c-150.85,0 -273.57,48.57 -368.17,145.73 -94.6,97.15 -144.46,231.38 -149.57,402.68l1004.79 -195.59c-28.12,-107.38 -85.65,-193.03 -172.58,-256.95 -86.93,-63.92 -191.75,-95.87 -314.47,-95.87zm1849.1 -149.57c71.59,-99.71 168.11,-175.14 289.55,-226.27 121.45,-51.14 261.43,-76.7 419.94,-76.7l0 552.25c-66.47,-5.12 -111.21,-7.67 -134.23,-7.67 -171.3,0 -305.52,47.94 -402.68,143.81 -97.15,95.88 -145.73,239.7 -145.73,431.45l0 974.11 -598.27 0 0 -2063.27 571.42 0 0 272.29z"/>
  <path class="fil1" d="M12923.93 18360.45c-42.75,38.48 -95.13,67.87 -157.12,88.18 -62,20.31 -127.2,30.46 -195.61,30.46 -158.19,0 -280.04,-42.75 -365.55,-128.26 -85.51,-85.51 -128.27,-206.29 -128.27,-362.35l0 -1580.86 227.67 0 0 368.76 509.85 0 0 192.4 -509.85 0 0 1006.87c0,100.48 24.59,176.9 73.75,229.28 49.17,52.37 120.79,78.56 214.85,78.56 102.61,0 185.98,-28.86 250.11,-86.58l80.17 163.54zm483.74 -1253.79c53.44,-113.3 133.07,-198.81 238.89,-256.53 105.82,-57.72 236.75,-86.58 392.81,-86.58l0 221.26 -54.51 -3.21c-177.44,0 -316.39,54.51 -416.86,163.54 -100.48,109.02 -150.71,261.87 -150.71,458.55l0 859.37 -227.67 0 0 -1686.68 218.05 0 0 330.28zm2417.32 -330.28l0 1686.68 -218.05 0 0 -333.49c-68.41,113.3 -158.72,199.88 -270.96,259.74 -112.23,59.85 -238.89,89.78 -379.98,89.78 -158.19,0 -301.42,-36.34 -429.69,-109.02 -128.26,-72.69 -228.74,-174.23 -301.42,-304.63 -72.68,-130.4 -109.03,-278.98 -109.03,-445.72 0,-166.75 36.35,-315.32 109.03,-445.72 72.68,-130.4 173.16,-231.41 301.42,-303.03 128.27,-71.61 271.5,-107.42 429.69,-107.42 136.81,0 260.27,28.33 370.36,84.98 110.1,56.65 200.42,139.48 270.96,248.51l0 -320.66 227.67 0zm-849.75 1500.7c117.57,0 223.93,-27.26 319.06,-81.77 95.13,-54.52 169.95,-132.01 224.46,-232.48 54.51,-100.48 81.77,-214.85 81.77,-343.11 0,-128.27 -27.26,-242.64 -81.77,-343.11 -54.51,-100.47 -129.33,-177.97 -224.46,-232.48 -95.13,-54.51 -201.49,-81.77 -319.06,-81.77 -119.72,0 -227.14,27.26 -322.27,81.77 -95.13,54.51 -169.95,132.01 -224.46,232.48 -54.51,100.47 -81.77,214.84 -81.77,343.11 0,128.26 27.26,242.63 81.77,343.11 54.51,100.47 129.33,177.96 224.46,232.48 95.13,54.51 202.55,81.77 322.27,81.77zm2754.02 -1500.7l-750.35 1686.68 -234.08 0 -747.14 -1686.68 237.29 0 631.7 1436.56 638.12 -1436.56 224.46 0zm846.08 1500.7c104.75,0 201.49,-18.71 290.2,-56.12 88.72,-37.41 164.08,-92.46 226.07,-165.14l128.27 147.5c-74.83,89.79 -167.82,158.2 -278.98,205.23 -111.16,47.03 -234.08,70.54 -368.76,70.54 -173.16,0 -327.08,-36.87 -461.76,-110.63 -134.67,-73.75 -239.42,-175.82 -314.24,-306.23 -74.82,-130.4 -112.24,-277.9 -112.24,-442.51 0,-164.61 35.81,-312.11 107.43,-442.51 71.61,-130.41 170.48,-231.95 296.61,-304.63 126.13,-72.69 269.35,-109.03 429.69,-109.03 149.64,0 284.85,34.21 405.63,102.61 120.79,68.41 216.98,163.54 288.6,285.39 71.61,121.85 109.56,260.81 113.83,416.86l-1385.26 269.36c42.76,136.81 120.25,244.24 232.48,322.26 112.24,78.03 246.38,117.05 402.43,117.05zm-57.71 -1317.92c-117.58,0 -222.86,27.25 -315.86,81.76 -92.99,54.52 -165.67,130.41 -218.05,227.67 -52.37,97.27 -78.56,208.97 -78.56,335.1 0,32.06 1.07,55.58 3.21,70.54l1189.65 -230.88c-25.65,-141.09 -90.85,-257.06 -195.6,-347.91 -104.75,-90.86 -233.01,-136.28 -384.79,-136.28zm1599.64 1519.93c-151.78,0 -268.83,-42.75 -351.13,-128.26 -82.3,-85.51 -123.45,-204.16 -123.45,-355.94l0 -1911.14 227.67 0 0 1891.9c0,100.48 23.51,176.9 70.54,229.28 47.03,52.37 117.58,78.56 211.64,78.56 59.85,0 111.16,-9.62 153.92,-28.86l16.03 189.19c-66.27,23.52 -134.68,35.27 -205.22,35.27z"/>
  <path class="fil2 str0" d="M11134.63 1015.55l0.2 0c3754.03,0 6825.73,3071.55 6825.73,6825.7l0 0.25c0,3754.15 -3071.7,6825.71 -6825.73,6825.71l-0.2 0c-3754.03,0 -6825.73,-3071.56 -6825.73,-6825.71l0 -0.25c0,-3754.15 3071.7,-6825.7 6825.73,-6825.7zm-2106.44 7911.46c-511.34,-928.12 -895.32,-1357.43 -1150.77,-2823.47 -608.06,-3490.08 1204.75,-5140.15 2347.83,-1337.29 410.99,1366.97 312.94,2048.5 191.92,3519.49l516.88 11.66c224.03,-1162.42 806.2,-2482.87 1436,-3072.42 518.03,-484.79 2368.05,-1221.74 3420.58,-583.24 669.02,406.01 386.45,999.76 -205.19,1282.52 -1504.13,718.69 -1334.1,869.89 -2266.16,2035.74 -407.22,509.38 -710.09,628.36 -1129.85,1055.34 165.59,429.16 773.95,1053.76 356.91,2137.08 -1042.37,-487.65 -1890.6,-840.3 -3223.71,-486.81 -221.08,58.76 -323.03,118.89 -504.23,172.14 -969.09,285.43 -137.81,-1583.77 209.79,-1910.74zm1058.49 2711.3c-1062.22,373.38 -551.81,1979.33 539.73,1649.56 113.59,-34.32 223.25,-100.03 280.15,-148.84 778.79,-668.18 47.49,-1805.6 -819.88,-1500.72z"/>
  <path class="fil3" d="M9652.56 3369.96c443.98,115.07 947.78,776.34 1363.19,2158.36 175.56,583.92 258.2,1042.75 285.87,1491.49 -159.38,418.62 -286.78,858.38 -367.57,1277.59l-516.88 -11.66c121.02,-1470.99 219.07,-2152.52 -191.92,-3519.49 -178.49,-593.81 -373.31,-1054.64 -572.69,-1396.29zm6524.07 1862.26c143.64,39.75 279.73,95.9 404.5,171.59 669.02,406.01 386.45,999.75 -205.19,1282.52 -1504.13,718.69 -1334.1,869.89 -2266.15,2035.74 -407.23,509.38 -710.1,628.36 -1129.86,1055.34 165.59,429.16 773.96,1053.76 356.91,2137.08 -1042.37,-487.65 -1890.6,-840.3 -3223.71,-486.81 -221.08,58.76 -323.02,118.89 -504.23,172.14 -550.94,162.27 -519.91,-371.84 -326.75,-923.07 13.05,-3.72 26.53,-7.43 40.48,-11.14 1333.11,-353.49 2181.34,-0.84 3223.71,486.81 417.04,-1083.32 -191.32,-1707.92 -356.91,-2137.08 419.76,-426.98 722.63,-545.96 1129.85,-1055.34 932.06,-1165.85 762.03,-1317.05 2266.16,-2035.74 336.3,-160.73 572.62,-421.95 591.19,-692.04z"/>
  <g style="clip-path:url(#id0)">
   <g id="_2246880594192">
    <circle class="fil4" cx="5718.68" cy="10482.45" r="2872.28"/>
   </g>
  </g>
  <path class="fil5" d="M9652.56 3369.96c443.98,115.07 947.78,776.34 1363.19,2158.36 175.56,583.92 258.2,1042.75 285.87,1491.49 -159.38,418.62 -286.78,858.38 -367.57,1277.59l-516.88 -11.66c121.02,-1470.99 219.07,-2152.52 -191.92,-3519.49 -178.49,-593.81 -373.31,-1054.64 -572.69,-1396.29zm6524.07 1862.26c143.64,39.75 279.73,95.9 404.5,171.59 669.02,406.01 386.45,999.75 -205.19,1282.52 -1504.13,718.69 -1334.1,869.89 -2266.15,2035.74 -407.23,509.38 -710.1,628.36 -1129.86,1055.34 165.59,429.16 773.96,1053.76 356.91,2137.08 -1042.37,-487.65 -1890.6,-840.3 -3223.71,-486.81 -221.08,58.76 -323.02,118.89 -504.23,172.14 -550.94,162.27 -519.91,-371.84 -326.75,-923.07 13.05,-3.72 26.53,-7.43 40.48,-11.14 1333.11,-353.49 2181.34,-0.84 3223.71,486.81 417.04,-1083.32 -191.32,-1707.92 -356.91,-2137.08 419.76,-426.98 722.63,-545.96 1129.85,-1055.34 932.06,-1165.85 762.03,-1317.05 2266.16,-2035.74 336.3,-160.73 572.62,-421.95 591.19,-692.04z"/>
  <path class="fil3" d="M10474.88 13322.05c191.38,266.08 525.33,426.17 945.58,299.2 113.58,-34.31 223.25,-100.02 280.14,-148.83 727.35,-624.03 137.5,-1657.18 -650.16,-1542.64 255.96,333.37 284.03,842.11 -143.88,1209.25 -56.9,48.81 -166.56,114.52 -280.15,148.84 -51.86,15.67 -102.4,26.92 -151.53,34.18z"/>
  <g style="clip-path:url(#id1)">
   <g id="_2246880592688">
    <ellipse class="fil6" cx="11310.16" cy="16146.33" rx="2424.91" ry="2100.45"/>
   </g>
  </g>
  <path class="fil5" d="M10474.88 13322.05c191.38,266.08 525.33,426.17 945.58,299.2 113.58,-34.31 223.25,-100.02 280.14,-148.83 727.35,-624.03 137.5,-1657.18 -650.16,-1542.64 255.96,333.37 284.03,842.11 -143.88,1209.25 -56.9,48.81 -166.56,114.52 -280.15,148.84 -51.86,15.67 -102.4,26.92 -151.53,34.18z"/>
 </g>
</svg>
