<svg xmlns="http://www.w3.org/2000/svg" viewBox="0 0 200 200">
  <title>zdf</title>
  <rect width="200" height="200" style="fill: none"/>
  <path d="M171.6,87.4h17V79.3H168.2c-11,0-15.6,6.2-15.6,15.9v1c-1.9-11.4-8.6-16.8-21-16.8H110.8a51,51,0,1,0-.2,45.8h21.2c5.1,0,9.6-.3,14.3-4s5.5-6.4,6.4-11.3V125h9.7V107h23V99h-23V95.8C162.4,90.5,164,87.4,171.6,87.4Zm-61,29.9V125H72.1V113.7c0-9.7,4.6-15.4,15.6-15.4H94c5,0,8-1,8-5.3s-3-5.6-8.1-5.6H72.4V79.3h25c12.7,0,14.5,8.9,14.5,13.8s-2.2,13.6-14.5,13.6H91.2c-7.7,0-9.3,2.8-9.3,8v2.5h28.7Zm20.7-.2H120.6V87.4h10.7c8.4,0,11.5,3.6,11.5,14.8S139.8,117,131.4,117Z" transform="translate(-0.3 -0.5)" style="fill: #91959e"/>
</svg>
