<?xml version="1.0" encoding="UTF-8"?>
<!DOCTYPE svg PUBLIC "-//W3C//DTD SVG 1.1//EN" "http://www.w3.org/Graphics/SVG/1.1/DTD/svg11.dtd">
<!-- Creator: CorelDRAW 2017 -->
<svg xmlns="http://www.w3.org/2000/svg" xml:space="preserve" width="23.072mm" height="23.072mm" version="1.1" style="shape-rendering:geometricPrecision; text-rendering:geometricPrecision; image-rendering:optimizeQuality; fill-rule:evenodd; clip-rule:evenodd"
viewBox="0 0 2307.2 2307.2"
 xmlns:xlink="http://www.w3.org/1999/xlink">
 <defs>
  <style type="text/css">
   <![CDATA[
    .fil2 {fill:#373435}
    .fil1 {fill:#E3E3E3}
    .fil0 {fill:#FAF9F9}
   ]]>
  </style>
 </defs>
 <g id="Capa_x0020_1">
  <metadata id="CorelCorpID_0Corel-Layer"/>
  <path class="fil0" d="M873.77 40.4c-164.1,51.52 -259.51,77.31 -409.77,192.58 -348.28,267.19 -558.2,793.1 -422.13,1200.1 53.98,161.45 95.64,282.43 191.27,405.65 535.21,689.63 1493.03,574.94 1891.02,-63.76 339.27,-544.49 196.93,-1217.8 -344.17,-1590.55 -204.79,-141.07 -583.95,-245.22 -906.22,-144.02z"/>
  <path class="fil1" d="M1198.66 146.48l0.03 0c556.98,0 1012.66,455.7 1012.66,1012.66l0 0.04c0,472.92 -328.56,872.77 -768.68,982.69 57.86,-106.43 27.3,-233.35 -77.03,-304.91 -41.17,-28.24 -117.39,-49.08 -182.18,-28.82 -32.97,10.31 -52.16,15.47 -82.36,38.54 -70.01,53.48 -112.22,158.75 -84.86,240.21 9.77,29.1 17.53,51.63 33.01,73.83 -486.79,-72.79 -863.26,-495.31 -863.26,-1001.54l0 -0.04c0,-556.96 455.69,-1012.66 1012.67,-1012.66zm-309.02 1387.92c-114.88,-133.01 -191.95,-189.47 -283.8,-418.55 -218.67,-545.36 18.73,-875.41 334.95,-297.7 113.68,207.66 121.21,321.6 152.16,564.44l84.26 -15.88c-3.61,-196.31 45.43,-430.57 127.35,-547.87 67.38,-96.48 342.2,-279.66 534.94,-212.26 122.5,42.87 97.07,148.92 10.8,215.15 -219.33,168.32 -186.55,187.01 -297.69,408.22 -48.55,96.65 -93.6,126.37 -147.03,210.08 41.63,63.93 161.82,144.36 131.39,334.47 -185.89,-43.28 -335.64,-71.33 -539.78,31.86 -33.85,17.13 -48.32,30.39 -75.9,45.27 -147.41,79.63 -76.81,-252.23 -31.65,-317.23z"/>
  <path class="fil2" d="M1153.59 146.48l0.03 0c556.98,0 1012.66,455.7 1012.66,1012.66l0 0.04c0,472.92 -328.56,872.77 -768.68,982.69 57.86,-106.43 27.3,-233.35 -77.03,-304.91 -41.17,-28.24 -117.39,-49.08 -182.18,-28.82 -32.97,10.31 -52.16,15.47 -82.36,38.54 -70.01,53.48 -112.22,158.75 -84.86,240.21 9.77,29.1 17.53,51.63 33.01,73.83 -486.79,-72.79 -863.26,-495.31 -863.26,-1001.54l0 -0.04c0,-556.96 455.69,-1012.66 1012.67,-1012.66zm-309.02 1387.92c-114.88,-133.01 -191.95,-189.47 -283.8,-418.55 -218.67,-545.36 18.73,-875.41 334.94,-297.7 113.69,207.66 121.22,321.6 152.17,564.44l84.26 -15.88c-3.61,-196.31 45.43,-430.57 127.34,-547.87 67.39,-96.48 342.21,-279.66 534.95,-212.26 122.5,42.87 97.07,148.92 10.8,215.15 -219.33,168.32 -186.55,187.01 -297.69,408.22 -48.55,96.65 -93.6,126.37 -147.03,210.08 41.63,63.93 161.81,144.36 131.39,334.47 -185.89,-43.28 -335.64,-71.33 -539.78,31.86 -33.85,17.13 -48.33,30.39 -75.9,45.27 -147.41,79.63 -76.81,-252.23 -31.65,-317.23z"/>
 </g>
</svg>
