<?xml version="1.0" encoding="UTF-8"?>
<!DOCTYPE svg PUBLIC "-//W3C//DTD SVG 1.1//EN" "http://www.w3.org/Graphics/SVG/1.1/DTD/svg11.dtd">
<!-- Creator: CorelDRAW 2017 -->
<svg xmlns="http://www.w3.org/2000/svg" xml:space="preserve" width="84.6666mm" height="11.0912mm" version="1.1" style="shape-rendering:geometricPrecision; text-rendering:geometricPrecision; image-rendering:optimizeQuality; fill-rule:evenodd; clip-rule:evenodd"
viewBox="0 0 8466.66 1109.12"
 xmlns:xlink="http://www.w3.org/1999/xlink">
 <defs>
  <style type="text/css">
   <![CDATA[
    .fil0 {fill:none}
    .fil3 {fill:#373435}
    .fil1 {fill:#171717}
    .fil2 {fill:#C9C9C9}
   ]]>
  </style>
 </defs>
 <g id="Capa_x0020_1">
  <metadata id="CorelCorpID_0Corel-Layer"/>
  <rect class="fil0" y="-0" width="8466.66" height="1109.13"/>
  <path class="fil1" d="M383.88 912.82c34.97,45.05 55.92,44.75 58.98,91.08 -18.32,15.16 -8.86,11.86 -37.09,16.46l-3.74 -11.69c-19.34,-54.47 -13.91,-18.93 -63.2,-52.7 15.62,-27.62 20.79,-25.42 45.05,-43.15zm25.96 134.24c40.26,-10.11 49.38,-16.68 61.08,-52.74 -36.26,-96.48 -90.38,-60.16 -55.57,-114.64 35.16,4.02 10.03,-14.47 33.31,23.65l59.08 81.4c-14.42,38.77 -44.64,68.19 -97.9,62.33zm379.15 -626.77c-46.03,17.52 -48.76,-58.88 -82.61,-90.8 -25.48,-24.03 -88.88,-49.54 -124.2,-58.09l35.25 -40.28c73.62,21.42 72.91,29.45 121.17,66.17 85.32,64.92 54.55,117.45 54.16,115.93 -0.35,-1.36 -2.28,4.85 -3.77,7.07zm-496.65 -147.24c-41.99,11.17 -104.01,13.46 -146.28,3.14 -27.45,-6.69 -23.29,-6.89 -36.98,-19.97 11.21,-42.47 20.64,-22.97 50.87,-17.1 44.3,8.6 250.41,-0.59 169.13,83.91 -25.91,-7.52 -14.77,15.36 -36.74,-49.98zm-9.9 72.01c20.92,-22.96 -7.7,-2.8 28.86,-3.46 28.05,-0.51 57.41,12.15 53.94,-75.55 -22.64,-16.12 -58.97,-42.34 -89.09,-42.95 -39.74,-0.82 -87.62,13.84 -122.94,-16.12 27.79,-8.01 107.57,-37.59 130.29,-28.29 31.66,12.95 43.86,57.8 109.39,56.88 -26.69,-32.96 -96.66,-46.94 -91.87,-102.15 6.06,-69.87 138.66,-122.33 258.8,-21.73 50.96,42.67 59.27,52.61 31.56,128.02l-97 18.2c43.74,32.08 8.86,-0.44 -11.64,171.26 -8.03,67.25 -14.14,143.28 -16.98,211.35 -13.02,312.18 -137.32,209.91 -150.79,325.04 24.04,20.5 28.22,19.33 62.9,27.4 -12.88,10.99 18.11,16.64 -36.17,9.45 -26.14,-3.47 -58.13,-32.11 -75.38,-56.02 18.24,-46.94 101.78,-103.69 122.9,-150.85 13.99,-31.24 11.86,-200.92 -21.8,-225.03 -38.98,65.76 15.66,184.05 -25.43,252.95l-25.32 -27.63c-2.51,-4.4 -10.91,-28.98 -12.72,-34.94 -22.42,-73.88 -52.14,-170.27 -44.99,-246.01 2.2,-23.36 15.07,-160.59 23.48,-169.82zm-8.44 -191.65c-77.1,29.79 -169.06,31.17 -189.53,102.81 34.03,53.11 114.88,43.21 185,43.36 -0.16,87.6 -36.64,180.81 -31.02,292.44 5.14,101.99 52.66,179.08 80.35,258.71 -26.59,28.39 -60.88,56.08 -81.01,95.66 80.79,119.05 146.52,48.42 144.61,95.85 -1.84,45.71 -299.8,-12.08 -356.65,26.21 64.24,13.78 461.74,4.97 581.32,4.98l144.42 0.97c12.3,-0.83 14.94,-0.47 26.64,-4.02 26.28,-7.99 4.31,4.03 22.22,-11.6l-321.16 -0.86c117.86,-93.27 -13.75,-117.64 -23.05,-199.74 -3.12,-27.49 15.57,-45.9 21.38,-81.99 21.25,-132.12 5.55,-385.68 62.45,-492.47 206.31,-8.49 183.85,228.6 267.33,144.79 15.31,-17.76 12.75,4.9 13.29,-38.03 0.2,-15.76 -4.72,-28 -10.32,-39.8 -21.42,-45.08 -97.22,-121.91 -182.8,-133.83 2.58,-73.13 -2.08,-85.34 -43.38,-119.65 -68.81,-57.16 -153.34,-85.26 -248.64,-46.1 -46.05,18.92 -52.11,44.64 -61.45,102.31z"/>
  <path class="fil1" d="M1260.37 867.88c-13.46,-12.34 -78.45,-102.36 -80.3,-122.48 -2.61,-28.29 37.27,-122.93 52.12,-140.45 60.44,112.35 83.79,145.51 28.18,262.93zm-112.52 -515.84c-34.17,-34.51 -4.14,-46.92 33.15,-62.6l-33.15 62.6zm31.31 56.16c-26.28,-47.3 14.7,-102.13 30.44,-155.86 -42.33,10.21 -108,52.74 -91.34,101.34 16.02,46.73 69.98,83.18 62.09,128.63 -47.55,21.33 -53.91,-16.73 -79.94,-52.28 -59.5,-81.27 -98.99,-120.25 95.37,-241.19 35.59,22.35 36.28,38.94 88.45,55.43 -26.14,-63.44 -116.07,-61.06 -56.46,-136.07 90.02,-113.29 277.82,-17.76 271.74,82.11 -5.22,85.76 -124.44,65.57 -147.79,77.04 41.91,29.59 84.6,5.75 123.38,-8.07 28.22,-10.06 61.88,10.29 91.91,30.07 64.36,42.4 59.37,171.73 -30.05,182.71 7.95,-45.15 41.87,-98.45 8.85,-141.36 -21.4,-27.8 -94.89,-41.53 -140.42,-34.92 -55.99,110.93 -47.83,265.28 -39.39,402.76 5.77,94.06 0.58,116.35 -38.06,190.05 -50.76,96.82 -62.37,103.1 13.11,143.77 -149.5,4.91 -77.2,-112.87 -38.32,-198.4 42.35,-93.18 -7.51,-127.22 -30.54,-202.7 -9.15,-29.97 -3.75,-41.66 -9.22,-54.84l-38.43 -3.21c-143.18,231.36 6.36,259.26 20.4,317.21 -3.56,32.17 -17.64,90.23 -39.57,110.94 -33.11,-40.68 42.9,-46.38 -14.28,-115.41 -92.95,-112.24 -113.94,-91.78 -51.67,-369.37 25.99,-13.75 52.84,-3.99 63.01,-41.9 9.33,-34.76 -10.32,-43.16 -23.27,-66.48zm87.72 639.5l-383.47 2.85c47.92,32 508.2,14.82 580.77,14.84l170.77 -3.05c27.59,-8.5 2.53,5.78 21.4,-11.47l-278.44 -0.54c-39.67,-14.5 4.77,5.56 -28.27,-26.45 -66.18,-64.15 -47.47,-12.54 18.63,-172.2 28.01,-67.68 20.27,-104.19 17.17,-182.11 -4.16,-104.74 -26.34,-205.54 17.14,-320.59 18.61,-49.26 46.97,-58.9 129.14,-4.94 11.23,72.56 -27.57,72.38 -5.62,139.46 76.27,19.69 108.81,-52.38 100.44,-128.17 -9.58,-86.77 -60.46,-80.69 -120.36,-116.57 57.97,-170.43 -170.11,-251.5 -272.87,-164.06 -35.45,30.16 -29.86,29.61 -46.51,77.87 -14.32,41.52 -55.69,46.32 -130.65,128.79 -28.49,31.33 -28.85,55.98 -11.78,99 44.66,112.54 88.71,71.23 67.27,176.02 -11.39,55.67 -38.99,168.3 -25.11,222.76 17.64,69.21 98.42,117.94 101.93,151.51 3.94,37.74 -43.83,64.48 8.62,83.48 57.95,21 2.59,-19.88 44.76,5.66 10.32,6.25 19.45,23.32 25.04,27.91z"/>
  <path class="fil1" d="M1948.08 876.07c-3.51,-66.77 -64.13,-104.01 -67.08,-146.76 -2.21,-32.13 48.29,-104.75 63.82,-135.97 36.53,-73.45 88.63,-222.44 109.77,-307.34 -38.73,11.56 -39.07,26.59 -61.58,58.92 -99.48,142.85 -36.49,231.34 -113.18,231 -45.66,-100.34 108.38,-322.47 153.37,-362.61 26.93,11.12 23.21,17.74 57.31,25.84 -13.63,-46.82 -39.99,-19.62 -49.43,-66.47 -29.43,-146.12 300.5,-151.78 281.69,19.92 -7.32,66.89 -78.82,61.58 -142.5,70.4 63.97,33.59 87.86,-12.96 129.81,7.87 33.82,16.8 80.09,52.64 91,87.87 -58.91,14.3 -159.18,55.22 -218.41,47.43 29.98,-49.75 114.88,-33.09 153.06,-69.11 -24.82,-21.54 -60.42,-34.61 -92.55,-38.35 -36.24,108.4 -44.93,39.77 -79.75,95.86 19.82,63.09 24.22,1.84 40.73,57.52 -0.41,248.96 60.47,338.8 -51.41,555.96 30.2,13.58 30.98,-3.35 59.17,19.17 -28.65,23.46 -66.49,13.22 -105.94,10.29 16.03,-80.65 53.29,-187.73 51.98,-268.84 -0.92,-57.26 -44.85,-197.77 -76.83,-226.35 -36.3,6.96 -105,115.45 -125.42,149.29 -36.36,60.23 13.96,126.26 37.3,189.86 -36.02,18.19 -60.61,44.76 -108.04,52.98 22.13,-38.02 34.11,-38.22 63.11,-58.38zm-89.64 -286.25l59.86 15.64c-112.55,180.81 -42.83,112.71 7.61,258.81 -28.57,30.46 -55.77,26.05 -57.07,76.68 44.62,22.91 111.26,-25.37 141.36,-50.97 4.1,-117.49 -134.37,-115.39 61.34,-325.25 1.52,1.92 3.52,2.64 4.09,6.1 0.58,3.44 3.19,4.75 3.95,6.16 1.01,1.85 5.76,10.38 7.01,13 71.46,149.97 49.24,213.94 21.66,341.17 -9.29,42.87 -17.22,109.75 -36.71,115.32 -58.07,0 -311.96,-11.61 -340.03,9.5 26.14,12.21 740.86,11.93 770.14,0 -32.65,-21.94 -220.93,-2.27 -257.56,-9.5 -58.66,-11.58 25.41,5.38 -38.22,-38.74 -2.94,-2.04 -17.14,-8.2 -19.26,-9.27 21.48,-99.59 60.21,-128.27 53.93,-259.08 -4.94,-102.72 -22.35,-203.09 -12.95,-306.48 65.27,-30.52 154.73,-17.28 195.27,-76.68 -7.67,-56.35 -70.88,-65.53 -109.37,-105.44 129.57,-181.4 -241.65,-293.25 -287.23,-121.11 -21.31,80.49 16.54,45.55 -41.76,110.92 -59.83,67.09 -150.07,234.08 -126.06,349.22z"/>
  <path class="fil1" d="M3101.39 262.07c20.44,4.37 101.63,-22.52 75.41,140.21 -32.33,1.34 -63.21,-40.5 -87.24,-59.12 -42.55,-32.97 -76.71,-28.86 -79.22,-71.58 31.78,-9.55 69.3,9.96 92.44,29.64l29.79 28.69c24.64,-45.11 -39.95,-68.64 -79.01,-78.36 -40.87,-10.17 -43.08,0.59 -43.56,0.71l-16.81 7.1c-14.72,66.42 85.74,79.89 110.74,125.09 1.19,2.15 0.63,193 3.73,225.19 32.4,336.99 20.22,234.18 -62.26,419.2l18.92 11.31c1.67,0.82 4.64,2.17 6.47,3.04 19.21,9.13 8.8,-1.55 29.82,13.26l-99.46 3.72c18.71,-75.68 78.02,-151.2 64.6,-241.08 -4.69,-31.44 -62.64,-212.52 -76.96,-241.06 -55.88,1.37 -52.49,36.99 -83.99,79.44 -38.16,51.43 -147.58,204.4 -171.39,259.56 -16.03,37.12 2.13,97.97 -172.49,118.48 83.71,-56.59 75.73,-57.18 125.58,-146.28 109.63,-195.91 213.02,-392.71 237.86,-631.07 -51.35,24.56 -111.45,158.54 -118.82,206.13 -8.16,52.61 9.91,57.98 -27.64,73.77 -16.7,-14.69 -16.43,-6.44 -14.11,-41.93 6.56,-100.63 104.37,-234.19 164.28,-300.25 41.67,14.2 15.94,17.89 66.76,28.3 -21.96,-36.45 -39.51,-35.88 -52.7,-59.93 -30.24,-55.14 26.57,-152.95 185.55,-107.11 97.21,28.02 165.8,156.86 -2.9,198.1l-23.39 6.83zm-179.66 -75.04c-60.83,34.77 -202.69,239.95 -172.09,362.16 82.53,12.8 51.63,-25.08 134.65,-231.86l1.35 52.22c-40.86,207.62 -124.75,346.43 -225.08,523.05 -10.9,19.21 -36.13,68.54 -48.75,85.19 -30.81,40.66 -65.3,18.46 -74.43,70.22 38.53,17.03 137.94,-17.67 170.26,-41.31 28.37,-20.76 36.57,-69.46 82.67,-147.86 58.48,-99.43 126.62,-176.42 183.92,-266.41 135.34,313.08 45.96,314.47 5.55,474.14 -62.52,1.61 -329.64,-12.28 -359.99,10.2 26.07,12.08 742.57,11.57 769.4,0 -32.3,-22.69 -205.28,-1.37 -247.03,-9.52l-66.5 -47.99c58.69,-126.57 74.16,-102.07 62.92,-278.36 -7.51,-118 -26.38,-211.04 -14.11,-332.29 19.42,11.76 22.54,16.95 55.13,15.59 26.4,-55.58 20,-94.43 6.91,-162.21 103.05,-91.4 63.96,-187.58 -51.11,-223.27 -138.91,-43.07 -235.06,4.93 -213.67,148.31z"/>
  <path class="fil1" d="M3845.9 389.15c-2.76,-45.45 25.69,-86.17 37.3,-133.31 20.04,-81.38 1.89,-112.99 34.04,-140.08 41,52.73 -2.65,154.5 -13.29,216.95 16.09,-16.57 7.51,-3.91 18.71,-28.58 16.02,-35.25 -1.87,-46.09 62.99,-54.52 -5.43,75.88 -65.31,146.7 -139.75,139.54zm-57.97 -162.09c-30.09,-60.41 -85.26,-62.87 -57.85,-124.1 19.13,-42.73 59.76,-67.81 129.28,-62.87 152.49,10.85 175.41,165.17 84.5,199.98 3.17,-56.89 12.13,-83.44 -2.14,-136.01 -54.9,-5.66 -49.71,-4.27 -71.03,62.24l-10.96 27.75c-30.17,-20.62 -40.67,-16.32 -47.49,-43.16l-24.84 19.86 80.23 51.46c-18.07,66.56 -56.29,153.54 -31.11,175.76l48.44 21.51c1.4,-2.27 5.39,2.26 7.67,4.03 -20.16,112.47 -4.02,211.23 12.22,318.2 21.23,139.94 -43.35,168.48 -54.27,278.44l-46.97 -3.89c7.18,-124.93 93.09,-194.63 2.27,-375.94 -53.01,-105.85 -20.13,-64.44 -32.43,-87.96 -31.91,21.16 -92.55,162.61 -115.4,206.57 -43.29,83.33 -49.91,166.88 -83.18,242.64 -31.94,12 -96.93,0.88 -135.93,-12.51 8.83,-9.54 -8.22,-0.9 15.92,-11.61 91.18,-40.46 46.14,62.35 127.68,-189.58 18.96,-58.58 41.47,-114.54 58.66,-171.01 19.34,-63.52 53.05,-323.05 49.36,-388.56 -39.03,-4.85 -107.15,49.58 -122.44,76.76 -27.51,48.87 -0.73,119.52 -59.49,134.91 -17.57,-71.5 -1.61,-157.66 41.77,-191.63 26.84,-21.03 124.31,-73.9 155.95,-80.21 44.17,38.23 24.46,44.06 81.58,58.93zm-298.18 221.3c123.58,39.93 33.36,-161.42 178.67,-201.34 -18.25,409.3 -80.45,386.99 -151.15,705.18 -47.77,7.82 -81.8,-0.32 -103.7,36.86 26.88,38.17 123.34,40.97 173.64,33.74 35.19,-65.66 36.09,-155.78 122.47,-318.17l51.44 -95.76c1.13,-1.34 3.47,-3.84 5.38,-5.58 27.25,65.69 64.01,110.58 58.07,203.82 -5.48,85.93 -35.82,144.85 -38.53,218.12 20.75,13.95 55.48,34.9 75.08,47.22l-428.51 1.51c2.46,1.81 6.41,0.74 8.13,4.52l716.78 11.52c12.42,-0.82 14.78,-0.42 26.64,-3.95 25.51,-7.61 5.14,3.22 22.22,-11.37l-250.8 -0.89 -39.16 -36.03c-17.31,-12.37 -23.5,-11.66 -42.07,-29.53 0.98,-72.8 58.76,-125.78 54.49,-210.49 -11.46,-227.11 -79.04,-322.96 33.18,-444.73 66.33,-71.98 28.99,-89.42 41.02,-141.97 22.64,-98.85 -0.67,-178.43 -134.19,-190.53 -105.97,-9.61 -142.66,31.37 -166.57,100.63 -13.48,39.06 17.66,16.8 -74.03,61.08 -103.09,49.8 -177.78,126.34 -138.5,266.14z"/>
  <path class="fil1" d="M4603.9 914.27c33.39,15.98 70.16,41.99 73.44,89.65 -35.4,-11.73 -53.97,-58.58 -73.44,-89.65zm56.24 -87.1c-21.33,-43.4 -29.74,-38.94 -8.58,-97.87 11.46,-31.9 24.37,-76.65 38.49,-104.08 30.99,85.05 50.87,162.86 -29.91,201.95zm100.5 -416.49c-10.89,-39.87 1.64,-86.94 10.39,-127.39 15.4,-71.22 4.55,-67.85 7.1,-127.6 104.8,20.57 12.97,150.12 38.18,211.13 9.74,-12.99 -1.69,11.77 10.71,-17.9 25.06,-60.01 -14.62,-58 62.52,-83.15 0.74,28.61 -57.17,144.52 -128.9,144.91zm-1.84 -205.59c-39.52,-4.68 -49.97,-18.04 -74.88,-1.6l79.98 25.36c-32.94,200.99 -56.7,213.49 59.81,187.13 -18.27,122.1 -2.95,170.8 8.81,289.83 6,60.63 -4.6,79.26 -35.43,111.39 -26.88,28.01 -61.27,63.61 -97.37,69.59 -14.61,-37.91 -28.86,-32.54 -1.49,-71.66 33.66,-48.12 78.61,-78.63 -6.54,-224.2 -30.63,21.08 -80.72,176.24 -61.9,219.49 31.05,71.33 97.63,121.64 133.14,179.3 -14.04,25.37 -66.07,81.71 -109.27,67.1l14.34 -14.01c132.96,-127.83 -207.81,-143.81 -129.82,-350.47 23.72,-62.86 55.97,-110.84 63.05,-183.5 7.05,-72.24 -5.47,-180.95 12.26,-237.51 -108.76,-49.03 -117.7,-30.75 -156.25,43.01 -20.14,38.53 -18.61,52.88 -53.12,59.74 -24.35,-44.28 24.86,-107.39 45.52,-134.43 41.71,-54.57 68.51,-52.06 155.78,-47.04 20.36,18.1 8.22,9.93 26.62,31.69 23.71,28.04 7.76,18.91 44.18,32.34 -19.31,-39.71 -74.72,-89.79 -29.61,-155.83 22.98,-33.63 89.43,-57.29 148.05,-48.86 133.77,19.24 171.54,160.05 49.79,220.25 -1.51,-33.58 7.69,-102.92 -24.95,-120.45 -70.09,-37.64 -57.9,42.95 -60.7,53.34zm-147.5 -28.14c-96.24,-7.93 -124.27,-5.34 -173.81,50.63 -33.36,37.68 -72.23,97.36 -55.33,160.26 131.19,25.36 33.58,-166.51 199.86,-112.32 38.44,162.6 -19.43,290.49 -65.53,414.78 -33.98,91.6 0.67,127.07 45.58,179.85 36.83,43.29 16.94,77.78 96.63,151.04 -34.17,38.5 -30.06,-10.42 -30.78,41.72 77.2,48.52 123.43,-27.75 154.32,-73.19l-58.32 -84.97c81.92,-91.81 151.62,-73.44 120.87,-258.83 -13.37,-80.62 -17.62,-88.1 -11.09,-176.63 12.82,-173.62 36.25,-40.03 81,-214.78 10.91,-42.61 66.2,-155.55 -67.34,-206.68 -119.57,-45.78 -238.36,0.69 -236.06,129.12z"/>
  <path class="fil2" d="M5578.07 618.58c51.76,-29.75 13.5,-88.04 -4.18,-128.05l-1.13 36.43 -0.83 28.79 6.14 62.83z"/>
  <path class="fil1" d="M5513.6 908.93c1.41,13.03 3.95,25.89 3.69,39.08 -0.87,45.61 -9.05,39.03 -9.46,39.81 -19.43,-30.17 -36.68,-70 -41.5,-111.43 19.79,-12.1 28.26,-22.15 60.92,-27.52 7.52,25.98 7.35,37.58 -13.65,60.06zm98.66 -148.02l-6.14 -62.83 0.83 -28.79 1.13 -36.43c17.68,40.01 55.94,98.3 4.18,128.05zm78.46 -505.26l56.05 -6.25c10.63,49.94 21.5,101.9 -2.21,148.7 -30.61,-2.01 -31.17,-15.08 -44.29,-36.01 -74.12,-118.33 -119.52,-77.66 -134.41,-133.74 61.61,-47.82 100.92,68.61 159.49,91.7 -6.93,-32.13 -21.2,-30.59 -34.63,-64.4zm-550.23 91.19c-5.4,-72.89 246.93,-191.99 319.21,-127.96 97.47,86.35 104.9,10.31 205.64,129.7 44.5,52.75 17.08,73.37 26.09,146.42 8.39,67.99 36.42,233.45 30.17,292.57 -24.06,21.63 -68.83,53.98 -104.58,53.35 -31.16,-133.25 80.13,-9.8 16.98,-192.06 -34.58,-99.78 -19.21,-64.38 -45.49,-82.42 0.11,171.47 -24.75,259.48 72.58,399.9 22.81,32.91 44.97,56.53 55.12,93.7 -37.71,-2.67 -93.1,-0.44 -117.7,-16.91 23.62,-12.9 47.4,-5.22 77.63,-3.66 -19.25,-39.15 -115.52,-149.03 -147.64,-218.1 -62.54,-134.49 -15.91,-279.7 -34.44,-492.8 -3.81,-43.77 8.35,-76.33 -101.41,-84.66 -136.61,-10.37 -168.74,120.3 -252.16,102.93zm550.23 -91.19c-73.39,-37.3 41.55,-45.84 -173.55,-74.86 16.43,25.2 -3.57,13.2 40.15,24.07l-11.14 46.66c-154.6,-38.08 -87.96,-215.67 76.75,-205.93 71.43,4.23 126.07,36.24 145.78,85.15 35.92,89.06 -32.12,99.36 -77.99,124.91zm-250.73 -67.12c-83.74,2.55 -131.75,-2.42 -202.47,37.45 -47.85,26.98 -123.6,67.92 -113.32,135.79 87.05,21.81 90.68,-35.33 156.22,-73.4 59.21,-34.39 122.86,-41.49 187.8,-2.51 24.2,77.24 14.1,194.13 7.78,277.99 -9.52,126.16 9.12,165.36 35.12,273.08 -39.43,11.56 -73.06,31.36 -57.99,85.79 13.69,49.44 24.27,82.99 75.07,83.63l7.9 -106.23c33.95,7.36 31.58,15.89 49.39,45.91 21.23,35.79 20.84,35.46 48.77,56.58 -41.93,40.67 30.05,-15.12 -21.03,12.67 -115.39,62.77 89.16,50.24 -330.22,51.84 20.46,19.45 434.82,20.54 554.75,15.06 10.33,-0.47 15.71,-0.51 25.81,-2.67 20.48,-4.37 10.69,-1.26 19.94,-7.62 -46.83,-18.51 -73.47,-5.74 -139.69,-6.01 -22.22,-74.83 -88.6,-123.03 -114.62,-208.66 39.29,-13.36 80.74,-34.4 112.13,-63.32 11.16,-106.5 -41.54,-260.89 -35.42,-364.25l14.41 -8.44c90.16,-44.95 54.54,-49 50.16,-167.82 -2.04,-55.32 75.71,-92.04 -21.62,-179.93 -97.06,-87.63 -315.91,-64.09 -308.87,115.07z"/>
  <polygon class="fil3" points="5043.63,1083 4268.72,1091.91 4287.44,1078.47 5043.63,1078.47 "/>
  <path class="fil1" d="M8033.97 867.88c-13.46,-12.34 -78.45,-102.36 -80.3,-122.48 -2.61,-28.29 37.27,-122.93 52.12,-140.45 60.44,112.35 83.79,145.51 28.18,262.93zm-112.52 -515.84c-34.17,-34.51 -4.14,-46.92 33.15,-62.6l-33.15 62.6zm31.31 56.16c-26.28,-47.3 14.7,-102.13 30.44,-155.86 -42.33,10.21 -108,52.74 -91.34,101.34 16.02,46.73 69.98,83.18 62.09,128.63 -47.55,21.33 -53.91,-16.73 -79.94,-52.28 -59.5,-81.27 -98.99,-120.25 95.37,-241.19 35.59,22.35 36.28,38.94 88.45,55.43 -26.14,-63.44 -116.07,-61.06 -56.46,-136.07 90.02,-113.29 277.82,-17.76 271.74,82.11 -5.22,85.76 -124.44,65.57 -147.79,77.04 41.91,29.59 84.6,5.75 123.38,-8.07 28.22,-10.06 61.88,10.29 91.91,30.07 64.36,42.4 59.37,171.73 -30.05,182.71 7.95,-45.15 41.87,-98.45 8.85,-141.36 -21.4,-27.8 -94.89,-41.53 -140.42,-34.92 -55.99,110.93 -47.83,265.28 -39.39,402.76 5.77,94.06 0.58,116.35 -38.06,190.05 -50.76,96.82 -62.37,103.1 13.11,143.77 -149.5,4.91 -77.2,-112.87 -38.32,-198.4 42.35,-93.18 -7.51,-127.22 -30.54,-202.7 -9.15,-29.97 -3.75,-41.66 -9.22,-54.84l-38.43 -3.21c-143.18,231.36 6.36,259.26 20.4,317.21 -3.56,32.17 -17.64,90.23 -39.57,110.94 -33.11,-40.68 42.9,-46.38 -14.28,-115.41 -92.95,-112.24 -113.94,-91.78 -51.67,-369.37 25.99,-13.75 52.84,-3.99 63.01,-41.9 9.33,-34.76 -10.32,-43.16 -23.27,-66.48zm87.72 639.5l-383.47 2.85c47.92,32 508.2,14.82 580.77,14.84l170.77 -3.05c27.59,-8.5 2.53,5.78 21.4,-11.47l-278.44 -0.54c-39.67,-14.5 4.77,5.56 -28.27,-26.45 -66.18,-64.15 -47.47,-12.54 18.63,-172.2 28.01,-67.68 20.27,-104.19 17.17,-182.11 -4.16,-104.74 -26.34,-205.54 17.14,-320.59 18.61,-49.26 46.97,-58.9 129.14,-4.94 11.23,72.56 -27.57,72.38 -5.62,139.46 76.27,19.69 108.81,-52.38 100.44,-128.17 -9.58,-86.77 -60.46,-80.69 -120.36,-116.57 57.97,-170.43 -170.11,-251.5 -272.87,-164.06 -35.45,30.16 -29.86,29.61 -46.51,77.87 -14.32,41.52 -55.69,46.32 -130.65,128.79 -28.49,31.33 -28.85,55.98 -11.78,99 44.66,112.54 88.71,71.23 67.27,176.02 -11.39,55.67 -38.99,168.3 -25.11,222.76 17.64,69.21 98.42,117.94 101.93,151.51 3.94,37.74 -43.83,64.48 8.62,83.48 57.95,21 2.59,-19.88 44.76,5.66 10.32,6.25 19.45,23.32 25.04,27.91z"/>
  <path class="fil1" d="M6386 389.15c-2.76,-45.45 25.69,-86.17 37.3,-133.31 20.04,-81.38 1.89,-112.99 34.04,-140.08 41,52.73 -2.65,154.5 -13.29,216.95 16.09,-16.57 7.51,-3.91 18.71,-28.58 16.02,-35.25 -1.87,-46.09 62.99,-54.52 -5.43,75.88 -65.31,146.7 -139.75,139.54zm-57.97 -162.09c-30.09,-60.41 -85.26,-62.87 -57.85,-124.1 19.13,-42.73 59.76,-67.81 129.28,-62.87 152.49,10.85 175.41,165.17 84.5,199.98 3.17,-56.89 12.13,-83.44 -2.14,-136.01 -54.9,-5.66 -49.71,-4.27 -71.03,62.24l-10.96 27.75c-30.17,-20.62 -40.67,-16.32 -47.49,-43.16l-24.84 19.86 80.23 51.46c-18.07,66.56 -56.29,153.54 -31.11,175.76l48.44 21.51c1.4,-2.27 5.39,2.26 7.67,4.03 -20.16,112.47 -4.02,211.23 12.22,318.2 21.23,139.94 -43.35,168.48 -54.27,278.44l-46.97 -3.89c7.18,-124.93 93.09,-194.63 2.27,-375.94 -53.01,-105.85 -20.13,-64.44 -32.43,-87.96 -31.91,21.16 -92.55,162.61 -115.4,206.57 -43.29,83.33 -49.91,166.88 -83.18,242.64 -31.94,12 -96.93,0.88 -135.93,-12.51 8.83,-9.54 -8.22,-0.9 15.92,-11.61 91.18,-40.46 46.14,62.35 127.68,-189.58 18.96,-58.58 41.47,-114.54 58.66,-171.01 19.34,-63.52 53.05,-323.05 49.36,-388.56 -39.03,-4.85 -107.15,49.58 -122.44,76.76 -27.51,48.87 -0.73,119.52 -59.49,134.91 -17.57,-71.5 -1.61,-157.66 41.77,-191.63 26.84,-21.03 124.31,-73.9 155.95,-80.21 44.17,38.23 24.46,44.06 81.58,58.93zm-298.18 221.3c123.58,39.93 33.36,-161.42 178.67,-201.34 -18.25,409.3 -80.45,386.99 -151.15,705.18 -47.77,7.82 -81.8,-0.32 -103.7,36.86 26.88,38.17 123.34,40.97 173.64,33.74 35.19,-65.66 36.09,-155.78 122.47,-318.17l51.44 -95.76c1.13,-1.34 3.47,-3.84 5.38,-5.58 27.25,65.69 64.01,110.58 58.07,203.82 -5.48,85.93 -35.82,144.85 -38.53,218.12 20.75,13.95 55.48,34.9 75.08,47.22l-428.51 1.51c2.46,1.81 6.41,0.74 8.13,4.52l716.78 11.52c12.42,-0.82 14.78,-0.42 26.64,-3.95 25.51,-7.61 5.14,3.22 22.22,-11.37l-250.8 -0.89 -39.16 -36.03c-17.31,-12.37 -23.5,-11.66 -42.07,-29.53 0.98,-72.8 58.76,-125.78 54.49,-210.49 -11.46,-227.11 -79.04,-322.96 33.18,-444.73 66.33,-71.98 28.99,-89.42 41.02,-141.97 22.64,-98.85 -0.67,-178.43 -134.19,-190.53 -105.97,-9.61 -142.66,31.37 -166.57,100.63 -13.48,39.06 17.66,16.8 -74.03,61.08 -103.09,49.8 -177.78,126.34 -138.5,266.14z"/>
  <path class="fil1" d="M7334.89 262.07c20.44,4.37 101.63,-22.52 75.41,140.21 -32.33,1.34 -63.21,-40.5 -87.24,-59.12 -42.55,-32.97 -76.71,-28.86 -79.22,-71.58 31.78,-9.55 69.3,9.96 92.44,29.64l29.79 28.69c24.64,-45.11 -39.95,-68.64 -79.01,-78.36 -40.87,-10.17 -43.08,0.59 -43.56,0.71l-16.81 7.1c-14.72,66.42 85.74,79.89 110.74,125.09 1.19,2.15 0.63,193 3.73,225.19 32.4,336.99 20.22,234.18 -62.26,419.2l18.92 11.31c1.67,0.82 4.64,2.17 6.47,3.04 19.21,9.13 8.8,-1.55 29.82,13.26l-99.46 3.72c18.71,-75.68 78.02,-151.2 64.6,-241.08 -4.69,-31.44 -62.64,-212.52 -76.96,-241.06 -55.88,1.37 -52.49,36.99 -83.99,79.44 -38.16,51.43 -147.58,204.4 -171.39,259.56 -16.03,37.12 2.13,97.97 -172.49,118.48 83.71,-56.59 75.73,-57.18 125.58,-146.28 109.63,-195.91 213.02,-392.71 237.86,-631.07 -51.35,24.56 -111.45,158.54 -118.82,206.13 -8.16,52.61 9.91,57.98 -27.64,73.77 -16.7,-14.69 -16.43,-6.44 -14.11,-41.93 6.56,-100.63 104.37,-234.19 164.28,-300.25 41.67,14.2 15.94,17.89 66.76,28.3 -21.96,-36.45 -39.51,-35.88 -52.7,-59.93 -30.24,-55.14 26.57,-152.95 185.55,-107.11 97.21,28.02 165.8,156.86 -2.9,198.1l-23.39 6.83zm-179.66 -75.04c-60.83,34.77 -202.69,239.95 -172.09,362.16 82.53,12.8 51.63,-25.08 134.65,-231.86l1.35 52.22c-40.86,207.62 -124.75,346.43 -225.08,523.05 -10.9,19.21 -36.13,68.54 -48.75,85.19 -30.81,40.66 -65.3,18.46 -74.43,70.22 38.53,17.03 137.94,-17.67 170.26,-41.31 28.37,-20.76 36.57,-69.46 82.67,-147.86 58.48,-99.43 126.62,-176.42 183.92,-266.41 135.34,313.08 45.96,314.47 5.55,474.14 -62.52,1.61 -329.64,-12.28 -359.99,10.2 26.07,12.08 742.57,11.57 769.4,0 -32.3,-22.69 -205.28,-1.37 -247.03,-9.52l-66.5 -47.99c58.69,-126.57 74.16,-102.07 62.92,-278.36 -7.51,-118 -26.38,-211.04 -14.11,-332.29 19.42,11.76 22.54,16.95 55.13,15.59 26.4,-55.58 20,-94.43 6.91,-162.21 103.05,-91.4 63.96,-187.58 -51.11,-223.27 -138.91,-43.07 -235.06,4.93 -213.67,148.31z"/>
 </g>
</svg>
