<?xml version="1.0" encoding="UTF-8"?>
<!DOCTYPE svg PUBLIC "-//W3C//DTD SVG 1.1//EN" "http://www.w3.org/Graphics/SVG/1.1/DTD/svg11.dtd">
<!-- Creator: CorelDRAW 2017 -->
<svg xmlns="http://www.w3.org/2000/svg" xml:space="preserve" width="84.6666mm" height="11.0912mm" version="1.1" style="shape-rendering:geometricPrecision; text-rendering:geometricPrecision; image-rendering:optimizeQuality; fill-rule:evenodd; clip-rule:evenodd"
viewBox="0 0 8466.66 1109.12"
 xmlns:xlink="http://www.w3.org/1999/xlink">
 <defs>
  <style type="text/css">
   <![CDATA[
    .fil0 {fill:none}
    .fil6 {fill:#08080A}
    .fil4 {fill:#29292A}
    .fil3 {fill:#454649}
    .fil5 {fill:#656669}
    .fil2 {fill:#858586}
    .fil1 {fill:#A5A5A6}
    .fil7 {fill:#CDCDCE}
   ]]>
  </style>
 </defs>
 <g id="Capa_x0020_1">
  <metadata id="CorelCorpID_0Corel-Layer"/>
  <rect class="fil0" y="-0" width="8466.66" height="1109.13"/>
  <path class="fil1" d="M5521.25 803.47c24.47,-5.82 13.77,-0.25 28.25,-13.33l-10.64 -5.3 2.3 -17.32 -10.99 19.95 0.11 -16.48c-13.69,8.87 -8.34,12.85 -9.03,32.48z"/>
  <path class="fil2" d="M5718.74 663.93c50.73,2.66 78.94,1.89 106.71,-42.98 44.23,-71.46 -4.13,-117.69 -4.16,-117.77l3.4 -38.74c-3.48,-18.87 2.07,-3.04 -9.14,-16.3l-12.07 43.61 -32.82 10.18c1.66,2.17 3.67,1.67 4.38,3.34 2.67,6.24 80.99,-3.6 47.85,89.95 -15.99,45.14 -48.61,64.15 -96.95,50.32 -12.47,10.23 -4.94,-0.23 -7.2,18.39z"/>
  <path class="fil2" d="M6436.79 798.63c21.64,-2.36 12.3,4.14 27.39,-10.66 -22.07,9.26 -3.9,3.35 -11.33,-3.88 4.43,-86.03 -2.88,-123.11 -13.08,-204.55 -4.22,-1.87 -9.63,-0.16 -16.96,-7.98 -13.71,-2.15 -12.37,-6.41 -10.56,5.38 20.47,11.03 15.36,15.31 19.66,42.07 3.43,21.34 6.48,35.36 7.39,57.39 1.74,42.04 2.98,80.46 -2.51,122.23z"/>
  <path class="fil2" d="M4826.67 471.29c-28.54,-21 -100.01,-14.26 -215.59,-69.36 32.46,56.13 209.3,72.42 215.59,69.36z"/>
  <path class="fil2" d="M4804.96 630.76c21.11,-3.4 40.91,-10.93 47.88,4.56 -11.99,12.14 -37.06,8.73 -47.88,-4.56zm-19.51 -5.66c3.89,36.49 63.78,35.69 86.86,12.03 -15.53,-29.73 -61.44,-30.97 -86.86,-12.03z"/>
  <path class="fil2" d="M4370.33 458.33c24.83,15.93 92.3,-17.71 116.1,-29.96 -3.55,-2.98 18.75,-28.39 -28.52,-3.61 -59.15,31 -67.32,19.98 -87.58,33.57z"/>
  <path class="fil2" d="M6072.27 421.57c34.93,1.01 61.81,-38.18 94.5,-59.65 31.51,-20.68 21.38,-3.25 20.74,-29.85 -22.66,7.88 -33.79,29.18 -54.98,46.27 -24.45,19.72 -48.6,20.87 -60.26,43.23z"/>
  <path class="fil2" d="M6403.73 412.76c16.1,27.14 100.54,65.73 131.21,73.84 -14.39,-21.37 -38.24,-22.74 -64.15,-37.88 -21.99,-12.84 -42.8,-30.42 -67.06,-35.96z"/>
  <path class="fil2" d="M5187.09 460.44c23.98,-6.69 37,-15.86 54.24,-34.68 55.24,-60.32 40.34,-6.49 39.71,-50.33 -30.66,16.32 -17.48,22.72 -40.34,43.24 -22.09,19.82 -39.14,20.13 -53.61,41.77z"/>
  <path class="fil2" d="M4422.06 620.67c-12.13,13.74 -32.75,8.89 -48.51,4.3l-9.93 25.17 11.34 25.23 -3.7 -35.24 62.06 -3.18c5.78,-11.35 4.93,1.81 7.34,-23.85 -7.27,17.7 4.39,2.45 -18.6,7.57z"/>
  <path class="fil2" d="M5406.6 772.22c-0.25,8.39 -12.56,26.33 14.77,29.64 17.47,2.12 15.15,-12.5 15.55,-22.58l-30.32 -7.06z"/>
  <path class="fil2" d="M5528.38 408.04c-5.07,-16.65 3.09,-0.7 -5.37,-13.77 -0.18,-0.27 -8.5,-10.19 -8.51,-10.2 -15.25,-15.61 -10.03,-10.44 -28.41,-19.34 9,27.13 14.04,35.41 42.29,43.31z"/>
  <path class="fil2" d="M5528.38 408.04c12.59,20.07 55.52,38.86 81.52,36.62l-81.52 -36.62z"/>
  <path class="fil2" d="M6318.58 403.3c-6.91,-29.11 -9.05,-36.45 -33.88,-51.06 8.06,23.7 13.73,37.91 33.88,51.06z"/>
  <path class="fil2" d="M4596.7 445.09c-12.42,-17.37 -20.78,-25.38 -39.73,-32.85 6.87,23.45 12.25,29.63 39.73,32.85z"/>
  <path class="fil2" d="M5532.53 538.49c-12.85,-30.14 -3.4,-17.24 -27.31,-27.84 8.97,27.37 -5.16,17.69 27.31,27.84z"/>
  <path class="fil2" d="M5286.34 609.03c10.76,-3.69 5.82,-13.7 5.11,-28.73l-15.46 12.87c4.81,18.6 -1.94,1.38 10.35,15.86z"/>
  <path class="fil2" d="M6163.54 550.85c6.59,9.17 -7.74,8.56 16.62,8.6 3,-31.63 1.31,-8.68 -9.21,-18.71l5.92 15.05 -13.33 -4.94z"/>
  <path class="fil3" d="M6486.1 609.93c15.79,54.45 36.95,82.45 41.06,148.4 -18.24,16.68 -39.57,22.21 -62.98,29.64 -15.09,14.8 -5.75,8.3 -27.39,10.66 -21.54,13.91 -33.69,9.6 -51.23,25.94l5.41 3.13c129.69,-24.43 169.94,-80.46 228.14,-107.93 57.45,-27.12 64.51,-1.73 96.9,-70.31 39.42,-83.43 -7.03,-74.3 -5.24,-133.58 -41.58,35.56 -9.56,8.69 -42.15,25.57 1.64,0.96 4.2,0.18 5.14,2.45l20.39 7.75c57.83,25.43 11.84,155.52 -90.56,147.38 -11.99,26.05 -37.9,44.53 -65.8,54.97 -7.67,-45.62 -17.23,-115.98 -51.69,-144.07z"/>
  <path class="fil3" d="M4823.39 712.48c17.86,-2.3 32.08,-14.01 42.34,-31.21 71,6.14 88.04,-2.31 125.54,-59.22 34.01,-51.64 16.88,-86.96 -8.77,-134.59 -11.07,16.19 -10.04,14.2 -14.61,28.19 29.16,13.66 34.86,12.48 31.96,51.27 -2.75,36.8 -40.91,133.89 -133.88,98.9 -6.52,7.99 -10.57,18.02 -16.78,24.58 -11.81,12.47 -15.17,6.46 -25.8,22.08z"/>
  <path class="fil3" d="M6184.14 743.15c8.73,-3.31 28.27,-49.32 67.09,-42.3 28.51,5.15 2.31,2.38 29.99,-4.51 16.15,15.51 22.18,33.84 39.29,41.75 -9.72,-26.62 -22.62,-39.07 -44.68,-54.7 -55.95,13.86 -13.12,-8.57 -53.11,6.56 -23.62,8.93 -35.25,25.33 -38.58,53.2z"/>
  <path class="fil3" d="M6218.92 649.04l1.7 -23.89c-4.87,4.08 -8.86,-3.27 -7.37,12 2.32,23.88 -0.61,3.35 5.67,11.89z"/>
  <path class="fil3" d="M4493.58 444.76c23.85,-8.64 11.57,3.55 19.07,-21.17l-19.07 21.17z"/>
  <path class="fil4" d="M6390.97 827.7l-5.41 -3.13c-49.1,-1.13 -81.29,18.77 -138.88,1.43 -35.63,-10.74 -68.47,-39.16 -105.68,-53.64 0.88,-68.38 -10.4,-131.24 -4.47,-205.36l-12.95 0 8.67 192.93c-88.75,-39.22 -51.08,-105.3 -41.72,-180.17l-3.2 -17.97c-8.56,12.97 -5.53,32.3 -9.59,54.68 -3.29,18.1 -9.8,33.95 -13.8,50.85 -6.22,-54.84 2.78,-138.21 -26.38,-185.72 -6.62,15.44 4.91,45.65 7.92,66.63 14.75,102.68 -43.23,162.76 62.44,225.5 80.3,47.68 190.73,102.06 283.05,53.97z"/>
  <path class="fil4" d="M4640.85 578.54c12.85,34.11 27.86,23.77 65.75,24.66 33.74,0.8 52.61,4.68 86.16,-2.41 -3.64,-22.66 -24.81,-22.33 -65.98,-25.33 -16.73,-1.21 -74.05,-2.4 -85.93,3.08z"/>
  <polygon class="fil4" points="4391.54,603.65 4425.88,612.44 4430.98,583.71 4400.81,584.59 "/>
  <path class="fil5" d="M5718.74 663.93c-24.12,6.4 -48.76,52.13 -74.1,70.22l-35.53 -122.06 -17.72 -1.8c18.55,53.49 22.97,81.43 37.44,136.27l-79.33 43.58c-14.48,13.08 -3.78,7.51 -28.25,13.33 -50.96,6.42 -57.39,22.84 -118.23,10.03 -28.9,-6.08 -79.99,-21.04 -104.59,-33.9 -7.26,-22.86 -3.84,-45.96 -20.36,-66.19l-4.41 5.97 4.95 52.49c-21.54,-11.12 -61.82,-29.33 -67.1,-52.48 -8.67,-37.97 11.39,-70.75 22.57,-99.15 -19.21,3.68 -2.95,6.18 -13.42,-1.64 3.9,-34.39 -0.14,-19.15 20.95,-33.86l-23.87 1.85 -15.36 92.01c-35.32,-51.14 -17.42,-141.19 -63.55,-189.32 17.49,89.97 21.51,64.22 40.3,191.73 3.04,20.63 11.96,41.42 17.18,64.08 94.82,32.75 181.26,103.39 289.34,79.67 73.35,-16.09 214.28,-94.47 233.09,-160.83z"/>
  <path class="fil5" d="M4823.39 712.48c-22.55,4.02 -75.34,33.2 -106.41,43.46 -41.51,13.7 -93.87,22.01 -137.9,15.77 -61.78,-8.75 -169.09,-43.89 -204.12,-96.34l-11.34 -25.23 9.93 -25.17 -4.68 -4.91c25.08,-7.08 28.05,-6.39 53.19,0.61 22.99,-5.12 11.33,10.13 18.6,-7.57 34.47,1.93 42.83,8.16 52.02,-20.62 -19.48,-9.04 -38.39,-7.85 -61.7,-8.77l-5.1 28.73 -34.34 -8.79 -17.81 -0.91c-3.3,-31.03 -22.85,-161.89 -45.4,-172.15 16.49,77.43 22.42,117.97 26.4,193.83 4.61,88.04 32.47,92.54 108.16,122.94 106.85,42.92 173.76,52.71 280.88,9.86 27.14,-10.86 67.86,-20.71 79.62,-44.74z"/>
  <path class="fil5" d="M6403.73 412.76c-13.35,-22.94 -22.58,-19.63 -39.6,-36.11 -22.04,-21.33 -7.65,-28.51 -30.4,-45.77 2.36,39.69 36.75,68.32 70,81.88z"/>
  <path class="fil5" d="M4574.75 750.52c12.99,1.64 7.51,2.49 24.02,1.69 34.93,-1.67 16.41,-0.2 27.04,-7.76 -18.25,-6.77 -37.42,-13.54 -51.06,6.07z"/>
  <path class="fil5" d="M5274.71 552.95c23.45,-3.23 20.38,-0.54 30.81,-19.66 -18.14,6.36 -23.02,4.44 -30.81,19.66z"/>
  <path class="fil5" d="M6257.63 753.24c4.26,-6.62 14.04,-3.09 -0.75,-25.52 -6.39,9.61 -7.45,-13.72 -4.89,11.7 2.05,20.26 -0.73,2.88 5.64,13.82z"/>
  <path class="fil5" d="M6282.6 642.71c9.05,-15.36 7.04,-4.26 -0.52,-20.13 -0.07,0.11 -24.63,-8.99 0.52,20.13z"/>
  <path class="fil5" d="M5449.19 403.12l-20.54 -29.31c0.91,24.92 -4.78,18.21 20.54,29.31z"/>
  <path class="fil5" d="M5622.75 622.82c8.37,6.8 -8.27,7.99 20.45,6.89 0.4,-29.62 -0.09,-9.66 -8.15,-18.38l3.34 13.11 -15.64 -1.62z"/>
  <path class="fil6" d="M5530.28 770.99l-0.11 16.48 10.99 -19.95c0.17,-31.37 5.11,-57.41 3.46,-92.33 -1.01,-21.39 -2.61,-24.58 -6.11,-42.92 -6.71,-35.23 -0.39,-27.4 5.37,-33.93l19.86 35.01c10.39,-5.86 5.68,-5.97 12.36,-12.02 9.1,-8.24 2.84,-5.89 15.29,-11.04l17.72 1.8 13.64 10.73 15.64 1.62 -3.34 -13.11c-14.53,-41.17 -53.54,-27.15 -91.64,-39.62 -21.85,-7.15 -32.24,-23.64 -45.5,-21.33 -19.51,3.4 -4.19,21.23 -6.8,47.63 30.75,-8 3.13,-14.84 32.9,-6.72 18.6,50.83 10.52,119.15 6.27,179.7z"/>
  <path class="fil6" d="M6412.25 576.94c-1.81,-11.79 -3.15,-7.53 10.56,-5.38 7.33,7.82 12.74,6.11 16.96,7.98 47.13,6.49 10.76,13.49 46.33,30.39l4.6 -38.89c3.08,-32.6 -11.9,-20.56 -66,-44.3 -39.91,-17.51 -22.95,-28.25 -66.95,-31.08l-20.25 44.06c24.72,-7.61 10.27,-8.82 31.61,-8.52 29.12,32.88 35.51,10.72 33.09,56.89l10.05 -11.15z"/>
  <path class="fil6" d="M5241.61 584.74c-21.09,14.71 -17.05,-0.53 -20.95,33.86 10.47,7.82 -5.79,5.32 13.42,1.64l23.48 -14.91c24.04,33.64 14.47,73.71 16.1,114.05l4.41 -5.97 8.27 -104.38c-12.29,-14.48 -5.54,2.74 -10.35,-15.86l15.46 -12.87 35.75 13.8 -26.32 -38.9 -59.27 29.54z"/>
  <polygon class="fil6" points="6087.33,561.79 6090.53,579.76 6102.12,551.79 6123.58,567 6136.53,567 6130.97,550.18 6163.54,550.85 6176.87,555.79 6170.95,540.74 6165.47,512.33 6083.94,533.9 "/>
  <path class="fil7" d="M536.98 645.55l3.71 3.39 15.3 18.86c3.78,-17.59 7.95,-19.4 17.32,-34.16l-36.33 11.91z"/>
  <path class="fil7" d="M2708.1 360.08l11.68 18.54 12.91 -5.46c-14.38,-19.34 -6.67,5.9 -12.11,-28.6 -7.67,28.25 -1.86,8.6 -12.48,15.52z"/>
  <path class="fil7" d="M3069.51 605.32c10.49,7.66 -13.4,11.91 17.92,4.85 3.68,-0.83 7.57,-5.93 9.44,-6.93 -27.96,-10.12 -12.7,-6.21 -27.36,2.08z"/>
  <path class="fil7" d="M234.44 544.05c22.36,-10.83 11.46,7.93 16.06,-21.04 -25.04,9.91 -9.7,-3.16 -16.06,21.04z"/>
  <path class="fil7" d="M2828.86 712.58c26.21,-15.06 12.37,-4.41 10.58,-21.87l-17.66 3.64c30.74,-1.06 7.51,-2.52 13.98,8.71l-6.9 9.52z"/>
  <path class="fil7" d="M1020.24 618.97l15.84 -3.5 -5.26 -8.34c-18.2,2.71 -6.46,-5.98 -10.58,11.84z"/>
  <path class="fil7" d="M1371.74 574.34l2.93 -19.23c-13.38,13.89 -18.94,3.64 -2.93,19.23z"/>
  <path class="fil1" d="M2658.93 605.35c-1.41,25.74 -7.22,25.28 7.96,33.87l0.82 -4.17c17.58,2.75 49.91,5.54 64.21,-4.32 21.47,-14.8 4.86,-0.46 14.09,-18.06 -30.08,-15.76 -15.12,-9.45 -28.57,-7.85l-41.55 -3.96 -19.04 -0.14 2.08 4.63z"/>
  <path class="fil1" d="M2700 356.48l8.1 3.6c10.62,-6.92 4.81,12.73 12.48,-15.52 5.44,34.5 -2.27,9.26 12.11,28.6l-5.38 -28.25 22.75 4.4 -10.92 -11.9c36.31,-25.91 31.22,-0.17 38.73,-44.62 -47.31,14.65 -14.32,10.94 -41.76,34.37 -17.26,14.73 -4.43,-5.33 -36.11,29.32z"/>
  <path class="fil1" d="M124.73 656.8l2.07 14.25c8.69,-26.77 -3.14,-7.85 21.28,-14.7 15.04,21.52 16.51,6.6 21.71,-4.14 18.63,-18.59 4.75,2.32 20.17,-25.15 -34.16,-1.25 -26.52,6.56 -62.48,1.7 14.99,29.21 5.16,3.52 2.66,19.52 -4.21,26.9 -5.32,8.44 -5.41,8.52z"/>
  <path class="fil1" d="M3683.12 687.89c-7.96,-24.98 -19.07,-23.69 -39.85,-36.93 -20.64,-13.16 -20.71,-24.08 -42.31,-31.28 8.23,26.42 56.26,56.86 82.16,68.21z"/>
  <path class="fil1" d="M1130.85 674.91c-12.54,-24.07 -6.24,-14.55 -26.98,-25.21 -15.86,-8.15 -21.59,-14.14 -37.03,-18.6 12.24,16.05 44.17,36.64 64.01,43.81z"/>
  <path class="fil1" d="M3683.5 639.86c-7.38,-21.53 5.04,-6.22 -16.93,-25.06 -13.71,-11.75 -13.99,-11.21 -30.33,-16.48 9.89,20.11 27.9,32.3 47.26,41.54z"/>
  <path class="fil1" d="M1186.87 676.17c-9.29,-22.84 -5.51,-16.14 -30.35,-23.85 14.68,20.29 -1.63,4.14 12.63,15.32 7.35,5.76 10.42,5.5 17.72,8.53z"/>
  <path class="fil1" d="M1024.82 553.15c5.27,-2.82 21.39,4.44 3.26,-15.06l-3.26 15.06z"/>
  <path class="fil2" d="M2828.86 712.58l6.9 -9.52c-6.47,-11.23 16.76,-9.77 -13.98,-8.71 -17.65,3.14 -15.42,-4.49 -17.74,39.35 27.8,13.6 50.71,0.41 85.44,-0.92l0.89 30.79 15.91 -13.88c0.43,-0.54 1.5,-2.24 2.38,-3.26 8.8,18.2 0.4,12.67 20.37,16.23l-6.82 -27.08c28.9,1.64 40.12,5.16 68.32,-9.29 -13.92,-8.46 -110.03,-8.47 -129.54,-6.67 -23.68,2.18 -12.04,8.31 -42.35,8.92 5.67,-29.13 1.34,-10.2 10.22,-15.96z"/>
  <path class="fil2" d="M3089.81 621.32c39.13,-8.35 1.69,-16.45 35.49,-14.28 -6.62,16.62 -15.17,14.22 -35.49,14.28zm7.06 -18.08c-1.87,1 -5.76,6.1 -9.44,6.93 -31.32,7.06 -7.43,2.81 -17.92,-4.85 14.66,-8.29 -0.6,-12.2 27.36,-2.08zm-68.27 1.82c59.79,35.93 8.58,34 116.66,18.75 -13.53,-39.62 -4.49,-7.51 -28.08,-37.63 -84.6,3.95 -62.77,7.11 -61.12,-7.22 -10.28,6.11 -8.57,2.94 -18.61,12.66 -7.69,7.46 -2.3,3.09 -8.85,13.44z"/>
  <path class="fil2" d="M90.79 518.02c14.57,36.87 3.28,143.7 21.77,162.08l-1.5 -23.7 13.67 0.4c0.09,-0.08 1.2,18.38 5.41,-8.52 2.5,-16 12.33,9.69 -2.66,-19.52l-3.15 -0.87 13.25 -2.66c-1.84,-1.06 -7.52,-4.33 -8.51,-5.03 -0.73,-0.52 -3.04,-2.08 -3.82,-2.65 -13.21,-9.74 -10.63,-53.04 -12.05,-70.08l18.79 -9.09c0.95,-0.55 2.87,-1.89 4.27,-2.88l2.55 -42.68c-16.61,16.56 -11.81,20.11 -10.97,46.07l-15.07 -19.1 -21.98 -1.77z"/>
  <path class="fil2" d="M2094.48 335.87c1.16,33.82 -12.11,6.08 38.84,41.62 15.33,10.7 30.99,18.33 47.43,28.59l79.62 34.96c32,9.48 26.41,3.6 32.7,-1.21 -30.95,-15.65 -65.69,-20.13 -104.51,-42.52 -36.86,-21.27 -58.34,-47.34 -94.08,-61.44z"/>
  <path class="fil2" d="M3045.54 392.8l-4.58 -19.41 149.56 46.67c-6.53,-29.48 -4.28,-8.62 -75.17,-32 -28.19,-9.3 -56.65,-28.03 -83.56,-29.67 4.59,29.11 -4.63,22.47 13.75,34.41z"/>
  <path class="fil2" d="M2044.64 720.13l46.42 19.7c22.91,3.09 5.9,3.87 18.71,-8.43 -19.45,-10.24 -42.65,-20.29 -65.13,-11.27z"/>
  <path class="fil2" d="M1951.15 676.9c-8.03,-19.3 -35,-44.96 -56.58,-44.47 16.58,22.46 30.71,34.04 56.58,44.47z"/>
  <path class="fil2" d="M395.71 306.61c-7.82,-21.89 -14.9,-27.14 -34.54,-35.92 7.67,26.88 8.34,34.72 34.54,35.92z"/>
  <path class="fil2" d="M2765.25 351.96c26.12,-9.85 30.5,-14.99 34.59,-41.92 -22.11,10.67 -19.98,19.04 -34.59,41.92z"/>
  <path class="fil2" d="M526 644.73l14.69 4.21 -3.71 -3.39 -18.69 -22.8 -7.94 8.35c8.3,9.22 7.44,7.08 15.65,13.63z"/>
  <path class="fil2" d="M3683.5 639.86c10.6,17.39 20.21,32.38 43.14,36.29l-43.14 -36.29z"/>
  <path class="fil2" d="M223.87 418.3c8.69,10.48 -15.06,14.79 19.21,7.77 2.14,-30.98 1.83,-8.23 -10.22,-17.96l6.36 14.66 -15.35 -4.47z"/>
  <path class="fil2" d="M2993.82 387.14c12.92,8.11 -0.26,12.61 27.37,1.3l-9.71 -19.04 3.45 16.68 -21.11 1.06z"/>
  <path class="fil2" d="M2168.27 639.76c-7.86,-21.34 4.41,-7.83 -14.58,-14.89 3.04,14.57 -12.33,6.37 14.58,14.89z"/>
  <polygon class="fil2" points="4458.1,163.8 4458.1,147.77 4447.19,157.42 "/>
  <path class="fil3" d="M123.9 364.46c34.82,-3.99 132.05,-62.2 137.69,-95.55 -15.56,6.26 -43.07,34.19 -64.06,47.7 -20.02,12.88 -64.84,32.76 -73.63,47.85z"/>
  <path class="fil3" d="M536.98 645.55l36.33 -11.91c-9.37,14.76 -13.54,16.57 -17.32,34.16l-15.3 -18.86 -14.69 -4.21 2.37 14.08c17.97,9.92 13.34,15.67 33.5,20.76 9.14,-21.64 11.21,-23.65 21.16,-42.36 -25.87,-19.93 -32.37,-15.13 -64.74,-14.46l18.69 22.8z"/>
  <path class="fil3" d="M1576.84 636.16c43.83,-20.23 90.44,-145.91 17.26,-156.89l25.63 21.01c8.49,98.72 -34.48,108.85 -42.89,135.88z"/>
  <path class="fil3" d="M1318.73 412.04l3.16 -1.89c-6.25,-9.18 -2.14,-5.13 -9.71,-13.09 -20.52,-21.56 -22.42,-17.74 -32.88,-17.59 -0.87,21.1 21.09,26.91 39.43,32.57z"/>
  <path class="fil3" d="M1906.22 392.17c28.12,-12.43 24.71,-6.22 34.51,-33.67 -19.34,9.39 -24.75,11.61 -34.51,33.67z"/>
  <path class="fil3" d="M1886.64 493.28l20.94 -2.82c-10.28,-19.31 -5.47,-15.1 -28.15,-21l7.21 23.82z"/>
  <path class="fil3" d="M235.93 344.18c19.23,-7.12 25.71,-12.99 33.27,-32.05 -18.18,9.85 -25.15,13.13 -33.27,32.05z"/>
  <path class="fil3" d="M2094.48 335.87l-4.15 -16.9c-2.71,2.9 -13.55,-9.8 -4.25,10.14 6.1,13.08 -2.55,1.46 8.4,6.76z"/>
  <path class="fil4" d="M2666.89 639.22c-15.18,-8.59 -9.37,-8.13 -7.96,-33.87 -7.32,-34.12 -6.96,-109.65 4.64,-140.75 20.61,-55.23 53.2,-62.04 108.34,-61 -3.99,-11.53 -15.58,-45.21 -21.85,-54.29l-22.75 -4.4 5.38 28.25 -12.91 5.46 -11.68 -18.54 -8.1 -3.6c-14.21,7.8 -42.68,17.49 -47.71,28.9 25.04,-6.23 26.72,-16.86 45.78,-11.8 3.34,24.22 -16.49,11.48 -57.82,69.96l-31.05 -111.85c-4.4,60.87 17.12,88.55 22.69,146.04l-31.44 13.04 36.26 19.57c16.34,142.49 -13.78,145.35 107.19,231.25 80.58,57.21 169.58,75.26 264.45,43.15 90.32,-30.57 164.63,-118.63 206.29,-132.91 45.12,-15.47 74.75,4.73 113.01,-57.61 39.41,-64.2 -0.81,-67.36 -6.58,-100.19 -1.69,-9.58 6.62,3.48 -1.38,-13.71l-15.19 22.53c31.85,26.45 43.06,49.65 8.84,96.19 -35.04,47.67 -54.72,31.15 -96.57,35.11 -28.65,2.71 -203.64,234.21 -392.13,134.72 -49.6,-26.18 -150.47,-69.74 -157.75,-129.65z"/>
  <path class="fil4" d="M2466.76 477.67c-25.11,22.99 0.72,13.3 -36.08,23.03 29.75,31.27 61.59,35.38 23.14,99.26 -18.81,31.24 -68,45.71 -102.98,45.59 -13.02,41.36 -103.68,93.57 -144.23,108.76 -75.99,28.46 -138.54,31.99 -214.89,0.42 -47.18,-19.5 -138.19,-58.25 -147.96,-113.29 -9.46,-53.33 -13.25,-165.35 -58.45,-199.77 5.83,48.99 20.25,4.78 37.65,130.1 7.6,54.73 0.66,89.37 46.45,126.37 179.41,144.97 315.01,98.5 480.63,-23.84 37.49,-27.7 62.66,-2.94 110.57,-61.44 50.34,-61.44 -2.7,-77.57 6.15,-135.19z"/>
  <path class="fil4" d="M943.18 539.53l16.62 -4.9 10.4 13.16c-0.91,21.77 -1.5,12.4 15.05,22.16 -0.34,-37.06 -12.3,-72.14 19.66,-96.42l-2.64 42.45c21.9,-15.83 10.69,-12.2 13.42,-43.02 0.56,-6.31 1.87,-14.47 2.9,-18.15 4.87,-17.3 -4.36,3.83 8.97,-22.81l-55.36 16.55c3.54,21.96 -3.01,49.33 -14.46,69.77 -18.35,-8.27 -9.34,14.55 -23.74,-43.67 -3.67,-14.85 -9.39,-42.81 -14.27,-53.57l23.45 118.45z"/>
  <path class="fil4" d="M1009.08 596.06l-0.95 12.61 12.11 10.3c4.12,-17.82 -7.62,-9.13 10.58,-11.84l1.2 -23.81 -23.75 -3.49 0.81 16.23z"/>
  <path class="fil4" d="M528.37 658.81l-2.37 -14.08c-8.21,-6.55 -7.35,-4.41 -15.65,-13.63 -20.72,7.68 -8.87,-10.38 -14.14,21.26l32.16 6.45z"/>
  <path class="fil4" d="M468.75 375.27l30.81 15.27c-8.42,-16.23 -14.11,-23.55 -30.81,-15.27z"/>
  <path class="fil5" d="M4129.18 451.69c-15.83,11.52 -4.43,3.12 -16.3,16.81l-19.33 21.27c23.38,31.86 55.3,74.51 10.01,122.18 -15.1,15.91 -27.2,31.5 -50.91,33.87 -36.84,3.68 -21.64,2.46 -54.07,26.37 -150.83,111.2 -351.79,182.64 -491.46,6.89 -27.56,-34.69 -17.04,-238.41 -55.57,-305.56 -10.47,24.68 17.7,110.09 21.5,148.61 5.26,53.33 -6.7,121.91 24.31,166.81 14.85,21.51 84.32,70.86 109.14,82.88 62.97,30.51 92.94,32.38 162.71,21.9 38.88,-5.84 113.58,-26.27 142.74,-48.25 24.53,-18.49 88.25,-65.26 112.24,-79.29 18.82,-11.01 83.92,5.49 110.9,-69.83 24.71,-68.95 -11.34,-87.36 -13.38,-106.62 -1.42,-13.5 6.3,-14.77 7.47,-38.04z"/>
  <path class="fil5" d="M1486.09 651.91c11.48,-10.17 -0.11,-20.34 24.76,-1.93 -6.95,4.96 11.6,2.37 -12.14,5.88 -29.72,4.4 -5.82,-0.36 -12.62,-3.95zm90.75 -15.75l-55.15 16.05c-12.3,-28.82 -26.34,-19.1 -58.55,-24.23 -4.41,9.8 -22.7,14.43 -33.66,15.73 -23.43,2.79 -28.05,-2.14 -50.03,-1.84 16.09,10.15 11.61,4.14 29.88,8.84 30.22,7.76 8.19,3.59 27.05,10.76 16.76,6.38 51.07,4.44 72.07,6.62 -45.72,62.42 -205.96,132.94 -286.75,137.07 -65.05,3.34 -99.89,-17.47 -156.16,-46.71 -71.35,-37.06 -87.04,-40.59 -92.39,-124.51 59.57,6.52 70.6,6.42 75.94,-29.91l-18.27 3.1 5.26 8.34 -15.84 3.5 -5.8 9.92c-21.35,0.6 -28.58,4.97 -35.87,-17.55l29.56 -2.67 0.95 -12.61 -40.41 10.65c-1.79,-12.3 -4.43,-21.39 -6.36,-32.76 -4.93,-29.13 -11.99,-19.49 7.89,-26.16l-10.4 -13.16 -16.62 4.9c8.86,41.21 16.35,76.1 19.25,118.46 3.43,50.02 8.62,56.51 50.7,83.29 155.29,98.83 237.64,102.05 401.98,9.55 89.51,-50.38 104.38,-78.73 117.89,-85.52 26.22,-13.18 23.5,0.54 43.84,-29.15z"/>
  <path class="fil5" d="M148.08 656.35c-24.42,6.85 -12.59,-12.07 -21.28,14.7l-2.07 -14.25 -13.67 -0.4 1.5 23.7c6.29,58.67 129.03,105.61 181.2,118.29 91.8,22.31 272.95,-48.98 336.91,-99.07 12.96,-10.15 21.81,-26.47 36.61,-40.41 30.14,-28.41 16.86,-15.03 53.87,-21.17 76.43,-12.69 90.89,-173.1 7.27,-177.92 37.11,33.56 71.99,78.89 29.5,137.42l-12.35 13.02c-4.53,4.42 -1.61,2.26 -6.37,6.24 -27.51,22.98 -31.83,5.5 -59.94,8.2 -30.57,15.77 -10.16,77.2 -250.25,152.82 -60.82,19.16 -111.56,21.72 -171.61,-1.56 -35.96,-13.94 -107.46,-47.24 -127.77,-78.57 4.38,-10.03 11.82,-24.2 18.45,-41.04z"/>
  <path class="fil5" d="M613.72 408.16c-13.19,-28.04 -77.66,-49.12 -105.75,-67.99 -31.84,-21.4 -78.62,-61.17 -108.42,-78.43 13.34,33.11 -7.56,4.13 44.35,47.62 37.44,31.37 120.14,88.74 169.82,98.8z"/>
  <path class="fil5" d="M3948.17 524.09c-24.39,-34.93 -84.13,-51.72 -115.55,-81.61 -43.41,-41.3 -55.53,-40.83 -70.17,-69.67 -13.54,-26.66 -4.78,-18.44 -26.26,-33.07 9.04,52.55 39.98,62.29 89.13,110.42 26.87,26.31 82.09,62.38 122.85,73.93z"/>
  <path class="fil5" d="M1170.58 768.9c11.66,-20.87 66.66,-31.67 79.02,1.55 -14.61,9.74 -61.04,4.66 -79.02,-1.55zm-13.71 1.03c17.27,21.5 81.18,22.79 106.64,9.05 -1.19,-34.18 -14.44,-39.76 -50.91,-38.62 -33.68,1.06 -49.25,9.61 -55.73,29.57z"/>
  <path class="fil5" d="M3013.11 358.85l18.68 -0.46c-15.86,-13.6 -35.55,-14.31 -57.62,-26.11 -44.84,-23.97 -22.39,-3.47 -58.13,-11.41 -19.84,-20.7 -2.98,-11.53 -17.05,-34.41 -23.17,41.96 19.84,35.16 114.12,72.39z"/>
  <path class="fil5" d="M1955.68 557.92l-7.58 18.48 -40.8 -14.32c-1.32,12.82 1.84,7.23 -8.6,14.16 11.18,23.74 45,14.76 63.5,3.13 7.95,-18.86 9.84,-24.28 -3.13,-36.11l-3.39 14.66z"/>
  <path class="fil5" d="M3679.25 768.49c21.9,6.5 20.32,9.82 38.17,-6.12l-29.05 2.38 15.93 -24.69c-22.73,-17.59 -8.83,-1.84 -14.85,-18.49 7.5,0.36 14.69,2.34 15.26,2.38l13.37 -1.98c-17.64,-13.78 -19.65,-10.08 -40.94,-6.09 -4.87,32.48 1.78,8.46 4.2,24.78 1.62,10.95 -5.01,4.75 -2.09,27.83z"/>
  <path class="fil5" d="M3526.09 455.07c27.64,-6.1 83.4,-26.09 83.33,-57.07 -16.7,7.6 -23.05,19.28 -40.59,29.31 -24.6,14.07 -40.05,7.01 -42.74,27.76z"/>
  <path class="fil5" d="M1834.03 396.17c27.73,-4.5 85.25,-38.79 89.15,-63.37 -18.71,5.05 -21.33,17.72 -42.97,30.75 -19.61,11.81 -35.51,16.5 -46.18,32.62z"/>
  <path class="fil5" d="M1260.07 408.96c-9.05,-15.91 -29.49,-31.64 -47.51,-39.43 10.64,26.34 19.62,32.22 47.51,39.43z"/>
  <path class="fil5" d="M297.7 750.21c27.67,4.85 17.2,-5.25 48.56,8.05 -8.63,-26 -34.61,-29.07 -48.56,-8.05z"/>
  <path class="fil5" d="M2887.38 337.44c-4.6,-10.47 -15.24,-30.05 -20.77,-39.76 -0.53,0.82 -19.27,-8.84 -3.23,22.63 5.75,11.3 15.91,13.66 24,17.13z"/>
  <path class="fil5" d="M89.93 500.52c34.97,-0.68 14.95,-0.58 26.29,-8.41 -11.19,-6.76 -8.17,-4.78 -15.72,-11.41 -0.32,-0.28 -8.09,-8.49 -12.11,-12.09l1.54 31.91z"/>
  <path class="fil5" d="M2071.08 380.85c-8.47,-18.51 -16.49,-25.74 -35.34,-35.8 10.34,28.03 -6.84,6.16 14.67,25.72 10.54,9.59 9.43,6.32 20.67,10.08z"/>
  <path class="fil5" d="M3037.16 568.24c13.42,-16.57 17.09,-17.11 -4.03,-35.79 -32.62,-1.3 -14,1.03 -25,8.52l28.76 0.44 0.27 26.83z"/>
  <path class="fil5" d="M1964.79 653.16c-9.89,-15.97 -22.91,-25.74 -40.04,-34.99 7.65,22.21 18.57,24.77 40.04,34.99z"/>
  <path class="fil5" d="M2210.19 631.09c8.58,13.71 15.65,18.41 31.81,25.58 -9.16,-18.45 -12.6,-18.72 -31.81,-25.58z"/>
  <path class="fil5" d="M2210.19 631.09c-4.64,-7.35 7.23,-5.51 -8.6,-9.87 -15.52,-4.28 -4.27,-0.63 -9.72,2.63l18.32 7.24z"/>
  <path class="fil6" d="M1374.67 555.11l-2.93 19.23c-16.01,-15.59 -10.45,-5.34 2.93,-19.23zm54.43 31.9c-18.77,-5.52 -30.97,-22.96 -27.47,-40.66 25.43,-7.75 37.92,16.62 27.47,40.66zm-99.23 -48.35c-17.63,-55.89 38.54,-98.19 86.41,-67.3 4.78,29.68 -4.67,36.13 -31.2,51.57 -21.73,12.63 -30.34,18.71 -55.21,15.73zm49.58 103.21c21.98,-0.3 26.6,4.63 50.03,1.84 10.96,-1.3 29.25,-5.93 33.66,-15.73 12.87,-75.53 -9.03,-98.33 -22.51,-162.93 44.01,18.53 53.89,116.56 58.25,127.35 22.78,-18.41 8.97,-23.69 48.28,-52.87 -4.18,-2.72 -41.95,-7.15 -55.12,-54.92 -8.2,-29.74 -7.02,-2.11 7.04,-24.48 -87.81,2.69 -126.86,-42.5 -177.19,-49.98l-3.16 1.89c-24.93,78.55 -44.8,136.58 -4.06,218.38l64.78 11.45z"/>
  <path class="fil6" d="M439.96 588.6c-1.79,-28.44 2.4,-51.2 35.9,-32 1.92,24.9 -11.16,30.48 -35.9,32zm77.49 -52.02l-6.38 16.23c-23.17,-4.63 -16.55,-2.47 -20.38,-27.57l26.76 11.34zm-86.92 -17.11c-12.08,-28.08 -2.39,-48.03 16.79,-66.43 25.77,-0.93 28.06,-0.92 48.02,14.8 0.12,36.37 -25.81,70.92 -64.81,51.63zm13.58 -78.76c-78.79,39.87 -39.91,241.81 47.67,190.11 71.67,-42.3 33.53,-231.2 -47.67,-190.11z"/>
  <path class="fil6" d="M1069.21 532.23c21.48,8.7 31.42,14.82 23.04,41.02 -23.44,-9.4 -20.33,-13.93 -23.04,-41.02zm-44.39 20.92l3.26 -15.06c18.13,19.5 2.01,12.24 -3.26,15.06zm-1.89 -38.56c-2.58,-34.07 28.14,-83.37 50.52,-62.98 13.52,12.33 3.25,77 -50.52,62.98zm4.63 -82.59c-13.33,26.64 -4.1,5.51 -8.97,22.81 -1.03,3.68 -2.34,11.84 -2.9,18.15 -2.73,30.82 8.48,27.19 -13.42,43.02 -2.64,17.71 -5.87,51.54 6,63.85l23.75 3.49 -1.2 23.81 18.27 -3.1c29.42,4.27 47.25,3.23 70.68,-14.46 9.67,-76.78 -20.69,-116.61 -44.08,-179.37l28.64 -19.32 -76.77 41.12z"/>
  <path class="fil6" d="M3008.13 540.97c11,-7.49 -7.62,-9.82 25,-8.52 21.12,18.68 17.45,19.22 4.03,35.79l-28.75 8.21 -0.28 -35.48zm-32.2 -18.65c-9.35,-55.35 37.32,-93.62 62.99,-57.34 -2.66,18.1 -9.48,24.15 -22.48,41.05 -15.22,19.77 -15.89,16.68 -40.51,16.29zm52.67 82.74c6.55,-10.35 1.16,-5.98 8.85,-13.44 10.04,-9.72 8.33,-6.55 18.61,-12.66 9.43,-65.42 28.34,-149.03 -68.16,-158.47 -87.8,87.2 -23.1,229.75 40.7,184.57z"/>
  <path class="fil6" d="M181.94 584.68c-11.85,-28.72 -3.24,-51.85 30.22,-37.45 13.81,21.6 11.45,12.29 3.69,38.36l-33.91 -0.91zm68.56 -61.67c-4.6,28.97 6.3,10.21 -16.06,21.04 6.36,-24.2 -8.98,-11.13 16.06,-21.04zm-63.37 -8.18c-13.96,-32.43 -13.38,-53.96 18.17,-68.76 52.76,15.37 26.59,71.94 -18.17,68.76zm-49.55 110.4l-13.25 2.66 3.15 0.87c35.96,4.86 28.32,-2.95 62.48,-1.7 -15.42,27.47 -1.54,6.56 -20.17,25.15 23.96,-10.5 18.01,-12.46 32.62,-23.08 20.31,-14.76 41.36,-14.69 55.53,-59.66 13.03,-41.31 2.19,-104.26 -31.15,-132.77 -41.98,-19.43 -122.9,66.76 -46.85,187.81l-42.36 0.72z"/>
  <path class="fil6" d="M2756.18 540.75c0.4,-0.19 5.69,-13.53 25.39,-3.11 10.87,5.75 17.52,35.52 -22.78,36.09 -8.85,-17.07 -9.01,-12.04 -2.61,-32.98zm-25.78 -22.15c-11.72,-26.5 1.86,-53.82 28.39,-67.29 16.46,12.98 13.67,12.33 19.09,33.02 -9.22,17.67 -22.84,36.95 -47.48,34.27zm-54.51 82.26l41.55 3.96c13.45,-1.6 -1.51,-7.91 28.57,7.85 73.59,-22.85 69.51,-138.95 31.04,-178.92 -33.26,-34.56 -61.99,5.48 -69.64,37.09 -11.93,49.33 -2.23,69.7 9.2,115.51l-40.72 14.51z"/>
  <path class="fil6" d="M2187.27 555.51c26.02,-0.02 32.8,2.08 36.23,24.29 -24.42,9.78 -28.5,-4.13 -36.23,-24.29zm-55.64 -46.46c22.91,-0.45 54.24,-0.64 71.51,13.25 -12.25,9.13 -23.68,13.21 -40.25,15.74 -33.43,5.12 -29.79,-0.09 -31.26,-28.99zm108.52 81.64l-6.88 -66.22c50.93,12.68 31.74,29.13 57.52,33.72 4.9,-48.94 -70.04,-50.02 -87.11,-59.86 -14.71,-8.48 -10.79,-12.61 -24.65,-28.73l-6.74 21.59c-60.8,1.89 -26.27,-7.84 -70.83,-21.08l9.93 33.95c21,90.15 21.47,81.63 63.9,86.8 25.4,3.09 39.74,5.61 64.86,-0.17z"/>
  <path class="fil6" d="M2987.9 420.49c24.97,-23.73 151.06,-27.92 140.7,147.89 28.36,-7.09 10.78,-3.28 28.29,-17.04 20.17,-15.84 14.35,-4.72 36.35,-16.19 -15.92,-15.53 -11.84,-7 -36.35,-15.42 -3.55,-72.91 -52.84,-103.85 -111.35,-126.93 -18.38,-11.94 -9.16,-5.3 -13.75,-34.41l-18.68 0.46 -1.63 10.55 9.71 19.04c-27.63,11.31 -14.45,6.81 -27.37,-1.3 -10.93,-21.33 -10.59,-24.93 -31.72,-29.38 3.01,42.26 18.22,16.65 7.3,62.43l18.5 0.3z"/>
  <path class="fil6" d="M434.49 390.27c-24.54,-15.41 -11.47,-19.85 -37.95,-28.44 6.14,14.76 13.77,22.65 18.66,33.58 11.71,26.15 -6.19,6.41 5.06,28.79l26.13 -20.56c40.98,5 75.14,20.05 100.75,51.1 47.76,57.9 20.81,60.21 30.12,110.04 21.1,-7.2 8.1,-9.77 25.31,-21.1 13.5,-8.89 18.13,-4.2 33.85,-15.59l-35.96 -11.95c-18.65,-66.25 -54.12,-101.9 -115.74,-120.81 -38.78,-11.91 -12.24,-10.7 -39.15,-42.29 -11.91,19.99 0.82,-1.61 -3.45,16.55 -0.37,1.59 -0.41,3.67 -0.87,5.32l-6.76 15.36z"/>
  <path class="fil6" d="M116.22 492.11c-11.34,7.83 8.68,7.73 -26.29,8.41l-14.42 7.45 15.28 10.05 21.98 1.77 15.07 19.1c-0.84,-25.96 -5.64,-29.51 10.97,-46.07 4.3,-38.76 43.84,-90.46 85.06,-74.52l15.35 4.47 -6.36 -14.66 -14.18 -38.3c-14.21,13.47 -6.8,17 -13.27,29.53l-18.4 -25.71c-11.29,12.7 3.5,17.53 -10.56,31.07 -6.52,6.28 -19.61,9.13 -30.3,19.97 -18.13,18.39 -29.66,42.03 -29.93,67.44z"/>
  <path class="fil6" d="M1873.31 522.39c4.15,-11.51 -9.07,-12.58 20.63,-17.48 16.52,-2.72 17.68,-0.57 29.75,4.73 -6.04,26.66 -32.09,26.07 -50.38,12.75zm25.39 53.85c10.44,-6.93 7.28,-1.34 8.6,-14.16 12.97,-22.33 31.5,-13.91 48.38,-4.16l3.39 -14.66c0.28,-36.43 -17.17,-49.61 -51.49,-52.8l-20.94 2.82 -32.77 -8.21c-0.16,-0.65 -0.96,-0.07 -1.06,1.47l-2.69 10.58c-0.22,1.54 -1.35,17.01 -1.61,18.89 31.34,11.61 10.25,-5.14 25.74,30.4 9.41,21.6 9.16,22 24.45,29.83z"/>
  <path class="fil6" d="M3768.09 603.29c15.56,-1.92 34.1,-31.66 47.79,3.53l7.07 19.79c29.66,-12.75 5.69,-31.64 36,-20.36 13.11,4.88 6.83,12.89 27.45,27.87 10.2,-16.69 1.7,-9.84 7.29,-27.03 8.97,-27.6 7.56,3.15 9.23,-22.89 -28.02,-5.3 -49.36,-0.04 -75.41,-8.75 -33.75,-11.29 -28.76,-23.67 -63.79,-28.74 2.22,10.48 6.05,20.59 6.53,27.59 1.25,18.45 -3.84,3.95 -2.16,28.99z"/>
  <path class="fil6" d="M3522.61 536.87c-6.71,13.89 -3.56,15.52 -3.49,41.35l23.89 -9.58c20.9,20.12 -0.06,4.3 12.4,28.7l17.21 -18.18c22.99,11.42 10.25,8.38 27.2,26.39 0.88,-1.39 2.15,-5.17 2.4,-4.3l4.79 -14.67c0.67,-3.11 2.67,-18.04 3.34,-23.6 -17.24,-1.66 -36.88,-4.22 -53.13,-10.33 -30.37,-11.43 -18.86,-23.81 -34.61,-15.78z"/>
  <path class="fil2" d="M7161.37 415.14c-5.98,-14.67 -19.96,-31.37 -34.27,-39.18 1.8,28.78 2.93,25.64 34.27,39.18z"/>
  <path class="fil5" d="M7359.34 461.04c-14.22,-11.13 2.53,-2.69 -22.18,-11l-73.88 -28.29c-25.61,-12 -57.64,-49.14 -80.22,-49.68 17.27,41.21 133.23,87.68 176.28,88.97z"/>
  <path class="fil5" d="M6900.9 464.54c38.73,-9.4 97.43,-47.69 109.98,-83.44 -39.89,17.81 11.1,4.84 -55.19,44.93 -9.4,5.68 -18.31,11.79 -28.01,16.46 -23.91,11.5 -21.67,2.45 -26.78,22.05z"/>
  <path class="fil2" d="M8037.81 514.81c-9.94,-17.21 -7.46,-12.93 -19.92,-27.56 -18.56,-21.77 2.83,-11.68 -21.04,-12.87 6.44,27.96 13.88,28.32 40.96,40.43z"/>
  <path class="fil5" d="M8396.21 581.92c-19.5,12.18 -6.04,8.54 -20.93,29.73 -21.31,-8.71 -16.78,-15.16 -41.36,-17.4 30.7,36.67 79.28,38.07 34.17,119.08 -21.53,38.69 -65.8,71.17 -111.87,61.37 -22.41,33.62 19.36,8.4 -74.21,51.58 -149.57,69.02 -173.46,74.05 -301.48,21.06 -61.98,-25.64 -121.74,-52.04 -126.41,-125.47 -3.79,-59.79 -20.53,-165.77 -45.73,-217.99 -2.7,4.45 -7.31,3.14 -2.97,27.09l25.52 108.66c8.34,45.59 3.67,116.17 31.08,148.68 38.6,45.79 186.63,111.49 244.94,107.26 109.36,-7.91 164.86,-60.15 255.14,-96.44 50.84,-20.43 120.4,-38.22 125.73,-134.54l8.38 -82.67z"/>
  <path class="fil5" d="M8257.79 558.26c-3.56,-2.48 -100.7,-26.8 -118.88,-32.71 -61.82,-20.13 -57.87,-35.17 -102.25,-61.82 6.23,38.32 56.7,57.49 93.62,71.29 28.78,10.77 107.41,36.01 127.51,23.24z"/>
  <path class="fil5" d="M7537.99 568.66c-4.45,-19.83 -8,-17.39 -11.91,-30.75l-3.19 -26.62c-0.33,-1.18 -1.62,-3.39 -1.96,-4.35 -0.34,-0.97 -1.56,-2.87 -2.42,-4.25 -17.55,25.28 -6.24,30.17 -31.6,45.64 27.97,4.95 30.34,2.42 51.08,20.33z"/>
  <path class="fil5" d="M7842.09 519.3c18.03,-16.63 12.9,-10.22 14.25,-34.47 -8.44,6.71 -5.82,-3.88 -15.32,15.29 -12.88,25.99 -0.26,16.52 1.07,19.18z"/>
  <path class="fil4" d="M7794.04 645.34c16.91,8.64 20.93,4.97 39.4,-4.51 24.54,-18.44 37.28,-5.84 58.67,-28.22 -21.89,-7.79 -89.09,-27.75 -107.31,-12.36l49.19 12.93c-10.77,21.98 -19.88,9.95 -39.95,32.16z"/>
  <path class="fil4" d="M6995.2 575.05l-7.65 17.5 -9.69 -6.26c-17.69,-8.31 -8.05,-29.82 -15.43,-9.56 1,14.16 -2.53,11.39 5.74,26 8.43,14.88 13.55,11.6 16.47,13.01l9.2 0.09 10.47 -2.76 0.45 -8.83 -2.31 -39.13 12.62 -1.88 -17.81 -4.94c9.68,28.13 6.63,11.41 -2.06,16.76z"/>
  <path class="fil5" d="M6988.71 807.66c-32.23,-10.67 -79.6,-46.12 -78.61,-84.19 1.1,-41.93 27.97,-83.88 72.8,-86.72 -8.92,76.54 -9.59,95.83 5.81,170.91zm257.75 -238.66l6.79 -14.94c7.45,-12.29 10.96,-7.87 26.8,-7.52l6.17 1.47c43.15,0.34 100.78,13.49 75.71,69.42 -19.89,6.32 -84.36,12.65 -84.19,-12.12l-16.59 0.65c-14.34,8.57 -30.35,5.88 -49.17,2.09 -0.54,-30 2.34,-28.84 20.1,-52.61l14.38 13.56zm-231.39 -5.77l-12.62 1.88 2.31 39.13c12.99,-12.68 6.55,-17.62 16.04,-32.74 87.03,40.34 -5.9,83.66 -26.96,44.33l-9.2 -0.09c-9.49,10.4 5.23,10.12 -26.59,12.87 -12.47,1.08 -13.79,-1.61 -24.12,-3.99 -7.6,-29.91 -5.34,-49.05 28.5,-47.89 7.38,-20.26 -2.26,1.25 15.43,9.56l-4.05 -17.91c30.54,0 13.78,-0.06 21.39,6.67 8.69,-5.35 11.74,11.37 2.06,-16.76 -23.6,5.99 -50.65,0.27 -69.91,18.82 -31.5,30.34 -3.97,46.17 6.47,68.82l-30.91 49.5c-4.45,-31.46 -13.74,-117.95 -37.26,-135.54 0.44,25.81 30.08,181.54 41.83,199.1 28.04,41.9 115.43,82.56 163.66,93.11 101.95,22.3 109.14,8.16 205.16,-21.47 53.19,-16.42 122.33,-62.07 147.29,-108.2 -26.49,3.7 -5.43,-0.54 -28.84,15.5 -6.01,-26.54 -12.63,-48.47 -23.35,-73.6 -20.49,-48.04 -1.82,-24.96 13.41,-63.71 -9.8,-45.03 -50.29,-60.62 -95.79,-63.5 -47.07,-2.97 -97.61,14.93 -89.76,69.63 23.11,22.95 56.61,16.69 90.5,20.45 32.13,120.01 4.28,140.11 18.44,170.24 26.01,-40.23 -0.28,-113.98 -2.27,-162.55 43.37,-2.57 43.27,-1.23 57.89,37.51 9.49,25.17 18.78,52.41 19.17,79.29 -24.61,39.62 -118.65,74.57 -164.84,83.1 -59.65,11.01 -153.35,13.18 -209.31,-16.06 -0.99,-1.43 -2.01,-5.61 -2.33,-4.66l-4.13 -9.32c-23.72,-66.71 -23.61,-97.82 -6.64,-167.37 117.3,11.78 76.08,-66.08 19.33,-74.15z"/>
  <path class="fil5" d="M7423.59 722.43l25.09 -22.3c35.16,-0.74 64.49,-8.46 83.4,-41.79 15.91,-28.05 23.57,-63.73 5.91,-89.68 1.8,71.64 -16.63,121.48 -99.49,110.62l-14.91 43.15z"/>
  <path class="fil6" d="M8191.31 643.58l27.67 -1.05 -56.19 -34.72 63.84 -6.62c-25.04,-16.37 -111.64,-10.85 -144.86,-8.81 23.1,34.18 82.3,22.29 109.54,51.2z"/>
  <path class="fil6" d="M7253.25 554.06l-6.79 14.94c-0.38,23.49 1.79,24.6 14.69,36.96l16.59 -0.65c3.02,-2.88 7.87,-5.8 10.41,-17.79 4.12,-19.42 1.64,-22.01 -1.93,-39.51l-6.17 -1.47 -10.09 22.89c-23.74,-4.85 -11.84,4.5 -16.71,-15.37z"/>
  <path class="fil2" d="M7794.04 645.34c6.72,42.87 -38.37,144.45 27.19,145.8 7.65,-48.72 -12.7,-97.79 12.21,-150.31 -18.47,9.48 -22.49,13.15 -39.4,4.51z"/>
  <path class="fil3" d="M8191.31 643.58c6.6,50.41 -7.22,111.91 0.43,148.42 21.74,-11.92 4.45,21.71 13.63,-58.26 2.96,-25.81 -0.11,-53.83 0.83,-80.54 10.24,22.93 2.7,57.94 2.32,84.79 2.99,-4.3 12.19,0.03 12.38,-42.36 0.1,-24.49 -4.24,-26.91 -1.92,-53.1l-27.67 1.05z"/>
  <path class="fil1" d="M7506.29 983.26c0.23,6.2 15.91,16.52 10.43,0.4 -3.9,-11.48 -10.91,-13.4 -10.43,-0.4z"/>
  <path class="fil1" d="M7117.63 802.24l5.75 15.73c3.24,-5.23 8.01,14.33 2.47,-10.57 -2.13,-9.61 -1.07,-1.56 -8.22,-5.16z"/>
  <path class="fil5" d="M8030.55 811.03l-81.5 9.86c8.55,-36.98 67.23,-39.6 95.72,-21.88l-1.75 1.13c-0.25,0.2 -1.67,1.18 -2.01,1.46l-6.46 5.66c-0.77,0.68 -2.74,2.44 -4,3.77zm-94.96 13.49c15.89,8.67 120.05,12.65 139.01,-0.73 -4.79,-75.5 -152.41,-47.36 -139.01,0.73z"/>
  <path class="fil5" d="M7117.63 802.24c7.15,3.6 6.09,-4.45 8.22,5.16 5.54,24.9 0.77,5.34 -2.47,10.57l-5.75 -15.73zm0 0c-11.42,7.95 -13.07,-15.43 -7.68,15.06 43.07,25.3 35.45,-42.42 7.68,-15.06z"/>
 </g>
</svg>
