<?xml version="1.0" encoding="UTF-8"?>
<!DOCTYPE svg PUBLIC "-//W3C//DTD SVG 1.1//EN" "http://www.w3.org/Graphics/SVG/1.1/DTD/svg11.dtd">
<!-- Creator: CorelDRAW 2017 -->
<svg xmlns="http://www.w3.org/2000/svg" xml:space="preserve" width="84.6666mm" height="19.6426mm" version="1.1" style="shape-rendering:geometricPrecision; text-rendering:geometricPrecision; image-rendering:optimizeQuality; fill-rule:evenodd; clip-rule:evenodd"
viewBox="0 0 8466.66 1964.26"
 xmlns:xlink="http://www.w3.org/1999/xlink">
 <defs>
  <style type="text/css">
   <![CDATA[
    .fil0 {fill:#3B3535}
    .fil1 {fill:#5A5455}
    .fil2 {fill:#928E92}
    .fil3 {fill:#B2B0B5}
    .fil4 {fill:#D5D5D6}
   ]]>
  </style>
 </defs>
 <g id="Capa_x0020_1">
  <metadata id="CorelCorpID_0Corel-Layer"/>
  <g id="_2659042145120">
   <g>
    <path class="fil0" d="M7148.96 935.8l2.62 1.74 42.9 15.67 17.15 16.99 16.19 -26.39c-1.01,-3.6 -16.56,-19.04 -19.91,-24.92l-37.53 -18.15c-32.95,10.1 -31.12,-26.63 -21.42,35.06z"/>
    <path class="fil0" d="M8035.92 1069.6l6.92 30.54 13.1 41.61 8.56 -55.11 2.78 -23.23c-38.02,-22.34 2.26,-13.38 -43.68,-10.07l12.32 16.26z"/>
    <path class="fil0" d="M5250.67 1708.79l26.9 11.74c24.88,-1.23 19.67,5.8 19.67,-17.14l-49.4 -26.2 -6.64 9.21 9.47 22.39z"/>
    <polygon class="fil0" points="3555.18,1779.56 3591.83,1796.58 3595.98,1773.07 3548.05,1752.37 3543.07,1759.54 "/>
    <path class="fil0" d="M7056 1399.47c26.31,-5.82 15.9,11.9 18.12,-15.51l-18.12 15.51z"/>
   </g>
   <g>
    <path class="fil1" d="M380.74 1126.58c-8.79,55.38 -24.65,60.29 -11.61,119.4l-0.61 31.47c27.46,9.83 19.48,4.87 46.29,31.15l29.3 22.96c-10.55,-17.69 -19.39,-41.04 -26.33,-53.34 -14.09,-24.93 -2.86,-1.19 -18.21,-22.69 -29.01,-40.63 -20.57,-114.82 22.22,-137.38 16.1,29.38 19.11,32.61 10.33,65.26l22.74 -6.06 -2.78 -38.34 -3.46 -39.11c-3.31,-11.49 -5.42,-30.62 -11.38,-37.28 -47.27,-52.84 -29.5,-2.53 -35.98,6.52 15.51,10.52 7.13,-7.67 19.97,33.96l-40.49 23.48z"/>
    <path class="fil1" d="M8101.86 927.1c26.16,26.66 25.48,59.8 32.04,101.26l-0.66 22.77c13.96,18.01 30.72,66.13 29.28,93.44 22.45,-19.25 7.06,-45.3 0.76,-76.82l-5.19 -95.29c-30.13,-50.51 -29.75,-84.45 -99.15,-77.99 36.5,27.06 26.07,4.28 42.92,32.63z"/>
    <path class="fil1" d="M475.08 921.3c31.28,20.08 33.32,65.03 39.4,107.06l11.43 46.8 5.99 36.74c14.28,10.33 15.77,-11.51 12.01,26.19 17.84,-31.44 -3.57,-56.69 -7.51,-99.67l2.59 -70.98c-23.84,-26.05 -13.54,-26.95 -29.57,-46.96 -5.3,-6.63 -25.24,-20.48 -32.87,-26.72l-28.6 -0.01c31.75,23.51 14.77,8.2 27.13,27.55z"/>
    <path class="fil1" d="M2252.92 1238.39c5.3,39.65 15.57,20.09 17.55,81.9 -1.72,53.74 -0.09,13.35 -14.2,29.97l-39.24 42.96 34.78 -12.87c2.17,-0.27 9.32,0.95 12.56,2.06l14.43 -42.27c13.38,-61.4 9.66,-47.9 11.31,-110.01l-38.48 -22.19c-34.49,-22.34 -20.38,-21.08 -62.98,-21.38l3.98 3.27c31.5,31.26 25.62,4.15 60.29,48.56z"/>
    <path class="fil1" d="M206.68 1294.94l-11.17 -40.23c32.66,21.62 20.32,-18.02 30.2,30.56 -10.1,12.34 15.55,16.01 -19.03,9.67zm-13.3 -50.09l-5 14.75c-0.82,1.58 -2.5,5.17 -3.39,6.68l-9.5 10.38c-0.62,-1.59 -3.87,2.91 -6.07,3.86l37.26 14.42 12.84 54.24c54.85,10.19 16.76,8.04 31.45,-10.39l-13.97 -53.23 16.01 -12.03 -5.12 -23.22 -21.57 1.28c-4.22,-12.23 3.79,-2.05 -11.28,-13.36 -9.19,23.74 7.39,5.71 -21.66,6.62z"/>
    <path class="fil1" d="M7988.86 1244.43l7.36 37.35 7.56 8.82c34.49,-8.99 32.48,27.78 24.54,-33.11 -29,-14.46 -21.81,-49.22 -28.86,-86.13l-5.89 -13.67c-7.45,47.11 -15.86,33.2 -4.71,86.74z"/>
    <path class="fil1" d="M7806.06 1290.87l28.76 45.68c65.09,20.76 16.24,9.73 34.7,-7.53 -22.71,-48.94 -4.54,-12.43 -47.08,-47.92 -0.47,-3.39 -1.93,-19.67 -3.12,-22.47l-13.26 32.24z"/>
    <path class="fil1" d="M6077.5 1242.47l2.5 2.47c37.86,-37.78 8.41,-32.37 58.1,-50.54l32.11 -12.31c-11.59,-9.62 23.82,-14.33 -33.68,-9.41l-50.45 28 -8.58 41.79z"/>
    <path class="fil1" d="M1221.94 1582.64c9.8,28.34 21.81,33.52 21.83,33.49 0.73,-1.6 3.83,3.33 5.37,5.32 0.5,-1.86 1.01,-4.63 1.32,-5.63 0.32,-1.07 1.25,-4.64 1.68,-5.95l12.13 -30.5 8.22 -20.53 -50.55 23.8z"/>
    <path class="fil1" d="M2241.2 1633.1c-10.32,54.75 -31.45,16.94 -24.46,58.27 -7.25,-18.84 -8.86,-12.64 12.79,-12.64l21.81 -3.8 13.76 -29.62c-12.62,-22.74 13.67,-18.91 -12.59,-16.49l-11.31 4.28z"/>
    <path class="fil1" d="M1939.33 1840.62l11.01 35.35 25.31 -45.45c-13.84,-18.97 20.73,-15.33 -15.13,-15.85l-21.19 25.95z"/>
    <path class="fil1" d="M1288.92 884.62l-10.77 31.5 18.92 15.8 8.78 -44.1c6.79,-34.29 7.25,-15.22 -10.76,-20.92l-6.17 17.72z"/>
    <path class="fil1" d="M7990.03 1801.06l44.51 -10.27 -1.17 -0.41 7.4 -16.95c-31,3.68 -42.67,-1.39 -50.74,27.63z"/>
    <path class="fil1" d="M380.85 1778.89c4.95,16.98 -27.69,14.92 27.8,12.59l4.88 3.51 10.28 -27.61 -42.96 11.51z"/>
    <polygon class="fil1" points="1014.68,1393.67 1037.07,1382.43 1027.75,1358.36 1006.8,1354.7 "/>
    <path class="fil1" d="M7141.02 1464.54l28.07 8.63 -5.02 -20.37 -13.42 -15.14c-16.37,12.39 -20.93,-26.38 -9.63,26.88z"/>
    <path class="fil1" d="M3553.74 1245.84l2.84 -14.58c6.97,-28.18 6.32,-8.78 -10.16,-17.42l-12.1 -6.04c0.91,26.18 -6.4,33.79 19.42,38.04z"/>
    <path class="fil1" d="M3734.26 1765.71l19.08 -1.44c-34.33,-23.08 -3.15,-14.73 -44.58,-24.3 9.85,16.25 -7.57,9.61 25.5,25.74z"/>
    <path class="fil1" d="M5231.31 1162.1l-10.23 12.64c23.11,-11.55 5.44,9.6 26.15,-20.25 -16.95,-11.04 22.16,-11.94 -35.47,-10.8 31.64,5.68 10.61,9.92 19.55,18.41z"/>
    <polygon class="fil1" points="7230.59,1530.1 7227.67,1514.13 7212.13,1510.73 7209.61,1538.36 "/>
    <path class="fil1" d="M4721.94 424.38l0.94 -2.68 3.67 -10.29 -5.56 -0.68 -17.43 0.68c-4.03,29.66 -9.49,24.46 18.38,12.97z"/>
    <path class="fil1" d="M5431.78 1691.35l12.92 1.07c-28.13,-20.54 -13.66,-17.39 -39.01,-28.1 15.53,30.29 4.38,17.34 26.09,27.03z"/>
    <polygon class="fil1" points="3610.93,1780.46 3595.98,1773.07 3591.83,1796.58 3598.54,1803.64 "/>
    <path class="fil1" d="M7197.56 1509.36l14.57 1.37c-12.74,-33.89 1,-15.15 -21.35,-19.17l6.78 17.8z"/>
    <path class="fil1" d="M7190.78 1491.56l-4.26 -19.63 -17.43 1.24c8.47,18.47 4.1,12.42 21.69,18.39z"/>
    <path class="fil1" d="M7039.02 1370.57c0.28,2.33 12.81,10.54 8.02,-2.48 -2.99,-8.13 -11.44,-25.98 -8.02,2.48z"/>
    <path class="fil1" d="M289.17 1790.38c-13.35,-29.81 -0.63,-15.01 -21.72,-19.41l21.72 19.41z"/>
    <path class="fil1" d="M1471.68 1003.46l12.84 -17.13c-15,7.94 -27.96,8.53 -12.84,17.13z"/>
   </g>
   <g>
    <path class="fil2" d="M5538.8 645.73l-5.72 33.07c1,22.26 9.24,37.22 -10.8,41.04 -14.34,35.73 -18.96,37.33 -51.14,57.24 -47.36,18.49 -87.9,6.74 -126.48,26.98l-22.77 11.53c3.2,9.32 -19.83,16.31 57.86,10.12 45.63,-3.64 23.56,-12.79 82.89,-10.09l13.37 20.46 78.84 36.38 -71.08 19.37c-31.56,28.2 -32.17,22.82 -33.83,72.63l-11.22 75.86c27.56,-5.02 12.84,6.46 27.46,-8.91l11.64 -64.93c-8.83,-17.65 -5.48,-23.77 -1.29,-57.03l32.73 -10.88 81.08 -14.19c-15,-69.01 11.36,-3.91 -47.86,-48.62l-43.72 -18.91 66.86 -26.17 5.56 -22c-0.36,1.34 -4.13,0.86 -5.47,3.46 -1.36,2.65 -6.69,1.19 -8.38,0.93 -66.95,-10.76 20.65,7.03 -18.93,-5.64l-22.84 24.12c-0.17,-0.26 -26.13,10.7 -4.08,-22.93 12.53,-19.11 -4.03,-2.38 26.42,-12.86l7.35 -2.84c23.47,-22.34 -4.8,-14.73 23.91,-23.86 -40.6,-9.67 -18.72,-15.12 -18.84,-18.54l35.88 -38.6 6.2 -1.24 -26.7 -12.55c-8.84,-4.4 -22.48,-6.92 -27.88,-13.49l0.98 1.09z"/>
    <path class="fil2" d="M7806.06 1290.87l13.26 -32.24c1.19,2.8 2.65,19.08 3.12,22.47 42.54,35.49 24.37,-1.02 47.08,47.92 -18.46,17.26 30.39,28.29 -34.7,7.53 22.38,81.52 100.31,124.17 130.64,197.82l11.25 13.52c11.72,-58.26 -17.52,-56.61 -24.48,-118.35 -14.26,-5.4 -23.01,-11.29 -35.42,-43.31 -11.97,-30.88 -0.62,-32.38 -18.25,-69.48l-9.1 -25.72 -19.53 -5.57c9.73,-16.21 10.29,26 10.29,-36.29l-30.81 -3.99c16.15,4 -0.43,-2.11 -9.61,-12.62 -6.46,-4.88 -30.8,-22.68 -32.62,-24.98 -12.53,-15.9 -1.19,-10.73 -21.76,-35.04l-11.98 107.35 32.62 10.98z"/>
    <path class="fil2" d="M7056 1399.47l18.12 -15.51c-2.22,27.41 8.19,9.69 -18.12,15.51zm-16.98 -28.9c-3.42,-28.46 5.03,-10.61 8.02,-2.48 4.79,13.02 -7.74,4.81 -8.02,2.48zm-2.19 8.8c-3.48,1.36 -7.4,4.99 -9.79,5.51 -2.1,0.47 -7.55,1.94 -9.65,2.3l-18.52 -7.71c-2.7,-26.2 17.88,-21.07 14.58,-63.15 -22.14,34.02 7.09,9.02 23.38,63.05zm-49.86 -10.19l16.6 34.29c26.83,0.54 13.64,-2.51 24.64,-4.68 28.15,-5.58 -2.42,-12.93 16.04,1.09l11.75 -0.41c19.58,24.2 31.07,39.48 64.65,45.9l82.35 -101.9c6.36,-30.67 11.81,-22.36 -20.64,-21.19 -30.67,28.34 4.12,-48.54 -38.4,38.5 -11.56,23.67 -21.05,42.14 -44.87,50 -12.77,-30.86 0.86,-49.81 24.31,-73.9 -20.85,-35.51 26.85,-29.21 -20.76,-29.21 -24.4,45.88 -9.24,23.33 -35.03,17.29l-23.38 16.66 -34 -107.48 -9.5 19.94c-1.07,3.71 -1.89,6.19 -2.8,10.3 -0.9,4.06 -0.57,6.29 -1.25,10.46l-1.7 29.28c-3.23,25.76 -7.21,32.36 -8.01,65.06z"/>
    <path class="fil2" d="M1184.4 1375.34l0 17.76c36.15,25.78 60.48,52.74 100.87,70.67 25.73,9.53 9.2,-7.2 24.92,12.24l-8.1 -29.7 -51.73 -54.5 42.46 -4.55 -1.62 -8.78 2.88 -11.02 -41.87 -8.65c-5.18,-23.63 18.14,-61.01 10.74,-104.2 -9.74,-56.84 -30.61,-33.53 16.23,-102.74 -50.36,-9.67 3.2,-20.35 -35.96,-11.35 -11.01,48.92 6.11,67.1 -13.82,118.57 -22.06,56.95 -12.73,55.16 -16,114.12l-29 2.13z"/>
    <path class="fil2" d="M3046.15 1357.5c0.87,-7.01 30.15,-49.86 14.86,-4.91 -6.7,19.74 -16.61,18.97 -14.86,4.91zm-167.99 -128.23l-7.37 14.98 46.05 -20.87c21,-17.24 -7.34,-11.78 37.56,-16.94 54.84,-6.3 89.04,4.57 113.38,37.94 -9.82,41.74 2.5,17.34 -22.61,40.27 -6.04,16.97 3.3,4.04 -11.62,20.72 -36.6,-2.53 -51.44,-4.82 -72.72,-33.97 -12,-12.8 -17.94,18.65 -17.1,-18.23l28.32 48.7c27.59,19.81 49.34,17.75 81.95,9.79 -12.84,40.59 -37.1,31.04 -22.05,67.73 19.99,11.49 11.3,13.32 28.99,-0.99 0.69,17.55 1.83,50.03 6.62,63.27 4.62,12.75 -1.91,19.16 19.38,29.43 46.21,22.27 24.58,-6.45 27.36,-8.45 -46.36,-54.37 -39.9,-126.55 -29.95,-192.08l-32.82 -69.45 44.97 -4.71 18.08 -2.49c-21.03,-12.35 -23.47,-7.85 -58.13,-9.31 14.88,-20.47 -11.73,-23.76 19.48,-15.63 -44.89,0.22 -85.57,-11.6 -116.79,-23.82l0.12 8.99 57.98 25.08c-14.41,10.87 2.31,5.44 -23.84,10.96 -27.2,5.74 -22.25,-8.2 -55.31,9.87 -30.32,16.57 -5.45,18.5 -59.93,29.21z"/>
    <path class="fil2" d="M1448.76 909.84l-6.42 44.21c-20.03,113.05 -95.61,57.1 -143.11,47.04 -8.82,-1.87 -12.32,-1.24 -19.16,1.63 -1.69,0.71 -12.07,9.32 -14.7,11.51 -4.58,-3.78 -24.35,-6.88 -24.43,-6.91l-37.35 22.66 -3.42 7.38c-1.5,36.98 -6.72,0.3 18.08,14.92l36.35 -21.21c10.3,8.35 8.92,8.42 14.87,13.87 1.11,1.02 3.93,3.61 5.06,4.64 16.09,14.71 20.02,9.43 64.52,8.93l3.33 -20.07c27.71,17.81 34.69,11.51 65.97,-0.33l3.8 14.36c5.67,-3.12 32.01,-15.53 34.34,-17.14 31.83,-21.99 15.54,-12.94 25.19,-31.87 -15.12,-8.6 -2.16,-9.19 12.84,-17.13 1.51,-1.24 4.26,-3.08 4.76,-3.44 17.39,-12.56 -1.62,-65.43 -4.9,-85.86 -14.94,9.12 -5.25,52.08 -11.43,85.8l-24.19 -72.99z"/>
    <path class="fil2" d="M6306.58 1379.07l-1.69 4.51c9.9,40.67 13.3,45.57 -2.44,86.41 -0.38,0.14 -1.18,0.17 -1.1,0.51l4.1 -4.27c1.1,-1 5.17,-4.46 6.31,-5.48 1.45,-1.29 5.35,-4.64 8.03,-6.96 -3.28,47.43 -0.64,93.14 6.38,124.79 0.29,29.61 4.03,77.7 1.49,102.72 23.24,12.29 22.45,-12.03 9.53,26.16l-8.66 22.61c27.31,6.4 8.14,9.36 30.02,-10.43l40.26 2.91c-18.49,-27.15 8.78,-23.48 -33.06,-12.65 -2.15,-2.45 -8.62,-7.82 -8.14,-5.42 0.28,1.46 -0.57,-5.38 -0.22,-5.95 0.58,-0.97 6.32,-3.42 7.71,-6.48 -6.96,-54.33 -38.85,-189.67 -33.81,-217.52 20.06,-111 -17.57,-127.71 -19.55,-221.6l-46.12 54.61 40.96 71.53z"/>
    <path class="fil2" d="M8180.73 819.39l-0.71 12.85 5.78 17.32 32.5 14.61c-30.21,14.16 -33.42,26.66 -59.73,8.57 -28.27,-12.91 -30.74,-9.24 -46.85,-30.65 -20.38,19.29 -16.88,-26.77 -17.15,20.98 40.64,26.36 74.22,37.25 123.42,35.95 53.4,-1.4 -28.27,-7.69 42.45,-2.83 13.12,-39.51 16.46,4.3 42.26,-53.05 16.99,-37.75 14.05,-53.56 13.15,-92.8 -28.95,-20.04 -45.52,-67.39 -67.56,-33.77 34.89,16.97 30.96,68.67 24.16,105.08l-21.82 27.75c-29.76,-3.35 -45.68,-15.55 -69.9,-30.01z"/>
    <path class="fil2" d="M7211.63 970.2l0 10.13c28.15,18.95 29.11,13.06 30.02,54.54l13.54 53.89 -10.93 38.51c-2.34,2.5 -7.77,9.24 -9.2,11.05 -1.45,1.83 -5.02,10.33 -6.15,8.35 -1.32,-2.3 -4.6,6.54 -6.99,9.75 24.29,4.31 12.91,-12.37 25.19,19.8l-24.88 85.54 -10.17 33.74 32.6 -4.05 30.69 -183.03c7.01,-52.03 -1.71,-79.99 -10.65,-130.28l61.6 -22.33c13.86,-42.05 8.55,-6.78 -21.32,-23.1 -29.68,36.09 -66.94,10.84 -97.07,-13.82 3.35,5.88 18.9,21.32 19.91,24.92l-16.19 26.39z"/>
    <path class="fil2" d="M7296.42 1809.68l-41.2 -12.71c24.15,-8.45 17.53,-8.18 41.2,12.71zm-226.99 -3.28c8.59,17.33 -2.83,6.57 17.77,3.6l-17.96 45.33 36.98 13.3 -7.83 -34.4 20.6 -34.93c82.98,-1.76 144.06,24.08 208.28,42.55 -17.26,-38 3.21,-11.25 -30.85,-32.17 21.49,-3.59 6.33,7 16.81,-9.08l-43.81 -32.25 9.73 -24.39 3.77 -57.32c-36.99,36.24 -32.69,20.84 -19.44,72.66l-23.67 15.26c-14.06,28.76 -56.95,16.4 -76.21,4.2l-34.27 -3.76c-11.27,12.57 -3.64,7.6 -4.74,-11.3l-21.87 -6.12c-15.56,-51.05 8.24,-36.9 -17.95,-71.29 8.77,64.6 -16.89,67.28 -15.34,120.11z"/>
    <path class="fil2" d="M2717.46 1551.5c51.94,-5.6 28.97,4.01 67.12,-25.38 -12.16,38.7 7.33,5.45 -30.21,58.31l-8.7 13.02c42.52,7.54 18.78,9.54 38.26,-29.43 20.1,-45.82 21.99,-23.74 54.77,-60.62 -74.81,5.94 -45.14,-2.13 -110.07,24.88 23.39,-84.01 6.03,-36.09 30.68,-48.52 -1.82,-59.22 85.02,-187.03 111.48,-239.51 -60.65,27.97 -181.96,246.84 -153.33,307.25z"/>
    <path class="fil2" d="M640.5 722.29l20.21 54.77c2.06,52.99 2.27,31.51 -13.96,73.48 -58.27,9.78 -19.68,0.96 -38.79,-6.62l-57.22 -26.52c9.66,21.61 3.5,14.83 9.42,29.02l37.63 16.92 -41.83 20.6 -14.46 -16.44c-36.55,-4.27 -12.55,7.94 -47.55,-24.94l-18.08 4.93c44.29,58.14 57.74,31.92 112.31,59.14 73.92,-8.65 101.47,-59.71 111.13,-132.2 -25.55,-33.88 -22.7,-62.69 -66.38,-72.59 0.31,0.25 2.27,8.66 7.57,20.45z"/>
    <path class="fil2" d="M219.52 1349.18c16.04,32.04 33.27,61.27 57.3,91.46 29.09,36.55 50.34,34.48 61.6,82.14l13.07 19.18c31.23,-27.55 -3.39,-55.68 -15.04,-102.13 -40.28,-34.01 -47.98,-62.07 -50.85,-119.26l-11.88 -3.56 -2.4 -31.45 -34.32 0 13.97 53.23c-14.69,18.43 23.4,20.58 -31.45,10.39z"/>
    <path class="fil2" d="M3765.19 852.43l-29.46 12.23c-3.17,1.14 -5.83,1.96 -8.95,2.97 -14.15,4.6 -3.28,2.27 -22.01,5.64 -11.22,2.01 -32.89,2.78 -46.82,4.86l-17.87 10.87c42.7,15.76 69.33,24.09 109.78,-9.82l33.13 38.93 54 21.45c56.98,-4.83 15.04,4.4 31.08,-22.88l-61.04 -18.32 71.43 -35.56 -8.65 -41.87c-0.18,3.96 5.58,23.42 -16.95,38.68 -70.08,47.47 -52.34,-8.54 -54.05,-10.3 35.64,-30.88 59.94,-3.18 60.14,-37.93 -14.82,-39.95 -1.57,-8.12 -25.7,-25.7 -11.66,39.03 -22.31,56.73 -68.06,66.75z"/>
    <path class="fil2" d="M2378.83 1131.3c-5.43,40.76 -4.31,51.07 -30.96,78.89l-57.76 19.94c-1.65,62.11 2.07,48.61 -11.31,110.01l23.13 -8.36 29.25 -90.93c44.08,-21.14 47.76,-6.65 72.94,-49.33 -40.47,-30.09 42.89,-5.93 -15.6,-4.42 -11.71,0.3 -7.65,25.05 -13.81,4.13 -0.37,-1.26 -2.66,0.92 -4,0.7 23.54,-25.18 12.53,1.95 21.93,-45.7l35.88 0.32 3.8 -29.72c-18.37,12.56 -11.29,-14.75 -23.59,20 1.33,-20.7 4.45,-36.28 1.52,-55.27 -6.26,-40.52 -5.7,5.25 -11.04,-46.84l-43.13 -16.16 -0.35 20.08c38.46,19.64 36.07,52.83 23.1,92.66z"/>
    <path class="fil2" d="M2926.8 1394.95l-5.19 35.43 0.82 89.9c31.24,-18.93 25.37,21.17 25.86,-24.11 1.81,48.94 -9.87,18.3 10.72,50.47 12.84,20.06 23.19,38.25 37.75,57.63 38.44,0 29.04,8.85 23.16,-30.75l-6.96 -19.08 -33.42 -17.26 -1.2 -35.65c-31.04,-49.9 -21.52,-110.88 -25.66,-170.47 -30.01,37.19 4.82,30.78 -25.88,63.89z"/>
    <path class="fil2" d="M1954.69 1193.17c0,31.23 -8.81,25.21 19.25,24.94l22.05 -4.49c37.37,-28.1 52.44,-15.71 100.86,-14.01l84.43 20.11 71.64 18.67c-34.67,-44.41 -28.79,-17.3 -60.29,-48.56l-3.98 -3.27c-30.92,-38.13 -99.46,21.01 -100.59,-20.21l-133.37 26.82z"/>
    <path class="fil2" d="M1006.8 1354.7l20.95 3.66c17.08,-92.92 64,-147.98 96.63,-229.37 19.63,-47.14 24.87,-25.96 44.15,-59.71 0,-15.09 4.09,-12.2 -10.09,-10.96 -66.91,76.65 -146.03,194.54 -151.64,296.38z"/>
    <path class="fil2" d="M1855.09 1336.15l-6.9 15.36c44.03,3.1 19.14,7.69 57.78,-9.06 26.61,-15.95 31.23,-4.85 55.4,-18.46 3.62,-2.05 38.32,-36.84 40.86,-39.69l53.42 35.75c7.43,-25.92 20.01,-23.1 42.49,-12.36l-1.54 -24.45 -11.13 -5.18 -21.35 -0.09 -16.05 1.9 -19.35 -5.41 -131.87 17.67 -13.37 46.72 -28.39 -2.7z"/>
    <path class="fil2" d="M4682.9 608.58c-11.8,38.71 -18.06,95.73 -33.27,124.89 16.39,16.96 16.15,-8.89 16.18,34.39 -2.08,41.88 0.54,51.73 21.23,88.84 20.19,-13.44 16.74,10.63 14.23,-25.87l-15.71 -19.87 4.61 -115.81 -1.49 -43.14c23,-10.19 26.53,19.1 16.52,-92.23l-18.93 25.93c-1.37,2.74 -2.87,19.48 -3.37,22.87z"/>
    <path class="fil2" d="M2143.06 1423.23l-17.15 9.92c0.96,51.35 -9.28,15.36 12.85,52.72 -62.14,-6.59 -41.19,-26.45 -100.22,17.59l38.75 11.88 50.41 -26.35 18.8 22.72 23.7 0 -9.68 -39.66 32.83 -53.79c3.19,-1.92 6.26,-4.83 8.65,-7.05 2.45,-2.29 5.94,-2.64 7.89,-8.35 2.04,-5.95 4.46,-6.67 7.14,-9.64 -28.69,1.57 0.45,-18.31 -37.84,15l-25.91 -18.35 -10.22 33.36z"/>
    <path class="fil2" d="M6224.61 1722.19l7.3 -4.69c-18.5,-76.27 -29.04,-91.18 -2.48,-174.94 -2.92,-27.94 -7.71,-38.58 -5.71,-58.04 2.91,-28.34 28.14,-16.29 -9.98,-36.51l-10.34 24.14c-19.57,-26.09 -6.77,-17.7 -28.16,-29.82 -0.93,42.36 6.43,23.18 20.72,66.11 16.36,49.14 6.83,32.23 1.26,79.35 -5.49,46.47 -7.14,109.23 27.39,134.4z"/>
    <path class="fil2" d="M1345.95 1148.64l5.09 33.61 -14.81 83.65c28.43,11.33 4.89,-5.66 20.88,14.13l7.46 16.7c0.48,-62.36 11.79,-143.66 9.85,-196.28l0.81 -30.85 -36.18 -11.09c-4.67,42.43 -5,0.7 0.62,43.28 2.45,18.59 4.93,26.68 6.28,46.85z"/>
    <path class="fil2" d="M5231.31 1162.1c-8.94,-8.49 12.09,-12.73 -19.55,-18.41 57.63,-1.14 18.52,-0.24 35.47,10.8 17.66,-9.21 18.9,13.91 10.29,-26.26l-33.9 5.61c1.64,-24.21 43.11,-183.83 57.14,-198.04 0.48,-30.33 8.48,-23.64 -20.27,-23.64 -2.17,22.93 -28.34,101.3 -37.02,125.26 -17.71,48.96 -11.71,78.92 -22.23,119.9l30.07 4.78z"/>
    <path class="fil2" d="M4545.05 1141.73l-25.02 69c0.23,-1.29 2.23,1.94 1.27,2.44l-28.67 149.61c32.9,-35.18 41.91,-123.39 79.53,-214.88 -9.13,-34.45 9.96,-13.19 -14.59,-27.27l-12.52 21.1z"/>
    <path class="fil2" d="M1257.84 1745.06l-11.92 18.3c-6.32,22.11 2.91,5.9 -11.12,18.99l-32.04 -8.6 -68.55 -3.34 -0.31 111.14 15.52 11.34c-19.16,-51.06 -31.35,-110.06 50.92,-96.54 57.43,8.99 86.9,-1.59 135.13,18.52l7.99 -35.72c-56.53,-4.71 -64.37,-16.79 -45.43,-75.26 5.84,12.27 4.16,-3.91 3.84,15.44 -1.32,80.97 -19.15,60.89 -36.5,70.05 -16.25,-23.64 -33.4,36.58 -7.53,-44.32z"/>
    <path class="fil2" d="M4887.3 227.35l32.01 52.16c-13.07,24.24 -14.68,25.72 -26.38,59.81l2.59 -5.78c46.49,-8.89 28.27,-86.85 23.18,-118.17l22.65 -13.5 36.16 -17.27 1.72 46.16 21 0.24c-9.61,-13.83 -13.36,-21.47 -21.55,-35.71 -16.78,-29.19 9.11,1.46 -20.15,-29.36l-36.83 0.57c-11.44,30.1 -19.05,10.08 -34.4,60.85z"/>
    <path class="fil2" d="M7123.51 901.85l-4.58 33.93 30.03 0.02c-9.7,-61.69 -11.53,-24.96 21.42,-35.06l-3.62 -23.17c-9.62,-4.77 -12.28,-47.9 -11.32,-63.15 1.62,-25.62 -3.23,-1.46 8.84,-27.69 14.27,-31.04 8.19,-10.48 19.22,-44.98 -80.56,21.64 -29.64,129.23 -59.99,160.1z"/>
    <path class="fil2" d="M7308.03 1631.38l-29.59 30c-3.16,-40.54 -9.12,-31.65 5.1,-55.43 -0.03,22.02 -0.94,38.19 2.42,57.93 6.66,39.18 -7.27,40.18 18.94,29.47 18.12,-25.06 22.79,-47.24 45.16,-73.67 31.53,-37.24 30.79,-26.19 48.17,-73.51l-28.47 -5.39c-25.07,51.92 -12.58,12.4 -31.19,46.22 -12.35,22.45 -12.95,27.79 -30.54,44.38z"/>
    <path class="fil2" d="M6114.85 1103.03c-1.64,-81.32 54.21,-120.49 54.35,-172.75 -0.09,0.02 -17.22,-4 -37.66,27.28 -9.67,14.81 -11.07,29.2 -16.34,45.32 -12.03,36.88 -40.28,79.55 -0.35,100.15z"/>
    <path class="fil2" d="M6390.09 831.67c25.1,-51.82 51.15,-40.7 59.95,-123.24 3.62,-68.85 8.01,-46.66 -10.03,-79.78 -15.29,29.96 10.31,119.57 -68.79,182.91 5.16,35.97 -2.9,10.71 18.87,20.11z"/>
    <path class="fil2" d="M6625.14 1026.35l6.31 45.04 -47.19 12.85 -27.78 16.23 73.58 -5.35c27.53,-32.31 22.88,-54.69 23.2,-96.32 -35.14,-2.31 -5.09,6.94 -45.75,-14.8 -22.79,20.87 -31.44,-33.77 -16.26,27.17l33.89 15.18z"/>
    <path class="fil2" d="M5601.19 772.3l14.46 -3.11c-0.78,55.94 -7.31,29.66 18.2,65.85l55.12 6.73 9.28 -10.18 -11.56 -35.01 -51.79 18.86c3.53,-36.17 -4.64,-32.8 23.31,-56.08l-47.7 -16.39 -9.32 29.33z"/>
    <path class="fil2" d="M5811.14 589.97c7.86,54.32 -8.63,101.36 -28.73,151.07 -10.3,38.75 -25.09,32.88 -9.56,46.56 48.66,-86.1 59.05,-128.8 59.22,-229.19l-18.42 -22.18 -2.51 53.74z"/>
    <path class="fil2" d="M7182.42 745.92c85.85,-35.14 56.7,-63.61 145.4,-6.6l7.26 17.84c35.89,4.94 29.25,13.31 23.48,-21.57 -47.79,-43.74 -64.01,-44.05 -131.96,-39.33l-37.72 40.1c-2.03,2.57 -4.35,6.34 -6.46,9.56z"/>
    <path class="fil2" d="M4639.04 946.04l10.99 20.61c38.85,-25.28 18.4,12.69 10.16,-52.9 -26.36,-10.09 -7.25,-0.16 -25.65,-21.06l13.75 -30.1 -41.28 -33.47c-54.67,4.3 -19.22,-1.94 -28.46,14.08l43.34 20.66c-7.99,31.1 -3.66,33.96 17.15,82.18z"/>
    <path class="fil2" d="M3793.32 1397.04l-4.95 -61.95c-12.93,10.45 -12.26,-12.8 -18.07,19l-34.87 -65.13c2.1,119.48 76.75,98.73 43.32,197.57 28.76,-45.73 24.59,-24.24 14.57,-89.49z"/>
    <path class="fil2" d="M8116.84 670.64c-22.66,59.31 -32.51,21.96 -32.4,80.78 23.68,-17.73 3.85,-2.46 21.39,-25.63 22.95,-30.33 -5.2,-9.47 31.58,-25.48l3.9 -1.04c46.52,-53 59.59,-39.8 73.57,-58.47l-56.79 6.14 -41.25 23.7z"/>
    <path class="fil2" d="M8003.78 1290.6l79.92 104.05c15.92,-44.6 -2.94,-41.59 -25.34,-81 -17.23,-30.3 -8.14,-33.43 -30.04,-56.16 7.94,60.89 9.95,24.12 -24.54,33.11z"/>
    <path class="fil2" d="M3761.26 1641.09c-0.56,-36.01 -1.47,-27.53 14.26,-57.39l-10.83 -39.85c-20.12,30.8 -56.32,119.31 -39.28,148.95 19.63,-25.94 8.16,-29.92 35.85,-51.71z"/>
    <path class="fil2" d="M8034.64 847.8c51.89,-1.09 22.35,4.22 37.93,-14.97 -11.31,-41.5 -11.88,-45.64 11.87,-81.41l-14.11 26.59c-31.19,-27.08 -6.68,6.91 -23.25,-33.95 -9.21,-22.72 3.6,-4.1 -0.64,-13.94 -23.99,26.91 -18.31,106.3 -11.8,117.68z"/>
    <path class="fil2" d="M2932 1638.24l-18.12 21.72 18.18 31.67 20.42 -14.7 5.97 -15.45c16.9,14.93 -5.15,14.1 45.46,4.49l-17.8 -32.13c-52.36,-6.22 -23.49,-6.65 -54.11,4.4z"/>
    <path class="fil2" d="M7127.49 1132.48l1.82 32.78 -5.55 7.18 3.17 25.01c43.17,-14.03 6.7,1.05 40.83,-25.11 4.36,-22.35 -1.64,-12.41 23.19,-16.38l-6.98 -19.95 -22.74 -2.6c-4.71,-27.38 4.04,-25.82 -18.71,-16.81 -4.91,18.09 3.44,10.86 -15.03,15.88z"/>
    <path class="fil2" d="M426.56 719.76l-12.88 45.71 10.25 89.66 21.17 12.98 4.48 -72.04c-18.6,-39.81 28.23,-10.94 34.23,-97.97l-12.21 11.55c-37.05,118.89 -2.73,56.31 -49.22,82.01l4.18 -71.9z"/>
    <path class="fil2" d="M1014.68 1393.67l13.86 34.18c16.25,8.89 6.18,-3.42 17.77,11.18 21.05,-48.94 6.03,10.55 27.21,-50l36.78 6.44c-8.16,-3.96 -9.17,-12.26 -12.55,-17.22 -56.61,0.03 -27.09,-5.65 -70,-19.89l9.32 24.07 -22.39 11.24z"/>
    <path class="fil2" d="M5210.13 1676.26l31.07 10.14 6.64 -9.21 -20.88 -33.73 37.39 7.35c28.8,0.75 23.4,8.88 23.4,-16.54l-80.39 -19.74 2.77 61.73z"/>
    <path class="fil2" d="M3543.07 1759.54l4.98 -7.17 -17.74 -33.07 56.52 10.2c4.61,-4.53 35.1,3.34 -16.12,-20.24 -37.6,-17.3 -37.19,-17.35 -78.01,-10.89 29.62,22.1 19.22,6.4 22.74,50.74l27.63 10.43z"/>
    <path class="fil2" d="M5429.61 1249.14c27.54,38.42 59.4,94.68 44.96,150.84l20.5 -34.46 -24.99 -123.78 2.85 -3.04 0 36.48c-23.41,-15.51 -17.01,-9.8 -29.74,-23.35 0,0 -10.63,-21.88 -14.31,-23.41l0.73 20.72z"/>
    <path class="fil2" d="M4553.23 1511.84c7.88,15.39 27.35,49.26 53.67,64.73 15.78,9.28 82.77,30.37 82.2,7.13l-50.32 -10.28c-42.27,-40.59 -52.01,-1.67 -72.61,-81.82 -6.7,25.2 14.27,18.72 -12.94,20.24z"/>
    <path class="fil2" d="M3139.25 1083.84l-26.41 14.6c0.95,0.9 19.46,19.09 19.8,19.44 1.29,1.32 4.5,7.7 5.45,5.99 0.9,-1.63 3.34,3.89 5.01,5.84 1.17,3.28 -10.98,28.41 16.49,-4.95 17.51,-21.25 18.36,-29.36 27.69,-55.16l-48.03 14.24z"/>
    <path class="fil2" d="M169.42 1280.52c2.2,-0.95 5.45,-5.45 6.07,-3.86l9.5 -10.38c0.89,-1.51 2.57,-5.1 3.39,-6.68l5 -14.75c-6.04,-39.18 -1.62,-32.95 -34.78,-51.84 1.04,39.81 -12.6,66.15 10.82,87.51z"/>
    <path class="fil2" d="M8055.94 1141.75l-7.23 48.26 33.33 1.54 -7.41 -89.64c1.98,-18.92 7.06,-15.27 -10.13,-15.27l-8.56 55.11z"/>
    <path class="fil2" d="M4678.38 1136.42l-8.48 53.7 9.6 31.95c0.19,-1.71 -0.87,-4.59 -0.73,-6.35 2.29,-28.1 -12.51,-11.88 10.02,-36.7l4.44 -26.54 11.67 -31.78 21.83 -1.07 -13.09 -24.01 -23.35 5.04 -11.91 35.76z"/>
    <path class="fil2" d="M7996.3 1115.8l-2.73 41.89 5.89 13.67 37.79 -50.99 18.69 21.38 -13.1 -41.61c-36.31,2.84 -10.39,-3.03 -46.54,15.66z"/>
    <path class="fil2" d="M6178.34 896.16c-8.85,30.36 -11.3,19.07 25.01,19.07l13.43 -17.48 6.12 -22.12 -5.4 -36.87 -39.16 57.4z"/>
    <path class="fil2" d="M3091.68 1676.6l36.11 -20.3 -15.8 -9.85c-34.69,-10.12 0.76,3.8 -46.3,-17.19l-10.1 34.89c68.49,2.01 12.25,-0.55 36.09,12.45z"/>
    <polygon class="fil2" points="4705.18,459.65 4736.86,460.64 4779.25,471.9 4785.84,454.18 4773.38,438.89 4735.27,451.49 4722.88,421.7 4721.94,424.38 "/>
    <path class="fil2" d="M498.24 667.23l-14.43 30.87 29.68 -0.45c1.89,-1.4 5.11,-5.36 6,-3.67 1.31,2.48 5.71,-2.99 12.6,-8.45 9.25,-7.33 7.19,-3.18 19.81,-17.95 -16.54,-9.16 11.81,-21.13 -32.43,-2.58l-21.23 2.23z"/>
    <path class="fil2" d="M6562.21 999.82c16.74,-12.26 29.34,12.14 13.34,-12.49l-32.25 -17.54c34.65,0 31.08,9.16 18.67,-21.77l-27.04 7.38 -9.31 12.93c6.52,10.07 1.4,6.09 11.67,14.82l24.92 16.67z"/>
    <path class="fil2" d="M6055.72 1192.71c36.43,-8.13 15.58,2.9 33.84,-48.35l2.11 -0.78 -33.53 -2.5 -2.42 51.63z"/>
    <path class="fil2" d="M4462.51 942.39l-0.35 4.51c51.74,16.51 16.86,12.25 29.85,-15.81 4.03,-8.72 -1.92,-31.51 -2.44,-34.9 -42.15,37.65 -17,-3.75 -27.06,46.2z"/>
    <path class="fil2" d="M3729.89 1237.86c1.51,-2.41 3.81,-9 4.15,-7.45 0.31,1.49 2.87,-5.79 3.22,-7.5l-6.46 -80.98 -45.97 21.09c5.58,2.28 2.7,2.85 20.32,5.15 2.13,0.28 18.15,-0.58 18.74,-0.5l6 70.19z"/>
    <path class="fil2" d="M3866.76 728.05l4.58 -5.11 -28.71 -13.39c13.68,50.54 10.1,27.21 3.37,79.15l30.47 -38.69 -9.71 -21.96z"/>
    <path class="fil2" d="M2232.38 1591.32l9.98 2.14 12.98 12.88 12.56 -15.64c-24,-20.69 -18.17,-8.79 -37.32,-31.96 -25.77,14.79 -20.3,-2.42 -14.03,25.7l15.83 6.88z"/>
    <path class="fil2" d="M5277.57 1720.53c28.69,25.52 14.06,16.4 59.15,24.94l-17.26 -31.35c-10.43,-9.81 -3.86,-2.91 -22.22,-10.73 0,22.94 5.21,15.91 -19.67,17.14z"/>
    <path class="fil2" d="M4757.68 226.2l-0.33 4.42c10.9,16.74 10.64,3.72 32.42,16.14l-3.55 -34.32 -19.82 -20.38 -8.72 34.14z"/>
    <path class="fil2" d="M4535.63 1407.61c20.99,-33.08 9.7,4.26 26.58,-50.33l-53.01 36.32 26.43 14.01z"/>
    <path class="fil2" d="M8081.03 1633.74l15.2 -26.22 -27.86 -34.36c-0.43,25.87 -5.75,49.13 12.66,60.58z"/>
    <path class="fil2" d="M1362.52 1831.32l45.01 21.04 -1.75 -13.53 -35.51 -28.04c-17.2,6.58 -22.01,-17.38 -7.75,20.53z"/>
    <path class="fil2" d="M1978.22 1370.64l7.33 -2.48c1.95,-2.84 4.61,-10.46 5.76,-8.56 14.61,24.03 -3.6,0.55 27.69,-34.8 -24.53,-0.66 -6.72,-13.35 -27.49,16.34 -17.68,25.28 -2.82,20.2 -36.88,31.1 10.36,12.46 -17.3,11.43 23.59,-1.6z"/>
    <polygon class="fil2" points="2036.99,1652.72 2067.85,1641.46 2078.03,1627.73 2047.27,1624.45 2029.61,1624.09 "/>
    <path class="fil2" d="M206.68 1294.94c34.58,6.34 8.93,2.67 19.03,-9.67 -9.88,-48.58 2.46,-8.94 -30.2,-30.56l11.17 40.23z"/>
    <path class="fil2" d="M4491.49 838.87l9.54 41.51 17.55 -38.88 10.45 12.15c4.16,-28.05 13.54,-10.39 -11.36,-16.93l-26.18 2.15z"/>
    <path class="fil2" d="M439.99 1681.58l2.91 -25.49c-10.72,-7.8 17.23,-35.53 -22.93,-3.15 -3.61,32.14 -10.45,12.83 20.02,28.64z"/>
    <polygon class="fil2" points="3063.02,1730.26 3085.36,1686.35 3091.68,1676.6 3056.14,1690.85 "/>
    <path class="fil2" d="M5416.08 1108.09c22.06,-14.29 18.49,5.87 17.08,-20.3 -59.02,-38.32 -15.77,-6.09 -32.14,7.59 18.5,-0.77 13.76,-5.33 15.06,12.71z"/>
    <path class="fil2" d="M4648.06 1294.63c12.36,10.22 -11.24,23.22 16.86,3.64 2.54,-38.1 3.4,-24.15 -7.6,-48.19l-9.26 44.55z"/>
    <path class="fil2" d="M2131.1 1607.11c4.61,17.66 -6.06,2.83 15.12,14.86 0.77,0.44 3.9,1.42 5.69,2.45l16.3 -20.63c-30.52,-12.79 -28.47,-3.5 -37.11,3.32z"/>
    <path class="fil2" d="M4720.99 410.73l5.56 0.68c26.93,14.39 32.6,-7.1 20.86,14.68l3.06 -42.05 -19.45 16.84c-1.13,1.02 -4.37,6.73 -5.2,5.07 -0.77,-1.56 -3.22,3.19 -4.83,4.78z"/>
    <path class="fil2" d="M2131.65 1301.67c35.82,14.16 10.01,6.52 16.84,-3.96l-29.31 -21.03c0.02,25.35 -5.72,13.48 12.47,24.99z"/>
    <path class="fil2" d="M4639.04 946.04c-16.69,9.88 -9.18,-30.68 -15.54,29.55 28.89,-18.36 26.29,0.22 15.54,-29.55z"/>
    <path class="fil2" d="M400.71 1707.17c10.88,-14.11 8.79,22.03 13.82,-32.7 -22.05,18.93 -22.71,4.87 -13.82,32.7z"/>
    <path class="fil2" d="M1349.53 1522l0.77 -30.8 -19.09 6.67c46.51,10.11 22.89,-2.31 18.32,24.13z"/>
   </g>
   <g>
    <path class="fil3" d="M3940.68 894.71c16.97,-49.6 -4.8,-40.38 41.52,-57.26 20.15,50.84 0.64,38.91 -41.52,57.26zm76.96 -107.17c-79.15,-22.53 43.87,35.8 -24.93,-7.84 -31.1,-19.73 -2.9,1.83 -7.73,-24.48 44.54,8.27 23.49,-11.41 32.66,32.32zm-88.02 -37.98c-9.87,12.78 1.35,6.94 -14.57,14.3 -36.01,16.66 -1.4,3.37 -17.24,-7.54l31.81 -6.76zm30.37 -28.87c26.54,8.13 16.19,26.42 15.26,35.57 -1.77,17.3 -7.44,31.7 -17.83,44.68l4.9 -51.1 -32.7 -0.28 30.37 -28.87zm11.06 -27.72l-11.06 27.72c-52.85,-2.59 -16.7,1.67 -60.2,20.26l-33.03 -12.9 9.71 21.96 -30.47 38.69c6.73,-51.94 10.31,-28.61 -3.37,-79.15l28.71 13.39c-7.88,-47.61 -18.63,-81.36 -62.91,-95.53l-12.31 34.54c25.99,30.34 36.84,49.22 42.88,88.79 -40.46,37.62 -149.15,59.9 -198.09,36.69 -20.49,-7.76 -12.95,-2.47 -25.9,-15.51 -1.57,-35.4 6.35,-35.83 -8.45,-57.95l-10.15 91.03c11.99,11.9 20.42,20.91 29.51,32.44 5.33,6.77 8.28,11.29 13.01,17.36l9.29 11.61c1.65,2.05 7.54,9.08 9.73,11.72 13.93,-2.08 35.6,-2.85 46.82,-4.86 18.73,-3.37 7.86,-1.04 22.01,-5.64 3.12,-1.01 5.78,-1.83 8.95,-2.97l29.46 -12.23c-42.9,-8.67 -88.03,-16.54 -113.29,-52.26 36.75,-1.5 76.58,4.65 111.14,-1.14 33.27,-5.58 39.29,-20.93 70.21,-13.35 24.13,17.58 10.88,-14.25 25.7,25.7 -0.2,34.75 -24.5,7.05 -60.14,37.93 1.71,1.76 -16.03,57.77 54.05,10.3 22.53,-15.26 16.77,-34.72 16.95,-38.68l8.65 41.87 34.07 -9.23 6.9 42.15 21.25 -1.01 6.87 15.69c-32,21.84 -53.65,14.14 -79.48,6.28 -16.04,27.28 25.9,18.05 -31.08,22.88l8.15 7.71 -69.53 25.44 -24.68 15.62 -23.1 23.86 26.61 25.72 -23.64 104.02 37.53 0.2c4.56,-43.99 27.46,-120.16 49.39,-153.59l179.85 -74.07c34.82,-24.31 26.89,-29.82 55.73,-55.41 72.01,43.28 -19.48,-22.23 21.51,12.09 59.72,-46.11 77.18,-169.78 65.38,-254.06 -15.54,-13.46 4.29,-5.28 -29.89,-1.6 6.96,68.33 9.66,90.57 -10.59,153.56 -25.52,79.36 -20.07,63.88 -76.14,96.77l-25.5 -65.93 19.57 -12.35c7.33,-24.41 10.01,-35.62 18.88,-52.51l50.88 -129.73c-64.55,8.74 -62.22,1.28 -82.87,27.35 -24.01,30.3 1.34,22.68 -33.48,60.32z"/>
    <path class="fil3" d="M6413.41 998.82c16.5,-19.82 -3.32,-6.96 25.65,-12.03l20.53 21.11c-13,31.1 -22.89,36.94 -56.46,30.79l10.28 -39.87zm195.81 -82.5c-41.13,-13.89 -8.49,24.75 -35.42,-31.84 60.58,15.83 27.61,-15.08 35.42,31.84zm-388.7 -92.54l-3.02 14.98 5.4 36.87 16.26 -1.53 -7.82 -44.5c50.11,1.37 8.07,1.56 42.58,7.26 36.49,6.03 -24.54,-17.85 37.4,6.89 32.89,17.09 87.94,71.41 100.57,105.3l26.13 18.47 -24.61 31.3 -22.69 24.9c-3.67,2.89 -7.32,4.79 -10.7,7.3 -3.71,2.75 -7.94,5.15 -11.97,7.62l-5.36 -47.11c-32.29,6.79 -41.07,16.16 -70.35,4.66 14.93,-10.49 -0.67,-6 11.07,9.66l16.94 21.57 -39.22 51.36c4.26,48.08 9.86,47.05 37.7,81.9l-47.04 0.53c25.41,23.82 20.13,24.15 34.54,64.44l-3.85 0.27c-17.73,35.97 -11.43,2.27 14.03,26.45l11.53 2.59c-2.23,-89.28 -7.87,-63.53 15.64,-91.14 -32.06,-46.07 -53.1,-78.1 -6.54,-132.74 68.13,19.21 2.41,48.37 219.34,69.39l27.78 -16.23c-15.63,-32.84 -27.02,-11.2 -72.35,-12.87 -27.9,-1.02 -45.75,-9.06 -75.82,-11.2l44.77 -49.63c-22.23,-35.19 -16.42,-24.85 -41.75,-54.12 2.98,-0.85 7.62,-5.61 8.85,-2.85 6.48,14.5 4.61,-9.95 27.96,-5.02 9.53,2.02 37.46,15.31 49.7,19.78l9.31 -12.93c21.24,-58.01 -2.86,-40.9 48.57,-65.18 -7.57,40.38 -17.05,45.34 -21.53,57.8 12.41,30.93 15.98,21.77 -18.67,21.77l32.25 17.54c16,24.63 3.4,0.23 -13.34,12.49l24.43 16.57c-35.37,-1.27 -34.24,3.04 -60.23,-23.44 -38.5,-39.21 -6.03,-28.4 -65.04,-45.4 6.92,50.97 0.26,47.97 54.27,69.14 40.23,15.76 67.96,12.21 109.5,9.66l-33.89 -15.18c-15.18,-60.94 -6.53,-6.3 16.26,-27.17l-2.51 -19.4 -28.95 -3.88c30.62,-10.14 14.54,-8.35 33.17,-44.4l5.52 -40.85c-74.04,-17.27 -111.9,28.17 -173.32,29.6l-66.37 -61.73 -16.47 6.18c-48.97,-61.55 -20.45,-21.13 -90.09,-40.2 -16.05,-4.39 -24.95,-10.41 -44.99,-15.77 4.04,6.01 1.94,14.14 9.72,20.92l-12.7 9.31z"/>
    <path class="fil3" d="M1302.09 1446.31l8.1 29.7c-15.72,-19.44 0.81,-2.71 -24.92,-12.24 -0.52,35.66 -11.41,37.55 -29.66,72.01 0.01,-0.18 15.5,-0.67 -9.48,-34.19 -10.73,37.12 -7.5,24.97 -20.84,2.21l3.45 42.49c-12.78,-13.79 -23.99,18.34 -14.86,-40.6 -12.38,51.52 5.84,47.63 -40.34,37.89 32.07,12.19 32.94,10.67 48.4,39.06l50.55 -23.8 -8.22 20.53c41.58,19.25 19.24,21.21 6.94,66.56 -0.02,-2.9 2.19,-31 7.4,-44.18l35.09 -44.68c-3.39,53.36 -19,101.27 -38.81,143.11 -13.6,-14.18 -17.02,-15.52 -12.22,-34.65l-29.64 72.75 24.81 6.78c-25.87,80.9 -8.72,20.68 7.53,44.32 17.35,-9.16 35.18,10.92 36.5,-70.05 0.32,-19.35 2,-3.17 -3.84,-15.44 -18.94,58.47 -11.1,70.55 45.43,75.26l-7.99 35.72 27.05 16.45c-14.26,-37.91 -9.45,-13.95 7.75,-20.53 12.49,-24.72 15.19,-10.29 49.72,-0.47 -26.85,-27.98 -39.07,-15.43 -74.26,-41.45 1.47,-108.68 57.65,-106.82 57.42,-165.72l-16.41 -30.02 -20.99 44.25c-29.29,-24.97 -8.83,-12.29 -8.59,-12.31 -16.12,43.02 -6.49,24.97 -40.3,50.62 8.71,-55.78 12.71,-92.32 41.09,-133.53l41.47 39.18c1.28,-43.82 6.76,-27.04 4.15,-49.63l-6.01 30.83c-3.33,-2.97 -9.51,-11.72 -10.67,-8.87 -0.95,2.32 -7.36,-6.12 -8.27,-8.01 -19.94,-41.5 -9.08,-0.64 -0.14,-16.13 0,27.82 3.69,0.73 -28.95,12.47 4.57,-26.44 28.19,-14.02 -18.32,-24.13l19.09 -6.67 44.43 -19.9c-72.55,-37.3 -54.85,-51.8 -103.53,-92.82l1.62 8.78c26.83,39.43 -2.92,20.97 33.93,54.27 -9.78,9.7 25.34,13.92 -24.66,4.78z"/>
    <path class="fil3" d="M1905.97 1342.45l-1.97 30.25c36.12,-11.55 13.82,15.98 41.26,-24.55l-13.21 44.57c-25.79,34.9 -52.49,59.59 -71.86,108.43l20.4 10.56c28.89,-25.86 37.93,-35.77 84.28,-36.72 -13.69,44.1 -4.73,33.78 -38.29,63.85l-5.35 -4.02c-31.76,0.09 -21.74,0.26 -37.43,7.56 17.87,17.48 22.89,25.07 37.95,40.74 38.7,-7.51 -1.26,11.24 21.29,-11.36l13.8 12.03c-40.28,-1.16 -24.48,7.14 -48.76,-21.49l-35.7 11.17c13.89,33.85 -1.73,15.66 31.76,41.1 6.74,5.12 28.59,20.8 36.94,24.84 43.7,21.12 53.65,3.19 95.91,13.31l-7.38 -28.63 17.66 0.36c0.22,-45.06 -2.21,-10.99 10.22,-17.31 -2.95,1.29 -7.64,-0.97 -9.39,2.24 -6.44,11.83 -67.03,-15.96 -79.46,-19.83 0.94,-47.15 10.73,-17.25 10.52,-66.35l-14.24 4.3c-8.39,-2.84 0.01,23.88 -14.13,-15.74 39.11,-27.8 53.65,-0.18 65.45,-0.89 1.69,-0.11 13.68,-7.31 22.3,-7.41 59.03,-44.04 38.08,-24.18 100.22,-17.59 -22.13,-37.36 -11.89,-1.37 -12.85,-52.72l17.15 -9.92 -16.19 -16.6c-9.82,58.22 -5.44,22.98 -28.12,61.95l-196.13 -3.59 75.6 -94.35c-40.89,13.03 -13.23,14.06 -23.59,1.6 34.06,-10.9 19.2,-5.82 36.88,-31.1 20.77,-29.69 2.96,-17 27.49,-16.34 -31.29,35.35 -13.08,58.83 -27.69,34.8 -1.15,-1.9 -3.81,5.72 -5.76,8.56 33.33,-9.14 53.03,-15.95 85.08,-27.89 51.89,-19.33 50.6,0.52 61.02,-38.6 -18.19,-11.51 -12.45,0.36 -12.47,-24.99l-22.58 6.56 1.54 24.45c-22.48,-10.74 -35.06,-13.56 -42.49,12.36l-53.42 -35.75c-2.54,2.85 -37.24,37.64 -40.86,39.69 -24.17,13.61 -28.79,2.51 -55.4,18.46z"/>
    <path class="fil3" d="M7293.02 1588.8c3.53,-38.63 5.66,-117.65 33.62,-146.4 13.24,29.98 -16.26,113.69 -33.62,146.4zm-110.66 -266.52c32.45,-1.17 27,-9.48 20.64,21.19 25.02,-0.03 16.28,1.33 36.31,18.24 42.27,35.65 75.52,48.26 72.21,100.09 -4.26,66.73 -11.36,44.11 -37.47,54.31 4.98,24.41 3.78,-0.6 -2.26,-2.03l-4.59 -0.78c-2.64,0.29 -28.23,18.39 -12.12,-15.11l-24.49 31.91 -20.98 8.26 2.52 -27.63 -14.57 -1.37 -31.98 38.84c-7.45,34.86 -13.69,25.22 23.22,25.22 5.05,-36.27 -10.1,-7.49 19.77,-41.04l-7.22 71.89 65.02 -38.02 -12.51 78.43c-13.49,-18.19 -25.48,7.19 -11.47,-37.82 -5.64,40.09 -15.56,94.2 -39.24,123.89l-4.66 51.67c17.66,-18.95 9.53,-2.84 18.79,-30.25l23.09 -104.6c-1.38,63.83 -17.04,74 -0.56,126.99l23.67 -15.26c-13.25,-51.82 -17.55,-36.42 19.44,-72.66l-3.77 57.32 25.75 -50.61c-26.21,10.71 -12.28,9.71 -18.94,-29.47 -3.36,-19.74 -2.45,-35.91 -2.42,-57.93 -14.22,23.78 -8.26,14.89 -5.1,55.43l29.59 -30c-1.36,-39.72 0.29,-33.62 13.19,-72.76 10.66,-32.34 11.75,-53.53 18.92,-93.83 3.2,1.62 7.85,0.15 9.65,4.8l17.65 9.92c2.14,1.34 5.79,3.93 7.68,5.15 1.82,1.17 4.76,3.55 7.24,5.17 -24.37,-44.74 -22.79,-77.7 -61.06,-106.69 -48.4,-36.67 -57.33,-33.43 -76.64,-91.69l-32.6 4.05 10.17 -33.74 -39.87 60.52z"/>
    <path class="fil3" d="M2220.78 1809.89l32.14 40.78c-60.39,-27.05 -68.7,-21.98 -123.35,-71.47 45.62,10.41 60.38,24.11 91.21,30.69zm-142.75 -182.16l-10.18 13.73c28.52,17.87 29.31,-26.56 19.09,50.01 -1.94,14.58 -8.29,39.22 -11.29,55.81l-23.68 7.92c-21.39,-0.89 -5.82,5.47 -19.18,-6.94l21.33 -52.01c-11.41,-35.88 29.85,-34.42 -31.29,-25.17l-33.15 85.67 17.99 18.99 39.55 -6.11c27.7,44.57 4.23,13.91 48.87,35.92l129.99 78.06c-39.89,-12.83 -142.71,-14.07 -189.44,-6.86 -45.18,6.97 -36.39,5.7 -56.6,31.08 170.66,-19.65 281.72,24.43 261.51,-53.09 34.27,-6.61 18.43,5.51 41.37,-13.73 -20.7,-32.5 -27.51,-37.76 -62.14,-31.12 -1.22,-2.13 -2.82,-5.19 -3.81,-6.29 -26.17,-29.08 -0.68,-1.64 -44.29,-31.12 -2.39,5.73 -1.69,-1.65 8.23,4.61 -15.47,-35.72 28.95,-34.42 -40.29,-23.8l-14.57 12.03c-33.62,-9.51 -9.6,-11.81 -25.55,-8.25 -10.66,2.38 -6.3,7.08 -4.58,10.04 -8.76,-44.81 -0.38,-88.13 20.65,-128.66 15.8,-34.55 11.18,-18.23 -0.75,-64.19 -18.2,61.75 -16.5,10.24 -37.79,53.47z"/>
    <path class="fil3" d="M5287.75 1634.27c0,25.42 5.4,17.29 -23.4,16.54 53.96,20.87 83.89,9.42 141.34,13.51 25.35,10.71 10.88,7.56 39.01,28.1l-12.92 -1.07c30.62,66.72 2.4,-19.71 40.26,46.26 -54.89,6.76 -98.9,-10.74 -152.58,-23.49l17.26 31.35c-45.09,-8.54 -30.46,0.58 -59.15,-24.94l-26.9 -11.74c35.23,64.36 209.59,56.15 278.44,12.61 -45.16,-35.22 -24.18,-56.6 -90.19,-75.77 23.88,-135.35 20.1,-76.16 37.03,-152.26l-8.21 -51.64c-21.17,22.57 -73.33,174.72 -97.21,197.34l-18.21 10.77c-2.15,-3.28 -8.64,3.99 -13.02,5.85 2.63,-23.79 23.42,-134.62 51.33,-102.84 -5.17,-5 -76.14,7.65 2.85,-82.97 -0.86,3.31 23.1,13.43 -6.21,-0.7l17.81 -75.35c1.59,26.8 -78.67,171.7 -116.08,211.48l17.56 9.23c31.89,16.1 23.1,34.7 26.67,28.22 1.4,-2.54 4.11,8.56 5.96,12.93 -39.64,-6.08 -26.08,2.72 -51.44,-21.42z"/>
    <path class="fil3" d="M2996.76 1604.27l-10.65 29.57 17.8 32.13c-50.61,9.61 -28.56,10.44 -45.46,-4.49l-5.97 15.45 -20.34 55.42 91.41 -88.26c4.88,9.58 4.56,3.07 12.12,9.27l26.77 28.78c-28.39,33.97 -34.74,24.6 -52.32,69.32 -5.94,15.13 -43.72,92.9 -26.78,48.31 -41.17,0 -32.33,-10.09 -25.98,30.75 27.68,15.8 74.53,27.47 92.45,51.37 -77.24,0.47 -203.77,-8.09 -264.77,-15.4 8.66,-31.93 5.1,-35.46 16.04,-55.08l89.67 6.28 0.25 -38.01 -44.69 19.99c0.53,-3.39 5.47,-31.08 5.65,-33.89 1.5,-23.52 5.94,1.91 -4.36,-13.78 -41.52,25.36 -7.99,9.18 -17.32,28 -21.54,43.44 -65.78,-6.99 -70.44,89.1 69.22,59.31 165.48,12.42 254.4,25.07 39.67,5.65 15.64,10.45 61.11,17.32 12.03,-74.07 -29.23,-44.74 -66.62,-95.21 14.08,-55.72 18.17,-13.52 54.29,-86.02l-6.88 -39.41 35.54 -14.25c-23.84,-13 32.4,-10.44 -36.09,-12.45l10.1 -34.89c-2.03,-16.57 14.82,0.78 -13.4,-32.41 -16.34,-19.22 -20.52,-16.4 -32.37,-23.33 5.88,39.6 15.28,30.75 -23.16,30.75z"/>
    <path class="fil3" d="M5728.62 526.7c-30.72,23.02 -45.99,61.26 -58.96,96.78 -34.74,26.34 -31.89,8.36 -77.26,47.2l-6.2 1.24c43.79,-22.46 44.18,-26.83 92.48,-34.26 -1.7,40.1 -0.96,65.33 -15.46,98.96 -15.86,-21.69 -14.94,5.88 -10.14,-58.55 -37.4,17.54 -51.41,29.09 -102.76,32.45 0.12,3.42 -21.76,8.87 18.84,18.54 -28.71,9.13 -0.44,1.52 -23.91,23.86l-7.35 2.84 0.5 11.67c39.58,12.67 -48.02,-5.12 18.93,5.64 1.69,0.26 7.02,1.72 8.38,-0.93 1.34,-2.6 5.11,-2.12 5.47,-3.46l-5.56 22c26.68,-7.76 16.46,0.29 35.57,-18.38l9.32 -29.33 47.7 16.39c34.81,6.32 15.82,-12.83 26.98,11.37l1.5 25.85 11.56 35.01 -9.28 10.18 34.17 -17.39c-7.81,-49.36 -20.28,-22.19 -6.02,-34.73l-7.84 -41.56c-26.7,1.83 -20.74,-0.64 -28.19,-5.52 51.64,-88.67 50.04,-59.06 77.66,-156.55 12.47,-43.98 8.05,-15.93 25.24,-55.43l-26.34 -5 15.47 -21.13 -44.5 22.24z"/>
    <path class="fil3" d="M4653.57 1373.29c7.91,18.7 41,138.07 40.63,163.24 -29.94,-25.07 -45.23,-77.04 -49.35,-119.84 -5.13,-53.34 -12.61,-14.53 8.72,-43.4zm39.66 -220.81c20.97,17.81 10.34,-7.95 10.08,15.49 -0.4,35.09 -1.89,6.18 -14.52,11.05 -22.53,24.82 -7.73,8.6 -10.02,36.7 -0.14,1.76 0.92,4.64 0.73,6.35l-9.6 -31.95c-21.66,23.78 -36.32,63.04 -52.67,94.43 -8.86,17.01 -16.23,31.31 -25.72,47.38 -36.77,62.28 -4.7,43.84 -1.03,48.3l66.84 -130.15c11,24.04 10.14,10.09 7.6,48.19 -28.1,19.58 -4.5,6.58 -16.86,-3.64 -17.17,19.61 -27.4,33.85 -26.78,60.92l1.36 62.95c1.24,52.14 30.77,78.58 35.87,125 -1.82,1.61 -3.56,4.8 -4.32,5.9l-15.41 24.02 50.32 10.28c-1.02,-79.82 31.38,-31.56 7.44,-117.32 -9.37,-33.55 -28.23,-82.66 -19.68,-113.59 45.97,-166.25 29.44,-33.09 49.87,-233.16l-21.83 1.07 -11.67 31.78z"/>
    <path class="fil3" d="M7976.71 1547.89l-11.25 -13.52c-21.31,18.58 -22.77,28.89 -41.06,53.22 -26.67,35.47 -11.68,5.13 -29.9,53.52 -24.71,65.59 -27.15,70.23 -22.93,137.99 21.98,7.28 45.56,13.63 65,20.2l53.46 1.76c8.07,-29.02 19.74,-23.95 50.74,-27.63l-4.26 -12.85c-1.2,-107.62 21.62,-49.92 33.86,-116.8 -33.39,6.25 3.77,-35.75 -41.11,20.18 3.68,-123.54 40.61,34.43 17.78,-169.32l7.56 58.21c-47.55,-48.52 -6.19,-31.21 -33.23,-31.69l-17.71 20.51c13.61,8.59 20.6,-6.46 17.44,17.9 -5.92,45.66 4.7,-31.47 -17.94,23.31 48.52,75.47 1.12,103.09 -7.65,122.04 -9.03,19.52 6.79,32.23 -13.63,83.84 -7.41,-1.93 -23.7,-4.67 -32.25,-7.73l-35.8 -18.43c31.02,-40.14 22.51,-46.53 18.48,-95.94 -13.27,15.31 -10.41,9.58 -18.01,25.97 -0.48,1.06 -6.28,23.08 -6.56,25.02 -2.66,18.57 1.05,21.75 -0.69,43.53 -22.96,-17.1 -16.75,2.26 -22.2,-34.37 -1.91,-12.8 3.38,-22.31 10.05,-35.09 15.6,-29.9 10.97,4.34 28.5,-53.4 58.29,-49.39 -42.42,23.52 10.93,-4.39l42.38 -86.04z"/>
    <path class="fil3" d="M4806 338.79c-11.29,20.59 24.22,23.74 -12,16.31 -1.5,-3.03 -2.62,-7.26 -3.8,-9.41l-12.98 -20.76c-1.13,-1.14 -3.96,-2.5 -5.09,-3.42 -18.34,-14.78 -14.35,15.47 -19.73,-18.89 -20.13,36.98 -15.24,0.06 -12.02,38.4 -18.93,19.5 23.55,22.55 -21.92,16.25 29.12,-11.26 36.98,-1.96 46.7,3.54l-14.69 23.23 -3.06 42.05c11.74,-21.78 6.07,-0.29 -20.86,-14.68l-3.67 10.29 12.39 29.79 38.11 -12.6 12.46 15.29c10.83,-7.11 19.42,-12.47 29.88,-20.67 38.62,-30.29 16.98,3.48 23.2,-33.62l35.16 -29.33c22.08,-14.05 12.97,-5.17 21.44,-37.02l-2.59 5.78c11.7,-34.09 13.31,-35.57 26.38,-59.81l-32.01 -52.16 -43.37 17.37c-5.08,50.6 2.86,71.76 -37.93,94.07z"/>
    <path class="fil3" d="M4556.62 386.58l23.93 42.79c-22.93,41.47 -31.55,11.52 -35.94,66.96 40.81,-53.6 19.85,-38.65 84.79,-55.64l32.68 25.78 0.67 38.81c-44.14,21.4 -17.13,28.38 -68.32,27.68 -15.34,35.36 -9.12,11.75 3.42,20.55 43.88,-4.03 5.21,-3.5 24.47,10.52 23.66,17.2 12.13,10.18 51.66,8.04 -18.77,36.59 -23.34,28.77 -22.33,74.1 20.66,-44.71 -0.88,-25.28 31.25,-37.59 0.5,-3.39 2,-20.13 3.37,-22.87l18.93 -25.93c10.01,111.33 6.48,82.04 -16.52,92.23l1.49 43.14 21.58 -19.92 -3.65 -113.68c48.13,4.13 34.45,13.51 73.21,4.02 4.87,-68.27 10.36,-25.35 -28.36,-41.03 -8.5,19.32 -56.95,18.57 -83.56,20.33l27.58 -16.63c1.13,-3.39 4.94,-2.4 10.14,-4.11l-16.38 -60.86c7.96,-7.61 -21.6,-18.95 14.45,-3.62l16.76 -35.27c-27.87,11.49 -22.41,16.69 -18.38,-12.97l-74.43 17.44c-31.64,-27.6 -9.1,-23.43 -55.99,-32.95l0.92 -26.53c-13.76,-28.47 5.65,-11.88 -26.91,-12.57 2.45,26.05 -10.16,10.66 9.47,29.78z"/>
    <path class="fil3" d="M3011.51 1510.22l18.32 8.11 9.78 -11.95c18.31,76.85 19.77,23.9 38.93,71.15 30.37,-2.57 33,-8.65 60.26,8.32 4.88,32.59 15.79,4.8 -7.17,42.34 -10.38,16.98 -12.46,11.84 -19.64,18.26l15.8 9.85c29.52,-30.39 27.4,-68.98 -1.86,-94.55l32.3 -16.07c-2.93,-39.59 -7.21,-64.1 -43.93,-83.03 -2.78,2 18.85,30.72 -27.36,8.45 -21.29,-10.27 -14.76,-16.68 -19.38,-29.43 -4.79,-13.24 -5.93,-45.72 -6.62,-63.27 -17.69,14.31 -9,12.48 -28.99,0.99l-1.27 72.43c0.75,10.49 21.83,1.28 -0.27,2.89 -11.01,61.58 -8.47,-9.07 -18.9,55.51z"/>
    <path class="fil3" d="M254.47 1774.39l12.98 -3.42c21.09,4.4 8.37,-10.4 21.72,19.41l76.06 15.76 43.42 -5.63 0 -9.03c-55.49,2.33 -22.85,4.39 -27.8,-12.59 -34.47,-23.64 29.48,-4.51 -13.62,-0.06 -48.8,5.04 33.21,2.98 -11.04,2.65 -0.08,0 -10,18.41 -29.41,-14.69 -13.69,-23.34 -6.9,-81.37 -7.82,-111 34.56,32.16 33.91,54.53 28.49,104.23 -17.21,-20.17 0.22,-63.76 -9.48,-109.01 -23.98,-111.93 33.93,-46.46 13.52,-109.05l-13.07 -19.18c-33.36,98.85 -106.01,127.91 -83.95,251.61z"/>
    <path class="fil3" d="M4660.19 913.75c8.24,65.59 28.69,27.62 -10.16,52.9l-0.62 24.21 -25.66 110.4c1.04,3.26 4.21,12.88 6.21,17.68l39.58 -59.63c1.52,3.08 20.84,-1.75 -6.79,62.38 -10.49,24.33 -16.23,37.61 -18.72,65.58l34.35 -50.85 11.91 -35.76 23.35 -5.04c-2.79,-40.97 -7.83,-77.86 -13.11,-118.29 -2.63,-20.18 -2.13,-37.6 -4.01,-54.4 -5.2,-46.31 3.96,-12.14 -11.17,-35.14 -22.39,-26.13 26.46,-19.97 -20.35,-19.97 4.94,40.23 10.71,20.43 -4.81,45.93z"/>
    <path class="fil3" d="M3532.88 1285.46l27.96 -14.69 -7.1 -24.93c-25.82,-4.25 -18.51,-11.86 -19.42,-38.04 9.52,-47.12 47.7,-209.33 83.29,-241.55l0.2 46.53 22.88 -40.76 8.45 -9.56c6.38,-63.56 9.67,-22.39 -27.87,-33.49 -18.94,36.72 -38.48,41.16 -55,66.62 -13.39,20.62 -25.27,68.16 -33.16,92.49 -53.88,166.03 -14.87,127.88 -0.23,197.38z"/>
    <path class="fil3" d="M1405.78 1838.83l1.75 13.53 19.96 22.45c-34.79,-2.96 -85.86,-4.78 -105.07,-3.58 -49.95,3.1 -57.29,7.92 -111.01,0.66 -26.42,1.03 -7.17,0.67 -28.05,10 -21.94,9.8 -3.12,8.88 -33.94,11 24.77,12.09 282.37,17.17 306.22,16.3 -7.58,-68.83 -11.37,-25.99 1.22,-75.25l-36.87 -23.62 12.5 19.56c-12.96,14.34 24.99,17.24 -26.71,8.95z"/>
    <path class="fil3" d="M6986.97 1369.18c0.8,-32.7 4.78,-39.3 8.01,-65.06l1.7 -29.28c0.68,-4.17 0.35,-6.4 1.25,-10.46 0.91,-4.11 1.73,-6.59 2.8,-10.3l9.5 -19.94c-14.98,-52.91 4.28,-135.32 27.83,-185 25.75,-54.3 20.3,-29.49 55.17,-57.25 29.51,-23.48 22.88,-41.65 58.35,-54.35l-2.62 -1.74 -30.03 -0.02 4.58 -33.93 -31.77 4.69 17.11 21c-44.54,32.62 -94.22,120.72 -113.93,182.59 -26.3,82.58 -23.35,51.1 -7.72,134.26 10.37,55.21 -22.53,105.6 -0.23,124.79z"/>
    <path class="fil3" d="M1046.31 1439.03l6.36 32.44c9.78,32.46 -2.18,14.94 18.75,38.61 14.78,16.7 23.76,19.73 34.65,25.74 55.1,-30.84 -58.04,29.95 35.75,-9.7 2.41,-1.02 5.95,-3.55 7.96,-4.5 2.14,-1.01 5.83,-2.95 8.31,-5.03 -4.94,-1.66 -29.45,-13 -29.85,-13.11l-46.94 -4.68 28.23 -71.97c-6.12,27.35 14.83,31.45 17.12,32.44l9.36 -66.71c15.39,8.87 22.6,17.69 20.55,33.21l27.84 -32.67 0 -17.76 -86.65 2.91c3.38,4.96 4.39,13.26 12.55,17.22l-36.78 -6.44c-21.18,60.55 -6.16,1.06 -27.21,50z"/>
    <path class="fil3" d="M8068.37 1573.16l27.86 34.36c23.68,-17.2 62.79,-75.36 55.65,-108.37 -6,-27.77 -15.96,-35.73 -27.24,-55.26 -20.74,-35.93 -9.04,-42.26 -40.94,-49.24 2.63,42.18 -0.38,24.18 11.91,59.55 23,66.23 3.07,39.3 -9.59,57.51 -27.23,-36.1 -15.07,6.84 -18.53,-50.88 -0.35,-5.92 3.85,-24.9 3.18,-47.25 -6.37,23.81 4.67,107.44 -2.3,159.58z"/>
    <path class="fil3" d="M373.11 867.99c-56.15,22.33 -90.68,90.38 -124.86,151.54 -33.25,59.5 -63.08,112.29 -89.65,173.48 33.16,18.89 28.74,12.66 34.78,51.84 29.05,-0.91 12.47,17.12 21.66,-6.62l2.54 -44.9c-3.2,-0.81 -9.22,-0.43 -11.45,-0.5 -27.26,-0.85 20.4,14.33 -6.75,-0.32 -7.1,-58.8 5.78,-20.4 11.23,-66.26 0.44,-40.04 -6.16,-35.03 27.28,-55.83 7.77,-16.22 68.95,-111.8 79.57,-125.94 7.18,-9.57 40.66,-42.52 50.73,-52.06 34.57,-32.74 30.77,-18.35 76.91,-24.31l-21.17 -12.98 -50.82 12.86z"/>
    <path class="fil3" d="M8162.52 1144.57c21.37,9.98 -20.64,18.5 35.47,7.3l-2.68 20.57c54.89,-7.77 76.12,16.89 69.48,71.14 -15.16,8.88 -2.88,0.06 -17.23,8.39 -21.68,12.58 -7.42,3.04 -23.78,19.93l66.36 -16.58c5.3,-39.42 2.66,-21.2 -9.97,-51.78l13.4 -37.87c-18.32,-40.21 -23.33,-52.84 -64.43,-68.72l-23.83 46.71 -20.84 -61.07 -21.19 -14.84c6.3,31.52 21.69,57.57 -0.76,76.82z"/>
    <path class="fil3" d="M6231.91 1717.5l-7.3 4.69c7.11,35.59 10.97,31.11 16.81,69.96 5.83,38.78 -5.38,24.2 21.28,53.84 0,0 158.15,-29.04 188.14,-65.49 -48.13,-7.26 -33.16,9.37 -87.28,25.04 -28.92,8.38 -64.88,22.62 -89.17,18.26l-25.6 -56.78c38.77,-10.63 51.94,-23.4 79.74,-36.95l8.66 -22.61c12.92,-38.19 13.71,-13.87 -9.53,-26.16l-42.42 41.38 18.66 -69.53 -48.14 87.49c-31.87,-4.66 -12.71,6.01 -23.85,-23.14z"/>
    <path class="fil3" d="M2759.31 1483.76c-24.65,12.43 -7.29,-35.49 -30.68,48.52 64.93,-27.01 35.26,-18.94 110.07,-24.88 -32.78,36.88 -34.67,14.8 -54.77,60.62 2.11,2.7 8.53,9.84 9.84,10.36l37.28 10.36c31.08,-63.28 36.79,-63.49 92.94,-48.81 22.22,-50.84 7.87,-2.15 -1.56,-19.65l-0.82 -89.9c-38.3,32.67 -3.26,9.82 -30.31,64.02 -11.81,23.66 -111.37,11.86 -131.99,-10.64z"/>
    <path class="fil3" d="M452.48 1640.53c33.79,-22.59 21.71,-17.31 48.58,-52.42l-14.79 -32.82c9.93,-37.21 12.15,-18.78 11.1,-66.44 28.53,16.92 21.28,5.75 34.6,33.25 5.67,-35.22 -18.85,-59.01 -35.28,-94.31 -9.4,-20.19 -15.78,-29.76 -22.59,-49.44 -13.89,-40.11 2.93,-41.07 -29.99,-46.79l-29.3 -22.96c10.92,64.54 18.27,10.31 50.07,104.76 18.01,53.48 16.98,102.3 10.76,156.57l-23.16 70.6z"/>
    <path class="fil3" d="M4977.11 312.47c-8.41,51.82 -1.71,80.34 -43.5,113.43l-3.89 -29.78c-28.49,0 -21.85,-7 -19.26,21.62 2.03,31.75 -4.25,39.78 -34.66,45.48l-14.14 -26.86 -2.23 22.9c32.48,46.32 18.34,1.27 57.38,33.73 36.82,-67.6 70.47,-109.93 86.64,-189.72 4.71,-33.03 14.79,-46.42 -3.22,-72.27l-21 -0.24 0.69 74.02c-0.16,-1.27 -1.78,5.16 -2.81,7.69z"/>
    <path class="fil3" d="M3610.93 1780.46l-12.39 23.18 -6.71 -7.06 -36.65 -17.02c23.99,51.1 60.93,46.21 117.03,48.2 68.02,2.4 82.78,22.66 136.02,-14.79l-20.77 -44.92 -34.12 -3.78 -19.08 1.44c30.71,48.51 -2.56,-1.83 25.89,24.63 17.44,16.23 8.57,10.93 14.84,28.19 -54.37,-2.3 -117.15,-17.51 -164.06,-38.07z"/>
    <path class="fil3" d="M6193.06 760.03c3.15,28.78 10.52,24.62 30.44,33.52l46.3 -25.71c-40.47,-5.15 -42.65,-11.8 -46.83,-57.98 37.15,-10.09 4.89,6.73 20.28,-31.06l11.18 -44.16 -0.16 -34.72 -33.42 36.31c-11.2,11.03 -16.35,13.3 -29.22,21.95l1.43 101.85z"/>
    <path class="fil3" d="M2187.16 1273.88c25.05,-26.57 9.13,-17.27 45.24,-20.79 20.2,29.09 19.06,31.66 -4.48,56.12 -0.2,-0.2 -40.26,-35.03 -40.76,-35.33zm69.11 76.38c14.11,-16.62 12.48,23.77 14.2,-29.97 -1.98,-61.81 -12.25,-42.25 -17.55,-81.9l-71.64 -18.67c-9.51,47.27 26.69,22.52 -27.51,63.54 53.49,83.5 57.08,15.25 102.5,67z"/>
    <path class="fil3" d="M7349.97 853.63l-6.7 24.25c-59.21,15.86 -58.86,-10.56 -113.18,-27.31 24.93,27.08 50.49,39.88 78.91,44.2 1.88,4.22 4.07,6.02 5.9,12.55 1.62,5.77 3.66,8.91 5.97,10.72 24.35,19.15 -17.01,11.41 21.3,9.28 10.02,-0.56 20.86,-13.38 35.98,-18.27 30.4,-57.12 36.88,-70.2 11.14,-130.56l-24.18 23.93 21.17 62.72c-7.54,-16.69 -15.29,-19.58 -22.04,-26.68l-14.27 15.17z"/>
    <path class="fil3" d="M5438.72 1040.32c-26.83,25.92 -24.31,26.69 -67.02,32.35 21.11,25.61 -20.66,26.28 29.32,22.71 16.37,-13.68 -26.88,-45.91 32.14,-7.59 1.41,26.17 4.98,6.01 -17.08,20.3l14.21 74.8 -22.67 28.46c20.64,21.84 3.08,-21.21 21.99,37.79l-0.73 -20.72c3.68,1.53 14.31,23.41 14.31,23.41 12.73,13.55 6.33,7.84 29.74,23.35l0 -36.48c-18.67,-16.1 -11.91,-25 -47.59,-28.88l18.08 -48.81 22.76 -129.6c-14.62,15.37 0.1,3.89 -27.46,8.91z"/>
    <path class="fil3" d="M1295.09 866.9c18.01,5.7 17.55,-13.37 10.76,20.92 44.14,-35.04 26.28,-38.1 93.25,-55.08 29.79,13.89 41.13,16.46 57.44,43.48 -2.65,10.67 -4.44,22.68 -7.78,33.62l24.19 72.99c6.18,-33.72 -3.51,-76.68 11.43,-85.8 -32.09,-81.01 -155.79,-124.37 -189.29,-30.13z"/>
    <path class="fil3" d="M7178.19 1226.87c5.87,-36 -1.15,-30.93 32.46,-41.06 19.76,43.32 0.23,38.61 -32.46,41.06zm-51.26 -29.42l11.33 58.91 8.66 -35.13c26.19,20.8 38.45,36.24 75.31,40.53l24.88 -85.54c-36.2,-8.7 -22.96,-7.72 -56.83,-6.9 -15.09,0.36 -15.84,12.4 -22.52,3.02 -34.13,26.16 2.34,11.08 -40.83,25.11z"/>
    <path class="fil3" d="M6408.92 1700.83l61.8 -3.65c22.4,4.94 13.03,5.28 21.6,11.57 -27.42,17.26 -45.34,5.51 -83.4,-7.92zm-43.82 -8.78c-1.39,3.06 -7.13,5.51 -7.71,6.48 -0.35,0.57 0.5,7.41 0.22,5.95 -0.48,-2.4 5.99,2.97 8.14,5.42 41.84,-10.83 14.57,-14.5 33.06,12.65l51.17 6.02c37.73,9.89 6.79,0.16 24.81,9l-23.95 42.93c39.59,-8.42 27.94,-4.6 46.86,-37.06 13.92,-23.9 16.5,-12.88 19.21,-45.53 -42.56,-36.74 -102.44,-4.62 -151.81,-5.86z"/>
    <path class="fil3" d="M4503.63 1046.88l4.89 23.28c18.76,14.41 6.45,3.91 27.42,17.03 16.3,-143.47 27.95,-104.58 -5.65,-89.85l7.42 -43.54c-0.72,0.4 -16.93,10.67 -19.57,12.85 5.59,-57.33 13.01,-30.54 -31.12,-51.31 12.05,64.6 31.71,55.95 26.21,103.8l-9.6 27.74z"/>
    <path class="fil3" d="M1413.11 1398.63l-1.18 30.81c94.8,-10.84 65.69,5.25 83.24,27.07 16.61,20.64 7.82,8.81 21.24,11.76 6.44,-17.24 7.45,-1.97 4.76,-25.06l-24.09 -49.41c-0.58,-3.55 -2.69,-4.3 -4.21,-6.33l-25.75 18.11 -16.63 -26.51c-3.07,2 -6.89,4.68 -9.21,6.03l-28.17 13.53z"/>
    <path class="fil3" d="M401.26 1069.14c6.48,-9.05 -11.29,-59.36 35.98,-6.52 5.96,6.66 8.07,25.79 11.38,37.28l67.67 -7.76 15.61 19.76 -5.99 -36.74 -72.11 6.81 -1.1 -56.39 0 -18.96 -44.58 -0.36 -16.42 -38.34c-1.81,57.87 -11.81,37.37 27.88,60.19 -28.35,33.79 -18.21,32.98 -18.32,41.03z"/>
    <path class="fil3" d="M2232.38 1591.32l-15.83 -6.88c-6.27,-28.12 -11.74,-10.91 14.03,-25.7 -35.6,-35.77 -23.52,-4.58 -50.51,-57.21l-9.87 10.18 -23.7 0 -8.8 40.76c40.24,-4.54 32.02,2.93 68.53,19.36l-2.42 78.36c17.85,-47.16 23.79,-24.39 21.8,-25.86l6.77 -33.01z"/>
    <path class="fil3" d="M1818.55 1294.64l17.14 -2.89c47.24,-57.63 4.88,-8.49 85.63,-48.11 17.46,-8.57 36.13,-16.5 52.62,-25.53 -28.06,0.27 -19.25,6.29 -19.25,-24.94 -48.05,43.48 -20.51,2 -77.6,34.71 -39.03,22.35 -42.29,25.69 -58.54,66.76z"/>
    <path class="fil3" d="M426.56 719.76l-4.18 71.9c46.49,-25.7 12.17,36.88 49.22,-82.01l12.21 -11.55 14.43 -30.87c-40.63,13.6 -52.09,15.57 -71.68,52.53z"/>
    <path class="fil3" d="M7142.52 1116.6c22.75,-9.01 14,-10.57 18.71,16.81l16.26 -46.53c-12.27,-36.65 23.93,3.51 -17.29,-37.9 0,-27.81 -6.77,-20.64 21.64,-20.14 2.56,-35.13 14.08,-45.48 29.79,-48.51l0 -10.13 -17.15 -16.99c-49.34,47.4 -42.12,92.36 -51.96,163.39z"/>
    <path class="fil3" d="M7891.56 1005.47c21.18,-13 23.28,-38.44 89.35,-102.68 6.64,-6.46 8.97,-9.13 14.99,-15.94 1.88,-2.12 7.26,-8.36 8.74,-10.19l7.48 -10.7 -28.65 -2.11c-42.65,52.32 -91.89,73.62 -91.91,141.62z"/>
    <path class="fil3" d="M5487.73 590.59l51.07 55.14 -0.98 -1.09c5.4,6.57 19.04,9.09 27.88,13.49 -1.82,-47.22 -19.7,-83.5 -53.66,-101.61 -6.85,11.41 -14.55,-10.8 1.61,23.57 -53.14,-30.21 -4.49,-7.59 -25.92,10.5z"/>
    <polygon class="fil3" points="237,1285.56 271.32,1285.56 276.21,1279.14 368.52,1277.45 369.13,1245.98 247.89,1250.31 253.01,1273.53 "/>
    <path class="fil3" d="M1995.99 1213.62l71.5 -2.58c-4.74,51.45 -2.63,58.56 -54.09,33.34l15.32 30.08 19.35 5.41c-22.97,-44.97 -7.28,-6.8 9.44,-24.04 14.18,18.08 8.63,-10.91 6.61,22.14l21.35 0.09 11.38 -78.45c-48.42,-1.7 -63.49,-14.09 -100.86,14.01z"/>
    <path class="fil3" d="M8046.44 730.12c4.24,9.84 -8.57,-8.78 0.64,13.94 16.57,40.86 -7.94,6.87 23.25,33.95l14.11 -26.59c-0.11,-58.82 9.74,-21.47 32.4,-80.78l-58.26 20.71 -12.14 38.77z"/>
    <path class="fil3" d="M4553.23 1511.84c27.21,-1.52 6.24,4.96 12.94,-20.24 -20.7,-41.41 -37.09,-63.59 -74.38,-90.65 8.42,48.55 18.97,83.31 61.44,110.89z"/>
    <path class="fil3" d="M7889.46 1291.03l9.46 -14.39 97.3 5.14 -7.36 -37.35c-32.91,9.14 -79.79,15.3 -108.64,4.74 0,62.29 -0.56,20.08 -10.29,36.29l19.53 5.57z"/>
    <path class="fil3" d="M6080 1244.94l10.29 64.75c39,1.92 22.94,8.01 31.06,-3.66 -21.83,-30.61 -28.76,22.9 -0.27,-85.61 35.58,6.26 11.39,21.27 45.15,-4.65 -53.55,-2.16 -13.74,2.64 -29.13,-14.55l1 -6.82c-49.69,18.17 -20.24,12.76 -58.1,50.54z"/>
    <path class="fil3" d="M3131.17 1007.79c21.34,30.43 17.27,38.41 8.08,76.05l48.03 -14.24 -8.14 -5.73 -27.19 -94.68c-30.22,13.54 -28.26,-25 -20.78,38.6z"/>
    <path class="fil3" d="M543.91 1138.09l22.9 26.71c47.24,-18.38 24.66,32.8 36.49,-23.27 -25.44,-20.49 11.65,2.92 -11.61,-5 -7.44,-2.53 -2.75,2.09 -15.51,-5.03 -4.08,-40.69 1.19,-25.22 -11.74,-52.59l-28.04 -40.49c3.94,42.98 25.35,68.23 7.51,99.67z"/>
    <path class="fil3" d="M4547.15 356.8c-0.12,-30.51 -7.11,-32.23 -15.74,-69.86 -2.98,-21.64 3.05,-15.41 0.88,-36.19 -4.13,-39.48 9.46,-11.24 -12.95,-33.63 -7.32,31.64 -14.23,45.25 -9.49,78.19 1.27,8.79 7.84,31.75 11.48,38.43 26.71,49.14 8.3,14.6 25.82,23.06z"/>
    <path class="fil3" d="M1250.27 985.64c22.38,-22.94 19.98,25.02 19.53,-40.19l7.29 19.94c67.43,0.1 -3.9,8.62 21.23,-20.85l-1.25 -12.62 -18.92 -15.8 10.77 -31.5c-10.41,7 -22.43,8.89 -32.64,33.11 -13.36,31.67 -7.99,34.18 -6.01,67.91z"/>
    <path class="fil3" d="M4505.19 597.47l-22.68 77.93c0.63,60.82 -4.15,14.33 17.96,28.1 1.38,-42.96 1.95,-59.55 25.23,-95.44l9.12 -60.74c18.98,-33.53 9.9,-13.46 22.52,-53.63 -2.92,3.21 -6.27,6.55 -8.45,9.9 -35.35,54.53 -1.36,43.27 -43.7,93.88z"/>
    <path class="fil3" d="M640.38 1194.05l5.38 52.39 -58.02 16.79c43.4,6.09 40.2,10.94 81.1,-8.23l-7.75 -36.11c-6.46,-26.65 -6.59,-18.48 15.96,-54.91l-30.12 6.85 -6.55 23.22z"/>
    <path class="fil3" d="M3556.58 1231.26l21.01 12.45c1.02,0.52 4.15,1.91 6.22,2.87 -2.27,18.29 -9.21,13.82 -3.74,26.05 23.07,-7.27 26.58,-16.08 48.72,-52.14 -30.23,1.6 -32.31,0.48 -59.07,-19.66l-23.3 13.01c16.48,8.64 17.13,-10.76 10.16,17.42z"/>
    <path class="fil3" d="M336.45 1439.83c1.13,-22.28 -24.76,-99.93 -50.85,-119.26 2.87,57.19 10.57,85.25 50.85,119.26z"/>
    <path class="fil3" d="M6055.72 1192.71c5.56,46.05 -2.17,27.86 21.78,49.76l8.58 -41.79 50.45 -28c-17.29,-8.63 -15.59,-0.58 -28.66,-15.43l-19.85 26.28 1.54 -39.17c-18.26,51.25 2.59,40.22 -33.84,48.35z"/>
    <path class="fil3" d="M2217.03 1393.22c-2.68,2.97 -5.1,3.69 -7.14,9.64 -1.95,5.71 -5.44,6.06 -7.89,8.35 -2.39,2.22 -5.46,5.13 -8.65,7.05 29.38,32.24 -3.86,5.3 56.97,8.14 5.69,-14.81 3.23,-8.65 8.03,-23.44 0.74,-2.3 2.38,-4.69 2.95,-9.95 0.61,-5.6 2,-7.08 3.07,-10.6 -3.24,-1.11 -10.39,-2.33 -12.56,-2.06l-34.78 12.87z"/>
    <path class="fil3" d="M7952.23 1429.54c1.21,-3.21 4.68,-4.94 0.26,-18.71 -8.58,-26.76 -4.75,-2.02 -17.05,-34.24 -22.01,-57.65 16.65,-21.83 -36.88,-59.84 17.63,37.1 6.28,38.6 18.25,69.48 12.41,32.02 21.16,37.91 35.42,43.31z"/>
    <path class="fil3" d="M664.84 1150.83c-15.28,-32.39 -17.52,-29.77 -47.59,-48.57l-2.29 72.2 49.88 -23.63z"/>
    <path class="fil3" d="M519.47 665c44.24,-18.55 15.89,-6.58 32.43,2.58 2.25,-0.09 51.62,-5.78 66.27,-5.4 -31.38,13.36 -19.7,-7.2 -31.73,-30.88 57.02,4.5 42.31,9.54 84.58,29.07 -50.64,-43.81 -112.43,-45.82 -151.55,4.63z"/>
    <path class="fil3" d="M2717.46 1551.5l15.56 43.11 12.65 2.84 8.7 -13.02c37.54,-52.86 18.05,-19.61 30.21,-58.31 -38.15,29.39 -15.18,19.78 -67.12,25.38z"/>
    <path class="fil3" d="M1492.87 1387.47c-4.06,-17.44 -4.85,-34.77 -18.82,-45.1 -38.52,-28.45 -40.28,-13.39 -54.32,4.85 22.27,10.34 29.34,11.58 43.58,19.52 13.49,7.53 15.25,10.91 29.56,20.73z"/>
    <path class="fil3" d="M2890.47 1702.63l-5.18 13.14c3.36,0.66 17.05,11.01 20.47,10.94l26.3 -35.08 -18.18 -31.67 18.12 -21.72c-28.18,16.09 -26.05,29.47 -41.53,64.39z"/>
    <path class="fil3" d="M2404.12 1191.52c21.81,-17.52 17.91,-12.1 24.4,-44.97l-35.88 -0.32c-9.4,47.65 1.61,20.52 -21.93,45.7 1.34,0.22 3.63,-1.96 4,-0.7 6.16,20.92 2.1,-3.83 13.81,-4.13 58.49,-1.51 -24.87,-25.67 15.6,4.42z"/>
    <path class="fil3" d="M2241.2 1633.1l11.31 -4.28c26.26,-2.42 -0.03,-6.25 12.59,16.49 13.06,-14.34 15.67,8.89 18.98,-32.52 2.94,-36.71 0.72,-14.82 -16.18,-22.09l-12.56 15.64 -12.98 -12.88 -1.16 39.64z"/>
    <path class="fil3" d="M2432.32 1116.83c-1.1,-44.95 1.42,-58.22 -33.11,-82.11 5.34,52.09 4.78,6.32 11.04,46.84 2.93,18.99 -0.19,34.57 -1.52,55.27 12.3,-34.75 5.22,-7.44 23.59,-20z"/>
    <path class="fil3" d="M8023.6 1053.34c45.94,-3.31 5.66,-12.27 43.68,10.07l-9.98 -59.21 -45.61 -0.11 29.86 25.81 -17.95 23.44z"/>
    <path class="fil3" d="M6169.2 930.28c23.06,-8.38 24.4,20.42 19.05,-10.18l7.52 36.27 23.9 -10.24 -2.89 -48.38 -13.43 17.48c-36.31,0 -33.86,11.29 -25.01,-19.07l-14.39 7.14 5.25 26.98z"/>
    <path class="fil3" d="M2216.74 1691.37c-6.84,65.41 -10.47,21.37 19.52,30.11l15.08 -46.55 -21.81 3.8c-21.65,0 -20.04,-6.2 -12.79,12.64z"/>
    <path class="fil3" d="M2179.19 1408.22c38.29,-33.31 9.15,-13.43 37.84,-15l39.24 -42.96c-41.81,8.19 -54.49,21.65 -77.08,57.96z"/>
    <path class="fil3" d="M7190.95 1155.96l30.97 0.46c2.39,-3.21 5.67,-12.05 6.99,-9.75 1.13,1.98 4.7,-6.52 6.15,-8.35 1.43,-1.81 6.86,-8.55 9.2,-11.05l-60.29 8.74 6.98 19.95z"/>
    <path class="fil3" d="M475.08 921.3c-12.36,-19.35 4.62,-4.04 -27.13,-27.55l28.6 0.01 -2 -11.09c-33.88,6.51 -24.27,8.94 -49.91,13.05 26.45,27.88 -27.45,16.2 50.44,25.58z"/>
    <path class="fil3" d="M6998.87 1379.47l18.52 7.71c2.1,-0.36 7.55,-1.83 9.65,-2.3 2.39,-0.52 6.31,-4.15 9.79,-5.51 -16.29,-54.03 -45.52,-29.03 -23.38,-63.05 3.3,42.08 -17.28,36.95 -14.58,63.15z"/>
    <path class="fil3" d="M1158.44 1058.32c14.18,-1.24 10.09,-4.13 10.09,10.96l23.82 -3.71 25.9 -13.29c-24.8,-14.62 -19.58,22.06 -18.08,-14.92l3.42 -7.38 -45.15 28.34z"/>
    <path class="fil3" d="M7164.07 1452.8l5.02 20.37 17.43 -1.24c13.38,-18.63 14.06,11.11 12.46,-41.3l-9.69 33.38c-5.05,-8.73 -9.24,6.18 -13.03,-42.17l-12.19 30.96z"/>
    <path class="fil3" d="M2766.74 1628.66l21.18 3.89c-7.26,-9.12 7.74,19.4 0.45,-9.93 -10.32,-41.56 8.33,-5.68 -15.26,-34.2l-6.37 40.24z"/>
    <path class="fil3" d="M8314.53 1234.85l9.42 -24.33c-48.99,-13.45 -11.08,-8.13 -26.76,13.29 -1.27,31.45 -3.91,0.49 17.34,11.04z"/>
    <path class="fil3" d="M1142.66 1568.66l-4.77 -21.09c-24.43,-16.02 -12.55,-6.03 -31.82,-11.75l36.59 32.84z"/>
    <polygon class="fil3" points="8180.02,832.24 8180.73,819.39 8130.08,775.5 "/>
    <polygon class="fil3" points="695.55,1236.2 706.05,1203.52 678.9,1226.74 "/>
    <path class="fil3" d="M2998.81 1131.2c20.15,-26.6 -35.01,-30.16 56.65,-29.41 83.39,0.69 47.88,15.59 56.84,25.31 -50.8,13.95 -59.87,23.2 -113.49,4.1zm144.29 -1.49c-1.67,-1.95 -4.11,-7.47 -5.01,-5.84 -0.95,1.71 -4.16,-4.67 -5.45,-5.99 -0.34,-0.35 -18.85,-18.54 -19.8,-19.44l-124.62 8.36 -6.34 4.31c33.7,9.12 19.58,17.18 63.7,22.53 47.35,5.74 53.61,0.12 97.52,-3.93z"/>
    <path class="fil3" d="M5322.9 1450.01l-21.28 30.82 25.44 -10.15c-19.17,46.4 -20.47,71.25 -55.38,106.82 0.2,-1.53 0.6,-3.92 0.84,-4.57l39.84 -66.6c15.75,-23.37 25.81,-52.14 42.88,-73.08 -16.13,38.28 -2.9,15.48 -36.38,32.45l4.04 -15.69z"/>
   </g>
   <g>
    <path class="fil4" d="M3730.8 1141.93l6.46 80.98c-0.35,1.71 -2.91,8.99 -3.22,7.5 -0.34,-1.55 -2.64,5.04 -4.15,7.45l4.49 14.32c-58.16,-5.9 -19.03,-22.07 -105.59,-31.69 -22.14,36.06 -25.65,44.87 -48.72,52.14 -5.47,-12.23 1.47,-7.76 3.74,-26.05 -2.07,-0.96 -5.2,-2.35 -6.22,-2.87l-21.01 -12.45 -2.84 14.58 7.1 24.93 -27.96 14.69c27.92,31.48 56.54,63.52 71,100.91 31.16,-22.46 41.47,-41.44 67.17,-88.22 -59.88,102.25 3.44,69.65 -49.78,90.26 17.24,47.08 -9.45,14.01 30.3,46.84 -4.73,18.65 -17.81,68.7 -26.2,81.65 -4.87,7.52 -121.34,185.45 -126.87,174.6 -0.99,-1.94 -3.9,4.55 -5.8,6.87 40.82,-6.46 40.41,-6.41 78.01,10.89 51.22,23.58 20.73,15.71 16.12,20.24 31.59,28.25 84.62,21.71 121.93,10.47 41.43,9.57 10.25,1.22 44.58,24.3l34.12 3.78 20.77 44.92c35.69,-6.52 15.91,-1.12 33.43,-15.17l-26.62 -37.17c-48.4,-75.88 -69.31,2.31 -53.78,-119.54 -27.69,21.79 -16.22,25.77 -35.85,51.71 -17.04,-29.64 19.16,-118.15 39.28,-148.95l10.83 39.85c48.08,-49.38 60.11,-129.86 17.8,-186.66 10.02,65.25 14.19,43.76 -14.57,89.49 33.43,-98.84 -41.22,-78.09 -43.32,-197.57l34.87 65.13c5.81,-31.8 5.14,-8.55 18.07,-19l-4.28 -42.88c3.3,-13.46 7.78,7.96 11.8,-35.6l-43.4 -32.82 15.84 -81.66 -37.53 -0.2z"/>
    <path class="fil4" d="M5247.23 1154.49c-20.71,29.85 -3.04,8.7 -26.15,20.25 2.26,30.84 16.34,50.45 38.12,76.95l49.54 56.14c3.02,-3.3 6.77,-5.66 15.27,-19.11 4.68,-7.39 6.1,-13.96 9.21,-21.44 8.4,59.92 -31.65,32.35 -4.26,80.32 51.96,-31.19 20.03,-58.86 85.06,-117.53 -32.12,88.91 -81.48,118.02 -91.12,219.94l-4.04 15.69c33.48,-16.97 20.25,5.83 36.38,-32.45 -17.07,20.94 -27.13,49.71 -42.88,73.08l-39.84 66.6c-0.24,0.65 -0.64,3.04 -0.84,4.57 34.91,-35.57 36.21,-60.42 55.38,-106.82l-25.44 10.15c-26.79,19.8 -15.22,13.55 -35.82,38.59l-91.11 115.7c36.95,12.66 27.07,40.84 31.17,31.87 0.87,-1.9 2.57,6.32 4.27,9.27l-2.77 -61.73 80.39 19.74c25.36,24.14 11.8,15.34 51.44,21.42 -1.85,-4.37 -4.56,-15.47 -5.96,-12.93 -3.57,6.48 5.22,-12.12 -26.67,-28.22l-17.56 -9.23c37.41,-39.78 117.67,-184.68 116.08,-211.48l-17.81 75.35c29.31,14.13 5.35,4.01 6.21,0.7 -78.99,90.62 -8.02,77.97 -2.85,82.97 -27.91,-31.78 -48.7,79.05 -51.33,102.84 4.38,-1.86 10.87,-9.13 13.02,-5.85l18.21 -10.77c23.88,-22.62 76.04,-174.77 97.21,-197.34l8.21 51.64c40.14,-29.66 49.12,-82.09 19.12,-127.85l-20.5 34.46c14.44,-56.16 -17.42,-112.42 -44.96,-150.84 -18.91,-59 -1.35,-15.95 -21.99,-37.79l22.67 -28.46c-52.76,-17.42 -144.71,-64.83 -172.77,-54.66 8.61,40.17 7.37,17.05 -10.29,26.26z"/>
    <path class="fil4" d="M414.53 1674.47c-5.03,54.73 -2.94,18.59 -13.82,32.7 -8.89,-27.83 -8.23,-13.77 13.82,-32.7zm-143.21 -388.91l2.4 31.45 11.88 3.56c26.09,19.33 51.98,96.98 50.85,119.26 11.65,46.45 46.27,74.58 15.04,102.13 20.41,62.59 -37.5,-2.88 -13.52,109.05 9.7,45.25 -7.73,88.84 9.48,109.01 5.42,-49.7 6.07,-72.07 -28.49,-104.23 0.92,29.63 -5.87,87.66 7.82,111 19.41,33.1 29.33,14.69 29.41,14.69 44.25,0.33 -37.76,2.39 11.04,-2.65 43.1,-4.45 -20.85,-23.58 13.62,0.06l42.96 -11.51 -10.28 27.61c58.14,-8.03 72.89,12.89 123.26,17.95 -11.48,-28.56 26.86,-5.02 -26.75,-32.73 -43.06,-22.26 -44.12,11.96 -90.43,-30.34l20.38 -68.29c-30.47,-15.81 -23.63,3.5 -20.02,-28.64 40.16,-32.38 12.21,-4.65 22.93,3.15l9.58 -15.56 23.16 -70.6c6.22,-54.27 7.25,-103.09 -10.76,-156.57 -31.8,-94.45 -39.15,-40.22 -50.07,-104.76 -26.81,-26.28 -18.83,-21.32 -46.29,-31.15l-92.31 1.69 -4.89 6.42z"/>
    <path class="fil4" d="M7889.46 1291.03l9.1 25.72c53.53,38.01 14.87,2.19 36.88,59.84 12.3,32.22 8.47,7.48 17.05,34.24 4.42,13.77 0.95,15.5 -0.26,18.71 6.96,61.74 36.2,60.09 24.48,118.35l-42.38 86.04c-53.35,27.91 47.36,-45 -10.93,4.39 -17.53,57.74 -12.9,23.5 -28.5,53.4 -6.67,12.78 -11.96,22.29 -10.05,35.09 5.45,36.63 -0.76,17.27 22.2,34.37 1.74,-21.78 -1.97,-24.96 0.69,-43.53 0.28,-1.94 6.08,-23.96 6.56,-25.02 7.6,-16.39 4.74,-10.66 18.01,-25.97 4.03,49.41 12.54,55.8 -18.48,95.94l35.8 18.43c8.55,3.06 24.84,5.8 32.25,7.73 20.42,-51.61 4.6,-64.32 13.63,-83.84 8.77,-18.95 56.17,-46.57 7.65,-122.04 22.64,-54.78 12.02,22.35 17.94,-23.31 3.16,-24.36 -3.83,-9.31 -17.44,-17.9l17.71 -20.51c27.04,0.48 -14.32,-16.83 33.23,31.69l-7.56 -58.21c22.83,203.75 -14.1,45.78 -17.78,169.32 44.88,-55.93 7.72,-13.93 41.11,-20.18 17.09,13.73 10.66,11.98 10.66,-10.04 -18.41,-11.45 -13.09,-34.71 -12.66,-60.58 6.97,-52.14 -4.07,-135.77 2.3,-159.58 0.67,22.35 -3.53,41.33 -3.18,47.25 3.46,57.72 -8.7,14.78 18.53,50.88 12.66,-18.21 32.59,8.72 9.59,-57.51 -12.29,-35.37 -9.28,-17.37 -11.91,-59.55l-79.92 -104.05 -7.56 -8.82 -97.3 -5.14 -9.46 14.39z"/>
    <path class="fil4" d="M1106.07 1535.82c19.27,5.72 7.39,-4.27 31.82,11.75l4.77 21.09c9.68,15 2.89,7.48 14.83,20.5l36.29 39.14c-63.87,100.72 -17.67,73.12 -59.57,142.11l68.55 3.34 0.56 -19.13c2.98,22.01 4.89,13.19 42.6,8.74l11.92 -18.3 -24.81 -6.78 29.64 -72.75c-4.8,19.13 -1.38,20.47 12.22,34.65 19.81,-41.84 35.42,-89.75 38.81,-143.11l-35.09 44.68c-5.21,13.18 -7.42,41.28 -7.4,44.18 12.3,-45.35 34.64,-47.31 -6.94,-66.56l-12.13 30.5c-0.43,1.31 -1.36,4.88 -1.68,5.95 -0.31,1 -0.82,3.77 -1.32,5.63 -1.54,-1.99 -4.64,-6.92 -5.37,-5.32 -0.02,0.03 -12.03,-5.15 -21.83,-33.49 -15.46,-28.39 -16.33,-26.87 -48.4,-39.06 46.18,9.74 27.96,13.63 40.34,-37.89 -9.13,58.94 2.08,26.81 14.86,40.6l-3.45 -42.49c13.34,22.76 10.11,34.91 20.84,-2.21 24.98,33.52 9.49,34.01 9.48,34.19 18.25,-34.46 29.14,-36.35 29.66,-72.01 -40.39,-17.93 -64.72,-44.89 -100.87,-70.67l-27.84 32.67c2.05,-15.52 -5.16,-24.34 -20.55,-33.21l-9.36 66.71c-2.29,-0.99 -23.24,-5.09 -17.12,-32.44l-28.23 71.97 46.94 4.68c0.4,0.11 24.91,11.45 29.85,13.11 -2.48,2.08 -6.17,4.02 -8.31,5.03 -2.01,0.95 -5.55,3.48 -7.96,4.5 -93.79,39.65 19.35,-21.14 -35.75,9.7z"/>
    <path class="fil4" d="M6090.29 1309.69c13.72,54.98 49.94,87.15 59.76,133.43l25.19 -0.79c34.47,-52.5 60.48,-118.25 79.55,-179.03l-53.86 144.65c32.46,-15.7 32.44,5.46 39.99,-35.97 -13.21,28.38 -16.76,41.94 -27.18,76.03 38.12,20.22 12.89,8.17 9.98,36.51 -2,19.46 2.79,30.1 5.71,58.04l16.5 -42.81c5.47,-13.17 13.5,-30.09 19.25,-43.17 11.47,-26.07 20.92,-61.59 41.4,-77.51l-40.96 -71.53 46.12 -54.61 4.77 -0.56c-25.46,-24.18 -31.76,9.52 -14.03,-26.45l3.85 -0.27c-51.32,-22.87 -104.37,-16.24 -169.23,-24.43 15.39,17.19 -24.42,12.39 29.13,14.55 -33.76,25.92 -9.57,10.91 -45.15,4.65 -28.49,108.51 -21.56,55 0.27,85.61 -8.12,11.67 7.94,5.58 -31.06,3.66z"/>
    <path class="fil4" d="M4639.04 946.04c10.75,29.77 13.35,11.19 -15.54,29.55 6.36,-60.23 -1.15,-19.67 15.54,-29.55zm-156.53 -270.64c-22.16,35.68 -26.39,84.25 -26.64,126.8 -0.25,42.89 -26.92,106.5 6.64,140.19 10.06,-49.95 -15.09,-8.55 27.06,-46.2 0.52,3.39 6.47,26.18 2.44,34.9 -12.99,28.06 21.89,32.32 -29.85,15.81 14,60.12 8.16,48.29 41.47,99.98l9.6 -27.74c5.5,-47.85 -14.16,-39.2 -26.21,-103.8 44.13,20.77 36.71,-6.02 31.12,51.31 2.64,-2.18 18.85,-12.45 19.57,-12.85l-7.42 43.54c33.6,-14.73 21.95,-53.62 5.65,89.85 -20.97,-13.12 -8.66,-2.62 -27.42,-17.03l36.53 71.57 12.52 -21.1c24.55,14.08 5.46,-7.18 14.59,27.27l67.09 -164.05 10.16 7.01 0.62 -24.21 -10.99 -20.61c-20.81,-48.22 -25.14,-51.08 -17.15,-82.18l-43.34 -20.66c9.24,-16.02 -26.21,-9.78 28.46,-14.08 -30.78,-14.01 -64.29,-23.91 -89.34,7.6 24.9,6.54 15.52,-11.12 11.36,16.93l-10.45 -12.15 -17.55 38.88 -9.54 -41.51 -18.12 -3.81c-1.45,-30.53 -5.55,-26.4 -3.4,-52.24 2.68,-32.28 6.46,0.71 8.06,-43.09 41.38,-11.6 19.71,8.2 31.51,-0.33l16.16 -131.34c-23.28,35.89 -23.85,52.48 -25.23,95.44 -22.11,-13.77 -17.33,32.72 -17.96,-28.1z"/>
    <path class="fil4" d="M2146.22 1621.97c-21.18,-12.03 -10.51,2.8 -15.12,-14.86 8.64,-6.82 6.59,-16.11 37.11,-3.32l-16.3 20.63c-1.79,-1.03 -4.92,-2.01 -5.69,-2.45zm-107.68 -118.51c-8.62,0.1 -20.61,7.3 -22.3,7.41 -11.8,0.71 -26.34,-26.91 -65.45,0.89 14.14,39.62 5.74,12.9 14.13,15.74l14.24 -4.3c0.21,49.1 -9.58,19.2 -10.52,66.35 12.43,3.87 73.02,31.66 79.46,19.83 1.75,-3.21 6.44,-0.95 9.39,-2.24 -12.43,6.32 -10,-27.75 -10.22,17.31l30.76 3.28c21.29,-43.23 19.59,8.28 37.79,-53.47 11.93,45.96 16.55,29.64 0.75,64.19l3.4 91.97c19.78,-38.37 5.65,-8.45 1.68,-19.25 4.67,51.73 -21.73,29.37 30.6,32.88l-11.63 9.24c69.24,-10.62 24.82,-11.92 40.29,23.8l55.35 -55.61c-29.99,-8.74 -26.36,35.3 -19.52,-30.11 -6.99,-41.33 14.14,-3.52 24.46,-58.27l1.16 -39.64 -9.98 -2.14 -6.77 33.01c1.99,1.47 -3.95,-21.3 -21.8,25.86l2.42 -78.36c-36.51,-16.43 -28.29,-23.9 -68.53,-19.36l8.8 -40.76 -18.8 -22.72 -50.41 26.35 -38.75 -11.88z"/>
    <path class="fil4" d="M6193.06 760.03l-1.43 -101.85c12.87,-8.65 18.02,-10.92 29.22,-21.95l33.42 -36.31 0.16 34.72c45.25,-26.39 21.34,-43.26 66.38,-49.31 31.86,-4.27 63.12,12.22 78.51,0.79l13.18 79.35c-36.59,-18.86 -21.63,-8.84 -44.5,-41.34 -59.89,-9.32 -59.03,-6.89 -101.79,31.71 46.06,-21.22 41.7,-27.87 98.04,-33.04 30.71,39.56 33.72,38.77 39.31,89.21 3.14,28.28 6.66,8.32 -7.66,36.81 -28.45,-1.42 -51.8,-6.55 -82.6,-27.77l-70.05 -42.25c-15.39,37.79 16.87,20.97 -20.28,31.06 31.43,10.14 41.06,19.16 75.04,31.14 27.51,9.71 38.7,17.58 64.04,33.9l-92.25 -7.06 -46.3 25.71c20.04,5.36 28.94,11.38 44.99,15.77 69.64,19.07 41.12,-21.35 90.09,40.2l16.47 -6.18 15.04 -11.67c-21.77,-9.4 -13.71,15.86 -18.87,-20.11 79.1,-63.34 53.5,-152.95 68.79,-182.91 18.04,33.12 13.65,10.93 10.03,79.78 56.98,-87.69 -24.79,-126.53 -67.89,-174l-66.25 11.33c-51.8,5.07 -33.41,2.7 -70.61,28.1 -63.95,43.66 -103.18,90.24 -81.03,175.51l28.8 10.66z"/>
    <path class="fil4" d="M7165.58 1548.2c-48.68,36.72 -65.45,77.97 -80.81,138.09 26.19,34.39 2.39,20.24 17.95,71.29l21.87 6.12 34.32 -124.09 -29.58 135.39 34.27 3.76 34.88 -165.15c-15.03,90.25 -44.77,117.27 -17.76,158.36 19.03,-23.17 15.56,-24.09 22.43,-41.22 23.68,-29.69 33.6,-83.8 39.24,-123.89 -14.01,45.01 -2.02,19.63 11.47,37.82l12.51 -78.43 -65.02 38.02 7.22 -71.89c-29.87,33.55 -14.72,4.77 -19.77,41.04 -36.91,0 -30.67,9.64 -23.22,-25.22z"/>
    <path class="fil4" d="M5344.66 804.06c38.58,-20.24 79.12,-8.49 126.48,-26.98 -1.88,-1.72 -5.02,-6.54 -6.2,-4.48l-109.78 -37.57c64.23,-9.52 40.75,8.98 136.72,-15.21 25.7,-6.48 14.32,-8.27 30.4,0.02 20.04,-3.82 11.8,-18.78 10.8,-41.04 -71.46,13.01 -101.59,37.33 -182.31,35.6 -67.5,-85.09 63.28,-197.15 136.96,-123.81 21.43,-18.09 -27.22,-40.71 25.92,-10.5 -16.16,-34.37 -8.46,-12.16 -1.61,-23.57 -65.98,-55.77 -163.86,-6.13 -199.33,46.35 -56.08,82.98 -25.25,140.76 31.95,201.19z"/>
    <path class="fil4" d="M1293.95 1326.3c12.99,-17.22 17.22,-27.91 37.61,-3.06 -35.36,40.62 -35.64,4.38 -37.61,3.06zm42.28 -60.4l-60.73 2.87 9.78 -74.14 65.76 -12.38 -5.09 -33.61c-18.7,-2.48 -26.47,6.71 -66.77,3.23 -46.84,69.21 -25.97,45.9 -16.23,102.74 7.4,43.19 -15.92,80.57 -10.74,104.2l41.87 8.65c53.37,-7.63 22.1,2.43 71.87,-23.63 12.28,26.89 30.6,36.35 47.16,54.8l28.17 -13.53c2.32,-1.35 6.14,-4.03 9.21,-6.03l16.63 26.51 25.75 -18.11c-14.31,-9.82 -16.07,-13.2 -29.56,-20.73 -14.24,-7.94 -21.31,-9.18 -43.58,-19.52 -4.12,-3.06 -3.51,-1.17 -15.08,-21.35 -0.88,-1.52 -2.41,-4.39 -3.36,-6.1 -1.04,-1.88 -2.52,-4.71 -3.62,-6.73 -57.06,-104.76 30.59,-80.63 21.76,-181.96 -29.19,5.23 -13.12,-11.97 -34.35,19.9 3.01,-25.25 3.32,-7.55 -0.69,-31.37 -0.48,-2.79 -3.84,-4.07 -4.31,-9.71 -0.5,-5.84 -3.8,-6.28 -5.66,-9.45 1.94,52.62 -9.37,133.92 -9.85,196.28l-7.46 -16.7c-15.99,-19.79 7.55,-2.8 -20.88,-14.13z"/>
    <path class="fil4" d="M7056 1399.47l-11.75 0.41c0.6,75.52 47.54,58.93 96.77,64.66 -11.3,-53.26 -6.74,-14.49 9.63,-26.88l13.42 15.14 12.19 -30.96c3.79,48.35 7.98,33.44 13.03,42.17l9.69 -33.38c1.6,52.41 0.92,22.67 -12.46,41.3l4.26 19.63c22.35,4.02 8.61,-14.72 21.35,19.17l15.54 3.4 2.92 15.97 24.49 -31.91c-16.11,33.5 9.48,15.4 12.12,15.11l4.59 0.78c6.04,1.43 7.24,26.44 2.26,2.03 26.11,-10.2 33.21,12.42 37.47,-54.31 3.31,-51.83 -29.94,-64.44 -72.21,-100.09 -20.03,-16.91 -11.29,-18.27 -36.31,-18.24l-82.35 101.9c-33.58,-6.42 -45.07,-21.7 -64.65,-45.9z"/>
    <path class="fil4" d="M2922.43 1520.28c9.43,17.5 23.78,-31.19 1.56,19.65 -56.15,-14.68 -61.86,-14.47 -92.94,48.81l-37.28 -10.36c-1.31,-0.52 -7.73,-7.66 -9.84,-10.36 -19.48,38.97 4.26,36.97 -38.26,29.43l-12.65 -2.84c10.62,38.97 -1.3,22.14 33.72,34.05l6.37 -40.24c23.59,28.52 4.94,-7.36 15.26,34.2 7.29,29.33 -7.71,0.81 -0.45,9.93 26.44,22.98 26.35,14.68 60.73,26.37 33.8,11.49 41.03,14.63 41.82,43.71 15.48,-34.92 13.35,-48.3 41.53,-64.39 30.62,-11.05 1.75,-10.62 54.11,-4.4l10.65 -29.57c-14.56,-19.38 -24.91,-37.57 -37.75,-57.63 -20.59,-32.17 -8.91,-1.53 -10.72,-50.47 -0.49,45.28 5.38,5.18 -25.86,24.11z"/>
    <path class="fil4" d="M2088.06 1166.35c1.13,41.22 69.67,-17.92 100.59,20.21 42.6,0.3 28.49,-0.96 62.98,21.38 13.52,-9.32 -8.95,-11.07 42.28,-14.65 0.68,-0.04 30.58,1.55 30.82,1.61 30.42,8.62 2.44,-7.22 23.14,15.29 26.65,-27.82 25.53,-38.13 30.96,-78.89l-11.12 -42.48c-8.47,46.04 -6.26,45.95 -54.03,56.49l7.8 11.02c18.65,42.1 14.07,-13.17 4.53,19.86 -45.76,-2.55 -70.04,-36.61 -134.81,-45.37 -3.27,-80.65 87.31,-133.56 164.53,-92.18l0.35 -20.08c-31,-22.09 -31.9,-15.88 -72,-12.02l-10.23 -17.29c-97.62,6.89 -111.55,111.81 -129.75,111.16l2.08 59.28 -58.12 6.66z"/>
    <path class="fil4" d="M8033.37 1790.38c44.72,2.15 79.42,5.06 114.71,25.88 -13.64,7.94 -10.91,12.79 -29.09,2.11 -8.73,-5.13 -14.86,-14.87 -21.33,-21.51 -33.44,16.79 -24.44,16.5 -63.55,5.85l0.43 -11.92 -44.51 10.27c10.23,24.15 2.51,14.98 97.76,49.69 3.46,1.26 23.91,6.14 24.93,6.47 -58.7,41.66 -58.46,6.31 -120.6,21.59 -44.65,-15.79 16.08,-6.53 -32.66,-15.22 -21.19,-3.78 -37.78,-3.3 -59.26,-8.36l-1.59 -55.98 37.96 0.05c-19.44,-6.57 -43.02,-12.92 -65,-20.2l10.54 101.72c52.11,3.19 85.6,17.65 141.73,20.24 155.13,7.15 72.43,-2.99 134.89,-9.44l27.68 -60.4c-25.45,-17.57 -36.01,-44.29 -60.1,-54.3 -12.7,-5.28 -68.16,-11 -89.8,-16.34l4.26 12.85 -7.4 16.95z"/>
    <path class="fil4" d="M4519.34 217.12c22.41,22.39 8.82,-5.85 12.95,33.63 2.17,20.78 -3.86,14.55 -0.88,36.19 50.66,14.88 90.63,40.58 139.14,42.15 1.9,-63.48 -42.89,-36.88 -86.2,-92.56 30.1,-55.74 115.97,-109.84 139.82,-1.18l17.35 -28.76c12,47.1 -1.67,-0.73 16.16,19.61l8.72 -34.14 2.79 -20.13c-83.24,-12.16 -59.73,-65.91 -134.69,-34.21 -36.16,15.29 -95.98,44.83 -115.16,79.4z"/>
    <path class="fil4" d="M2952.48 1676.93l-20.42 14.7 -26.3 35.08c-3.42,0.07 -17.11,-10.28 -20.47,-10.94 -21.6,12.45 -6.6,0.49 -22.73,15.05 -12.05,10.89 -7.02,8.72 -14.96,21.18 10.3,15.69 5.86,-9.74 4.36,13.78 -0.18,2.81 -5.12,30.5 -5.65,33.89l44.69 -19.99 -0.25 38.01 -1.28 16.47c27.39,-6.82 39.06,-16.28 67.89,-3.64 -6.35,-40.84 -15.19,-30.75 25.98,-30.75 -16.94,44.59 20.84,-33.18 26.78,-48.31 17.58,-44.72 23.93,-35.35 52.32,-69.32l-26.77 -28.78c-7.56,-6.2 -7.24,0.31 -12.12,-9.27l-91.41 88.26 20.34 -55.42z"/>
    <path class="fil4" d="M6326.17 1578.58c-7.02,-31.65 -9.66,-77.36 -6.38,-124.79 -2.68,2.32 -6.58,5.67 -8.03,6.96 -1.14,1.02 -5.21,4.48 -6.31,5.48l-4.1 4.27c-0.08,-0.34 0.72,-0.37 1.1,-0.51 15.74,-40.84 12.34,-45.74 2.44,-86.41 -35.77,32.9 -49.24,82.01 -59.93,130.81l-13.98 152.07c7.2,46.56 -9.18,-3.3 10.29,29.87 40.49,-24.76 60.57,-68.14 84.9,-117.75z"/>
    <path class="fil4" d="M7182.42 745.92l1.08 -4.17c-11.03,34.5 -4.95,13.94 -19.22,44.98 -12.07,26.23 -7.22,2.07 -8.84,27.69 -0.96,15.25 1.7,58.38 11.32,63.15l-7.4 16.63c46.32,18.29 96.6,65.07 145.62,38.51 29.87,16.32 35.18,-18.95 21.32,23.1l-61.6 22.33c8.94,50.29 17.66,78.25 10.65,130.28l15.28 -10.77 -8.97 -113.22c48.29,-31.08 69.84,-12.45 96.49,-75.38 -15.12,4.89 -25.96,17.71 -35.98,18.27 -38.31,2.13 3.05,9.87 -21.3,-9.28 -2.31,-1.81 -4.35,-4.95 -5.97,-10.72 -1.83,-6.53 -4.02,-8.33 -5.9,-12.55 -82.62,14.91 -133.9,0.55 -143.01,-87.02 32.42,-27.21 42.19,-20.57 81.65,-33.92 35.59,-12.03 12.49,-22.68 63.63,4.07 4.6,-66.88 -4.12,-16.77 16.55,-38.58 -88.7,-57.01 -59.55,-28.54 -145.4,6.6z"/>
    <path class="fil4" d="M536.79 1812.94l-32.13 17.12 -23.88 -29.31c-58.65,8.18 -18,6.49 -72.13,-0.24l-43.42 5.63c31.05,32.15 43.39,13.92 126.25,51.8 -30.84,24.94 -10.7,17 -59.04,19.03l-155.51 -25.87 1.9 -38.26c0.66,-2.56 1.99,-5.69 2.75,-7.99 0.91,-2.8 5.72,-11.6 7.59,-14.47l-21.72 -19.41 -12.98 3.42c-4.61,56.91 -13.16,44.66 8.46,103.48 97.39,19.31 173.87,37.15 272.24,14.51l12.87 -35.73c9.1,-18.32 1.89,12.13 20.19,-31.05l-31.44 -12.66z"/>
    <path class="fil4" d="M2959.14 1145.16c31.22,12.22 71.9,24.04 116.79,23.82 -31.21,-8.13 -4.6,-4.84 -19.48,15.63 34.66,1.46 37.1,-3.04 58.13,9.31 47.13,-7.49 27.57,-16.2 68.63,-35.89l11.52 -104.86c-2.86,22.44 2.88,-0.72 -15.59,10.7l8.14 5.73c-9.33,25.8 -10.18,33.91 -27.69,55.16 -27.47,33.36 -15.32,8.23 -16.49,4.95 -43.91,4.05 -50.17,9.67 -97.52,3.93 -44.12,-5.35 -30,-13.41 -63.7,-22.53l6.34 -4.31 -22.34 -34.53c-0.7,-2.33 -4.55,-0.99 -7.49,-1.78l-0.51 -57.89c9.03,-7.98 17.69,-11.37 18.39,-21.69 2,-29.38 -12.18,-23.63 -12.28,-23.77 -47.52,32.6 -56.7,178.38 -4.85,178.02z"/>
    <path class="fil4" d="M8057.3 1004.2l9.98 59.21 -2.78 23.23c17.19,0 12.11,-3.65 10.13,15.27 89.85,-6.24 55.31,-2.89 81.66,54.59 -30.05,3.06 -28.68,7.64 -37.27,15.95 27.34,21.26 26.44,13.29 18.77,42.72 -32.56,8.08 -18.35,8.51 -45.14,-13.93l-10.61 -9.69 -33.33 -1.54c25.27,53.67 69.22,78.82 134.34,70.31l-4.61 -12.61c-0.75,-1.2 -3.1,-3.91 -3.97,-5.17 -13.67,-19.95 -18.07,1.53 -12.32,-24.88 10.31,-47.38 9.73,-18.34 16.67,-27.32 20.18,-26.07 2.52,24.09 11.03,-11.99 0.86,-3.67 3.81,-3.79 5.46,-5.91l2.68 -20.57c-56.11,11.2 -14.1,2.68 -35.47,-7.3 1.44,-27.31 -15.32,-75.43 -29.28,-93.44l-56.88 24.94 39.66 -67.46c0.67,11.9 8.78,10.02 17.88,19.75 -6.56,-41.46 -5.88,-74.6 -32.04,-101.26 -7.02,48.31 0.56,44.87 -44.56,77.1z"/>
    <path class="fil4" d="M5321.89 815.59c-19.84,10.06 -18.8,-0.31 -29.67,12.63 -1.91,21.19 5.02,34.01 2.08,39.89 -7.65,15.31 -18.33,9.66 -33.81,44.05 28.75,0 20.75,-6.69 20.27,23.64l22.5 -27.68c0,0 4.2,36.8 28.37,48.56 31.7,15.43 47.32,2.82 73.11,-12.07 -24.17,-16.28 -30.21,-5.36 -51,-11.65 -31.35,-9.5 -17.95,-83.25 84.18,-93.57 50.29,57.93 -7.08,56.87 -21.18,107.98 14.42,11.2 -11.04,5.72 33.2,17.09 1.66,-49.81 2.27,-44.43 33.83,-72.63 -6.03,-14.13 -19.58,-41.26 -7.76,-55.75l-13.37 -20.46c-59.33,-2.7 -37.26,6.45 -82.89,10.09 -77.69,6.19 -54.66,-0.8 -57.86,-10.12z"/>
    <path class="fil4" d="M543.91 1138.09c3.76,-37.7 2.27,-15.86 -12.01,-26.19 -25.62,62.99 21.76,10.67 -30.47,61.65 29.07,20.49 28.23,10.57 13,40.78 -71.18,20.35 -5.18,-35.2 -52.67,-19.62 1.84,-39.95 7.94,-25.25 -9.68,-55.7l2.78 38.34 -22.74 6.06c9.15,24.26 30.46,55.09 40.8,72.22l88.79 7.09c-0.14,-2.61 -0.62,-6.44 -1.2,-7.76 -17.68,-40.36 -25.25,11.71 -6.25,-73.27 34.56,-8.49 54.11,-5.05 86.12,12.36l6.55 -23.22 30.12 -6.85c4.25,-45.88 5.71,-8.82 -12.21,-13.15l-49.88 23.63 2.29 -72.2 -9.95 -22.53 -42.86 -0.82c12.93,27.37 7.66,11.9 11.74,52.59 12.76,7.12 8.07,2.5 15.51,5.03 23.26,7.92 -13.83,-15.49 11.61,5 -11.83,56.07 10.75,4.89 -36.49,23.27l-22.9 -26.71z"/>
    <path class="fil4" d="M6219.67 946.13l-23.9 10.24c19.04,36.22 50.4,40.39 107.64,49.48 -11.74,-15.66 3.86,-20.15 -11.07,-9.66 29.28,11.5 38.06,2.13 70.35,-4.66l5.36 47.11c4.03,-2.47 8.26,-4.87 11.97,-7.62 3.38,-2.51 7.03,-4.41 10.7,-7.3l22.69 -24.9 24.61 -31.3 -26.13 -18.47c-57.9,8.13 -13.85,2.26 -62.42,28.6l-32.96 -16.53c17.12,-46.35 38.4,-60.04 -12.92,-94.91l1.37 62.78 -85.29 17.14z"/>
    <path class="fil4" d="M1350.3 1491.2l-0.77 30.8c32.64,-11.74 28.95,15.35 28.95,-12.47 -8.94,15.49 -19.8,-25.37 0.14,16.13 0.91,1.89 7.32,10.33 8.27,8.01 1.16,-2.85 7.34,5.9 10.67,8.87l6.01 -30.83c2.61,22.59 -2.87,5.81 -4.15,49.63l-41.47 -39.18c-28.38,41.21 -32.38,77.75 -41.09,133.53 33.81,-25.65 24.18,-7.6 40.3,-50.62 -0.24,0.02 -20.7,-12.66 8.59,12.31l20.99 -44.25 16.41 30.02c37.26,-12.46 16.29,-14.28 49.57,-10.24l-24.72 -3.66 -2.08 -72.03 76.01 4.78c-24.3,-31.49 -7.32,-15.75 -33.9,-34.38 -20.63,-14.46 -54.42,-14.95 -73.3,-16.32l-44.43 19.9z"/>
    <path class="fil4" d="M551.9 667.58c-12.62,14.77 -10.56,10.62 -19.81,17.95 -6.89,5.46 -11.29,10.93 -12.6,8.45 -0.89,-1.69 -4.11,2.27 -6,3.67l58.85 2.34 -35.87 27.57 69.4 -12.17 -6.96 107.01c36.8,-17.71 43.81,-56.73 20.18,-99.67l21.41 -0.44c-5.3,-11.79 -7.26,-20.2 -7.57,-20.45 43.68,9.9 40.83,38.71 66.38,72.59 -6.17,-46.62 -4.13,-77.81 -28.29,-114.06 -42.27,-19.53 -27.56,-24.57 -84.58,-29.07 12.03,23.68 0.35,44.24 31.73,30.88 -14.65,-0.38 -64.02,5.31 -66.27,5.4z"/>
    <path class="fil4" d="M4505.19 597.47c42.34,-50.61 8.35,-39.35 43.7,-93.88 2.18,-3.35 5.53,-6.69 8.45,-9.9 -12.62,40.17 -3.54,20.1 -22.52,53.63 42.85,22.18 38.25,17 87.5,16.71 -19.26,-14.02 19.41,-14.55 -24.47,-10.52 -12.54,-8.8 -18.76,14.81 -3.42,-20.55 0.5,-39.33 6.4,-39.58 37.15,-70.09l30.5 3.6 -32.68 -25.78c-64.94,16.99 -43.98,2.04 -84.79,55.64 4.39,-55.44 13.01,-25.49 35.94,-66.96l-23.93 -42.79c-9.23,58.29 -24.55,3.56 -36,96.86 -3.92,31.94 -5.65,33.06 -12.89,60.1 -6.6,24.62 -0.83,18.85 -2.54,53.93z"/>
    <path class="fil4" d="M8158.09 646.94l56.79 -6.14c-13.98,18.67 -27.05,5.47 -73.57,58.47 68.45,0 42.43,19.55 106.98,17.3 22.04,-33.62 38.61,13.73 67.56,33.77l-24.77 -111.17c-62.51,-15.33 -72.2,-42.02 -132.99,7.77z"/>
    <path class="fil4" d="M8084.44 751.42c-23.75,35.77 -23.18,39.91 -11.87,81.41 -15.58,19.19 13.96,13.88 -37.93,14.97l-13.61 -6.66c-24.65,12.86 -0.5,-3.71 -8.91,24.82l80.36 10.4c-43.41,-7.91 -25.15,9.47 -33.54,18.11 69.4,-6.46 69.02,27.48 99.15,77.99l-3.06 -69.16c24.27,1.26 46.33,8.82 55.04,9.27 55.27,2.84 20.63,8.62 50.37,-16.38 -70.72,-4.86 10.95,1.43 -42.45,2.83 -49.2,1.3 -82.78,-9.59 -123.42,-35.95 0.27,-47.75 -3.23,-1.69 17.15,-20.98 -14.79,-21.17 -17.66,-9.44 -15.05,-40.25 3.48,-41.18 13.79,-26.17 33.41,-26.34l-12.62 -35.02 19.95 -40.17c-36.78,16.01 -8.63,-4.85 -31.58,25.48 -17.54,23.17 2.29,7.9 -21.39,25.63z"/>
    <path class="fil4" d="M445.1 868.11l29.45 14.56 2 11.09c7.63,6.24 27.57,20.09 32.87,26.72 16.03,20.01 5.73,20.91 29.57,46.96l-5.5 -62.24 54.69 1.43c-54.57,-27.22 -68.02,-1 -112.31,-59.14l18.08 -4.93 -18.65 -20.29 13.59 -52.54c21.83,39.52 8.35,17.82 46.01,32.38 -46.42,-80.47 -35.81,-30.21 -21.41,-104.46l-29.68 0.45c-6,87.03 -52.83,58.16 -34.23,97.97l-4.48 72.04z"/>
    <path class="fil4" d="M7785.42 1172.54c20.57,24.31 9.23,19.14 21.76,35.04 1.82,2.3 26.16,20.1 32.62,24.98 1.13,-7.21 3.17,-22.37 2.34,-29.16l-17.81 -40.43c15.66,-19.02 12.08,-24.52 27.35,-39.44 27.37,-26.73 8.5,10.29 34.3,-31.22 -1.9,-1.09 -5.09,-2.23 -6.03,-2.63l-21.67 -8.73 33.28 -75.48c-36.01,2.86 -16.97,-17.56 -45.62,31.41 -7.57,12.95 -14.89,26.59 -22.1,39.94 -16.22,30.06 -31.13,62.98 -38.42,95.72z"/>
    <path class="fil4" d="M1250.27 985.64l-9.33 21.68c0.08,0.03 19.85,3.13 24.43,6.91 2.63,-2.19 13.01,-10.8 14.7,-11.51 6.84,-2.87 10.34,-3.5 19.16,-1.63 47.5,10.06 123.08,66.01 143.11,-47.04 -48.76,26.21 -100.95,26.94 -144.02,-9.51 -25.13,29.47 46.2,20.95 -21.23,20.85l-7.29 -19.94c0.45,65.21 2.85,17.25 -19.53,40.19z"/>
    <path class="fil4" d="M6058.14 1141.08l33.53 2.5c11.14,-8.62 8.33,-2.5 17.52,-16.92 12.06,-18.94 1.41,3.12 5.66,-23.63 -39.93,-20.6 -11.68,-63.27 0.35,-100.15 5.27,-16.12 6.67,-30.51 16.34,-45.32 20.44,-31.28 37.57,-27.26 37.66,-27.28l-5.25 -26.98 14.39 -7.14 39.16 -57.4 3.02 -14.98c-57.91,17.94 -82.83,90.65 -108.52,145.05 -8.13,17.22 -32.3,70.6 -36.03,84.19 -8.61,31.4 0.81,40.47 -17.83,88.06z"/>
    <path class="fil4" d="M4574.06 369.37l-0.92 26.53c46.89,9.52 24.35,5.35 55.99,32.95l74.43 -17.44 17.43 -0.68c1.61,-1.59 4.06,-6.34 4.83,-4.78 0.83,1.66 4.07,-4.05 5.2,-5.07l19.45 -16.84 14.69 -23.23c-9.72,-5.5 -17.58,-14.8 -46.7,-3.54 45.47,6.3 2.99,3.25 21.92,-16.25 -43.52,-4.65 -20.81,-5.81 -41.95,-9.8 -14.19,-2.68 23.8,-7.18 -27.88,-2.13l25.52 65.22c-55.86,1.27 -77.37,-5.4 -122.01,-24.94z"/>
    <path class="fil4" d="M2916.84 1223.38c14.53,22.67 5.41,-5.13 12.59,31.19 4.15,21 3.45,30.74 2.02,51.42 -2.5,36.17 -6.91,49.65 -4.65,88.96 30.7,-33.11 -4.13,-26.7 25.88,-63.89 -6.5,-52.34 -9.1,-17.91 19.37,-29.19l-28.32 -48.7c-0.84,36.88 5.1,5.43 17.1,18.23 13.01,-88.68 69.61,-55.67 84.34,13.25 25.11,-22.93 12.79,1.47 22.61,-40.27 -24.34,-33.37 -58.54,-44.24 -113.38,-37.94 -44.9,5.16 -16.56,-0.3 -37.56,16.94z"/>
    <path class="fil4" d="M7308.03 1631.38c17.59,-16.59 18.19,-21.93 30.54,-44.38 18.61,-33.82 6.12,5.7 31.19,-46.22l28.47 5.39c14.31,-19.5 19.84,35.17 10.22,-44.64 -17.19,-17.82 -12.81,-9.13 -26.09,-11.7 -2.48,-1.62 -5.42,-4 -7.24,-5.17 -1.89,-1.22 -5.54,-3.81 -7.68,-5.15l-17.65 -9.92c-1.8,-4.65 -6.45,-3.18 -9.65,-4.8 -7.17,40.3 -8.26,61.49 -18.92,93.83 -12.9,39.14 -14.55,33.04 -13.19,72.76z"/>
    <path class="fil4" d="M5717.12 789.65c-14.26,12.54 -1.79,-14.63 6.02,34.73l-34.17 17.39 -55.12 -6.73c-59.5,7.54 -26.89,-35.65 -91.37,0.72 59.22,44.71 32.86,-20.39 47.86,48.62 34.99,-15.06 59.78,-25.44 99.57,-40.05 14.02,-5.15 31.14,-10.19 44.33,-16.64 42.94,-21.03 32.23,-27.01 38.61,-40.09 -15.53,-13.68 -0.74,-7.81 9.56,-46.56 -12.42,7.09 -32.96,19.76 -45.01,27.48 -14.56,9.34 -13.22,3.54 -20.28,21.13z"/>
    <path class="fil4" d="M3640.08 889c-22.19,0.21 -26.65,-20.64 -38.17,20.04 -11.63,41.09 -0.05,28.78 19.36,19.93 37.54,11.1 34.25,-30.07 27.87,33.49 22.32,-26.65 6.01,-21.98 42.99,-36.21 18.09,-6.96 43.56,-12.27 52.9,-11.15 28.12,34.2 17.39,31.75 5.9,73.23l24.68 -15.62c12.15,-40.5 -3.33,-24.46 7.38,-54.6l-33.13 -38.93c-40.45,33.91 -67.08,25.58 -109.78,9.82z"/>
    <path class="fil4" d="M3019.92 1573.52c11.85,6.93 16.03,4.11 32.37,23.33 28.22,33.19 11.37,15.84 13.4,32.41 47.06,20.99 11.61,7.07 46.3,17.19 7.18,-6.42 9.26,-1.28 19.64,-18.26 22.96,-37.54 12.05,-9.75 7.17,-42.34 -27.26,-16.97 -29.89,-10.89 -60.26,-8.32l-65.58 -23.09 6.96 19.08z"/>
    <path class="fil4" d="M4757.35 230.62l-4.95 72c5.38,34.36 1.39,4.11 19.73,18.89 1.13,0.92 3.96,2.28 5.09,3.42l12.98 20.76c1.18,2.15 2.3,6.38 3.8,9.41 36.22,7.43 0.71,4.28 12,-16.31 4.75,-60.07 24.65,-75.59 -19.78,-126.35l3.55 34.32c-21.78,-12.42 -21.52,0.6 -32.42,-16.14z"/>
    <path class="fil4" d="M1149.42 1892.89c30.82,-2.12 12,-1.2 33.94,-11 20.88,-9.33 1.63,-8.97 28.05,-10 -15.1,-26.93 -8.6,-37.58 -11.07,-75.54 -82.27,-13.52 -70.08,45.48 -50.92,96.54z"/>
    <path class="fil4" d="M1860.19 1501.15l-4.97 27.54c0.74,2.22 1.76,5.54 2.51,7.91l8.01 26.61c0.39,1.03 2.8,6.52 3.11,5.21 0.31,-1.33 2.25,3.44 3.53,5.05l35.7 -11.17c24.28,28.63 8.48,20.33 48.76,21.49l-13.8 -12.03c-22.55,22.6 17.41,3.85 -21.29,11.36 -15.06,-15.67 -20.08,-23.26 -37.95,-40.74 15.69,-7.3 5.67,-7.47 37.43,-7.56l5.35 4.02c33.56,-30.07 24.6,-19.75 38.29,-63.85 -46.35,0.95 -55.39,10.86 -84.28,36.72l-20.4 -10.56z"/>
    <path class="fil4" d="M5586.2 671.92l-35.88 38.6c51.35,-3.36 65.36,-14.91 102.76,-32.45 -4.8,64.43 -5.72,36.86 10.14,58.55 14.5,-33.63 13.76,-58.86 15.46,-98.96 -48.3,7.43 -48.69,11.8 -92.48,34.26z"/>
    <path class="fil4" d="M7067.61 1324.96c25.79,6.04 10.63,28.59 35.03,-17.29 47.61,0 -0.09,-6.3 20.76,29.21l14.98 -30.76 -22.07 -13.15c20.6,-18.93 15.58,20.84 21.95,-36.61l-11.33 -58.91 -3.17 -25.01c-0.97,3.22 -1.76,7.16 -2.35,9.81 -0.57,2.6 -1.45,6.54 -2.16,9.68l-23.33 62.53c-12.2,25.99 -21.15,46.07 -28.31,70.5z"/>
    <path class="fil4" d="M1939.33 1840.62l21.19 -25.95c35.86,0.52 1.29,-3.12 15.13,15.85l63.72 -30.43c-2.17,-1.79 -5.07,-4.32 -6.47,-5.42l-19.06 -14.62c-0.94,-3.21 -4.11,-2.87 -6.17,-4.31l-17.99 -18.99c-34.87,18.55 -42.05,21.19 -63.1,65.29 7.09,22.79 -17.31,18.98 12.75,18.58z"/>
    <path class="fil4" d="M3971.05 692.97c34.82,-37.64 9.47,-30.02 33.48,-60.32 20.65,-26.07 18.32,-18.61 82.87,-27.35l8.41 -7.54c9.22,42.71 -0.76,6.28 14.49,17.73 34.18,-3.68 14.35,-11.86 29.89,1.6l1.17 -20.65c-73.94,-36.41 -61.12,-10.86 -106.72,0.67 -74.43,18.81 -42.05,18.05 -63.59,95.86z"/>
    <path class="fil4" d="M4921.7 166.5l36.83 -0.57c29.26,30.82 3.37,0.17 20.15,29.36 8.19,14.24 11.94,21.88 21.55,35.71 18.01,25.85 7.93,39.24 3.22,72.27 1.07,-2.5 32.51,-125.46 -13.62,-160.6 -20.6,-15.7 -3.98,-5.38 -29.92,-16.15l-38.21 39.98z"/>
    <path class="fil4" d="M7177.49 1086.88c12.52,16.69 58.79,5.01 77.7,1.88l-13.54 -53.89 -19.95 24.39 -39.86 -30.42c-28.41,-0.5 -21.64,-7.67 -21.64,20.14 41.22,41.41 5.02,1.25 17.29,37.9z"/>
    <path class="fil4" d="M2170.2 1511.71l9.87 -10.18c27.58,-30.54 51.68,-17.55 70.25,-75.13 -60.83,-2.84 -27.59,24.1 -56.97,-8.14l-32.83 53.79 9.68 39.66z"/>
    <path class="fil4" d="M4736.86 460.64c20.15,24.73 25.64,26.43 16.09,63.9 38.72,15.68 33.23,-27.24 28.36,41.03 37.22,-16.85 47.9,-12.35 66.12,-40.73 -8.94,-43.16 12.07,-14.58 -20.78,-30.85 -19.61,31.52 12.4,28.75 -44.2,43.55l3.39 -83.36 -6.59 17.72 -42.39 -11.26z"/>
    <path class="fil4" d="M2022.83 1671.08c61.14,-9.25 19.88,-10.71 31.29,25.17l-2.15 58.95 23.68 -7.92c3,-16.59 9.35,-41.23 11.29,-55.81 10.22,-76.57 9.43,-32.14 -19.09,-50.01l-30.86 11.26 -7.72 -7.12 -6.44 25.48z"/>
    <path class="fil4" d="M2998.81 1131.2c53.62,19.1 62.69,9.85 113.49,-4.1 -8.96,-9.72 26.55,-24.62 -56.84,-25.31 -91.66,-0.75 -36.5,2.81 -56.65,29.41z"/>
    <path class="fil4" d="M237.89 1070.42c-33.44,20.8 -26.84,15.79 -27.28,55.83l48.63 -13.2 81.08 -136.14c-44.49,32.82 -55.48,70.03 -92.78,112.57 -13.62,-9.33 -14.75,21.04 -9.65,-19.06z"/>
    <path class="fil4" d="M3606.56 713.97c14.8,22.12 6.88,22.55 8.45,57.95 12.95,13.04 5.41,7.75 25.9,15.51 -11.17,-68.75 -3.55,-43.48 24.37,-96.68l-27.94 -34.59 -30.78 57.81z"/>
    <path class="fil4" d="M4838.92 399.89l20.49 8.23c-14.92,35.28 -19.56,27.1 0.02,51.14l2.23 -22.9 14.14 26.86 6.77 -43.62 27.89 -1.86c-2.59,-28.62 -9.23,-21.62 19.26,-21.62 -30.65,-17.71 -20.64,-6.58 -32.34,-11.41 -32.47,-13.43 4.84,11.61 -23.3,-14.15l-35.16 29.33z"/>
    <path class="fil4" d="M7106.22 1868.63c35.07,5.34 32.13,0.72 63.89,-2.06 66.08,-5.78 41.01,5.04 71.69,-15.43l-71.38 -10.88c-30.96,0.61 -41.8,-0.24 -72.03,-6.03l7.83 34.4z"/>
    <path class="fil4" d="M452.7 1006.62l0 18.96 43.52 -11.29c7.09,36.11 -7.15,-6.5 18.26,14.07 -6.08,-42.03 -8.12,-86.98 -39.4,-107.06l4.4 46.22 -26.78 39.1z"/>
    <path class="fil4" d="M2878.16 1229.27c54.48,-10.71 29.61,-12.64 59.93,-29.21 33.06,-18.07 28.11,-4.13 55.31,-9.87 26.15,-5.52 9.43,-0.09 23.84,-10.96l-57.98 -25.08 -81.1 75.12z"/>
    <path class="fil4" d="M5472.93 1238.7l-2.85 3.04c14.76,-47.92 17.6,-17.92 19.41,-54.28 -20.69,-30.64 -12.25,-22.35 -46.07,-26.45l-18.08 48.81c35.68,3.88 28.92,12.78 47.59,28.88z"/>
    <path class="fil4" d="M1052.67 1471.47l-6.36 -32.44c-11.59,-14.6 -1.52,-2.29 -17.77,-11.18l-19.52 11.92c-1.8,39.37 39.35,101.38 80.06,111.63 -65.04,-77.51 -61.24,-67.77 -36.41,-79.93z"/>
    <path class="fil4" d="M3131.17 1007.79c-7.48,-63.6 -9.44,-25.06 20.78,-38.6 -60.14,-26.11 -37.81,-33.31 -117.3,-33.35 0.27,0.25 10.5,12.01 12.38,14.64 13,18.18 -13.87,1.12 12.05,15.99l45.44 1.98c16.16,29.59 3.69,15.75 26.65,39.34z"/>
    <path class="fil4" d="M7335.08 757.16c16.54,36.8 22.12,55.28 14.89,96.47l14.27 -15.17c6.75,7.1 14.5,9.99 22.04,26.68l-21.17 -62.72 24.18 -23.93c-14.19,-34.65 -2.61,-19.65 -30.73,-42.9 5.77,34.88 12.41,26.51 -23.48,21.57z"/>
    <path class="fil4" d="M4687.04 856.7c-3.73,1.1 -19.87,1.23 -21.04,1.37 -21.33,2.37 -1.28,-3.46 -17.71,4.52l-13.75 30.1c18.4,20.9 -0.71,10.97 25.65,21.06 15.52,-25.5 9.75,-5.7 4.81,-45.93 46.81,0 -2.04,-6.16 20.35,19.97l27.44 -12.06c0.6,-14.84 3.02,-25.67 -3.09,-39.87 -19.01,-44.15 -0.45,-6.48 -24.14,-24.9l15.71 19.87c2.51,36.5 5.96,12.43 -14.23,25.87z"/>
    <path class="fil4" d="M3796.12 661.95l12.31 -34.54c-34.65,-22.11 -47.28,-24.26 -86.1,-11.73 11.57,11.76 -6.59,16.44 51.6,17.03 -57.74,21.33 -9.2,18.94 -9.05,19.3l31.24 9.94z"/>
    <path class="fil4" d="M4941.35 201.87l35.76 110.6c1.03,-2.53 2.65,-8.96 2.81,-7.69l-0.69 -74.02 -1.72 -46.16 -36.16 17.27z"/>
    <path class="fil4" d="M3617.81 1012.78c19.81,34.83 49.91,29.38 90.93,15.27 -36.19,-33.58 -23.52,-9.9 -61.86,-20.21l-6.19 -35.82 -22.88 40.76z"/>
    <path class="fil4" d="M668.84 1255c46.01,-9.9 14.02,0.88 26.71,-18.8l-16.65 -9.46 27.15 -23.22 -29 -39.54c-22.55,36.43 -22.42,28.26 -15.96,54.91l7.75 36.11z"/>
    <path class="fil4" d="M5783.99 530.59c11.2,-23.72 12.71,30.77 27.15,59.38l2.51 -53.74 18.42 22.18 3.7 -43.46 -62.65 -10.49 -15.47 21.13 26.34 5z"/>
    <path class="fil4" d="M501.06 1588.11l30.91 -66.01c-13.32,-27.5 -6.07,-16.33 -34.6,-33.25 1.05,47.66 -1.17,29.23 -11.1,66.44l14.79 32.82z"/>
    <path class="fil4" d="M6239.16 874.1c36.13,-15.87 23.08,-10.09 64.43,-7.89l-7.02 -12.97c-2.42,-22.6 -5.78,0.55 14.75,-9.49 -61.94,-24.74 -0.91,-0.86 -37.4,-6.89 -34.51,-5.7 7.53,-5.89 -42.58,-7.26l7.82 44.5z"/>
    <path class="fil4" d="M373.11 867.99l50.82 -12.86 -10.25 -89.66c-20.31,26.68 -10.49,17.38 -16.08,48.03 -10.9,59.84 5.62,9.1 -24.49,54.49z"/>
    <path class="fil4" d="M2220.78 1809.89c-30.83,-6.58 -45.59,-20.28 -91.21,-30.69 54.65,49.49 62.96,44.42 123.35,71.47l-32.14 -40.78z"/>
    <path class="fil4" d="M3084.35 1270.57c21.42,-28.14 11.5,4.61 14.76,-46.23 0.01,-0.25 -2.33,-23.58 -2.61,-27.93l-44.97 4.71 32.82 69.45z"/>
    <path class="fil4" d="M607.96 843.92c19.11,7.58 -19.48,16.4 38.79,6.62 16.23,-41.97 16.02,-20.49 13.96,-73.48l-52.75 66.86z"/>
    <path class="fil4" d="M1848.19 1351.51l6.9 -15.36c-4.77,-34.41 5.89,-43.38 -19.4,-44.4l-17.14 2.89 -7.91 21.72c3.23,0.84 2.54,25.59 13.61,-6.86l3.84 42.66 20.1 -0.65z"/>
    <path class="fil4" d="M2301.93 1331.78c29.84,-17.98 73.6,-62.67 29.25,-90.93l-29.25 90.93z"/>
    <path class="fil4" d="M5669.66 623.48c12.97,-35.52 28.24,-73.76 58.96,-96.78 -61.7,-13.46 -57.52,41.74 -58.96,96.78z"/>
    <path class="fil4" d="M8290.14 1255.32l24.39 -20.47c-21.25,-10.55 -18.61,20.41 -17.34,-11.04 15.68,-21.42 -22.23,-26.74 26.76,-13.29 -9.65,-35.78 -3.75,-26.55 -30.38,-44.85l-13.4 37.87c12.63,30.58 15.27,12.36 9.97,51.78z"/>
    <path class="fil4" d="M1339.05 1058.51l36.18 11.09c38.76,3.49 30.88,4.17 36.92,-17.13l-3.8 -14.36c-31.28,11.84 -38.26,18.14 -65.97,0.33l-3.33 20.07z"/>
    <polygon class="fil4" points="8229.14,1096.95 8219.73,1078.49 8184.47,1082.59 8205.31,1143.66 "/>
    <path class="fil4" d="M6534.93 955.4l27.04 -7.38c4.48,-12.46 13.96,-17.42 21.53,-57.8 -51.43,24.28 -27.33,7.17 -48.57,65.18z"/>
    <path class="fil4" d="M3997.57 914.47c48.68,-8.48 50.84,-9.8 77.24,-43.32 -40.99,-34.32 50.5,31.19 -21.51,-12.09 -28.84,25.59 -20.91,31.1 -55.73,55.41z"/>
    <path class="fil4" d="M5477.82 966.48c22.94,-22.74 22.43,-31.22 31.44,-67.91l-32.73 10.88c-4.19,33.26 -7.54,39.38 1.29,57.03z"/>
    <polygon class="fil4" points="3012.96,1554.44 2998.26,1538.09 3029.83,1518.33 3011.51,1510.22 2978.34,1501.53 2979.54,1537.18 "/>
    <path class="fil4" d="M1124.38 1128.99c32.87,-14.3 47.74,-27.76 67.97,-63.42l-23.82 3.71c-19.28,33.75 -24.52,12.57 -44.15,59.71z"/>
    <path class="fil4" d="M7129.31 1165.26l-1.82 -32.78c-32.65,14.76 -4.51,-12.83 -28.93,18.91 -1.6,2.09 -11.45,31.27 -12.07,34.06l42.82 -20.19z"/>
    <path class="fil4" d="M380.74 1126.58l40.49 -23.48c-12.84,-41.63 -4.46,-23.44 -19.97,-33.96l-6.16 5.64 -14.36 51.8z"/>
    <path class="fil4" d="M4665.81 767.86c-0.03,-43.28 0.21,-17.43 -16.18,-34.39 -21.44,12.29 -8.53,-15.06 -25.94,26.75 2.19,1.13 5.76,0.24 6.79,2.94l35.33 4.7z"/>
    <path class="fil4" d="M8158.57 872.74c26.31,18.09 29.52,5.59 59.73,-8.57l-32.5 -14.61 -27.23 23.18z"/>
    <path class="fil4" d="M541.5 867.5l14.46 16.44 41.83 -20.6 -37.63 -16.92c-12.95,29.46 4.05,-1.46 -18.66,21.08z"/>
    <path class="fil4" d="M7996.3 1115.8c36.15,-18.69 10.23,-12.82 46.54,-15.66l-6.92 -30.54c-34.67,17.89 -18.28,1.18 -39.62,46.2z"/>
    <path class="fil4" d="M7069.43 1806.4c-16.25,18.09 -31.82,25.7 -0.19,48.93l17.96 -45.33c-20.6,2.97 -9.18,13.73 -17.77,-3.6z"/>
    <path class="fil4" d="M3091.68 1676.6l-6.32 9.75c27.82,7.21 17.82,0.97 28.86,20.16l13.57 -50.21 -36.11 20.3z"/>
    <path class="fil4" d="M6607.51 984c40.66,21.74 10.61,12.49 45.75,14.8 -21.8,-27.61 -17.15,-24.8 -48.26,-34.2l2.51 19.4z"/>
    <path class="fil4" d="M5538.4 767.43l-0.5 -11.67c-30.45,10.48 -13.89,-6.25 -26.42,12.86 -22.05,33.63 3.91,22.67 4.08,22.93l22.84 -24.12z"/>
    <path class="fil4" d="M6609.22 916.32c-7.81,-46.92 25.16,-16.01 -35.42,-31.84 26.93,56.59 -5.71,17.95 35.42,31.84z"/>
    <path class="fil4" d="M1904 1372.7c13.19,21.58 -20.68,10.31 28.05,20.02l13.21 -44.57c-27.44,40.53 -5.14,13 -41.26,24.55z"/>
    <path class="fil4" d="M4017.64 787.54c-9.17,-43.73 11.88,-24.05 -32.66,-32.32 4.83,26.31 -23.37,4.75 7.73,24.48 68.8,43.64 -54.22,-14.69 24.93,7.84z"/>
    <path class="fil4" d="M2048.07 1279.87l16.05 -1.9c2.02,-33.05 7.57,-4.06 -6.61,-22.14 -16.72,17.24 -32.41,-20.93 -9.44,24.04z"/>
    <path class="fil4" d="M3046.15 1357.5c-1.75,14.06 8.16,14.83 14.86,-4.91 15.29,-44.95 -13.99,-2.1 -14.86,4.91z"/>
   </g>
  </g>
 </g>
</svg>
