<?xml version="1.0" encoding="UTF-8"?>
<!DOCTYPE svg PUBLIC "-//W3C//DTD SVG 1.1//EN" "http://www.w3.org/Graphics/SVG/1.1/DTD/svg11.dtd">
<!-- Creator: CorelDRAW 2017 -->
<svg xmlns="http://www.w3.org/2000/svg" xml:space="preserve" width="42.0468mm" height="42.0468mm" version="1.1" style="shape-rendering:geometricPrecision; text-rendering:geometricPrecision; image-rendering:optimizeQuality; fill-rule:evenodd; clip-rule:evenodd"
viewBox="0 0 4204.68 4204.68"
 xmlns:xlink="http://www.w3.org/1999/xlink">
 <defs>
  <style type="text/css">
   <![CDATA[
    .fil1 {fill:#FEFEFE}
    .fil0 {fill:#017DB0}
   ]]>
  </style>
 </defs>
 <g id="Capa_x0020_1">
  <metadata id="CorelCorpID_0Corel-Layer"/>
  <g id="_1999805504800">
   <ellipse class="fil0" cx="2102.35" cy="2102.34" rx="2102.34" ry="2102.35"/>
   <path class="fil1" d="M2030.33 308.82l151.79 -3.57 -1.4 489.78c-57.73,-6.21 -109.41,-6.99 -152.4,0.46l2.01 -486.67z"/>
   <path class="fil1" d="M1560.85 2643.95c483.76,453.31 1090.59,94.82 1136.53,-24.05l-283.55 1.24c-50.9,2.48 -84.74,0.62 -138.59,3.1 -167.93,7.3 -414.54,-0.77 -574.71,7.3 -51.83,2.63 -120.12,-4.04 -139.68,12.41z"/>
   <path class="fil1" d="M2122.68 3403.45c-97.62,-14.44 -72.95,84.11 -74.34,245.04 -1.71,192.28 -28.25,264.91 73.41,248.3 34.3,-51.67 20.17,-170.39 20.79,-247.52 0.78,-82.87 14.59,-201.9 -19.86,-245.82z"/>
   <path class="fil1" d="M2780.73 3517.05c13.5,24.21 113.91,258.54 166.37,149.91 18.78,-38.8 -90.17,-203.45 -113.92,-245.82 -88.3,-157.36 -92.96,-203.45 -170.25,-161.24 -9.62,55.71 24.52,96.53 49.51,138.43 23.59,39.57 46.71,79.61 68.29,118.72z"/>
   <path class="fil1" d="M3548.19 3047.75c-7.29,-35.07 -189.03,-127.87 -226.59,-150.84 -33.52,-20.49 -147.91,-101.96 -185.46,-89.39 -18.94,6.36 -36.01,26.85 -30.73,56.49 4.81,27.16 178.94,118.72 226.28,146.81 34.3,20.33 243.51,166.98 216.5,36.93z"/>
   <path class="fil1" d="M1528.26 3314.21c33.68,-62.07 -25.45,-110.96 -70.77,-64.56l-206.57 348.25c-36.63,70.15 32.9,103.67 70.61,62.39l141.08 -234.81c23.12,-36.47 46.56,-76.35 65.65,-111.27z"/>
   <path class="fil1" d="M1070.57 2788.59c-43.45,-1.86 -402.43,200.19 -412.67,226.73 -11.18,29.17 2.32,55.56 27.62,62.07 34.61,8.54 205.02,-98.39 245.22,-120.42 163.58,-90.32 208.9,-99.94 139.83,-168.38z"/>
   <path class="fil1" d="M1675.08 1425.09c214.02,-26.69 181.58,-41.74 434.41,-45 162.65,-2.02 277.96,18.78 431.61,32.59 -1.55,-187.16 -3.73,-281.83 -100.73,-404.89 -60.84,-77.13 -187.17,-156.9 -338.18,-155.03 -152.72,1.86 -267.25,77.75 -335.54,163.1 -89.09,111.27 -95.76,229.21 -91.57,409.23z"/>
   <path class="fil1" d="M1708.6 1474.75c-13.81,39.58 -63.94,37.56 -171.03,125.71 -109.41,90.01 -203.78,196.78 -284.79,316.74 -108.49,160.78 -265.24,505.3 -278.12,660.02 77.13,13.81 205.17,-3.73 292.09,-0.93 49.04,1.55 96.07,-3.42 145.42,-1.71l1736.07 -30.11c45.32,1.71 91.1,-1.08 134.72,-4.65 -113.77,-394.34 -310.72,-804.97 -771.35,-1066 -2.64,-3.1 -4.66,-7.76 -6.05,-13.34 -295.82,-32.59 -502.08,-32.13 -796.96,14.27z"/>
  </g>
 </g>
</svg>
